<svg enable-background="new 0 0 512.001 512.001" viewBox="0 0 512.001 512.001" xmlns="http://www.w3.org/2000/svg"><path d="m211.152 481.181v-61.778h-21.877c-6 0-10.864 4.954-10.864 11.065v50.713z" fill="#ff4848"/><path d="m211.152 221.997v259.184h90.528v-259.184c-9.738 0-80.929 0-90.528 0z" fill="#70727f"/><path d="m211.152 221.997v104.741c18.28 39.224 50.61 70.576 90.528 87.578v-192.319c-9.738 0-80.929 0-90.528 0z" fill="#9798a0"/><path d="m211.153 221.994h45.263v259.187h-45.263z" fill="#5c5f6d"/><path d="m211.152 326.738c10.704 22.966 26.223 43.232 45.264 59.499v-164.24h-45.264z" fill="#83848c"/><path d="m319.277 19.883c-15.341 0-111.63 0-126.321 0 8.985 6.909 8.989 20.366 0 27.278h126.321c-8.985-6.908-8.988-20.365 0-27.278z" fill="#d2d6ce"/><path d="m312.537 33.523c-42.303 0-72.239 0-112.839 0-.001 5.561-2.649 10.492-6.74 13.639h126.321c-4.093-3.147-6.741-8.078-6.742-13.639z" fill="#b3b5b0"/><path d="m238.017 50.925v148.589h36.798v-148.591c-10.172 10.174-26.644 10.152-36.798.002z" fill="#d2d6ce"/><path d="m238.017 50.925v148.589h18.399v-140.97c-7.125 0-13.647-2.868-18.399-7.619z" fill="#b3b5b0"/><circle cx="256.416" cy="33.522" fill="#61626d" r="26.022"/><path d="m269.427 10.99c-17.252-9.987-39.034 2.469-39.034 22.532 0 20.075 21.787 32.511 39.034 22.532-17.333-10.031-17.331-35.036 0-45.064z" fill="#3f404c"/><path d="m117.866 33.522c0-9.507 7.705-17.214 17.213-17.214h48.404c9.507 0 17.214 7.707 17.214 17.214 0 9.508-7.707 17.214-17.214 17.214h-48.404c-9.507 0-17.213-7.706-17.213-17.214z" fill="#ff4848"/><path d="m394.368 33.522c0-9.507-7.705-17.214-17.213-17.214h-48.404c-9.508 0-17.214 7.707-17.214 17.214 0 9.508 7.706 17.214 17.214 17.214h48.404c9.508 0 17.213-7.706 17.213-17.214z" fill="#ff4848"/><path d="m183.483 33.522h-48.404c-6.367 0-11.915-3.467-14.892-8.607-6.641 11.466 1.666 25.821 14.892 25.821h48.404c13.237 0 21.526-14.36 14.893-25.821-2.979 5.14-8.525 8.607-14.893 8.607z" fill="#d33333"/><path d="m377.155 33.522h-48.404c-6.368 0-11.915-3.467-14.893-8.607-6.64 11.473 1.668 25.821 14.893 25.821h48.404c13.242 0 21.525-14.367 14.892-25.821-2.977 5.14-8.525 8.607-14.892 8.607z" fill="#d33333"/><path d="m354.638 493.636c0 6-4.863 10.864-10.862 10.864h-174.72c-6 0-10.864-4.863-10.864-10.864v-2.715c0-5.999 4.863-10.864 10.864-10.864h174.72c5.998 0 10.862 4.864 10.862 10.864z" fill="#61626d"/><path d="m312.545 212.094v-2.716c0-5.999-4.865-10.863-10.864-10.863h-90.528c-6 0-10.863 4.863-10.863 10.863v2.716c0 5.999 4.862 10.864 10.863 10.864h90.528c5.997 0 10.864-4.865 10.864-10.864z" fill="#61626d"/><path d="m343.777 492.499h-174.72c-4.337 0-8.068-2.547-9.811-6.221-1.238 2.608-1.054 4.446-1.054 7.357 0 6 4.863 10.864 10.864 10.864h174.72c5.998 0 10.862-4.863 10.862-10.864 0-2.911.184-4.75-1.054-7.357-1.74 3.674-5.472 6.221-9.807 6.221z" fill="#3f404c"/><path d="m301.68 210.957h-90.528c-4.336 0-8.069-2.548-9.811-6.222-1.236 2.609-1.053 4.44-1.053 7.358 0 5.999 4.862 10.864 10.863 10.864h90.528c5.998 0 10.864-4.864 10.864-10.864 0-2.922.183-4.748-1.054-7.358-1.74 3.674-5.474 6.222-9.809 6.222z" fill="#3f404c"/><path d="m377.038 8.808c-52.54 0-53.579-1.052-61.197 3.575h-33.547c-13.445-16.501-38.529-16.52-51.988 0h-34.146c-7.617-4.627-8.654-3.575-61.197-3.575-13.627 0-24.714 11.087-24.714 24.715s11.087 24.715 24.714 24.715c52.552 0 53.578 1.051 61.195-3.574h34.149c.032.039.062.08.094.119v136.233h-19.364c-10.126 0-18.363 8.238-18.363 18.363v2.716c0 7.453 4.47 13.87 10.863 16.746v124.178c-51.658 30.862-75.38 57.119-72.25 79.725 2.903 20.969 27.728 30.421 39.509 33.757v6.057h-1.854c-10.127 0-18.364 8.238-18.364 18.364v2.715c0 10.127 8.238 18.364 18.364 18.364h174.72c10.125 0 18.362-8.238 18.362-18.364v-2.715c0-10.127-8.238-18.364-18.362-18.364h-34.596v-49.38c0-4.143-3.357-7.5-7.5-7.5s-7.5 3.357-7.5 7.5v49.379h-30.266v-134.941c10.928-5.499 21.021-10.807 30.264-15.913v77.807c0 4.143 3.357 7.5 7.5 7.5s7.5-3.357 7.5-7.5v-86.358c24.16-14.243 65.404-40.064 59.659-63.167-4.712-18.96-36.204-22.583-55.858-23.448 4.29-3.364 7.062-8.582 7.062-14.445v-2.716c0-10.126-8.238-18.363-18.364-18.363h-19.363v-84.856c0-4.143-3.357-7.5-7.5-7.5s-7.5 3.357-7.5 7.5v84.857h-21.797v-125.772c6.859 2.349 14.676 2.439 21.797 0v15.579c0 4.143 3.357 7.5 7.5 7.5s7.5-3.357 7.5-7.5v-26.04c.032-.039.062-.08.093-.119h33.55c7.616 4.625 8.653 3.574 61.196 3.574 13.627 0 24.714-11.087 24.714-24.715s-11.088-24.713-24.715-24.713zm-158.502 221.65h30.263v97.895c-10.849 5.466-20.931 10.802-30.263 16.011zm-72.392 200.228c-1.052-7.599 3.879-26.622 57.391-60.051v41.268h-14.377c-10.127 0-18.364 8.238-18.364 18.364v20.553c-10.076-3.428-23.261-10.102-24.65-20.134zm39.65-.419c0-1.854 1.509-3.363 3.363-3.363h14.377v45.653h-17.74c0-10.042 0-32.224 0-42.29zm157.866 57.291c1.854 0 3.361 1.509 3.361 3.363v2.715c0 1.854-1.508 3.363-3.361 3.363h-174.72c-1.854 0-3.363-1.509-3.363-3.363v-2.715c0-1.854 1.509-3.363 3.363-3.363zm-125.124-15.001v-53.153-57.764c8.962-5.176 19.005-10.656 30.263-16.449v127.366zm45.263-151.766v-90.333h30.264v74.054c-8.763 4.985-18.796 10.402-30.264 16.279zm90.366-67.188c.628 2.526.177 14.237-45.102 42.057v-54.31c21.279.461 43.332 5.133 45.102 12.253zm-52.602-47.589c1.854 0 3.363 1.509 3.363 3.362v2.716c0 1.854-1.509 3.363-3.363 3.363h-45.265-45.264c-1.854 0-3.362-1.509-3.362-3.363v-2.716c0-1.854 1.509-3.362 3.362-3.362zm-26.827-174.169c1.092 12.092-9.648 22.298-22.199 19.812-12.151-2.517-18.479-16.153-12.465-27.051 9.104-16.503 33.091-10.189 34.664 7.239zm-139.775 11.391c-5.355 0-9.713-4.357-9.713-9.714s4.356-9.714 9.713-9.714h48.404c3.797 0 7.213 2.245 8.795 5.617 3.025 6.45-1.779 13.81-8.795 13.81h-48.404zm88.38-3.574h-16.025c1.061-4.172.958-8.514 0-12.277h16.024c-.031.169-.054.339-.082.509-.651 3.827-.651 7.838.083 11.768zm65.915 0c.013-.07 1.236-5.637.001-12.277h15.426c-.977 3.838-1.035 8.208 0 12.277zm87.782 3.574c-52.956 0-50.775.674-54.306-2.02-1.289-.992-2.257-2.232-2.897-3.603-3.025-6.455 1.8-13.804 8.798-13.804h48.404c5.355 0 9.713 4.357 9.713 9.714 0 5.356-4.357 9.713-9.712 9.713z"/></svg>