<svg enable-background="new 0 0 512 512" viewBox="0 0 512 512" xmlns="http://www.w3.org/2000/svg"><path d="m391.24 381.332v75.625h-39.299-39.3v-75.625z" fill="#f95428"/><path d="m312.636 255.404h78.6v80.452h-78.6z" fill="#f95428"/><path d="m312.636 55.042h78.6v60.342h-78.6z" fill="#f95428"/><path d="m313.119 381.332h25.448v75.624h-25.448z" fill="#e54728"/><path d="m313.119 176.142h25.448v159.715h-25.448z" fill="#e54728"/><path d="m338.571 55.042v75.625h-25.449v-75.625h12.725z" fill="#e54728"/><path d="m443.038 135.82v99.148c0 11.285-9.151 20.436-20.447 20.436h-31.35-78.6-35.684-30.643c-11.285 0-20.436-9.151-20.436-20.436v-58.826-40.322c0-1.774.225-3.503.651-5.154 2.291-8.792 10.274-15.282 19.785-15.282h30.643 35.684 78.6 31.35c11.295 0 20.447 9.152 20.447 20.436zm-28.072 91.513v-83.877h-161.017v83.877z" fill="#4d4d4d"/><path d="m253.945 143.456h161.017v83.877h-161.017z" fill="#e6e6e6"/><path d="m406.354 335.857v45.475h-15.114-78.599-35.685-78.599-35.685-78.599-15.103v-45.475h15.103 78.599 35.685 78.599 35.685 78.599z" fill="#808080"/><path d="m99.552 335.857v45.475h-1.37-7.124-3.235-7.125-3.235-7.124-1.369v-45.475h1.369 7.124 3.235 7.125 3.235 7.124z" fill="#666"/><path d="m276.956 381.332v75.625h-39.299-39.3v-75.625z" fill="#f95428"/><path d="m276.956 255.404v80.452h-78.6v-159.714h27.521v58.826c0 11.285 9.151 20.436 20.436 20.436z" fill="#f95428"/><path d="m276.956 55.042v60.342h-30.643c-9.511 0-17.494 6.49-19.785 15.282h-.011-28.161v-75.624h39.3z" fill="#f95428"/><path d="m312.641 260.446v28.071h78.6v-28.071zm-58.692-5.042h-7.635c-11.285 0-20.436-9.151-20.436-20.436v33.113c0 11.285 9.151 20.436 20.436 20.436h30.643v-28.071h-23.007z" fill="#e54728"/><path d="m226.518 130.667h.011c-.427 1.651-.651 3.38-.651 5.154v40.322h-.011-27.51-35.684-78.6-15.114v-45.476h15.114 78.6 35.684z" fill="#808080"/><path d="m84.073 381.332h78.6v75.624h-78.6z" fill="#f95428"/><path d="m99.552 130.667v45.475h-1.37-7.124-3.235-7.125-3.235-7.124-1.369v-45.475h1.369 7.124 3.235 7.125 3.235 7.124z" fill="#666"/><path d="m84.073 176.142h78.6v159.715h-78.6z" fill="#f95428"/><path d="m162.672 55.042v75.625h-78.599v-75.625h39.299z" fill="#f95428"/><g fill="#e54728"><path d="m84.073 381.332h25.448v75.624h-25.448z"/><path d="m84.073 176.142h25.448v159.715h-25.448z"/><path d="m84.073 176.142h78.6v22.524h-78.6z"/><path d="m84.073 381.332h78.6v22.524h-78.6z"/><path d="m198.352 381.332h78.6v22.524h-78.6z"/><path d="m312.636 381.332h78.6v22.524h-78.6z"/><path d="m109.52 55.042v75.625h-25.447v-75.625h12.724z"/><path d="m199.396 381.332h25.448v75.624h-25.448z"/><path d="m199.396 176.142h25.448v159.715h-25.448z"/><path d="m224.841 55.042v75.625h-25.448v-75.625h12.724z"/></g><path d="m422.595 106.96h-22.931v-51.918c0-4.651-3.769-8.421-8.421-8.421h-78.6c-4.652 0-8.421 3.771-8.421 8.421v51.917h-18.84v-51.917c0-4.651-3.769-8.421-8.421-8.421h-30.878v-19.196c-.002-15.122-12.304-27.425-27.426-27.425h-76.279c-15.123 0-27.425 12.303-27.425 27.425v19.196h-30.878c-4.652 0-8.421 3.771-8.421 8.421v67.203h-6.692c-4.652 0-8.421 3.771-8.421 8.421v45.476c0 4.651 3.769 8.421 8.421 8.421h6.692v142.871h-6.688c-4.652 0-8.421 3.771-8.421 8.421v45.473c0 4.651 3.769 8.421 8.421 8.421h6.688v67.206c0 4.651 3.769 8.421 8.421 8.421h78.6c4.652 0 8.421-3.771 8.421-8.421v-67.205h18.841v67.206c0 4.651 3.769 8.421 8.421 8.421h30.876v19.199c0 15.121 12.302 27.423 27.425 27.423h76.279c15.123 0 27.425-12.302 27.425-27.423v-19.199h30.88c4.652 0 8.421-3.771 8.421-8.421v-67.206h6.689c4.652 0 8.421-3.771 8.421-8.421v-45.473c0-4.651-3.769-8.421-8.421-8.421h-6.689v-63.605h22.931c15.916 0 28.865-12.949 28.865-28.865v-99.141c0-15.916-12.949-28.864-28.865-28.864zm-101.531-43.496h61.757v43.496h-61.757zm-52.526 43.496h-22.221c-11.01 0-20.597 6.198-25.463 15.285h-14.073v-58.781h61.757zm129.394 237.317v28.631h-320.545v-28.631zm-320.548-176.556v-28.633h140.068v28.633zm112.555 16.842v142.871h-18.841v-142.871zm95.442 142.871v-63.604h18.84v63.604zm-16.843 0h-61.757v-142.871h10.67v50.403c0 15.916 12.949 28.865 28.865 28.865h22.221v63.603zm-136.742-300.009c0-5.834 4.747-10.582 10.582-10.582h76.279c5.834 0 10.582 4.747 10.582 10.582v19.196h-30.879c-4.652 0-8.421 3.771-8.421 8.421v67.203h-18.841v-67.203c0-4.651-3.769-8.421-8.421-8.421h-30.878v-19.196zm-39.3 36.039h61.757v58.781h-61.757zm0 121.099h61.757v142.871h-61.757zm61.757 263.972h-61.757v-58.785h61.757zm52.528-58.785h61.757v58.785h-61.757zm136.739 94.827c0 5.834-4.747 10.581-10.582 10.581h-76.278c-5.834 0-10.582-4.747-10.582-10.581v-19.199h30.881c4.652 0 8.421-3.771 8.421-8.421v-67.207h18.84v67.206c0 4.651 3.769 8.421 8.421 8.421h30.877v19.199h.002zm39.301-36.042h-61.757v-58.785h61.757zm0-121.101h-61.757v-63.604h61.757zm51.796-92.468c0 6.629-5.393 12.022-12.022 12.022h-176.278c-6.629 0-12.022-5.393-12.022-12.022v-99.141c0-6.629 5.393-12.022 12.022-12.022h176.278c6.629 0 12.022 5.393 12.022 12.022z" fill="#333"/><path d="m414.967 135.03h-161.022c-4.652 0-8.421 3.771-8.421 8.421v83.886c0 4.651 3.769 8.421 8.421 8.421h161.023c4.652 0 8.421-3.771 8.421-8.421v-83.886c0-4.651-3.77-8.421-8.422-8.421zm-8.421 83.886h-144.18v-67.043h144.18z" fill="#333"/><path d="m359.721 206.8h27.348c4.652 0 8.421-3.771 8.421-8.421 0-4.651-3.769-8.421-8.421-8.421h-27.348c-4.652 0-8.421 3.771-8.421 8.421-.001 4.651 3.769 8.421 8.421 8.421z" fill="#333"/></svg>