<svg height="16" viewBox="0 0 16 16" width="16" xmlns="http://www.w3.org/2000/svg"><g fill="#444"><path d="m10 2c0 1.105-.895 2-2 2s-2-.895-2-2 .895-2 2-2 2 .895 2 2z"/><path d="m6 16h1.5v-5h1v5h1.5v-9c0-.016-.001-.034-.001-.052 0-.521.194-.997.513-1.36l3.278-3.318c.216-.129.358-.362.358-.628 0-.403-.327-.73-.73-.73-.266 0-.499.142-.626.355l-2.362 2.383c-.212.216-.508.35-.835.35-.002 0-.004 0-.006 0h-3.18c-.002 0-.004 0-.005 0-.327 0-.622-.134-.834-.35l-2.32-2.39c-.129-.216-.362-.358-.628-.358-.403 0-.73.327-.73.73 0 .266.142.499.355.626l3.243 3.332c.317.361.511.836.511 1.358 0 .018 0 .037-.001.055z"/></g></svg>