<svg height="64" preserveAspectRatio="none" viewBox="0 0 64 64" width="64" xmlns="http://www.w3.org/2000/svg" xmlns:xlink="http://www.w3.org/1999/xlink"><linearGradient id="a"><stop offset="0" stop-color="#939393"/><stop offset=".836364"/><stop offset="1" stop-color="#343434"/></linearGradient><linearGradient id="b" gradientUnits="userSpaceOnUse" x1="11.374023" x2="41.200806" xlink:href="#a" y1="22.614746" y2="52.441528"/><linearGradient id="c" gradientUnits="userSpaceOnUse" x1="33.00293" x2="40.392826" xlink:href="#a" y1="18.432129" y2="23.517296"/><g transform="matrix(.38170112 0 0 .38170976 24.124547 -.04901)"><circle cx="25.755859" cy="36.99707" fill="url(#b)" r="22.089844"/><path d="m25.756836 59.571289c-12.448242 0-22.5751954-10.126953-22.5751954-22.574219 0-12.447265 10.1269534-22.575195 22.5751954-22.575195 12.447265 0 22.573242 10.12793 22.573242 22.575195 0 12.447266-10.125976 22.574219-22.573242 22.574219zm0-44.179687c-11.913086 0-21.6054689 9.692382-21.6054689 21.605468s9.6923829 21.605469 21.6054689 21.605469c11.912109 0 21.604492-9.692383 21.604492-21.605469s-9.692383-21.605468-21.604492-21.605468z"/><ellipse cx="16.804688" cy="26.65625" fill="#fff" rx="4.708754" ry="5.493201" transform="matrix(.7078323 .7063805 -.7063805 .7078323 23.739243 -4.082409)"/><path d="m19.796875 54.319336c-1.431641 3.386719 10.648437 4.529297 18.117187-1.19336 10.181641-7.798828 8.34375-21.690429 4.767579-19.783203-5.234375 2.791016-5.720704 10.091797-11.838868 15.652344-5.25 4.771485-10.171875 3.259766-11.045898 5.324219z" fill="#fff" opacity=".1"/><g enable-background="new"><path d="m31.443359 21.089844c-.125976-.433594-.09473-.804688.08008-1.090821l3.13086-5.15332c-.173828.286133-.205078.65625-.08008 1.090821.203125.740234.826172 1.572265 1.751953 2.348632.146484.124024.298828.243164.453125.356446-1.042969 1.717773-2.087891 3.435546-3.132813 5.15332-.154297-.114258-.304687-.232422-.453125-.356445-.923828-.776368-1.545898-1.608399-1.75-2.348633z" fill="#bfbfbf"/><path d="m39.056641 25.339844c-1.199219.508789-3.529297-.15918-5.410157-1.544922 1.044922-1.717773 2.089844-3.435547 3.132813-5.15332 1.880859 1.386718 4.210937 2.05371 5.410156 1.544921.269531-.113281.460938-.276367.583984-.476562l-3.132812 5.152344c-.121094.201172-.314453.364257-.583984.477539z" fill="#bfbfbf"/><path d="m41.236328 16.275391c1.910156 1.599609 2.398438 3.355468 1.078125 3.911132-1.199219.50879-3.529297-.158203-5.410156-1.544921-.154297-.113282-.306641-.232422-.453125-.356446-.925781-.776367-1.548828-1.608398-1.751953-2.348633-.212891-.743164.0293-1.300781.666015-1.567382 1.205078-.503907 3.527344.154297 5.410157 1.541015.160156.117188.3125.240235.460937.365235z"/><path d="m42.972656 20.84375c-1.46289.617187-4.308594-.199219-6.613281-1.897461-.1875-.137695-.373047-.286133-.5625-.441406-1.140625-.955078-1.904297-1.977539-2.15625-2.883789-.150391-.527344-.111328-.976563.09961-1.325196l-3.131836 5.153321c-.210937.348632-.249023.797851-.100585 1.325195.252929.90625 1.018554 1.928711 2.15625 2.884766.189453.155273.376953.302734.564453.440429 2.304687 1.699219 5.148437 2.514649 6.611328 1.897461.328125-.137695.564453-.335937.71289-.581055l3.132813-5.15332c-.148438.245117-.386719.44336-.712891.581055z" fill="url(#c)"/><path d="m38.664062 26.6875c-1.691406 0-3.884765-.842773-5.723632-2.198242-.19336-.141602-.387696-.294922-.583985-.455078-1.216797-1.022461-2.038086-2.132813-2.315429-3.129883-.182618-.648438-.13086-1.239258.152343-1.706055l3.131836-5.15332.000977-.000977.829102.50293c-.143555.236328-.15918.552734-.04883.941406.22754.81543.9375 1.753907 2.001954 2.645508.17871.146484.357421.289063.538085.421875 1.655274 1.220703 3.676758 2.008789 5.150391 2.008789.392578 0 .724609-.05664.987305-.167969.224609-.09473.387695-.223632.485351-.382812l.002-.0029.829102.50293-.0752-.04492.07422.0459-.381836-.228515.379883.231445-3.130859 5.150391c-.206055.339843-.522461.601562-.939453.776367-.381836.161133-.840821.243164-1.363282.243164zm-5.404296-10.667969-2.237305 3.681641c-.141602.234375-.158203.550781-.04785.941406.226563.8125.936524 1.750977 2.000977 2.645508.178711.145508.359375.288086.540039.420898 1.655273 1.220704 3.675781 2.00879 5.148437 2.00879.392579 0 .72461-.05664.987305-.166993.225586-.09473.388672-.224609.486328-.385742l2.229493-3.666992c-1.716797.226562-4.240235-.647461-6.294922-2.162109-.194336-.141602-.386719-.294922-.583008-.456055-1.108399-.928711-1.888672-1.932617-2.229492-2.860352z"/><path d="m41.632812 16.049805c2.355469 1.966797 2.953125 4.117187 1.339844 4.793945-1.46289.617187-4.308594-.199219-6.613281-1.897461-.1875-.137695-.373047-.286133-.5625-.441406-1.140625-.955078-1.904297-1.977539-2.15625-2.883789-.255859-.905274.03906-1.580078.816406-1.90918 1.466797-.617187 4.304688.193359 6.605469 1.889648.195312.143555.384766.291993.570312.448243zm.556641 4.136718c1.320313-.555664.832031-2.311523-1.078125-3.911132-.148437-.125-.300781-.248047-.460937-.365235-1.882813-1.386719-4.205079-2.044922-5.410157-1.541015-.636718.266601-.878906.824218-.666015 1.567382.203125.740235.826172 1.572266 1.751953 2.348633.146484.124024.298828.243164.453125.356445 1.880859 1.386719 4.210937 2.053711 5.410156 1.544922"/><path d="m41.796875 21.533203c-1.692383 0-3.885742-.841797-5.724609-2.197266-.194336-.141601-.386719-.294921-.583008-.456054-1.216797-1.018555-2.038086-2.128907-2.31543-3.128906-.319336-1.129883.08887-2.060547 1.09375-2.485352 1.632813-.685547 4.683594.177734 7.082031 1.945312.204102.149415.401368.305665.595703.46875 1.679688 1.402344 2.576172 2.958985 2.395508 4.161133-.09863.657227-.518554 1.171875-1.180664 1.449219-.381836.162109-.84082.243164-1.363281.243164zm1.592773-2.108398c-.07129.392578-.27539.723632-.59082.96582.344727-.148438.535156-.375977.583008-.693359.0127-.08105.01465-.171875.0078-.272461zm-7.176757-4.739258c-.313477 0-.577149.04395-.785157.130859-.256836.107422-.576172.327149-.387695.986328.177734.647461.744141 1.395508 1.597656 2.111328.139649.117188.283203.230469.429688.337891 1.334961.984375 2.964844 1.620117 4.152344 1.620117.311523 0 .574218-.04492.780273-.131836.34668-.146484.416016-.359375.438477-.507812.0752-.49707-.309571-1.472656-1.638672-2.585938-.140625-.118164-.28418-.234375-.435547-.344726-1.333008-.982422-2.961914-1.616211-4.151367-1.616211zm-1.588868-.517578c-.427734.188476-.621093.503906-.584961.959961.06738-.387696.266602-.716797.584961-.959961z"/></g><path d="m6.5761719 26.826172s-6.9921875 11.856445 2.4628906 24.075195c4.3710935 5.642578 13.2705075 7.710938 15.2568355 7.947266 0 0-26.7783199-8.263672-17.7197261-32.022461z" fill="#fff" opacity=".38"/><path d="m40.206055 17.255859-2.686524-1.115234c.05078-.120117 1.246094-2.978516 2.935547-4.860352 1.13086-1.258789 2.879883-1.9384762 4.825195-1.8828121 2.035157.06543 3.963868.9482421 5.033204 2.3046871l-2.283204 1.800782c-.536132-.679688-1.67871-1.161133-2.84375-1.198242-1.060546-.0293-2.011718.299804-2.567382.918945-1.353516 1.506836-2.402344 4.006836-2.413086 4.032226z" fill="#3f2d00"/><path d="m51.599609 8.4130859 8.861329-3.2216796-6.083985 5.9960937 6.441406 5.636719-6.441406-1.967774 3.488281 10.38086-7.607422-7.338867-3.130859 1.164062.625-5.101562-3.669922-2.863282 3.044922-.71582-1.166015-6.8017579 3.3125 3.9375 4.115234-5.6367187z" fill="#ff781d"/><path d="m50.996094 7.9140625 7.865234-2.8603516-5.402344 5.3242191 5.720704 5.005859-5.720704-1.748047 3.097657 9.217774-6.753907-6.516602-2.78125 1.033203.556641-4.529297-3.257813-2.542968 2.701172-.6357426-1.03125-6.0390625 2.939454 3.4970703 3.654296-5.0058594z" fill="#fcc61a"/><path d="m49.246094 11.251953 4.529297-2.5429686-3.732422 2.8603516 2.302734 1.509766-1.429687.318359 2.542968 3.893555-4.767578-3.098633-.716797 1.827148.398438-3.257812-1.908203-1.828125 1.988281.080078-.636719-3.6552736z" fill="#fff"/><path d="m49.644531 7.5175781 1.351563-1.5898437-1.351563 3.3378906z" fill="#fff"/><path d="m53.855469 12.205078-1.667969.080078-.794922-.954101z" fill="#fff"/><g fill="#fcc61a"><path d="m45.224609 5.8564453.636719 2.65625-3.146484-5.1474609z"/><path d="m53.679688 22.773438 2.498046 7.091796-4.166015-7.905273z"/><path d="m42.648438 6.0039063-3.003907-.7548829-3.423828-2.65625 3.689453 1.2587891z"/><path d="m53.691406 4.4716797-.609375 2.6357422 3.267578-4.5195313z"/><path d="m53.544922 28.981445.03125 3.392578 1.070312 4.136719.388672-3.318359z"/></g></g></svg>