<svg height="64" preserveAspectRatio="none" viewBox="0 0 64 64" width="64" xmlns="http://www.w3.org/2000/svg"><path d="m32.0927734 12.9814453-3.2753906-4.1904297-.6445312 6.2851563" fill="#2b2b2b"/><path d="m28.6704102 15.1269531-.9951172-.1015625.7714843-7.5205078 4.0400391 5.168457-.7880859.616211-2.5107422-3.2124024z"/><path d="m29.325195 54.09668h15.685547v1.984375h-15.685547z" fill="#2b2b2b"/><path d="m45.5107422 56.5810547h-16.6855469v-2.984375h16.6855469zm-15.6855469-1h14.6855469v-.984375h-14.6855469z"/><path d="m41.3544922 46.7841797c-.1630859-.8232422.6787109-1.5644531.6787109-2.4667969-1.8925781 0-7.8203125 0-9.7294922 0 0 .9023438.8398438 1.6435547.6757813 2.4667969-.4072266 2.0673828-2.7714844 3.28125-2.7714844 5.5507813h13.9199219c0-2.2695313-2.3652344-3.4833985-2.7734375-5.5507813z" fill="#2b2b2b"/><path d="m44.6279297 52.8349609h-14.9199219v-.5c0-1.4150391.7749023-2.4248047 1.5244141-3.4013672.5634766-.734375 1.0952148-1.4277344 1.2563477-2.2460938.0551758-.2763672-.097168-.5976563-.2744141-.9707031-.1923828-.4052734-.4106445-.8642578-.4106445-1.3994141v-.5h10.7294922v.5c0 .5351563-.21875.9951172-.4121094 1.4013672-.1777344.3720703-.3310547.6933594-.2763672.96875.1621094.8183594.6943359 1.5117188 1.2578125 2.2451172.75.9775391 1.5253906 1.9873047 1.5253906 3.4023438zm-13.8730469-1h12.8261719c-.1591797-.8447266-.7021484-1.5517578-1.2714844-2.2929688-.609375-.7929688-1.2382813-1.6132813-1.4453125-2.6611328-.1191406-.5996094.1318359-1.1269531.3535156-1.5927734.0771484-.1611328.1513672-.3173828.2089844-.4707031h-8.5170898c.0571289.1533203.1313477.3095703.2084961.4707031.2207031.4658203.4716797.9931641.3515625 1.59375-.2060547 1.046875-.8354492 1.8671875-1.4438477 2.6601563-.5688476.7412109-1.1113281 1.4492187-1.2709961 2.2929687z"/><path d="m37.1679688 50.6972656h4.4619141s-2.7910156-2.9814453-1.234375-5.0761719h-3.2275391c0 .0000001 1.8242187 2.6582032 0 5.0761719z"/><path d="m44.4189453 27.2104492c.8515625-5.5947266-.5175781-10.8779297-2.7675781-13.8066406-.7304688-2.4570313-2.7080078-5.347168-5.3398438-4.612793-3.4648438.9667969-9.3476563 2.1352539-9.3476563 2.1352539l.2553711 2.8808594c-1.190918.8886719-1.6958008 1.7094727-2.027832 2.800293-1.128418 3.706543-4.2719727 6.0444336-5.640625 7.4936523-1.3701172 1.4506836.0004883 3.9492188 1.6118164 4.8349609 0 0 1.2397461 1.9355469 2.0141602 1.7724609 2.3764648-.5009766 2.4804688-1.5009766 4.4321289-2.578125 2.5976563-1.4326172 5.6704102-2.6586914 4.7543945-5.8754883.0546875-.0327148.1699219-.1030273.402832-.2485352 1.6918945 1.1279297-.0996094 6.8583984-2.5581055 9.75-4.4526367 5.2368164-1.5517578 9.6694336 1.9936523 10.4750977h9.9116211l2.0146484-1.9609375c.0000002.0000001-1.0820311-4.0351561.2910158-13.0600585z" fill="#2b2b2b"/><path d="m42.3164063 42.7314453-10.225586-.0126953c-2.0415039-.4638672-3.7094727-1.9521484-4.3530273-3.8847656-.7626953-2.2910156-.0205078-4.9199219 2.0893555-7.4013672 1.5805664-1.859375 2.8959961-5 3.081543-7.1279297-.5053711 1.8291016-2.4775391 2.8813477-4.2714844 3.8388672-.2641602.1411133-.527832.2817383-.7866211.4248047-.6987305.3852539-1.1416016.7568359-1.5703125 1.1157227-.722168.6054688-1.4038086 1.1772461-3.0004883 1.5136719l-.1992188.0205078c-.9111328 0-1.8994141-1.347168-2.2709961-1.9082031-1.1538086-.6835938-2.0834961-2.0068359-2.2802734-3.2617188-.140625-.894043.0869141-1.6860352.6582031-2.2905273.2714844-.2875977.6113281-.6098633.9916992-.9702148 1.5463867-1.4628906 3.6635742-3.4667969 4.5336914-6.3256836.3686523-1.2099609.9511719-2.0625 1.9838867-2.8837891l-.2705078-3.0546875.4404297-.0874023c.0585938-.0117188 5.9038086-1.1762695 9.3100586-2.1264648.3203125-.0893555.6445313-.1347656.9628906-.1347656 2.375 0 4.1953125 2.4956055 4.9638672 4.9980469 2.5078125 3.3242188 3.6103516 8.8500977 2.8095703 14.112793-1.3359375 8.7807617-.3125 12.8168945-.3017578 12.855957l.0742188.2822266zm-10.057129-1h9.6508789l1.6679688-1.6240234c-.2207031-1.0869141-.8378906-5.1855469.3466797-12.972168.7675781-5.0458984-.2802734-10.315918-2.6699219-13.4267578l-.0830078-.1621094c-.7021484-2.3608398-2.5742188-4.8745117-4.7255859-4.2739258-2.8935547.8076172-7.5097656 1.7636719-8.9448242 2.0556641l.2402344 2.7128906-.2236328.1669922c-1.1567383.8632813-1.5649414 1.6137695-1.8481445 2.5449219-.9477539 3.1123047-3.2675781 5.3081055-4.8032227 6.7612305-.3647461.3452148-.6918945.6542969-.9526367.9301758-.3554688.3764648-.4887695.8637695-.3969727 1.4487305.1557617.9941406.9492188 2.0898438 1.8862305 2.6049805l.1113281.0610352.0688477.1069336c.512207.7978516 1.2397461 1.5522461 1.4970703 1.5522461 1.3447266-.2841797 1.8798828-.7324219 2.5576172-1.300293.4433594-.371582.9458008-.7929688 1.7290039-1.2255859.2631836-.1450195.5307617-.2875977.7993164-.4306641 2.7558594-1.4711914 4.3813477-2.5332031 3.7158203-4.8701172l-.1049805-.3686523.9975586-.6118164.269043.1791992c.4570313.3051758.7412109.8305664.84375 1.5610352.3173828 2.269043-1.2548828 6.5249023-3.2988281 8.9287109-1.8745117 2.2050781-2.550293 4.4912109-1.9023438 6.4375.5283203 1.5869139 1.8940429 2.8134764 3.5727538 3.213867z"/><path d="m40.1796875 13.1425781s-2.1826172-1.6918945-11.8085938 0c.0000001 0 9.3115235-5.3178711 11.8085938 0z"/><path d="m29.3251953 14.0288086 2.6748047-5.3540039 1.6523438 4.4677734" fill="#2b2b2b"/><path d="m29.7724609 14.2524414-.8945312-.4472656 3.1904297-6.3862305 2.0527344 5.550293-.9375.3466797-1.2519532-3.3852539z"/><path d="m37.1679688 39.5722656h3.4140625l1.6923828-1.53125s-1.7724609-5.3168945 0-10.6357422l-2.5537109 1.2084961c-.0000001 0-3.9521485 7.5737305-2.5527344 10.9584961z"/><path d="m20.6787109 26.6967773s2.9008789-.2587891 2.6591797.3857422-2.336914 1.3232422-2.6591797-.3857422z"/><path d="m27.2060547 19.8305664.6445313-1.4506836h2.2822266c-.0000001 0-1.7177735 2.2563477-2.9267579 1.4506836z"/><path d="m27.6923828 19.9472656-.9726562-.2333984.5756836-2.3979492h3.2949218v1h-2.5068359z"/></svg>