<svg height="64" preserveAspectRatio="none" viewBox="0 0 64 64" width="64" xmlns="http://www.w3.org/2000/svg" xmlns:xlink="http://www.w3.org/1999/xlink"><linearGradient id="a"><stop offset="0" stop-color="#b08a71"/><stop offset="1" stop-color="#b0685a"/></linearGradient><radialGradient id="b" cx="42.764851" cy="48.307575" gradientUnits="userSpaceOnUse" r="9.995946" xlink:href="#a"/><radialGradient id="c" cx="21.235149" cy="48.307575" gradientUnits="userSpaceOnUse" r="9.995946" xlink:href="#a"/><radialGradient id="d" cx="32" cy="48.053696" gradientTransform="matrix(.5132766 0 0 1 15.57515 0)" gradientUnits="userSpaceOnUse" r="11.935622"><stop offset="0" stop-color="#9d7262"/><stop offset="1" stop-color="#825748"/></radialGradient><radialGradient id="e" cx="32.000019" cy="39.777897" gradientUnits="userSpaceOnUse" r="22.627541"><stop offset="0" stop-color="#ffcdb7"/><stop offset="1" stop-color="#f7a99c"/></radialGradient><radialGradient id="f" cx="32.000015" cy="18.108145" gradientTransform="matrix(1 0 0 .892992 0 1.937716)" gradientUnits="userSpaceOnUse" r="32.039154"><stop offset=".4292035" stop-color="#ffcdb7"/><stop offset="1" stop-color="#f7a99c"/></radialGradient><radialGradient id="g" cx="32.064133" cy="23.314133" gradientTransform="matrix(2.3257754 0 0 1.7671785 -42.509842 -14.066062)" gradientUnits="userSpaceOnUse" r="11.314134"><stop offset="0" stop-color="#fff" stop-opacity=".3"/><stop offset="1" stop-color="#fff" stop-opacity="0"/></radialGradient><path d="m32 44.4818726v9.7413368c0 1.6235542 1.6235542 3.2471123 3.2471123 3.2471123 1.6235542 0 14.6120033-3.2471123 17.8591156-11.3648949s-12.9884491-9.7413368-21.1062279-1.6235542z" fill="url(#b)"/><path d="m35.2470703 57.7207031c-1.7646484 0-3.4970703-1.7324219-3.4970703-3.4970703v-9.8457031l.0732422-.0732422c3.9892578-3.9882813 9.6240234-5.4101563 13.5673828-5.4101563 3.5820313 0 6.4589844 1.0908203 7.6953125 2.9160156.8251953 1.2197266.9130859 2.7363281.2529297 4.3876953-3.28125 8.2021485-16.1699219 11.522461-18.0917969 11.522461zm-2.9970703-13.1347656v9.6376953c0 1.484375 1.5126953 2.9970703 2.9970703 2.9970703 1.8007813 0 14.4931641-3.3720703 17.6269531-11.2080078.6044922-1.5107422.5371094-2.8300781-.2021484-3.921875-1.1425781-1.6884766-3.8652344-2.6962891-7.28125-2.6962891-3.8193359.0000001-9.2636719 1.366211-13.140625 5.1914063z" fill="#796a56"/><path d="m32 44.4818726v9.7413368c0 1.6235542-1.6235561 3.2471123-3.2471123 3.2471123s-14.6120052-3.2471123-17.8591175-11.3648949 12.9884491-9.7413368 21.1062298-1.6235542z" fill="url(#c)"/><path d="m28.7529297 57.7207031c-1.921875 0-14.8105469-3.3203125-18.0913086-11.5224609-.6606445-1.6503906-.5732422-3.1679688.2524414-4.3876953 1.2363281-1.8251953 4.1132813-2.9160156 7.6958008-2.9160156 3.9433594 0 9.578125 1.421875 13.5668945 5.4101563l.0732422.0732421v9.8457031c0 1.7646485-1.7324219 3.4970703-3.4970703 3.4970703zm-10.1430664-18.3261718c-3.4165039 0-6.1386719 1.0078125-7.2817383 2.6962891-.7387695 1.0917969-.8066406 2.4111328-.2026367 3.921875 3.1347656 7.8359375 15.8266602 11.2080078 17.6274414 11.2080078 1.484375 0 2.9970703-1.5126953 2.9970703-2.9970703v-9.6376953c-3.8764648-3.8251954-9.3212891-5.1914063-13.1401367-5.1914063z" fill="#796a56"/><path d="m38.25 44.4818726c0-4.4833298-3.4885674-8.1177826-6.25-8.1177826s-6.25 3.6344528-6.25 8.1177826c0 3.8079834 1.5713291 5.3917389 3.75 6.2681274.3696289 3.342083 1.666666 8.3438759 1.666666 8.3438759 0 .3586426.3730888.6494217.833334.6494217.460247 0 .8333321-.2907791.8333321-.6494217 0 0 1.297039-5.0017929 1.6666679-8.3438759 2.178669-.8763885 3.75-2.460144 3.75-6.2681274z" fill="url(#d)"/><path d="m32 59.9931641c-.5834961 0-1.0605469-.3847656-1.0825195-.8642578-.1035156-.4033203-1.2763672-5.015625-1.6494141-8.2041016-2.6040039-1.0986328-3.7680664-3.0927734-3.7680664-6.4433594 0-4.6347656 3.5556641-8.3671875 6.5-8.3671875s6.5 3.7324219 6.5 8.3671875c0 3.3505859-1.1640625 5.3447266-3.7685547 6.4433594-.3720703 3.1884766-1.5449219 7.8007813-1.6484375 8.2041016-.0224609.4794921-.4995117.8642578-1.0830078.8642578zm0-23.3789063c-2.7006836 0-6 3.6298828-6 7.8671875 0 4.0458984 1.8164063 5.3222656 3.5932617 6.0361328l.1386719.0566406.0166016.1484375c.3632813 3.2851563 1.6469727 8.2587891 1.6601563 8.3085938l.0078125.0625c0 .2167969.2670898.3994141.5834961.3994141s.5834961-.1826172.5834961-.3994141l.0078125-.0625c.0131836-.0498047 1.2973633-5.0234375 1.6606445-8.3085938l.015625-.1484375.1396484-.0566406c1.7763672-.7138672 3.5927734-1.9902343 3.5927734-6.0361328 0-4.2373047-3.2988281-7.8671875-6-7.8671875z" fill="#7a5545"/><path d="m27.1742859 5.5165238s3.202158 1.6235561 4.8257141 1.6235561c1.6235542 0 4.8257141-1.6662464 4.8257141-1.6662464l-.1144333 37.099762h-9.4225597z" fill="#ad7d6c"/><path d="m59.3776131 29.5540333c-1.5169334-1.2988453-2.5282478-5.5200901-2.5282478-5.5200901s-16.4335899 11.3648911-19.8631134 14.124939c-1.0209846.8216858-1.413002 1.9469185-1.4719048 3.1201897h-7.0286961c-.0589008-1.1732712-.4509182-2.2985039-1.4719028-3.1201897-3.4295235-2.7600479-19.8631153-14.124939-19.8631153-14.124939s-1.0113139 4.2212448-2.528245 5.5200901 1.0113139 5.6824474 1.2641225 9.9036922-.2528086 4.8706703 3.5395584 8.1177826c0 0 0 3.7341766 1.5169306 4.7083092 1.5169315.9741364 3.160306 0 3.160306 0s1.6433754-.1623535 3.0338631 2.1106262c1.3905659 2.2729759 3.9188099.4870644 4.424427 0 .5056973-.4870682 1.8961849-3.4094696 3.4131947-4.0588913 1.5169315-.6494217 2.4018002-2.5976906 1.896183-3.2471123 0 0 1.4527969-2.5206337 1.6103172-5.0603752h7.0374165c.1575203 2.5397415 1.6103172 5.0603752 1.6103172 5.0603752-.5056152.6494217.3792534 2.5976906 1.8961868 3.2471123 1.5170097.6494217 2.9074974 3.5718231 3.4131927 4.0588913.5056152.4870644 3.0338631 2.2729759 4.424427 0 1.3904877-2.2729797 3.0338631-2.1106262 3.0338631-2.1106262s1.6433754.9741364 3.160305 0c1.5169296-.9741325 1.5169296-4.7083092 1.5169296-4.7083092 3.79245-3.2471123 3.2867508-3.8965378 3.5395622-8.1177826.2528883-4.2212448 2.7811323-8.6048469 1.2641226-9.9036922z" fill="url(#e)"/><path d="m36.8216476 47.0909767c-.0931969.2359238-.1118355.5339966-.0515022.8663177.1682434.9221306.9878769 2.1778488 2.1763725 2.6864777.9976883.4274521 1.9826241 1.9774437 2.6340141 3.003582.3095093.4870644.5331802.8396797.7078018 1.0071106.3443336.3323212 1.503891 1.1922989 2.7198524 1.1922989.8534813 0 1.5441132-.4211082 2.0517883-1.2506447 1.1585732-1.8937263 2.5050125-1.9901237 2.7635078-1.9901237.014225 0 .7691154.4350624 1.7398262.4350624.58321 0 1.1232567-.1572838 1.605423-.466774 1.4572945-.9348145 1.6328926-4.0373268 1.6534958-4.8224678 3.3069878-2.8513718 3.3462296-3.7899895 3.47229-6.8284492.0176582-.4312592.0372772-.9069099.0691605-1.4402733.1015358-1.6939507.5861549-3.4418106 1.0138779-4.9835548.6415787-2.3135681 1.1958504-4.3113041.138813-5.2163086-1.4239388-1.2195702-2.4172134-5.3044624-2.4270248-5.345686l-.0902519-.3754463-.2678146.1858196c-.1648102.1135235-16.4805031 11.4010429-19.8777466 14.1350861-.8529892.6868401-1.3724365 1.6324348-1.5436211 2.8114166-.3825949 2.6332054 1.0908815 5.6126823 1.5117379 6.3965568zm.4846192.2283135.1545105-.1991386-.1304741-.2257767c-.0191307-.0342484-1.9222946-3.3650742-1.526947-6.0813599.1446991-.99189.5871353-1.7922554 1.3160286-2.3782578 3.1456108-2.5323639 17.4610214-12.4607925 19.5858955-13.9327736.2903786 1.0832157 1.2154732 4.1939754 2.5334625 5.3228531.7288895.6234207.2599678 2.3148384-.3340378 4.4559021-.4380188 1.5797958-.9349022 3.3714142-1.0413437 5.151619-.0323715.5390701-.0524826 1.0204315-.0706329 1.4561272-.1155128 2.7823219-.1583099 3.6136818-3.007412 6.1114044.0323105-.1100349.064991-.2310066.0952187-.3687897.1236076-.5828285.2365456-1.4706345-.0911713-2.3241081-.1027603-.1967621-.2001877-.3981209-.3516922-.5379639-.1285744-.1756744-.3047295-.235527-.4561081-.325901-.3184013-.1258087-.6179161-.1062279-.8569756-.062149-.2456818.0072136-.4269867.1565666-.5599747.1944618-.130352.0604858-.2012901.1035309-.2012901.1035309s.0812988.0130806.2174149.0211678c.1351357.0142708.3293152-.0055504.5478973.0462952.2232399.0126839.4661026.1062317.6922226.2294235.2190742.1434097.4055901.3507919.526989.6399879.0496025.1535568.1179047.2985535.1393661.4743843.0239716.110508.0364189.2260933.0511971.3406448.1012878.9019928-.215519 1.969593-.215519 1.969593v.1750412c0 .0355148-.0186386 3.5451851-1.3778305 4.4178467-.4120255.2638283-.8770218.3982773-1.381752.3982773-.8657455 0-1.555397-.3995438-1.5622635-.4033508l-.0853462-.0279045s-.0323753-.0038071-.0922165-.0038071c-.3282089 0-1.2972031.1122551-2.3110161 1.1461639.0268555-.1238289.0660934-.2370338.0757217-.3718033.0121384-.2539978.0009193-.5183792-.0619888-.7531929-.05653-.2385406-.1651154-.4257851-.2627258-.5746651-.0349503-.048912-.0672607-.0797501-.1001854-.1146317.1565323-.0638161.3142891-.122242.4630966-.2162628.152977-.096241.3119011-.1732178.4548836-.2941132.1448212-.1166115.28302-.2463875.4198723-.3733864.133297-.1343689.2458038-.3055267.3670197-.4547997.1282692-.1418228.2277184-.3181305.3046684-.5157661.0855293-.1869316.1686707-.3716431.2396088-.559761-.129921.1396027-.2475815.2827759-.3629112.423645-.1078491.1503067-.2367897.2673187-.3696556.3777466-.1313362.1107483-.2493019.2398071-.3865814.3325615-.1416931.0854568-.2821007.1683006-.4158249.264225-.1341553.0953674-.2884178.1418228-.4288864.219986-.1397324.0830803-.2903175.1309624-.4385757.1854248-.2919731.115345-.6055298.1948586-.8941307.245594l-.1283875.0225143-.0685501.143013-.1321297.2757187c-.0485001.0839539-.0760269.2087326-.1412659.2635117l-.1734543.2170563c-.0606384.070713-.1413879.0873604-.2132492.1394463-.0717354.0614357-.1587982.0483551-.2425537.0665894-.084549.0215645-.1729012.0150642-.263401.0041237-.1833267-.0122108-.3613205-.0909309-.5457497-.177578.1379547.1755142.3095703.3224144.5008698.4125481.096138.0451889.1936264.105278.3023949.1009979.1063156.0042.2169266.0373383.322876-.0119705.1041718-.0392418.2246513-.0527992.3194427-.1237488l.2803841-.238224c.1040497-.0751534.1405296-.2084122.2137985-.3121834l.1082191-.189785c.2432899-.0301247.4765244-.0826836.7047958-.1602173.0234222.077137.0451851.1614075.0662155.2436943.0708199.295063.0952225.6775627.0621719 1.0725937-.0317574.3832169-.0868797.7900543-.1394234 1.1154022-.0947304.1322289-.1901932.2536011-.283268.4057274-.4076118.6659126-.9648247 1.0045776-1.6574211 1.0045776-1.0742073 0-2.1332092-.7876778-2.4196625-1.0629234-.1255684-.1217651-.3546371-.4819908-.6195107-.8992958-.3022118-.4753342-.6748123-1.0553932-1.0906982-1.6003304-.0050888-.296093.0804405-.5829887.2274094-.8119354.3271065-.5111656.7901421-.8759117 1.2596817-1.1889687l.0476379-.0317917.0317001-.0904503c.0935631-.2666817.2319489-.5470009.393322-.7732506.1578217-.2410774.3535347-.4154053.5490608-.5898094.2118378-.1269188.4255753-.2787323.6616936-.320034.2393646-.0223541.4709473-.1234322.7174873-.0479622.254879.046772.4596024.0525589.7547035.126049.2667732.0416183.4963913.144043.7936401.1357994.2876816.016407.5753632-.0041237.8625526-.1105118.2871284-.0974274.5553741-.3128204.7690506-.5531807.2031937-.2368736.3694153-.4636002.5570335-.5512009.2189484-.1191521.4887886-.2286301.7236176-.3282013.4816132-.184948.982605-.3675194 1.4559441-.2799988.2372818.0353584.4493637.162117.6246567.3547554.1627274.2106361.2827187.4846916.3585014.7927551.0706329.3119469.1060104.6388779.1118965.9750023.0167389.3337517-.0125694.670433-.014286 1.0108414.0407104-.3328781.1151466-.6656761.1240349-1.0083809.0240974-.3431053.0189476-.688427-.028019-1.0396156-.0506439-.3479385-.1597824-.6981773-.3578873-.9812698-.2069321-.2699318-.4793472-.4551163-.7612038-.5232964-.5656738-.1467361-1.1179848-.0061035-1.6354065.1675911-.2634621.1033745-.4967575.1882782-.7621841.3203506-.3118401.147213-.5126381.4338722-.7016678.6365776-.1856575.1939087-.3743172.3379517-.594677.4057312-.1139832.0220375-.2243462.0611229-.3394928.0746765l-.3534088-.009037c-.2279625.0218811-.5092049-.0771332-.7611427-.1097145-.2200508-.0479622-.5394325-.07444-.8038139-.1089249-.274929-.0701599-.5596085.0418549-.8386421.0848236-.2768326.0604858-.540844.2459908-.7889786.4118347-.2375298.2096024-.456356.4458427-.6246605.7424126-.1597824.2639847-.2821007.5487442-.3800812.8695679-.4477081.347702-.8574028.4584503-1.1571045 1.0765572-.5650597.4058914-.926075.2777023-1.3603554-.0207672.0004311.0025368.0037422.0081635.0042915.0108604-.1768265-.1308861-.3558617-.2471008-.5387573-.3253479-.9785614-.4185715-1.7064705-1.4573936-1.8452835-2.2197037-.0235439-.1293791-.049049-.365299.047089-.4883344z" fill="#bc8874"/><path d="m55.2891884 36.4164124c.008522-.1939087.0545082-.3839302.1091385-.5695915.0547523-.1832848.0830803-.3762398.1961403-.5227432.0939941-.1550598.186821-.3040199.2848015-.4354591-.0420609.1885185-.0893364.3595924-.1353798.5244865-.0619278.1556969-.0375252.3519821-.0664024.5173492-.0215836.1702042-.0357475.3387451-.014164.5161629.0167999.1745644.011467.3438148.0315132.5163193.0712471.6839867.2173576 1.3816071.3970032 2.028492l.0439034.1579971-.0849838.1699638c-.0318794.0638962-.0662155.1253357-.1039848.1870117-.0488663.0528755-.0440216.1524467-.0773163.2254601-.0636444.1517296-.0614357.3524551-.0780525.539547-.0069885.3876534.0282669.7995682.0878639 1.2164764-.1865768-.3476219-.342804-.7421761-.3951035-1.1852455-.017231-.2215729-.0560417-.4518661-.0106087-.6949234.0079727-.1801949.0744972-.3458786.1492996-.5091858-.2207298-.6697159-.3642616-1.3626633-.371067-2.0971451-.0114061-.1927987.0209044-.3926507.0373992-.5849724z" fill="#bc8874"/><path d="m39.3040962 47.8824615s.0941772.3830566.5336723.423645c0 0 .1255684.4464798.4394913.5682449 0 0-.4351158-.9515839.1748466-1.5829659.6099625-.6313858 1.4507904-1.4015121 2.1795807-1.4612007.7287941-.0596886 1.0045547-1.8265038.9417725-2.070034 0 0-.6278496 1.4612007-1.2556953 1.6641426-.6278458.2029457-2.2288589.9792099-2.5427818 2.458168 0 .0000001-.1883545.225773-.4708863.0000001z" fill="#bc8874"/><path d="m50.2914238 44.2742767s.5859909-2.5976906-1.1301231-4.1671295l.7952728-.3292503s1.6324043 3.1434135.3348503 4.4963798z" fill="#bc8874"/><path d="m28.6900921 40.6944199c-.1711864-1.1789818-.6906319-2.1245766-1.5436211-2.8114166-3.3972435-2.7340432-19.7129364-14.0215626-19.8777466-14.1350861l-.2678161-.1858196-.0902533.3754463c-.00981.0412235-1.0030842 4.1261158-2.4270225 5.345686-1.0570397.9050045-.5027683 2.9027405.1388135 5.2163086.427721 1.5417442.9123406 3.2896042 1.013875 4.9835548.0318832.5333633.0515032 1.0090141.0691614 1.4402733.12606 3.0384598.1653004 3.9770775 3.47229 6.8284492.0206013.785141.1962023 3.8876534 1.6534948 4.8224678.4821672.3094902 1.0222149.466774 1.6054258.466774.9707108 0 1.7255993-.4350624 1.7398243-.4350624.2584963 0 1.6049347.0963974 2.7635098 1.9901237.5076733.8295364 1.1983051 1.2506447 2.0517845 1.2506447 1.2159634 0 2.3755188-.8599777 2.7198544-1.1922989.1746197-.1674309.3982906-.5200462.7077999-1.0071106.651392-1.0261383 1.6363277-2.5761299 2.634016-3.003582 1.1884956-.5086288 2.008131-1.7643471 2.1763744-2.6864777.0603313-.3323212.0416927-.630394-.0515041-.8663177.4208547-.7838745 1.8943349-3.7633514 1.5117399-6.3965568zm-1.9492703 7.1132049c-.138813.76231-.866724 1.8011322-1.8452816 2.2197037-.1828976.0782471-.3619328.1944618-.5387592.3253479.0005512-.002697.0038624-.0083237.0042915-.0108604-.4342823.2984695-.7952938.4266586-1.3603573.0207672-.2996979-.6181068-.7093945-.7288551-1.1571026-1.0765572-.0979786-.3208237-.2202988-.6055832-.3800812-.8695679-.1683044-.2965698-.3871307-.5328102-.6246586-.7424126-.2481346-.165844-.5121498-.3513489-.7889786-.4118347-.2790356-.0429688-.5637131-.1549835-.8386421-.0848236-.2643833.0344849-.5837631.0609627-.8038158.1089249-.251936.0325813-.5331802.1315956-.7611427.1097145l-.3534088.009037c-.1151466-.0135536-.2255116-.052639-.3394928-.0746765-.2203598-.0677795-.4090195-.2118225-.594677-.4057312-.1890278-.2027054-.3898287-.4893646-.7016678-.6365776-.2654247-.1320724-.4987221-.2169762-.7621841-.3203506-.5174227-.1736946-1.0697317-.3143272-1.6354074-.1675911-.2818575.0681801-.5542717.2533646-.7612038.5232964-.198103.2830925-.3072405.6333313-.3578854.9812698-.0469666.3511887-.0521164.6965103-.0280199 1.0396156.0088902.3427048.0833244.6755028.1240358 1.0083809-.0017166-.3404083-.031024-.6770897-.014286-1.0108414.0058861-.3361244.0412645-.6630554.1118975-.9750023.0757828-.3080635.1957731-.582119.3584976-.7927551.1752949-.1926384.3873777-.319397.6246595-.3547554.4733381-.0875206.974328.0950508 1.4559441.2799988.2348289.0995712.5046682.2090492.7236185.3282013.1876183.0876007.353838.3143272.5570297.5512009.2136765.2403603.4819221.4557533.7690525.5531807.2871914.1063881.574873.1269188.8625546.1105118.2972469.0082436.526865-.0941811.7936382-.1357994.2950993-.0734901.4998245-.079277.7547035-.126049.2465401-.07547.4781208.0256081.7174873.0479622.2361183.0413017.4498558.1931152.6616936.320034.1955261.1744041.3912392.348732.5490589.5898094.161377.2262497.2997608.5065689.3933239.7732506l.0317001.0904503.0476398.0317917c.4695358.3130569.9325733.677803 1.2596798 1.1889687.1469688.2289467.2325001.5158424.2274113.8119354-.4158878.5449371-.7884884 1.1249962-1.0907021 1.6003304-.2648716.417305-.4939384.7775307-.6195087.8992958-.2864552.2752457-1.3454571 1.0629234-2.4196644 1.0629234-.6925945 0-1.2498093-.338665-1.6574192-1.0045776-.0930729-.1521263-.1885376-.2734985-.2832661-.4057274-.0525455-.3253479-.107666-.7321854-.1394272-1.1154022-.0330467-.395031-.0086441-.7775307.0621719-1.0725937.0210304-.0822868.0427971-.1665573.0662193-.2436943.2282677.0775337.461504.1300926.7047939.1602173l.1082191.189785c.0732689.1037712.1097507.23703.2137985.3121834l.280386.238224c.0947895.0709496.215271.084507.3194408.1237488.1059494.0493088.2165585.0161705.322876.0119705.1087704.0042801.2062569-.055809.3023968-.1009979.1912975-.0901337.3629131-.2370338.5008678-.4125481-.1844311.086647-.3624229.1653671-.5457497.177578-.090498.0109406-.1788502.0174408-.263401-.0041237-.0837536-.0182343-.1708183-.0051537-.2425556-.0665894-.0718594-.0520859-.1526089-.0687332-.2132473-.1394463l-.1734543-.2170563c-.065237-.0547791-.0927677-.1795578-.1412659-.2635117l-.1321297-.2757187-.0685482-.143013-.1283913-.0225143c-.2886009-.0507355-.6021557-.130249-.8941307-.245594-.1482544-.0544624-.2988396-.1023445-.4385719-.1854248-.1404686-.0781631-.294733-.1246185-.4288864-.219986-.1337242-.0959244-.2741318-.1787682-.4158268-.264225-.1372805-.0927544-.2552471-.2218132-.3865795-.3325615-.1328659-.1104279-.2618074-.2274399-.3696575-.3777466-.1153297-.1408691-.2329903-.2840424-.3629131-.423645.07094.188118.1540804.3728294.2396126.559761.0769482.1976357.1763983.3739433.3046656.5157661.1212158.1492729.2337255.3204308.3670206.4547997.1368513.1269989.2750511.2567749.4198732.3733864.1429815.1208954.3019056.1978722.4548826.2941132.1488075.0940208.3065662.1524467.4630985.2162628-.0329247.0348816-.065237.0657196-.1001854.1146317-.0976105.14888-.2061977.3361244-.2627277.5746651-.0629082.2348137-.0741272.4991951-.0619869.7531929.0096264.1347694.0488663.2479744.0757217.3718033-1.0138149-1.0339088-1.9828091-1.1461639-2.311018-1.1461639-.0598421 0-.0922155.0038071-.0922155.0038071l-.0853481.0279045c-.0068674.0038071-.6965179.4033508-1.5622606.4033508-.5047302 0-.9697304-.134449-1.3817549-.3982773-1.3591909-.8726616-1.3778305-4.3823318-1.3778305-4.4178467v-.1750412s-.3168058-1.0676003-.2155161-1.969593c.0147762-.1145515.0272236-.2301369.0511971-.3406448.0214596-.1758308.0897617-.3208275.1393642-.4743843.1214008-.289196.3079157-.4965782.5269871-.6399879.2261238-.1231918.4689856-.2167397.6922264-.2294235.2185822-.0518456.4127607-.0320244.5478954-.0462952.1361151-.0080872.2174168-.0211678.2174168-.0211678s-.07094-.043045-.201292-.1035309c-.132988-.0378952-.314291-.1872482-.5599737-.1944618-.2390594-.0440788-.5385752-.0636597-.8569746.062149-.1513824.090374-.3275347.1502266-.456109.325901-.1515045.139843-.2489319.3412018-.3516922.5379639-.3277197.8534737-.2147808 1.7412796-.0911732 2.3241081.0302277.1377831.0629072.2587547.0952196.3687897-2.849103-2.4977226-2.8918996-3.3290825-3.0074134-6.1114044-.0181489-.4356956-.0382595-.917057-.0706329-1.4561272-.1064396-1.7802048-.603322-3.5718231-1.0413437-5.151619-.5940027-2.1410637-1.0629258-3.8324814-.3340344-4.4559021 1.3179889-1.1288776 2.243083-4.2396374 2.533462-5.3228531 2.1248708 1.471981 16.4402809 11.4004097 19.5858936 13.9327736.7288933.5860023 1.1713295 1.3863678 1.3160286 2.3782578.3953476 2.7162857-1.5078163 6.0471115-1.5269451 6.0813599l-.1304741.2257767.1545086.1991386c.0961406.1230352.0706336.3589551.0470893.4883344z" fill="#bc8874"/><path d="m8.7108116 36.4164124c-.008523-.1939087-.0545073-.3839302-.1091375-.5695915-.0547533-.1832848-.0830793-.3762398-.1961412-.5227432-.0939932-.1550598-.186821-.3040199-.2847996-.4354591.0420609.1885185.0893335.3595924.1353788.5244865.0619268.1556969.0375242.3519821.0664024.5173492.0215826.1702042.0357456.3387451.014164.5161629-.0167999.1745644-.011466.3438148-.0315151.5163193-.0712461.6839867-.2173557 1.3816071-.3970032 2.028492l-.0439005.1579971.08498.1699638c.0318832.0638962.0662184.1253357.1039877.1870117.0488663.0528755.0440226.1524467.0773153.2254601.0636435.1517296.0614357.3524551.0780525.539547.0069895.3876534-.028266.7995682-.087862 1.2164764.1865759-.3476219.342802-.7421761.3951025-1.1852455.0172291-.2215729.0560398-.4518661.0106068-.6949234-.0079708-.1801949-.0744953-.3458786-.1492977-.5091858.2207279-.6697159.3642616-1.3626633.371068-2.0971451.0114041-.1927987-.0209083-.3926507-.0374012-.5849724z" fill="#bc8874"/><path d="m24.6959038 47.8824615s-.0941772.3830566-.5336704.423645c0 0-.1255703.4464798-.4394932.5682449 0 0 .4351158-.9515839-.1748466-1.5829659-.6099625-.6313858-1.4507885-1.4015121-2.1795807-1.4612007s-1.0045567-1.8265038-.9417706-2.070034c0 0 .6278458 1.4612007 1.2556934 1.6641426.6278477.2029457 2.2288589.9792099 2.5427818 2.458168 0 .0000001.1883545.225773.4708863.0000001z" fill="#bc8874"/><path d="m13.7085743 44.2742767s-.5859909-2.5976906 1.130126-4.1671295l-.7952738-.3292503s-1.6324034 3.1434135-.3348522 4.4963798z" fill="#bc8874"/><path d="m61.0362854 25.2264786c-1.1445732-2.0284939-.0895004-3.1876545-2.3503494-5.0713139 0 0 .9043694-3.1877346-2.1100693-5.0713921-.1116982-.0698414-.2014389-.1433296-.3074303-.2142019-.5104523-1.6148357-1.6752434-4.5891619-3.6112213-5.7265234-2.7129555-1.5938282-5.3199196-1.1523442-5.9758453-1.6628766-.6558418-.5105324-2.4645081-1.3799434-3.9716873-1.2350283-1.5071793.1448355-2.562252.6923103-4.0694313-.0160933-1.5071831-.7084031-3.767952-.8533182-5.2751312 2.0445867-.6767731 1.3013029-.7424126 2.7764559-.408268 4.1003513-.4283257.6348362-.6055031 1.3299208-.3454018 2.1302042 0 0-.4371223 1.184371-.6114502 2.706296-.1743259-1.521925-.6114502-2.706296-.6114502-2.706296.2601032-.8002834.082922-1.495368-.3454018-2.1302042.3341446-1.3238955.2685051-2.7990484-.4082661-4.1003513-1.5071812-2.8979049-3.767952-2.7529898-5.2751312-2.0445867-1.5071812.7084036-2.562254.1609287-4.0694332.0160933-1.5071812-.1449151-3.3158455.7244959-3.9716892 1.2350283-.6559219.5105324-3.262887.0690484-5.9758434 1.6628766-1.9359798 1.1373615-3.10077 4.1116877-3.6112232 5.7265234-.1059909.0708723-.1957302.1443605-.3074288.2142019-3.0143604 1.8836575-2.1100683 5.0713921-2.1100683 5.0713921-2.2607701 1.8836594-1.2057757 3.04282-2.3503511 5.0713139-1.1446546 2.028574.5416875 4.2019825.5416875 4.2019825-1.5071801 1.3040771.4521856 4.2019825 1.9593661 5.3612232 1.5071797 1.1591606.7535896 3.3325729 2.8636575 4.9263992 2.1100683 1.5939064 4.2201366.4347458 4.2201366.4347458s.7535896 2.1734085 4.3709183 3.6224022c3.6172466 1.4489098 3.7679501-1.7387428 6.7823105 1.1591606 3.0144386 2.8979034 6.3302822 0 6.3302822 0 3.0143604-2.318325 1.3564777-4.9264793 1.3564777-4.9264793 1.0549965-1.3040771 0-5.5060577 0-5.5060577-.6028881-1.1591606 0-3.4774857 0-3.4774857.6028099-1.3040771.6028099-5.9407253 0-6.9550514-.6028881-1.0142479.1230354-2.8979053.1230354-2.8979053.2580413-.5346318.4091396-1.1130238.4884147-1.6979161.079277.5848923.2303734 1.1632843.4884148 1.697916 0 0 .7259216 1.8836575.1230354 2.8979053-.6028099 1.0143261-.6028099 5.6509743 0 6.9550514 0 0 .6028862 2.318325 0 3.4774857 0 0-1.0549946 4.2019806 0 5.5060577 0 0-1.6578827 2.6081543 1.3564758 4.9264793 0 0 3.3158455 2.8979034 6.3302841 0 3.0143623-2.8979034 3.165062.2897491 6.7823105-1.1591606 3.6173286-1.4489937 4.3709183-3.6224022 4.3709183-3.6224022s2.1100693 1.1591606 4.2201347-.4347458c2.1100693-1.5938263 1.3564796-3.7672386 2.8636589-4.9263992 1.5071793-1.1592407 3.4665451-4.0571461 1.9593658-5.3612232.0000001.0000001 1.6864205-2.1734084.5416871-4.2019824z" fill="url(#f)"/><g fill="#bc8874"><path d="m28.3874207 16.2245026c.1672764.1090832.3114319.3251858.482954.49436.1275654.2270432.3255424.4003391.4041843.6775646l.1756363.3679962c.0224705.1406345.0599613.2736568.0896149.4069977.0281525.1331825.0700207.2604198.1081657.3846436.0216866.1273174.0201836.2534428.0308304.3687897.0404968.4621735.1095371.8039284.1095371.8039284s.1018944-.3005314.1916409-.8017101c.0570869-.2486858.0749187-.5479488.0206394-.8749599-.0207062-.1620388-.0344868-.3345413-.065382-.5037937l-.1983681-.4781094c-.0734825-.15625-.1387348-.3185272-.2524509-.4337139-.1004581-.1275539-.2099304-.2398071-.3096046-.3521404-.1050949-.1044064-.2329845-.1613255-.3405628-.2316418-.1085567-.0705557-.2131958-.126524-.3175068-.1567278-.1984329-.0859337-.3789043-.0968742-.4998074-.106308-.1197262-.012208-.1888313.0070553-.1888313.0070553s.0597.0418577.1642723.1151075c.1052913.0588225.2358608.1843146.3950386.312662z"/><path d="m27.257761 42.3374367c-.1608772-.0092735-.3195324.019104-.4749222-.0176773l-.4623795-.1390495c-.1504917-.0573959-.2885704-.1717911-.4325294-.2533646-.2851753-.1574402-.5679989-.4036674-.8502998-.6196938-.5694351-.4417229-1.1490593-.8690147-1.7921715-1.2030029-.3211002-.1637802-.6581364-.3154335-1.0319462-.3645058-.1795559-.0550957-.378252-.008007-.5693703.0014267-.1372967.0158539-.2695637.0763435-.4016342.1359558-.1267147-.100914-.2506218-.1824112-.3830204-.252964-.1713924-.1080551-.3583298-.1500702-.5367756-.2262535-.3670177-.1017113-.7390633-.161087-1.1107178-.1415062-.1868725-.0137138-.3692379.0166473-.5506248.0562057-.1811886.0370216-.3651218.0619164-.5431767.1103516l-.5205784.2019157-.4958878.2095222c-.3429146.1629105-.6255417.2301369-.9620552.2383003-.1601582-.0091934-.3263254-.0166473-.4811268-.0751495-.1602888-.0415421-.3078403-.1269989-.4572859-.2120628-.2919016-.1878815-.5516682-.4626503-.7631655-.7891846-.107316-.1621971-.1977806-.3406448-.2797527-.5255928-.0703468-.1867752-.1657753-.3815536-.1499033-.5940094-.0440235.2117424.0266495.4289551.0742006.6339607.06499.2015991.1412153.3998642.2366438.5853691.1881132.3725128.4363842.7097511.7444849.9679489.1620522.1120186.3262587.2235565.5081024.2886429.1758337.0821304.366951.1098747.5527782.1357193.3649921.0344849.7857666-.0452652 1.102684-.1701241l.9950428-.3449287c.1642723-.0393982.331419-.0554924.4965401-.0850601.1653824-.0321846.3307667-.0559692.4961491-.0369415.3324642-.0091171.6572208.0546989.9730301.1499863.150034.0717468.3138485.1096382.4526482.2054024.1421299.0774536.2917709.1840782.3949718.2717552l.1147633.0973511.1764202-.0575523c.1352081-.0441589.2581997-.1383362.4001999-.1560135.1435013-.003727.2817783-.0568428.4336395-.0110207.2966709.0284576.6022892.1514168.900528.2949028.6020279.2869759 1.176754.7092743 1.7703552 1.0820274.2986317.1934319.5759678.4043846.9131355.5620613.1642056.0771332.3175049.1833649.4890938.2337036l.5257378.1044044c.1755733.0153809.3555222-.037735.5291348-.0550957.1737442-.0301247.3329868-.1415062.4958229-.2083359.145134-.115345.3009148-.2142792.4222755-.3622856.1254082-.1416664.2387333-.2991066.3267155-.4728775-.2199879.3143272-.5130653.5209961-.8058834.682003-.1598968.0391619-.3095378.121689-.4698905.1253359z"/><path d="m21.1819592 32.433506c-.1538868-.2122993-.2446785-.4704971-.3634911-.7711105-.145134-.3274841-.3167877-.5917091-.5190086-.8277111-.8204498-.9359226-1.9683323-1.1127071-2.7832947-.7513714-.4159393.1732178-.7358627.5255947-.9087582.8969994-.1815815.3710079-.2229919.7461376-.2316151 1.0387421-.0011101.2962532.033247.5233765.0613327.6748695.0300465.1508636.0460491.2313271.0460491.2313271s-.0554543-.3332748-.0056171-.8967628c.0327244-.2768288.1044426-.6167603.2931442-.9191952.1820374-.3049717.4762917-.557066.8389988-.6843834.7224064-.2683449 1.7139874.0084839 2.3678761.8104305.1625748.1947803.3071213.4373627.407711.672493.1024818.2740555.2165909.619854.4121513.9048462.3770752.5769653.9386063.9372711 1.5124168 1.0935211.5787106.1500702 1.1832867.1037712 1.7382202-.1318321.5451374-.2276802 1.084919-.7374191 1.239851-1.4717445.1616592-.7142696-.0905304-1.4327412-.3135223-1.8925381-.2084274-.4562283-.3659725-1.0056839-.1906605-1.2692757.1896801-.2693768.6178341-.2637482.9204483-.2495575.3222103.0242577.6050987.0915623.835865.1513367.167408.0455036.2981071.0848236.4099941.1196251.0641422.123354.137886.2304535.2165279.3172607.0981712.1394444.2284794.2136459.3320713.2997398.2191391.1557751.4306374.1874065.5658436.2187996.1416721.0161705.2209682.0048351.2209682.0048351s-.3054237-.1553001-.6115646-.5208378c-.1482048-.1725826-.3038559-.4307823-.3612041-.6850166-.052124-.103693-.0712624-.2712803-.0899429-.4649506-.007185-.0712681-.0322666-.2267265-.0250816-.2305317l.0304375-.2199097c-.0071831-.1533966.036644-.2914944.1009808-.4205551.0383415-.1413479.1204453-.260973.2032013-.3763199.157938-.2333851.3552608-.4420376.5414143-.5847321.3657761-.3084602.6518002-.4905567.6518002-.4905567s-.079361-.0075302-.21842.011179c-.1362514.0281429-.3422623.0416183-.5675411.1537151-.2242336.1034527-.5021591.2369537-.7410889.5089455-.119072.1363544-.2519283.2714386-.3240376.4812012-.0978451.1894684-.1672115.3940773-.175703.6252441l-.0266495.3356495c.0116253.1802731.028347.2070675.0421295.3171806.0176353.1745644.0647297.3579273.1596355.5626965.0082951.024971.0218811.0413818.0313511.0645294-.0951672-.047327-.2032661-.098856-.3350105-.1557751-.2269783-.0937843-.5049686-.2036591-.8405018-.2782574-.3222103-.0429668-.7628384-.1939068-1.182436.2536011-.1982384.2503529-.2031364.6137486-.1655788.897316.0401688.2953014.1227303.5738735.2245598.8423004.2041817.5230579.3380165 1.0136909.2282829 1.5238285-.111105.4896011-.4962139.8639412-.9522591 1.0438156-.4573498.1859779-.9773407.2009621-1.4612103.0795937-.4845218-.1186752-.9403057-.4043846-1.2390651-.8426971z"/><path d="m10.4962683 15.9273787c-.1059446-.0831594-.1664934-.1306458-.1664934-.1306458s.1006536.339694.4037256.7260027c.1416073.204134.3478136.3914604.5698919.5965462.24716.1476097.509409.3461952.8072548.4125481l.4448099.0908489c.1452656.0515289.2934704-.0109406.4328566-.0197392.2797537-.0469303.5383444-.0855389.7318134-.2272816.1329203-.0806236.2384729-.1525269.3307657-.2181664-.0564985.3296261-.0949707.654892-.0994778.989275-.0033312.2175312-.0141735.4349041.0148268.6537037.0271072.217453.0228615.439661.0849781.6516418l.1615295.6386414.2885056.6156521c.0901375.22752.2262583.3310528.3433723.4856396l.181386.2164993c.0423908.0466938.0331812.0483589.117897.1321526l.1218166.0822887.4889641.3191605c.1646643.097826.3542147.1082115.5286112.1638622.1769447.0573959.3542805.0828419.5335102.0656395.1775322-.0092754.3567638.0115738.5298538-.024416.3490543-.0569191.6878548-.1558552 1.0111752-.3056068.1641407-.0721397.3128681-.1820145.4702187-.2727852-.0900078.1720276-.1755733.3478603-.2480755.5247231-.2263889.7060242-.1878529 1.5079727.0721092 2.1372585.5533676 1.2196484 1.3958931 1.8949947 1.9696388 2.6128311.2841949.3552322.5555878.6817665.6998081 1.0306568.0943832.1670341.1398449.3377914.1580029.5058556.0493145.165369.0329857.3185272.0072498.4583702-.0072498.2929211-.1337032.4799309-.1868057.6231022-.0612679.1411896-.0939274.2165012-.0939274.2165012s.041151-.068573.1182251-.1970787c.0677338-.1350842.2292633-.3021183.2646637-.6177921.0406933-.1498299.0728951-.3182106.0371017-.5067272-.0050297-.1938267-.0401707-.3932838-.124691-.586319-.1268463-.4121513-.3821716-.7912464-.6619892-1.1792183-.5579395-.7608051-1.324894-1.5648918-1.7689857-2.6045074-.1998043-.5292416-.2073154-1.1081886-.0303059-1.6572475.1177006-.2552662.2503605-.4966602.3932743-.7481213l.5987625-.7092743c.3823662-.3611774.8357334-.7757092 1.3098049-.9538403.2324638-.1258087.4890289-.0998859.7292004-.1635437.2488575.0301247.49543.0360699.7404346.1000443.4898148.1363544.9677391.3132172 1.4404392.4697857.476881.1721859.9226055.2681084 1.3352795.3511887.4359913.072855.8344917.0894222 1.1910572-.0492306.3738117-.1181183.5785809-.5638046.5340996-.8766251-.0136509-.3145638-.107708-.5302715-.1631622-.6736012-.0604191-.1426163-.1003933-.2124577-.1003933-.2124577-.01437-.00317.1630325.3128204.1599617.8851871.0032005.2894344-.1698895.5800571-.4846535.6462517-.3044434.0784817-.6902065.0133972-1.0756416-.0759449-.4092789-.1158218-.8511486-.2490826-1.2860947-.4468746-.4452019-.1838398-.9222794-.4174633-1.4538307-.5676098-.2639465-.0764217-.5551949-.0971928-.839325-.1335011-.2465057.0484371-.5086899.0547009-.7535629.137146-.0010452-.0045185-.0017643-.0061836-.0028095-.0107021-.0278912-.1366692-.0418034-.30616.018158-.4573383.0498371-.1533966.1975193-.2597847.3558483-.375843.3402367-.2265682.8323364-.3378716 1.3010521-.7789593.2242985-.2277565.4529095-.5278931.516201-.9689808.0665588-.3883686.029459-.7280626.0698242-.9723091.0568256-.2494001.152647-.4996719.3317471-.6949272.1620502-.2052431.3660374-.3794107.573679-.529479.4226685-.2928419.8636894-.5132275 1.250824-.6635332.7735519-.3166246 1.3186226-.4719248 1.3186226-.4719248s-.5598984-.0530357-1.392561.119071c-.41189.099966-.9022255.2211781-1.396677.5122766-.179884.114315-.3632278.2509851-.5372982.4154015-.0216217-.0227518-.0359249-.0343256-.0600281-.061676-.0711288-.0820494-.1391907-.1940651-.1854343-.3366022-.0416069-.1448355-.0519924-.3107586-.0400391-.491189.0929451-.7417784.7554569-1.5605326 1.5253506-1.9869537.1943188-.110589.3669529-.1963644.6025505-.2639866.1883106-.0539074.4589844-.1869307.6701546-.2761154.229393-.0726166.4033337-.3332729.5786438-.4840546.117115-.2374287.2755089-.4423552.2943192-.6845407.0595703-.2303743.0587215-.4414845.0321369-.6246099-.0032005-.1835222-.0617905-.3303394-.0833454-.4532166-.072958-.2419472-.139452-.3584824-.139452-.3584824s.0240364.1446772.0380154.3841677c-.0051613.121767.0203133.2673159-.0133247.4285622-.0111694.1644955-.0523186.3345413-.1175709.5046654-.0329208.1874065-.1882439.3084602-.2828236.466773-.1685829.085062-.2865467.2474174-.4881153.2945862-.1990204.0631037-.4046402.1282673-.6135883.1944618-.2105827.051054-.4770126.1593437-.7033367.2834091-.2198563.1271572-.4282837.2835674-.6188793.4613028.0000648-.0777693-.0011101-.1629105-.0058136-.258358-.0060749-.205164-.0261917-.4486179-.1364479-.6857309-.0790329-.2520943-.19804-.5006227-.3930779-.6934195-.0966034-.089819-.1702824-.2165012-.2873306-.2650175-.1075764-.0655603-.2201843-.1128874-.3239079-.1641788-.1032009-.0553341-.21842-.0390034-.31744-.0535107-.1007195-.0095129-.1936665-.0152998-.279623.0049152-.3461819.0436802-.5321388.2195921-.5321388.2195921s.0548668.012763.1509476.0350399c.0919018.008482.2173748.0667496.3620529.1087656.0730896.0121288.1468334.0518456.2219486.0939407.0735455.0459795.1565647.0700798.2286739.1250963.0726337.0553341.1422615.1181202.2198582.1645756.0853691.0335331.1294594.1428537.1962128.2098417.1482697.1216869.2430458.3103619.3411522.4903164.0463753.0900564.1101894.166954.1606789.250351.0356636.0945759.0694332.1840773.100523.2666826.0517311.1260471.1015034.231245.1461811.3216982-.1367092.1457872-.2746601.2915745-.3822365.4613819-.2939281.4486971-.4587879.9880066-.4519291 1.4700794.0068569.2436914.0736122.4602718.1661663.6189804.0963421.1593437.2020912.256773.2974548.32162.0176353.0152998.0340958.0190258.0516663.0294104-.0357952.0371809-.0752468.0636587-.1092758.1053572-.2299824.2443266-.4030724.6072483-.4902058.999898-.0556507.4111204-.0051594.7592192-.0573483 1.0106001-.0259972.218008-.1519928.4594002-.3122826.6350746-.3320713.3675194-.7913818.6027279-1.1534348.9029446-.1774673.1604519-.3508835.3566589-.3873959.6133518-.0414772.2416306.0180931.4314156.0722408.5683231-.0056171.0026169-.0119534.0019035-.0175056.0045986-.5879192.2192745-1.0459232.6099434-1.5445538 1.0769539l-.5866794.7237033c-.0548668.0941792-.1088181.1956501-.1630974.2952995-.1965389.0716648-.3919678.1533184-.5913811.203104-.3287411.0865669-.6592464.1142349-.9861584.1411877-.1632271.0160942-.3248215-.0240993-.4855671-.0323429-.1632271-.0004768-.3186169-.042017-.4674091-.1110649-.1470299-.0673046-.3097343-.0873623-.4412184-.1885967l-.3941231-.2936344-.099021-.0709515c.0169821.0237026-.0448732-.058506-.063488-.0825253l-.1727648-.2266483c-.1066628-.1519699-.2565002-.2988682-.2990217-.4601135l-.2052917-.463522-.1285439-.5448589c-.0526457-.1778927-.0423908-.3780632-.071784-.565073-.029458-.1888332-.0209007-.3838501-.0207052-.577837-.0053558-.3846436.050621-.7856178.1078386-1.1462402l.0299807-.1889915-.097127-.1129665c-.244874-.2848358-.4623146-.6640892-.5998068-1.0434999-.0708046-.192956-.1079044-.3921747-.1267805-.5947227-.0033312-.2018347.0252123-.3988342.0847816-.592186.0767469-.1847906.1681261-.3643484.3001976-.5175085.1170483-.1645756.2749844-.292367.4188786-.43641.3163967-.2521744.6655817-.4433861 1.0205803-.6410198-.3804073.0970335-.7553272.2330694-1.1188822.4347458-.1693029.1254921-.3605509.2231598-.5108461.3975649-.1630316.158392-.2939272.3601475-.4077091.5873499-.0977144.2390146-.1574144.4982452-.1713924.7699213.0013065.2672367.0323315.5317774.1011105.7785616.1215553.4159575.3116941.7692862.5410223 1.1025591-.1137171.0132389-.2462454.0312347-.4005899.0613594-.0984335.0192642-.2013731.0610409-.3173113.0339298-.114109-.0115738-.2318754-.0266361-.3516674-.0240211-.119791-.0083237-.2439594.0168076-.365449-.0317879l-.3701525-.096796c-.1282825-.0101471-.2457886-.073885-.3626413-.1319141-.1197262-.0520039-.2374926-.1031361-.3515368-.1526833-.2084923-.1496716-.4435034-.2279968-.6043797-.3772717-.1736783-.1282675-.3300475-.2232382-.426978-.3133747z"/><path d="m9.6195812 13.7599154c.1254749.2321968.2420006.3320837.2420006.3320837s.040823-.1958094.0527105-.4071569c-.0133247-.1041679.0570879-.2291059.0608759-.3451643.0065317-.1181993.0620518-.2403622.0783157-.3639526.0426512-.1633072.0876551-.3406458.1302423-.510849.0042448.026557.0091438.0528765.0124102.0795918.0347481.1384144.0423908.2953796.1131287.4050169.0551929.1204987.1242332.2298193.1832151.3380299.1080341.2320385.2783813.359354.410387.4769983.2726345.2295818.4708719.327486.4708719.327486s-.0886354-.2614498-.2463112-.5710192c-.0901375-.1454697-.1766825-.3272476-.2314835-.5287657-.0367088-.0956059-.0666237-.1967611-.1119537-.290226-.0575447-.0914049-.0436325-.2021523-.0664282-.3017216-.0651207-.2008839-.0558462-.40137-.0542784-.6002722-.0103855-.1011553.0203791-.1935101.0282173-.2895126.0143042-.0939417.019268-.1912117.0524492-.2681885.0513391-.1627522.0796871-.3197165.1260624-.4134989.0392551-.1063871.0617247-.1671915.0617247-.1671915s-.2231236.0774517-.4471607.3978024c-.0631618.0731716-.103528.1746435-.1551285.2798424-.0442848.1080513-.1214905.2157078-.1279564.3545179-.0099936.0692863-.0186157.1449156-.0293274.2177696-.0523844.0274286-.1060753.0531931-.1707392.1108265-.1769438.1444397-.3704786.4203959-.4600945.7665119-.0188112.1813021-.0741997.3557081-.0370998.5302715.0265191.1708384.052254.3271694.11535.4407702z"/><path d="m13.8122902 27.8154087c-.1210327-.2203064-.2318106-.5215511-.2608776-.7960815-.0431738-.2816639-.0004568-.552866.0952978-.8161373.0978451-.2674751.295495-.4840546.5005255-.6902504.1393871-.1373844.2948418-.2527294.454216-.3672028.4992838.2134876.9646683.4312572 1.3243046.6992073.2170486.1572819.3919029.3295479.5361233.5056973.1493797.169014.2228622.371563.3163967.5156841.1101894.342865.17309.5388336.17309.5388336s-.0278244-.2132492-.0765514-.586319c-.0719795-.1650505-.1242332-.4036694-.2576103-.6196156-.1274338-.2256966-.2945156-.4593983-.5185528-.6536236-.2140446-.2059574-.4681282-.3920155-.7389336-.5663414-.2718496-.1765461-.5630989-.3450851-.8714609-.492775-.3003941-.1575203-.6329241-.2926846-.9268513-.4599552l-.4301786-.253046-.3736792-.351347c-.4820404-.5101376-.7367125-1.2243271-.9532385-1.9943275-.0622473-.2118225-.1252785-.410408-.2073164-.5660248-.1090145-.2096825-.2491856-.3510303-.3721123-.4694672-.2512093-.2340202-.4971943-.4140549-.7233877-.5834656-.9207754-.635788-1.5762987-.9452782-1.5762987-.9452782s.5639486.4992752 1.4098711 1.248188c.2047691.1916084.4286766.3985176.6351442.6367397.1007843.1162167.1911831.2435322.2392569.3581638.0701504.1809063.1162643.3494453.1533642.5167961.0894194.3607025.1922941.7883911.3585911 1.1844501.1676693.4001808.3979778.7795143.6779919 1.096138.1522551.1402378.3023539.2872944.4589186.4152451l.5072527.2875309c.3293943.1836796.6516047.272707.9571581.4150848.0365772.0150623.067668.0310745.1038542.0461369-.1389952.0464554-.2772064.1037712-.4162006.1683807-.2580681.1748028-.5278282.3731499-.71875.7041225-.1989565.321619-.2721119.7551765-.2465076 1.1524239.0196609.2068291.0590467.3989925.1167221.584259-.1423264.0053902-.2848482-.0300465-.4255409.043045l-.4403028.1627522c-.1423264.0644512-.2612038.1986637-.3866129.2987881-.1327896.0937824-.2201185.2482109-.3173103.3841686-.1028748.1316757-.1797533.2826958-.2412815.4439411-.128871.3131371-.2047043.6575089-.218421.9929218.1292629-.3021183.2478132-.5934544.4348822-.8239861.0802746-.124939.1609411-.2445641.2662325-.333828.0984325-.0954475.183672-.2082558.3043127-.2565346l.1651869-.0944176c.0574789-.022831.0998697-.0836353.1642723-.0864887l.3548689-.0870438c.1127367-.0498638.2436981-.008007.3653841-.0107021l.3702822.016489.5485334.0243378z"/><path d="m17.5173397 36.1672897c-.171587-.0237045-.3576775.0225945-.5308971-.0137939-.1722412-.0252876-.355978-.0129242-.508234-.0677032-.1640759-.0264778-.3113651-.0680962-.4386692-.1291389-.2497072-.1127281-.425868-.2665215-.425868-.2665215s-.0000648.0640526.0374918.1694908c.0368395.1077347.1015682.2559776.2187471.3973274.1226006.1271553.2715883.2919693.4668875.3728294.1882439.1254158.4037247.1288223.6169205.1715508.2146969.0256081.4194012-.0311546.6126747-.0652428.1960163-.0224342.3558483-.1449127.4981747-.2096024.0889606-.050499.1613331-.0983009.2254086-.1429329.0611382.0704765.1297207.1327057.1917057.2042122.1043129.0836334.1977806.1994553.3110409.2478142.1118221.0528755.2286091.0864105.3367748.1266823.2167873.100441.4256077.0840302.5997429.0640526.1697598-.0168839.3059444-.0439949.4032669-.067543.4525185.0933075.9604244.2010422 1.2745991.2775459.6693058.1623535 1.5644779.3432617 2.4650707.4528198.2254086.0245743.4507523.0491486.672636.0733299.225996.0497818.4890938-.0336952.7171154-.0497856.4602261-.1439667.8380203-.435379 1.0835476-.7531929.2659702-.2976799.3908577-.6345215.4887676-.8451538.0875244-.2248268.1143055-.3598328.1143055-.3598328s-.2666893.4771576-.797327.9275208c-.1230564.1275558-.2836075.2073059-.4432411.3006134-.1621189.085537-.3491859.1151848-.528286.168457-.1948414-.012207-.3707409.0371819-.5872021-.0123634-.2212944-.0316315-.4460506-.0637398-.6708717-.0958443-.9000053-.1170921-1.8054962-.1629105-2.4866886-.1705208-.324234-.0034103-.8488617-.027668-1.3113079-.0520859-.0909863-.0458984-.2100601-.1020279-.3501644-.1555367-.0752468-.0256081-.1568279-.0534325-.2431107-.0828438-.0807972-.0441551-.1559124-.1147881-.240694-.1574402-.083868-.0472488-.165514-.1041679-.2553253-.1431694-.0894184-.0413818-.1453953-.1393661-.2211628-.2027855-.0679302-.0731735-.167017-.1128883-.2128696-.2103195-.0517311-.0901337-.1155453-.1679039-.1737423-.250351-.0625744-.0784836-.0912495-.1815414-.142065-.2659683-.0455914-.0881538-.0926857-.1734543-.1129341-.2633514-.0559769-.1748009-.1228619-.3234444-.1423912-.4372025-.0315475-.1169319-.0495758-.1836815-.0495758-.1836815s-.1189423.2585182-.1013069.6973839c-.0041809.1105118.0183544.2247467.0413456.3492088.0293922.1204185.0302429.2688217.0984993.3857536.0436306.0879135.0907898.1816978.1387329.2738152-.0491848-.0025368-.0988255-.0052338-.1544762-.0049171-.1440891.0071374-.3122161.018078-.4850448-.001583z"/><path d="m31.6445904 34.4054756-.0297832-.07864c-.439455-.8447571-.1280231-2.6008606.0073147-3.1450062.6542149-1.416172.6432438-6.1942463-.0167217-7.3047333-.4175072-.7020607-.0344868-2.0935001.1369057-2.543148 1.2634964-2.6179848.1771393-6.1276569-.0658398-6.8392305.2069244-.7496262.0935345-1.4846659-.3380814-2.1898985.3349457-1.4776897.1677341-2.9642582-.4770775-4.2041225-1.1292019-2.1708722-2.6283607-2.626863-3.6870213-2.626863-.6202526 0-1.2812614.1566477-1.9114418.4528198-.9055576.4255495-1.807457.3500795-2.8102055.1674294-.3589821-.0659571-.7336426-.1338167-1.141222-.172503-1.5320778-.1598186-3.3839512.698256-4.1369267 1.2855268-.1870689.1458664-.7059479.2061157-1.3068657.275878-1.1485367.133182-2.8838825.3354926-4.6411753 1.3679724-1.965785 1.1548815-3.1576929 4.0798197-3.710537 5.7953348l-.0496411.0348806c-.0527763.0386868-.1050301.0767384-.1645989.1141567-2.6910667 1.6819029-2.440249 4.4019938-2.2928934 5.2232847-1.3230643 1.1586857-1.4787805 2.0858879-1.6433797 3.0650959-.1008496.5993214-.2048345 1.2195702-.6223419 1.9596825-1.0069292 1.7840099-.0381451 3.6644173.3887677 4.343647-.2973237.3589592-.4467692.8187542-.434751 1.347044.0365777 1.6222897 1.5566385 3.5090389 2.6247046 4.3296947.610846.4705772.8052297 1.1371231 1.0304432 1.908947.2858281.9817429.6103239 2.0941353 1.8351507 3.0194359.782238.5904388 1.6496506.889782 2.5771542.889782.7493181 0 1.3491907-.1978683 1.6611452-.3272476.3349466.6595688 1.4401131 2.3363991 4.4096918 3.5261612.6981106.2803192 1.3277664.4160385 1.9245052.4160385.6385403 0 1.1396523-.1560173 1.5817204-.2930031.3689098-.1141548.6871357-.2130928 1.0309658-.2130928.4279575 0 1.0602283.1357193 2.1633034 1.196106.9374313.9005661 1.9960918 1.3584595 3.146719 1.3584595h.0005226c1.9391365 0 3.4424763-1.2950401 3.4921169-1.3394356 1.098896-.8447533 1.7369137-1.8303032 1.8968086-2.9312782.149971-1.0286751-.1666889-1.8651886-.3516655-2.2457085.9081689-1.5480844.0318738-5.1947442-.0757693-5.6234666zm-.3830185 5.2487335c-.038929-.251461-.1266499-.5320168-.3076439-.778244-.1452007-.1151886-.2706089-.2777023-.4380817-.3081436-.1629028-.0317879-.3137188-.0759468-.4319439-.0198174-.2430439.0910072-.3622475.2046089-.3622475.2046089s.1623116.0958443.341608.159977c.0973873.0001564.1713924.1434097.2635536.179081.0912495.0501823.1569576.1742477.2469006.2407608.0680599.1147881.1606789.1989021.2277603.318924.0708027.1125717.1617908.2115059.2141094.3186073.0635529.0940971.120575.1769409.16362.2391739.023056.0374146.5257378.8783684.3645344 1.9615059-.1348152.9094429-.6918392 1.7465897-1.6679382 2.4974861-.0141087.0126839-1.4307079 1.2278137-3.1932259 1.2278137-1.0273075 0-1.9741459-.410965-2.8143845-1.2189369-.9619923-.9233971-1.7316895-1.3356285-2.4956379-1.3356285-.4112377 0-.7764912.1128883-1.163168.233387-.4316158.134449-.8783855.2727051-1.4495182.2727051-.5387363 0-1.1135273-.1255722-1.7567711-.3830566-3.432024-1.3749504-4.2011986-3.4208832-4.2079916-3.4399109l-.1065979-.3056831s-.1180935.0253677-.4357958-.6037598c-.1106472-.2407608-.2090149-.3970909-.2698908-.583149-.0703468-.1810646-.0935993-.3904305-.1536255-.5898857-.0636845-.200489-.0910521-.4149284-.1228619-.6292076-.0468979-.213726-.0518618-.4315758-.0559111-.6483154-.0295887-.218956.0222073-.4269753.026453-.639431.0534945-.1981087.0638151-.4122314.1418686-.5923462.1148281-.3785362.2892895-.7131577.4772072-.9657288.3649273-.5240898.7092142-.7925148.7092142-.7925148s-.100915.015934-.2663641.0928307c-.1600266.0837135-.4066639.1932716-.6475534.4335556-.2396488.2326736-.5214272.5480309-.6991549.9926834-.1055527.2116661-.1574144.4611473-.2213602.7086411-.0178318.2544746-.0792952.5175095-.0549316.7754707.0143042.5187759.1090794 1.027092.2684536 1.4526405.1320715.4449692.3515368.7921181.5072527 1.1043015.1594391.3001366.3471603.5012589.45611.663456-.2141094.0979843-.8100634.3350945-1.5830917.3350945-.8261318 0-1.5984421-.2669983-2.2944613-.7927513-1.0654535-.8048019-1.343966-1.7599106-1.613595-2.6839409-.12567-.4318924-.2602887-.8686981-.4681935-1.2745056-.0023513-.092514-.0056171-.1827316-.0052252-.2825394.006989-.1517334-.0356631-.3092499-.0244937-.4616966-.0074463-.15205-.0261922-.3070335-.0237103-.4463997-.0086222-.1376228-.0166559-.2649384-.0114307-.3815498.1109738.1470528.2296553.2895889.3472915.4096146.1507521.1256485.3092766.2092056.4312239.2918091.2911186.1019478.4774685.099968.4774685.099968s-.1293936-.2005653-.3086238-.4026375c-.1593083-.2371944-.3717197-.5535014-.5841311-.8697284-.1098633-.1576004-.2196617-.3152008-.3226666-.4629707-.1035275-.1499863-.2238421-.2746086-.3077745-.3989906-.1886358-.2308502-.3414779-.3821869-.3414779-.3821869s-.0019598.2401276.0822992.5654716c.061986.257328.1898117.5632515.3510799.856411-.0347486.0393982-.070869.0862503-.1060753.1449928-.0589161.1245422-.1448731.276432-.1731558.4557533-.0479426.1647339-.0429783.3389816-.0434356.5149727-.073482-.0719032-.1314836-.1510201-.2173104-.2170563-1.125545-.8656845-2.3493273-2.5983238-2.3764992-3.7988682-.0094056-.4306221.1306343-.76548.429003-1.0236015l.2497728-.2162628s-.1031356-.4142914.1160035-.6907234c.2161994-.2799225.3713932-.453455.6642098-.7459011.143959-.1541901.3023534-.2673168.4525175-.3700562.153626-.0867271.3047042-.1736126.4494472-.2000904.0784459-.0130806.1518626-.029253.2193351-.0407486l.438931.4200001c.1601577.167429.3690419.2478943.5531712.3754482.1880484.1233521.3795581.2386169.5959539.276907l.3267817.0902157c-.1064019.4355373-.1703472.8702831-.1844559 1.3207245-.002286.2861042.0192685.5722084.0619206.8550625.0491185.2802391.1047034.5630131.2133913.8205776.1998706.5185413.4864163.9899082.8505597 1.3318233.3598328.3495255.773551.5848122 1.1934099.7547798-.1800795-.1625938-.3681278-.2994232-.5405645-.4587669-.160223-.1797142-.3380165-.3293076-.4678669-.5367699-.3037252-.3595924-.5113029-.812809-.6398468-1.2806931-.1282835-.4700222-.1834764-.9670773-.1574144-1.4660358.0163946-.492775.111104-1.0098858.2437639-1.4512901l.1086216-.361496-.3278265-.0845871-.5444837-.1403961c-.1866112-.0264778-.3570237-.1224003-.5289383-.217371-.1676693-.1029797-.3581338-.1542702-.510715-.2985516l-.4881146-.3736228c-.3032675-.2914162-.6073189-.5934544-.8765564-.9452-.2896814-.3312893-.5354047-.7095127-.7877903-1.0951061.1523852.4539299.3628368.8828087.5962806 1.289093.1721759.3060818.3812561.5776787.5959535.845232-.1647296-.0246544-.3592443-.0337715-.5594411.0358334-.2212296.076025-.4368415.2219696-.6212316.3993092-.3702829.3614159-.7133286 1.0245514-.8327937 1.4035664-.36865-.592186-1.1369104-2.1122074-.3385389-3.5276661.4786441-.8479271.5993502-1.5645752.7054253-2.1962414.1599619-.9514599.290139-1.705843 1.5445549-2.7628193-.0348797.1996154-.0564342.6418914.0476813 1.0278816.0285435.195652.146049.3814735.2531691.5724468.1446776.1326275.288506.3618908.4837389.4169884.1885056.0844269.3858285.1983452.5625114.2388554.1806021.0576324.3768802.1056747.5436349.1782894.3512101.1114616.6911855.2681885.9778628.4579735.1482697.0900574.2651224.2163429.3987617.3119488.1064014.1295357.2176361.2464657.3081656.3702927.1629009.2646999.3229284.4841347.3967371.6678944.0898762.1725025.1493149.271122.1493149.271122s-.0142393-.1163769-.053299-.3201923c-.0346184-.2050858-.1032667-.4961853-.2446127-.8259697-.1551285-.3149605-.3722429-.6896152-.7014408-.9570103-.3205767-.2808723-.7039886-.4643936-1.0907311-.6021748-.380342-.1292171-.7783847-.201992-1.0635595-.3162289-.1688447-.0301228-.2583947-.162672-.3958874-.2294998-.0881128-.1163769-.2018299-.2213364-.2440248-.3644295-.1231227-.2662849-.1453958-.558651-.1517968-.7555714-.0024171-.1710758.0048332-.26898.0071192-.2972813l.0158072-.0131607-.0663624-.2340202c-.0339651-.1192303-.7968693-2.9414272 1.9793711-4.6766024.0705423-.0437603.1327243-.088789.1949062-.1338167l.2053571-.1420612.0350103-.1109859c.5084286-1.6083345 1.6365862-4.4685841 3.4780073-5.5498981 1.6710739-.982378 3.2825794-1.1694679 4.4588108-1.3064547.4391928-.051054.7944517-.0979052 1.0799532-.1746435-.1442204.253046-.3301125.5927401-.429657 1.087656-.0660992.2723103-.0774651.590045-.055584.9288673.051012.3294678.1348801.7025366.3370361.9900675.1808643.3056059.4251499.5535002.6890316.7520046.2248859.2011213.4533653.4054136.6818447.6096268.1944504.22855.3289375.4663754.4876575.7064209.0775967.2963305.2632942.5482674.2781868.8546658.0448074.296093.1043758.5840998.0669498.8660822.010582.2877684-.048008.5446997-.1190071.7807808-.0444813.2504311-.1495762.4405327-.2342281.6218348-.0754414.1918468-.1648598.3381882-.2642727.4313374-.1787739.2222862-.2809296.3492851-.2809296.3492851s.126976-.0922756.3491211-.2536793c.1217499-.0745201.2410851-.201519.3550625-.381155.124691-.1679058.2789059-.3565807.3532352-.6269093.1067944-.2535219.2035294-.5381203.2288723-.8678255.0732193-.3232841.0515995-.6706686.0072498-1.031846-.0063362-.2136469-.0690403-.4149265-.1407585-.6162062.0817127.054224.159832.1432505.2504253.1981087.0826263.109479.2069263.1556969.2792969.2784147.0928154.0936241.1848469.1884375.2540188.3055267.0745926.1088448.1826916.1956511.2229919.3126612.1191387.2066708.2483368.3595924.2483368.3595924s.0431747-.186614.0332451-.4891281c-.0005226-.1507816-.0386009-.3219366-.1097965-.49547-.0527763-.1879616-.1729603-.3380289-.2982388-.4832611-.2561092-.2895927-.6075802-.3835335-.8492546-.3695021-.0652504.0008717-.102808.0193434-.153429.0314722-.0099277-.0301247-.0213585-.059536-.0305042-.0900564-.180275-.3113928-.3960171-.6590147-.6175728-.9141226-.2453957-.2088108-.4907932-.4177008-.7322712-.6233406-.2231884-.1653681-.4374943-.3401699-.5851765-.5668182-.3203144-.4318113-.4177685-1.0037823-.3566303-1.5007582.0508156-.4945984.1698246-.9155493.2775326-1.1919031.0005226-.0014267.0007839-.0019026.0013065-.0033298.1238403-.043046.2346191-.0929894.3205757-.1598978.6730289-.5238504 2.4115086-1.3197737 3.8061619-1.1853228.3939915.0380521.7566338.1046433 1.1046429.167429 1.0680656.1953344 2.0770855.269536 3.0824471-.2042127.5690441-.2669988 1.163168-.4084258 1.7181034-.4084258 1.3444881 0 2.4324093.7819705 3.2345047 2.3237147.5145035.9891958.6580696 2.1636581.4578075 3.3501701-.0621815-.1609287-.1960163-.287611-.3315487-.4391851-.1406937-.1746426-.3538895-.2077007-.542263-.305685-.1978474-.030283-.4011135-.0593767-.5819111-.0235443-.1816463.0334539-.3440266.0973492-.4753132.1656055-.26754.1356401-.4020271.3153572-.4020271.3153572s.1980419.0152998.4578075.0424118c.1291981-.0095921.2785778.0386066.4301147.0468521.1509476.020215.3054218.055809.4562397.0872021.1363811.070159.3030052.0715857.4208374.166399.1135216.0944958.3679314.4742241.4467697.5924234l.0909214.1344509c.4101925.6075649.5063381 1.1815176.3035946 1.8055716l-.0412807.1274748.0459843.124938c.0141087.0374174 1.3779297 3.7944279.1243629 6.3946552-.0275631.0712681-.5686512 1.518198-.3078403 2.6606331-.1122131-.0959225-.2391911-.1773376-.3804722-.2654915-.1986942-.1439648-.4362526-.1822548-.6794281-.2868176-.2459202-.0825272-.5093441-.1215305-.7834148-.1717892-.5462475-.0589809-1.1301174-.0582676-1.7068672-.0059471-1.1552639.1075764-2.2783279.4284821-3.1029568.7227516-.4146976.1491184-.7528458.2958565-.9875298.4052563-.037035-.1648922-.0997391-.318924-.1762257-.4500465-.0925541-.1553783-.221817-.2577229-.3197937-.3384247-.2161999-.1510983-.3884411-.1342125-.3884411-.1342125s.0901375.1715508.1775322.3932037c.0500984.1037712.085043.240284.1240368.3653011.0281525.1341324.0815163.2565346.0864811.4022427.0421944.1329441.0423908.2780972.0534954.4209499.0203133.1405563.047224.2849159.032135.4094563.0069885.2520161.0474854.4601135.0474854.4601135s.1196613-.1260471.2453976-.3751297c.0629005-.1223221.1314831-.2757988.145525-.4645519.035141-.1785278.0395832-.3736248.0000668-.5722084.2474213-.0401936.600069-.0973511 1.0234547-.1660824.4203148-.0801468.9139175-.1480064 1.4386101-.225935.524889-.0791168 1.0836773-.1573601 1.6421375-.2056389.5583324-.0638161 1.1139202-.0719814 1.6340389-.0705547.2544117.0351982.5093441.0260811.741415.0665112.2250843.0607243.4621201.0615978.6447468.1627522.185957.0902939.3818436.1292191.5118256.2506676.0408878.0341682.0826263.0599327.1245594.087759.0231876.0491505.0350742.104166.0628357.1507797.4358597.7331371.5138493 3.779129.2331161 5.5986538-.0119534.0297279-.0203133.0543041-.0329208.0847454-.1248856.3159103-.284977.6697159-.4809284 1.0188446-.0806675.1901817-.2113018.3392982-.3165932.5146542-.100132.1840763-.2479439.3107586-.3726997.4659004-.529068.5745087-1.2384777.8537941-1.8024273.8747215-.5644054.0468521-.9621868-.0522423-.9621868-.0522423s.0807972.0743599.2419357.1611671c.1612015.07864.3978462.2106361.7047062.254631.3026791.0520859.6778622.07658 1.0648651-.0500221.1012421-.0252876.1971931-.0891037.2960186-.1354027-.0318756.2149963-.0830193.5190163-.1610069.8754387-.038538.1754341-.0695629.3675194-.1389961.5563507-.0694313.1871719-.1081638.400341-.2003918.5892525-.1479435.4031944-.3627071.7770576-.59935 1.1273727l-.4123478.4512367c-.1563702.1608467-.310257.3192406-.4591808.4724808-.1507511.1289787-.2776623.3567352-.3980427.5281296-.1308289.1694908-.1973228.3812332-.281189.5496941-.1455917.3637161-.1617908.7144279-.1346188.939888.0206394.2297401.0959511.3366814.0894184.3363647 0 0-.0222721-.1281891.0146961-.3358879.0171795-.2100029.1307011-.4781914.2919025-.7588234.0976486-.1301689.1737442-.2945862.3080368-.4119148.1312218-.1251755.2291317-.2648582.3995438-.396534.1508179-.1342926.3340321-.2704887.4703503-.4136581l.5067291-.5238495c.1385384-.2092094.2574158-.4383125.3824978-.653862.1220779-.2182465.1732216-.4742241.2576752-.6981773.0920334-.2233963.0964737-.4687538.1406288-.6841469.0428486-.2172127.0464401-.4281654.0592422-.6196136.0327892-.38274-.0182228-.703331-.0341606-.9228439-.0026131-.0217209-.0049648-.0300446-.0076427-.0497818.2519951-.1342163.4963455-.3038635.7137203-.5197296.1346188-.1706009.2832813-.3281212.3929482-.5163994-.1161327.8147926-.179882 1.9519157.1973896 2.7195358.2733518 1.1096955.7707426 3.9714509.1191389 5.0204201z"/><path d="m35.6125793 16.2245026c-.1672783.1090832-.3114319.3251858-.4829559.49436-.1275635.2270432-.3255386.4003391-.4041824.6775646l-.1756363.3679962c-.0224686.1406345-.0599632.2736568-.0896149.4069977-.0281525.1331825-.0700226.2604198-.1081657.3846436-.0216866.1273174-.0201836.2534428-.0308304.3687897-.0404968.4621735-.1095352.8039284-.1095352.8039284s-.1018944-.3005314-.1916428-.8017101c-.0570869-.2486858-.0749168-.5479488-.0206375-.8749599.0207024-.1620388.0344849-.3345413.0653801-.5037937l.1983681-.4781094c.0734825-.15625.1387329-.3185272.2524529-.4337139.1004562-.1275539.2099266-.2398071.3096008-.3521404.1050949-.1044064.2329865-.1613255.3405647-.2316418.1085587-.0705557.2131958-.126524.3175049-.1567278.1984367-.0859337.3789063-.0968742.4998093-.106308.1197243-.012208.1888313.0070553.1888313.0070553s-.0597.0418577-.1642723.1151075c-.1052933.0588225-.235859.1843146-.3950387.312662z"/><path d="m36.7422409 42.3374367c.1608734-.0092735.3195305.019104.4749184-.0176773l.4623833-.1390495c.1504898-.0573959.2885704-.1717911.4325294-.2533646.2851753-.1574402.567997-.4036674.850296-.6196938.5694351-.4417229 1.1490593-.8690147 1.7921753-1.2030029.3210983-.1637802.6581345-.3154335 1.0319443-.3645058.1795578-.0550957.3782501-.008007.5693703.0014267.1372948.0158539.2695618.0763435.4016342.1359558.1267166-.100914.2506218-.1824112.3830185-.252964.1713943-.1080551.3583298-.1500702.5367775-.2262535.3670158-.1017113.7390633-.161087 1.1107178-.1415062.1868744-.0137138.3692398.0166473.5506248.0562057.1811905.0370216.3651237.0619164.5431786.1103516l.5205765.2019157.4958878.2095222c.3429146.1629105.6255417.2301369.9620552.2383003.1601601-.0091934.3263245-.0166473.4811287-.0751495.1602859-.0415421.3078384-.1269989.457283-.2120628.2919044-.1878815.5516701-.4626503.7631645-.7891846.1073189-.1621971.1977806-.3406448.2797546-.5255928.0703468-.1867752.1657753-.3815536.1499023-.5940094.0440254.2117424-.0266495.4289551-.0741997.6339607-.064991.2015991-.1412163.3998642-.2366447.5853691-.1881142.3725128-.4363823.7097511-.7444839.9679489-.1620522.1120186-.3262596.2235565-.5081024.2886429-.1758347.0821304-.366951.1098747-.5527802.1357193-.3649902.0344849-.7857628-.0452652-1.102684-.1701241l-.9950409-.3449287c-.1642723-.0393982-.3314171-.0554924-.4965401-.0850601-.1653824-.0321846-.3307648-.0559692-.496151-.0369415-.3324623-.0091171-.6572189.0546989-.9730263.1499863-.1500359.0717468-.3138504.1096382-.4526482.2054024-.1421318.0774536-.2917747.1840782-.3949738.2717552l-.1147614.0973511-.1764221-.0575523c-.1352081-.0441589-.2581978-.1383362-.4001999-.1560135-.1435013-.003727-.2817764-.0568428-.4336395-.0110207-.296669.0284576-.6022911.1514168-.900528.2949028-.6020279.2869759-1.176754.7092743-1.7703552 1.0820274-.2986298.1934319-.5759659.4043846-.9131355.5620613-.1642075.0771332-.3175049.1833649-.4890938.2337036l-.5257378.1044044c-.1755714.0153809-.3555222-.037735-.5291328-.0550957-.1737442-.0301247-.3329887-.1415062-.4958229-.2083359-.1451378-.115345-.3009186-.2142792-.4222755-.3622856-.1254082-.1416664-.2387352-.2991066-.3267174-.4728775.2199898.3143272.5130653.5209961.8058815.682003.1598969.0391619.3095399.121689.4698945.1253359z"/><path d="m42.8180428 32.433506c.1538849-.2122993.2446747-.4704971.3634872-.7711105.145134-.3274841.3167877-.5917091.5190125-.8277111.820446-.9359226 1.9683304-1.1127071 2.7832947-.7513714.4159393.1732178.7358627.5255947.9087563.8969994.1815834.3710079.2229919.7461376.2316132 1.0387421.0011101.2962532-.0332451.5233765-.0613327.6748695-.0300446.1508636-.0460472.2313271-.0460472.2313271s.0554543-.3332748.005619-.8967628c-.0327263-.2768288-.1044426-.6167603-.2931442-.9191952-.1820412-.3049717-.4762955-.557066-.8390007-.6843834-.7224083-.2683449-1.7139854.0084839-2.367878.8104305-.1625748.1947803-.3071213.4373627-.4077072.672493-.1024818.2740555-.2165909.619854-.4121513.9048462-.3770752.5769653-.9386101.9372711-1.5124207 1.0935211-.5787086.1500702-1.1832848.1037712-1.7382202-.1318321-.5451355-.2276802-1.0849152-.7374191-1.2398491-1.4717445-.1616592-.7142696.0905304-1.4327412.3135223-1.8925381.2084274-.4562283.3659706-1.0056839.1906624-1.2692757-.189682-.2693768-.617836-.2637482-.9204521-.2495575-.3222084.0242577-.6050987.0915623-.8358612.1513367-.167408.0455036-.2981071.0848236-.409996.1196251-.0641441.123354-.137886.2304535-.216526.3172607-.0981712.1394444-.2284813.2136459-.3320732.2997398-.2191391.1557751-.4306374.1874065-.5658417.2187996-.141674.0161705-.2209702.0048351-.2209702.0048351s.3054237-.1553001.6115646-.5208378c.1482048-.1725826.3038559-.4307823.3612061-.6850166.0521202-.103693.0712585-.2712803.0899391-.4649506.0071869-.0712681.0322685-.2267265.0250816-.2305317l-.0304375-.2199097c.0071869-.1533966-.0366402-.2914944-.1009789-.4205551-.0383415-.1413479-.1204453-.260973-.2032013-.3763199-.1579361-.2333851-.3552589-.4420376-.5414162-.5847321-.3657761-.3084602-.6517982-.4905567-.6517982-.4905567s.079361-.0075302.2184219.011179c.1362495.0281429.3422585.0416183.5675392.1537151.2242355.1034527.5021591.2369537.7410889.5089455.119072.1363544.2519264.2714386.3240395.4812012.0978432.1894684.1672096.3940773.1757011.6252441l.0266495.3356495c-.0116272.1802731-.028347.2070675-.0421295.3171806-.0176353.1745644-.0647278.3579273-.1596336.5626965-.008297.024971-.0218811.0413818-.031353.0645294.0951653-.047327.2032661-.098856.3350105-.1557751.2269783-.0937824.5049667-.2036591.8405037-.2782574.3222084-.0429668.7628365-.1939068 1.1824341.2536011.1982384.2503529.2031364.6137486.1655807.897316-.0401726.2953014-.1227303.5738735-.2245598.8423004-.2041817.5230579-.3380165 1.0136909-.2282867 1.5238285.1111069.4896011.4962158.8639412.9522591 1.0438156.4573517.1859779.9773407.2009621 1.4612122.0795937.4845198-.1186752.9403037-.4043846 1.239067-.8426971z"/><path d="m53.5037308 15.9273787c.1059456-.0831594.1664925-.1306458.1664925-.1306458s-.1006508.339694-.4037247.7260027c-.1416054.204134-.3478127.3914604-.5698929.5965462-.2471581.1476097-.509407.3461952-.8072548.4125481l-.444809.0908489c-.1452637.0515289-.2934685-.0109406-.4328575-.0197392-.2797508-.0469303-.5383415-.0855389-.7318115-.2272816-.1329193-.0806236-.238472-.1525269-.3307648-.2181664.0564995.3296261.0949707.654892.0994759.989275.0033302.2175312.0141754.4349041-.0148277.6537037-.0271034.217453-.0228577.439661-.0849762.6516418l-.1615295.6386414-.2885056.6156521c-.0901375.22752-.2262573.3310528-.3433723.4856396l-.181385.2164993c-.0423927.0466938-.0331802.0483589-.117897.1321526l-.1218185.0822887-.4889641.3191605c-.1646652.097826-.3542137.1082115-.5286102.1638622-.1769447.0573959-.3542824.0828419-.5335121.0656395-.1775322-.0092754-.3567619.0115738-.52985-.024416-.3490562-.0569191-.6878586-.1558552-1.0111771-.3056068-.1641426-.0721397-.31287-.1820145-.4702187-.2727852.0900078.1720276.1755753.3478603.2480736.5247231.2263908.7060242.1878548 1.5079727-.0721092 2.1372585-.5533676 1.2196484-1.3958931 1.8949947-1.9696388 2.6128311-.2841949.3552322-.5555878.6817665-.6998062 1.0306568-.0943832.1670341-.139843.3377914-.1580048.5058556-.0493126.165369-.0329819.3185272-.0072479.4583702.0072479.2929211.1337051.4799309.1868057.6231022.0612679.1411896.0939255.2165012.0939255.2165012s-.0411491-.068573-.1182213-.1970787c-.0677338-.1350842-.2292633-.3021183-.2646675-.6177921-.0406914-.1498299-.0728912-.3182106-.0370979-.5067272.0050278-.1938267.0401688-.3932838.124691-.586319.1268425-.4121513.3821678-.7912464.6619873-1.1792183.5579376-.7608051 1.324894-1.5648918 1.7689857-2.6045074.1998024-.5292416.2073174-1.1081886.0303078-1.6572475-.1177025-.2552662-.2503624-.4966602-.3932762-.7481213l-.5987625-.7092743c-.3823662-.3611774-.8357315-.7757092-1.309803-.9538403-.2324638-.1258087-.4890327-.0998859-.7292023-.1635437-.2488594.0301247-.49543.0360699-.7404366.1000443-.4898109.1363544-.9677391.3132172-1.4404373.4697857-.4768829.1721859-.9226036.2681084-1.3352776.3511887-.4359932.072855-.8344917.0894222-1.1910591-.0492306-.3738098-.1181183-.5785789-.5638046-.5340996-.8766251.0136528-.3145638.107708-.5302715.1631622-.6736012.0604172-.1426163.1003914-.2124577.1003914-.2124577.01437-.00317-.1630287.3128204-.1599617.8851871-.0032005.2894344.1698914.5800571.4846535.6462517.3044434.0784817.6902084.0133972 1.0756454-.0759449.4092751-.1158218.8511467-.2490826 1.2860947-.4468746.4452019-.1838398.9222755-.4174633 1.4538269-.5676098.2639465-.0764217.5551987-.0971928.839325-.1335011.2465096.0484371.5086899.0547009.7535667.137146.0010452-.0045185.0017624-.0061836.0028076-.0107021.0278893-.1366692.0418015-.30616-.018158-.4573383-.049839-.1533966-.1975212-.2597847-.3558464-.375843-.3402405-.2265682-.8323364-.3378716-1.3010559-.7789593-.2242966-.2277565-.4529076-.5278931-.516201-.9689808-.066555-.3883686-.0294571-.7280626-.0698242-.9723091-.0568237-.2494001-.1526451-.4996719-.3317451-.6949272-.1620522-.2052431-.3660355-.3794107-.5736809-.529479-.4226646-.2928419-.8636894-.5132275-1.250824-.6635332-.7735481-.3166246-1.3186226-.4719248-1.3186226-.4719248s.5598984-.0530357 1.3925629.119071c.4118919.099966.9022255.2211781 1.3966789.5122766.179882.114315.3632278.2509851.5372963.4154015.0216217-.0227518.0359268-.0343256.0600281-.061676.0711288-.0820494.1391907-.1940651.1854362-.3366022.0416069-.1448355.0519905-.3107586.0400391-.491189-.0929489-.7417784-.7554588-1.5605326-1.5253525-1.9869537-.1943207-.110589-.366951-.1963644-.6025505-.2639866-.1883087-.0539074-.4589844-.1869307-.6701546-.2761154-.229393-.0726166-.4033318-.3332729-.5786438-.4840546-.117115-.2374287-.2755089-.4423552-.2943192-.6845407-.0595703-.2303743-.0587196-.4414845-.032135-.6246099.0032005-.1835222.0617867-.3303394.0833435-.4532166.0729599-.2419472.1394501-.3584824.1394501-.3584824s-.0240364.1446772-.0380135.3841677c.0051613.121767-.0203133.2673159.0133247.4285622.0111694.1644955.0523186.3345413.1175728.5046654.032917.1874065.1882439.3084602.2828217.466773.1685829.085062.2865448.2474174.4881134.2945862.1990242.0631037.4046402.1282673.6135902.1944618.2105827.051054.4770126.1593437.7033348.2834091.2198601.1271572.4282837.2835674.6188812.4613028-.0000648-.0777693.0011101-.1629105.0058136-.258358.006073-.205164.0261917-.4486179.1364479-.6857309.0790329-.2520943.19804-.5006227.3930779-.6934195.0966034-.089819.1702805-.2165012.2873306-.2650175.1075783-.0655603.2201843-.1128874.3239059-.1641788.1032028-.0553341.2184219-.0390034.3174438-.0535107.1007195-.0095129.1936646-.0152998.2796211.0049152.34618.0436802.5321388.2195921.5321388.2195921s-.0548668.012763-.1509476.0350399c-.0918999.008482-.2173767.0667496-.3620529.1087656-.0730896.0121288-.1468315.0518456-.2219467.0939407-.0735474.0459795-.1565666.0700798-.2286758.1250963-.0726318.0553341-.1422615.1181202-.2198563.1645756-.0853729.0335331-.1294594.1428537-.1962128.2098417-.1482735.1216869-.2430458.3103619-.3411522.4903164-.0463753.0900564-.1101913.166954-.1606827.250351-.0356636.0945759-.0694313.1840773-.1005211.2666826-.0517311.1260471-.1015053.231245-.1461792.3216982.1367073.1457872.2746582.2915745.3822365.4613819.2939262.4486971.458786.9880066.4519272 1.4700794-.0068588.2436914-.0736122.4602718-.1661682.6189804-.0963402.1593437-.2020912.256773-.297451.32162-.0176353.0152998-.0340958.0190258-.0516663.0294104.0357933.0371809.0752449.0636587.1092758.1053572.2299805.2443266.4030724.6072483.4902039.999898.0556488.4111204.0051613.7592192.0573502 1.0106001.0259933.218008.1519928.4594002.3122787.6350746.3320732.3675194.7913818.6027279 1.1534348.9029446.1774673.1604519.3508873.3566589.3873978.6133518.0414772.2416306-.0180931.4314156-.0722389.5683231.0056152.0026169.0119514.0019035.0175018.0045986.5879211.2192745 1.0459251.6099434 1.5445557 1.0769539l.5866776.7237034c.0548668.0941792.1088219.1956501.1630974.2952995.1965408.0716648.3919678.1533184.5913811.203104.328743.0865669.6592484.1142349.9861603.1411877.1632271.0160942.3248215-.0240993.485569-.0323429.1632271-.0004768.318615-.042017.4674072-.1110649.1470299-.0673046.3097343-.0873623.4412193-.1885967l.3941231-.2936344.0990219-.0709515c-.016983.0237026.0448723-.058506.063488-.0825253l.1727638-.2266483c.1066628-.1519699.2565002-.2988682.2990189-.4601135l.2052917-.463522.1285477-.5448589c.0526428-.1778927.0423889-.3780632.0717812-.565073.0294571-.1888332.0209007-.3838501.0207062-.577837.0053558-.3846436-.050621-.7856178-.1078377-1.1462402l-.0299797-.1889915.097126-.1129665c.244873-.2848358.4623146-.6640892.5998077-1.0434999.0708008-.192956.1079025-.3921747.1267776-.5947227.003334-.2018347-.0252113-.3988342-.0847816-.592186-.0767479-.1847906-.1681252-.3643484-.3001976-.5175085-.1170464-.1645756-.2749825-.292367-.4188766-.43641-.3163986-.2521744-.6655846-.4433861-1.0205803-.6410198.3804054.0970335.7553253.2330694 1.1188812.4347458.1693039.1254921.3605499.2231598.5108452.3975649.1630325.158392.2939262.3601475.407711.5873499.0977135.2390146.1574135.4982452.1713905.7699213-.0013046.2672367-.0323296.5317774-.1011086.7785616-.1215553.4159575-.3116951.7692862-.5410233 1.1025591.1137161.0132389.2462463.0312347.400589.0613594.0984344.0192642.2013741.0610409.3173103.0339298.114109-.0115738.2318764-.0266361.3516693-.0240211.1197929-.0083237.2439575.0168076.365448-.0317879l.3701553-.096796c.1282806-.0101471.2457848-.073885.3626404-.1319141.1197243-.0520039.2374916-.1031361.3515358-.1526833.2084923-.1496716.4435043-.2279968.6043777-.3772717.1736796-.1282676.3300478-.2232383.4269793-.3133748z"/><path d="m54.3804169 13.7599154c-.125473.2321968-.2419968.3320837-.2419968.3320837s-.0408249-.1958094-.0527115-.4071569c.0133247-.1041679-.0570869-.2291059-.0608788-.3451643-.0065308-.1181993-.0620499-.2403622-.0783119-.3639526-.0426521-.1633072-.0876579-.3406458-.1302452-.510849-.0042458.026557-.0091438.0528765-.0124092.0795918-.0347481.1384144-.0423889.2953796-.1131287.4050169-.0551949.1204987-.1242332.2298193-.1832161.3380299-.1080322.2320385-.2783813.359354-.4103851.4769983-.2726364.2295818-.470871.327486-.470871.327486s.0886345-.2614498.2463074-.5710192c.0901413-.1454697.1766853-.3272476.2314873-.5287657.036705-.0956059.0666237-.1967611.1119537-.290226.0575409-.0914049.0436287-.2021523.0664253-.3017216.0651207-.2008839.0558472-.40137.0542793-.6002722.0103836-.1011553-.0203781-.1935101-.0282173-.2895126-.0143051-.0939417-.019268-.1912117-.0524483-.2681885-.051342-.1627522-.079689-.3197165-.1260643-.4134989-.0392532-.1063871-.0617256-.1671915-.0617256-.1671915s.2231255.0774517.4471626.3978024c.0631638.0731716.1035271.1746435.1551285.2798424.0442848.1080513.1214905.2157078.1279564.3545179.0099945.0692863.0186157.1449156.0293274.2177696.0523834.0274286.1060753.0531931.1707382.1108265.1769447.1444397.3704796.4203959.4600945.7665119.0188103.1813021.0741997.3557081.0371017.5302715-.0265197.1708384-.0522536.3271694-.1153525.4407702z"/><path d="m50.1877098 27.8154087c.1210327-.2203064.2318115-.5215511.2608757-.7960815.0431747-.2816639.0004578-.552866-.095295-.8161373-.097847-.2674751-.2954979-.4840546-.5005264-.6902504-.1393852-.1373844-.2948418-.2527294-.454216-.3672028-.4992828.2134876-.9646683.4312572-1.3243065.6992073-.2170486.1572819-.3919029.3295479-.5361214.5056973-.1493797.169014-.2228622.371563-.3163948.5156841-.1101913.342865-.1730919.5388336-.1730919.5388336s.0278244-.2132492.0765495-.586319c.0719795-.1650505.1242332-.4036694.2576141-.6196156.1274338-.2256966.2945137-.4593983.5185509-.6536236.2140465-.2059574.4681282-.3920155.7389336-.5663414.2718506-.1765461.5630989-.3450851.87146-.492775.300396-.1575203.6329231-.2926846.9268532-.4599552l.4301758-.253046.3736801-.351347c.4820404-.5101376.7367134-1.2243271.9532394-1.9943275.0622482-.2118225.1252785-.410408.2073174-.5660248.1090126-.2096825.2491837-.3510303.3721123-.4694672.2512093-.2340202.4971924-.4140549.7233849-.5834656.9207764-.635788 1.5763016-.9452782 1.5763016-.9452782s-.5639496.4992752-1.4098701 1.248188c-.2047729.1916084-.4286766.3985176-.6351471.6367397-.1007843.1162167-.1911812.2435322-.239254.3581638-.0701523.1809063-.1162643.3494453-.1533661.5167961-.0894203.3607025-.1922951.7883911-.358593 1.1844501-.1676674.4001808-.3979759.7795143-.67799 1.096138-.152256.1402378-.3023529.2872944-.4589195.4152451l-.5072517.2875309c-.3293953.1836796-.6516037.272707-.9571571.4150848-.0365791.0150623-.0676689.0310745-.1038551.0461369.1389961.0464554.2772064.1037712.4162025.1683807.2580681.1748028.5278244.3731499.71875.7041225.1989555.321619.27211.7551765.2465057 1.1524239-.0196609.2068291-.0590477.3989925-.1167221.584259.1423264.0053902.2848473-.0300465.4255409.043045l.4403038.1627522c.1423264.0644512.2612038.1986637.3866119.2987881.1327896.0937824.2201195.2482109.3173103.3841686.1028748.1316757.1797523.2826958.2412834.4439411.1288681.3131371.2047005.6575089.2184181.9929218-.129261-.3021183-.2478142-.5934544-.4348793-.8239861-.0802765-.124939-.1609421-.2445641-.2662354-.333828-.0984306-.0954475-.18367-.2082558-.3043098-.2565346l-.1651878-.0944176c-.0574799-.022831-.0998726-.0836353-.1642723-.0864887l-.3548698-.0870438c-.1127357-.0498638-.2436981-.008007-.3653831-.0107021l-.370285.016489-.5485306.0243378z"/><path d="m46.4826584 36.1672897c.1715889-.0237045.3576775.0225945.530899-.0137939.1722412-.0252876.3559799-.0129242.5082321-.0677032.1640778-.0264778.311367-.0680962.4386711-.1291389.2497063-.1127281.425869-.2665215.425869-.2665215s.0000648.0640526-.0374947.1694908c-.0368385.1077347-.1015663.2559776-.2187462.3973274-.1226006.1271553-.2715874.2919693-.4668884.3728294-.1882439.1254158-.4037247.1288223-.6169205.1715508-.214695.0256081-.4193993-.0311546-.6126747-.0652428-.1960144-.0224342-.3558464-.1449127-.4981728-.2096024-.0889626-.050499-.1613312-.0983009-.2254105-.1429329-.0611343.0704765-.1297188.1327057-.1917038.2042122-.1043129.0836334-.1977806.1994553-.311039.2478142-.111824.0528755-.228611.0864105-.3367767.1266823-.2167892.100441-.4256058.0840302-.5997429.0640526-.1697578-.0168839-.3059464-.0439949-.4032669-.067543-.4525185.0933075-.9604225.2010422-1.274601.2775459-.6693039.1623535-1.564476.3432617-2.4650688.4528198-.2254105.0245743-.4507523.0491486-.6726341.0733299-.2259979.0497818-.4890976-.0336952-.7171173-.0497856-.4602242-.1439667-.8380203-.435379-1.0835457-.7531929-.2659721-.2976799-.3908577-.6345215-.4887695-.8451538-.0875244-.2248268-.1143036-.3598328-.1143036-.3598328s.2666893.4771576.7973251.9275208c.1230583.1275558.2836075.2073059.4432411.3006134.162117.085537.3491859.1151848.528286.168457.1948395-.012207.370739.0371819.5872002-.0123634.2212944-.0316315.4460526-.0637398.6708717-.0958443.9000053-.1170921 1.8055-.1629105 2.4866905-.1705208.324234-.0034103.8488617-.027668 1.311306-.0520859.0909882-.0458984.2100601-.1020279.3501663-.1555367.0752449-.0256081.156826-.0534325.2431107-.0828438.0807991-.0441551.1559143-.1147881.240696-.1574402.0838661-.0472488.1655121-.1041679.2553215-.1431694.0894203-.0413818.1453972-.1393661.2211647-.2027855.0679321-.0731735.1670151-.1128883.2128677-.2103195.0517311-.0901337.1155472-.1679039.1737442-.250351.0625763-.0784836.0912476-.1815414.142067-.2659683.0455894-.0881538.0926857-.1734543.1129303-.2633514.0559769-.1748009.1228638-.3234444.142395-.4372025.0315475-.1169319.0495758-.1836815.0495758-.1836815s.1189423.2585182.1013069.6973839c.0041771.1105118-.0183563.2247467-.0413475.3492088-.0293922.1204185-.0302429.2688217-.0984993.3857536-.0436325.0879135-.0907898.1816978-.1387329.2738152.0491829-.0025368.0988235-.0052338.1544762-.0049171.1440889.0071374.312214.018078.4850427-.001583z"/><path d="m32.2796402 40.0289421c-.1849785.3805199-.5016346 1.2170334-.3516674 2.2457085.1598988 1.100975.7979145 2.086525 1.8968105 2.9312782.0496407.0443954 1.5529823 1.3394356 3.492115 1.3394356h.0005226c1.1506271 0 2.2092896-.4578934 3.1467209-1.3584595 1.1030769-1.0603867 1.7353477-1.196106 2.1633034-1.196106.3438301 0 .662056.098938 1.0309677.2130928.4420662.1369858.9431801.2930031 1.5817184.2930031.5967369 0 1.2263947-.1357193 1.9245033-.4160385 2.9695816-1.1897621 4.0747452-2.8665924 4.4096947-3.5261612.3119545.1293793.9118271.3272476 1.6611443.3272476.9275055 0 1.7949142-.2993431 2.5771523-.889782 1.2248306-.9253006 1.549324-2.037693 1.8351517-3.0194359.2252159-.7718239.4195976-1.4383698 1.0304451-1.908947 1.0680656-.8206558 2.5881271-2.7074051 2.6247025-4.3296947.0120201-.5282898-.1374245-.9880848-.4347496-1.347044.4269142-.6792297 1.3956947-2.5596371.3887672-4.343647-.4175072-.7401123-.521492-1.3603611-.6223412-1.9596825-.1646004-.979208-.3203163-1.9064102-1.6433792-3.0650959.1473541-.821291.3981743-3.5413818-2.2928925-5.2232847-.0595703-.0374184-.111824-.07547-.1646004-.1141567l-.0496407-.0348806c-.552845-1.7155151-1.744751-4.6404533-3.710537-5.7953348-1.7572937-1.0324798-3.4926414-1.2347903-4.6411781-1.3679724-.6009178-.0697622-1.1197968-.1300116-1.3068657-.275878-.7529755-.5872707-2.604847-1.4453454-4.1369247-1.2855268-.4075813.0386863-.782238.1065459-1.1412239.172503-1.0027466.1826501-1.9046478.2581201-2.8102036-.1674294-.6301804-.2961721-1.2911911-.4528198-1.9114418-.4528198-1.0586586 0-2.5578194.4559908-3.6870232 2.626863-.6448097 1.2398643-.8120232 2.7264328-.4770737 4.2041225-.4316177.7052326-.5450096 1.4402723-.3380814 2.1898985-.242981.7115736-1.3293362 4.2212458-.0658417 6.8392305.1713905.4496479.5544128 1.8410873.1369057 2.543148-.6599655 1.110487-.6709385 5.8885612-.0167236 7.3047333.1353378.5441456.4467697 2.3002491.0073166 3.1450062l-.0297852.07864c-.1076429.4287225-.9839361 4.0753823-.0757673 5.6234666zm.5779266-5.395153c.3772736-.7676201.3135223-1.9047432.1973877-2.7195358.1096687.1882782.2583313.3457985.3929482.5163994.2173767.2158661.4617271.3855133.7137222.5197296-.0026779.0197372-.0050316.0280609-.0076447.0497818-.015934.2195129-.0669479.5401039-.0341606.9228439.0128021.1914482.0163956.402401.0592461.6196136.0441513.2153931.0485954.4607506.140625.6841469.0844574.2239532.135601.4799309.257679.6981773.1250801.2155495.2439575.4446526.3824959.653862l.5067291.5238495c.1363182.1431694.3195305.2793655.4703484.4136581.170414.1316757.2683258.2713585.3995476.396534.1342926.1173286.2103844.2817459.308033.4119148.1612053.280632.2747269.5488205.2919044.7588234.0369682.2076988.0146942.3358879.0146942.3358879-.0065308.0003166.068779-.1066246.0894203-.3363647.0271721-.2254601.0109749-.5761719-.1346169-.939888-.0838699-.1684608-.1503601-.3802032-.2811928-.5496941-.1203766-.1713943-.2472916-.3991508-.3980408-.5281296-.1489258-.1532402-.3028107-.3116341-.4591789-.4724808l-.4123497-.4512367c-.2366447-.3503151-.4514046-.7241783-.59935-1.1273727-.0922279-.1889114-.1309586-.4020805-.2003937-.5892525-.0694313-.1888313-.1004562-.3809166-.1389923-.5563507-.0779915-.3564224-.1291351-.6604424-.1610069-.8754387.0988235.046299.1947746.1101151.2960167.1354027.3870049.1266022.7621841.102108 1.0648651.0500221.3068619-.0439949.5435028-.1759911.7047081-.254631.1611366-.0868073.2419319-.1611671.2419319-.1611671s-.3977814.0990944-.9621849.0522423c-.5639496-.0209274-1.2733574-.3002129-1.8024292-.8747215-.1247559-.1551418-.2725677-.2818241-.3726997-.4659004-.1052895-.1753559-.2359238-.3244724-.3165894-.5146542-.1959534-.3491287-.3560448-.7029343-.4809303-1.0188446-.0126076-.0304413-.0209694-.0550175-.0329208-.0847454-.2807312-1.8195248-.2027435-4.8655167.2331161-5.5986538.0277596-.0466137.03965-.1016293.0628357-.1507797.041935-.0278263.0836716-.0535908.1245613-.087759.1299782-.1214485.3258667-.1603737.5118256-.2506676.1826248-.1011543.4196625-.1020279.6447449-.1627522.2320709-.0404301.4870033-.0313129.7414131-.0665112.5201225-.0014267 1.0757103.0067387 1.6340408.0705547.5584602.0482788 1.1172485.1265221 1.6421394.2056389.5246925.0779285 1.0182915.1457882 1.4386101.225935.4233856.0687313.7760315.1258888 1.0234528.1660824-.0395164.1985836-.0350761.3936806.0000648.5722084.0140457.1887531.0826263.3422298.1455269.4645519.1257362.2490826.2453957.3751297.2453957.3751297s.0404968-.2080975.0474854-.4601135c-.0150871-.1245403.0118256-.2688999.0321388-.4094563.0111046-.1428528.0112991-.2880058.0534935-.4209499.0049629-.1457081.0583267-.2681103.0864792-.4022427.0389938-.1250172.0739403-.2615299.1240387-.3653011.0873947-.221653.1775322-.3932037.1775322-.3932037s-.1722412-.0168858-.388443.1342125c-.0979729.0807018-.2272377.1830463-.3197899.3384247-.0764885.1311226-.1391907.2851543-.1762276.4500465-.234684-.1093998-.5728302-.2561378-.9875298-.4052563-.8246307-.2942696-1.9476929-.6151752-3.1029549-.7227516-.5767517-.0523205-1.1606216-.0530338-1.706871.0059471-.2740707.0502586-.5374947.089262-.7834129.1717892-.2431755.1045628-.4807358.1428528-.6794281.2868176-.1412811.0881538-.2682571.169569-.3804741.2654915.2608109-1.1424351-.2802734-2.589365-.3078384-2.6606331-1.2535667-2.6002274.1102562-6.3572378.1243629-6.3946552l.0459824-.124938-.0412788-.1274748c-.2027435-.624054-.1065979-1.1980066.3035927-1.8055716l.0909233-.1344509c.0788383-.1181993.3332481-.4979277.4467697-.5924234.1178322-.0948133.2844543-.09624.4208374-.166399.1508179-.0313931.305294-.066987.4562416-.0872021.151535-.0082455.3009148-.0564442.4301109-.0468521.2597694-.027112.4578094-.0424118.4578094-.0424118s-.1344872-.1797171-.4020271-.3153572c-.1312866-.0682564-.2936668-.1321516-.4753113-.1656055-.1808014-.0358324-.3840675-.0067387-.581913.0235443-.1883736.0979843-.4015694.1310425-.542263.305685-.1355324.1515741-.2693672.2782564-.3315506.4391851-.2002602-1.186512-.056694-2.3609743.4578094-3.3501701.8020935-1.5417442 1.8900185-2.3237147 3.2345047-2.3237147.5549355 0 1.1490593.141427 1.7181015.4084258 1.0053635.4737487 2.0143814.3995471 3.0824471.2042127.348011-.0627856.7106514-.1293769 1.1046448-.167429 1.3946533-.1344509 3.1331329.6614723 3.80616 1.1853228.0859604.0669084.1967354.1168518.3205795.1598978.0005226.0014272.000782.0019031.0013046.0033298.107708.2763538.2267151.6973047.2775345 1.1919031.0611343.4969759-.0363159 1.0689468-.3566322 1.5007582-.1476822.2266483-.3619881.4014502-.5851784.5668182-.241478.2056398-.4868736.4145298-.7322693.6233406-.2215576.2551079-.4372978.6027298-.6175728.9141226-.0091438.0305204-.0205765.0599318-.0305023.0900564-.050621-.0121288-.0881805-.0306005-.1534309-.0314722-.2416725-.0140314-.5931473.0799093-.8492546.3695021-.1252785.1452322-.2454605.2952995-.2982368.4832611-.0711975.1735334-.1092758.3446884-.1097984.49547-.0099297.3025141.0332451.4891281.0332451.4891281s.1291962-.1529217.2483368-.3595924c.0402985-.1170101.1483994-.2038164.2229919-.3126612.0691719-.1170893.1612015-.2119026.2540207-.3055267.0723686-.1227179.1966667-.1689358.2792931-.2784147.0905952-.0548582.1687164-.1438847.2504272-.1981087-.0717201.2012796-.1344223.4025593-.1407585.6162062-.0443497.3611774-.0659714.7085619.0072517 1.031846.025341.3297052.1220779.6143036.2288704.8678255.0743294.2703285.2285423.4590034.3532333.6269093.1139793.179636.2333145.3066349.3550644.381155.2221451.1614037.3491211.2536793.3491211.2536793s-.1021576-.1269989-.2809296-.3492851c-.099411-.0931492-.1888313-.2394905-.2642746-.4313374-.0846481-.1813021-.189743-.3714037-.2342262-.6218348-.0709991-.2360811-.1295891-.4930124-.1190071-.7807808-.037426-.2819824.0221443-.5699892.0669518-.8660822.0148888-.3063984.2005882-.5583353.278183-.8546658.1587219-.2400455.2932091-.4778709.4876595-.7064209.2284775-.2042131.4569588-.4085054.6818466-.6096268.2638817-.1985044.5081673-.4463987.6890297-.7520046.2021561-.2875309.2860222-.6605997.3370361-.9900675.0218811-.3388224.0105171-.6565571-.055584-.9288673-.0995445-.494916-.2854385-.83461-.429657-1.087656.2854996.0767384.6407623.1235895 1.0799522.1746435 1.1762314.1369867 2.7877388.3240767 4.4588127 1.3064547 1.8414192 1.0813141 2.9695778 3.9415636 3.4780083 5.5498981l.0350075.1109858.2053566.1420612c.0621834.0450277.1243668.0900564.1949081.1338167 2.7762413 1.7351751 2.0133362 4.5573721 1.9793701 4.6766024l-.0663605.2340202.0158043.0131607c.0022888.0283012.0095367.1262054.007122.2972813-.0064011.1969204-.0286751.4892864-.1517982.7555714-.0421944.1430931-.1559105.2480526-.2440262.3644295-.1374931.0668278-.2270393.1993771-.3958855.2294998-.2851753.1142368-.6832199.1870117-1.0635605.3162289-.3867416.1377811-.770153.3213024-1.0907288.6021748-.3292007.267395-.5463142.6420498-.7014427.9570103-.141346.3297844-.2099953.6208839-.2446136.8259697-.0390587.2038155-.053299.3201923-.053299.3201923s.0594406-.0986195.1493149-.271122c.0738106-.1837597.2338371-.4031944.3967361-.6678944.0905304-.123827.201767-.240757.3081665-.3702927.1336403-.0956059.2504921-.2218914.3987617-.3119488.2866783-.189785.6266518-.3465118.9778633-.4579735.1667557-.0726147.3630333-.120657.5436363-.1782894.1766815-.0405102.3740044-.1544285.5625114-.2388554.1952324-.0550976.3390617-.2843609.4837379-.4169884.1071205-.1909733.2246246-.3767948.25317-.5724468.1041145-.3859901.0825615-.8282661.0476799-1.0278816 1.2544174 1.0569763 1.384594 1.8113594 1.5445557 2.7628193.1060753.6316662.2267799 1.3483143.7054253 2.1962414.7983704 1.4154587.0301094 2.9354801-.3385391 3.5276661-.1194649-.379015-.4625092-1.0421505-.8327942-1.4035664-.184391-.1773396-.4000015-.3232841-.6212311-.3993092-.2001953-.0696049-.3947105-.0604877-.5594406-.0358334.214695-.2675533.4237785-.5391502.5959549-.845232.2334404-.4062843.4438934-.8351631.5962791-1.289093-.252388.3855934-.4981079.7638168-.7877922 1.0951061-.2692375.3517456-.573288.6537838-.8765564.9452l-.4881134.3736229c-.1525803.1442814-.3430443.1955719-.5107155.2985516-.1719131.0949707-.3423271.1908932-.5289383.217371l-.5444832.1403961-.3278275.0845871.1086235.361496c.1326599.4414043.2273674.9585152.243763 1.4512901.026062.4989586-.0291328.9960136-.1574135 1.4660358-.1285439.4678841-.3361244.9211006-.6398468 1.2806931-.1298523.2074623-.3076439.3570557-.4678688.5367699-.1724358.1593437-.3604851.2961731-.5405617.4587669.419857-.1699677.8335762-.4052544 1.193409-.7547798.3641434-.3419151.6506882-.813282.8505592-1.3318233.1086884-.2575645.1642723-.5403385.2133904-.8205776.0426521-.2828541.064209-.5689583.0619202-.8550625-.0141068-.4504414-.0780525-.8851871-.1844559-1.3207245l.3267822-.0902157c.2163963-.03829.4079056-.1535549.5959549-.276907.1841278-.1275539.393013-.2080193.5531693-.3754482l.4389343-.4200001c.0674706.0114956.1408882.027668.2193336.0407486.1447411.0264778.2958221.1133633.4494476.2000904.1501617.1027393.3085556.2158661.4525146.3700562.29282.2924461.4480133.4659786.6642113.7459011.2191391.276432.1160049.6907234.1160049.6907234l.2497711.2162628c.2983704.2581215.4384079.5929794.4290047 1.0236015-.0271721 1.2005444-1.2509537 2.9331837-2.3764992 3.7988682-.0858269.0660362-.1438293.145153-.2173119.2170563-.0004578-.1759911.004509-.3502388-.0434341-.5149727-.0282822-.1793213-.1142426-.3312111-.1731567-.4557533-.0352058-.0587425-.0713272-.1055946-.1060753-.1449928.1612663-.2931595.289093-.5990829.351078-.856411.084259-.3253441.0823021-.5654716.0823021-.5654716s-.1528435.1513367-.3414803.3821869c-.083931.124382-.2042465.2490044-.3077736.3989906-.1030045.1477699-.2128029.3053703-.3226662.4629707-.21241.316227-.4248238.632534-.5841331.8697281-.1792297.2020721-.3086205.4026375-.3086205.4026375s.186348.0019798.4774666-.099968c.1219482-.0826035.2804718-.1661606.4312248-.2918091.1176376-.1200256.2363167-.2625618.34729-.4096146.0052261.1166115-.0028076.243927-.0114288.3815498.0024796.1393661-.0162659.2943497-.0237122.4463997.0111694.1524467-.0314827.3099632-.0244942.4616966.0003929.0998077-.0028725.1900253-.0052223.2825394-.2079048.4058075-.3425255.8426132-.4681969 1.2745056-.2696266.9240303-.5481415 1.8791389-1.6135941 2.6839409-.6960182.525753-1.4683304.7927513-2.2944603.7927513-.7730293 0-1.3689804-.2371101-1.5830917-.3350945.1089478-.1621971.296669-.3633194.4561081-.663456.1557198-.3121834.3751831-.6593323.5072556-1.1043015.1593742-.4255486.2541466-.9338646.2684517-1.4526405.0243645-.2579613-.0370979-.5209961-.0549316-.7754707-.0639458-.2474937-.1158066-.4969749-.2213593-.7086411-.1777267-.4446526-.459507-.7600098-.6991539-.9926834-.2408905-.240284-.4875259-.3498421-.6475563-.4335556-.1654472-.0768967-.2663612-.0928307-.2663612-.0928307s.3442879.268425.7092133.7925148c.1879158.2525711.362381.5871925.4772072.9657288.0780525.1801147.0883751.3942375.1418686.5923462.0042458.2124557.0560417.420475.0264549.639431-.0040512.2167397-.0090141.4345894-.055912.6483154-.0318108.2142792-.0591774.4287186-.1228638.6292076-.0600243.1994553-.0832787.4088211-.1536255.5898857-.0608749.186058-.1592407.3423882-.2698898.583149-.3177032.6291275-.4357948.6037598-.4357948.6037598l-.1065979.3056831c-.006794.0190277-.7759666 2.0649605-4.2079926 3.4399109-.6432419.2574844-1.2180328.3830566-1.7567711.3830566-.5711327 0-1.0179024-.1382561-1.4495163-.2727051-.3866806-.1204987-.7519341-.233387-1.1631699-.233387-.7639503 0-1.5336456.4122314-2.495636 1.3356285-.8402405.807972-1.7870789 1.2189369-2.8143883 1.2189369-1.762516 0-3.1791153-1.2151299-3.193222-1.2278137-.9761009-.7508965-1.5331268-1.5880432-1.667942-2.4974861-.1612015-1.0831375.3414803-1.9240913.3645363-1.9615059.043045-.062233.1000671-.1450768.16362-.2391739.0523186-.1071014.1433067-.2060356.2141113-.3186073.0670776-.1200218.1596985-.2041359.2277603-.318924.0899391-.0665131.1556511-.1905785.2468987-.2407608.0921631-.0356712.1661644-.1789246.2635536-.179081.1792946-.0641327.34161-.159977.34161-.159977s-.1192055-.1136017-.3622513-.2046089c-.1182213-.0561295-.2690392-.0119705-.431942.0198174-.1674728.0304413-.292881.192955-.4380798.3081436-.1809959.2462273-.2687149.526783-.3076439.778244-.6516032-1.048969-.1542162-3.9107244.1191373-5.0204198z"/></g><ellipse cx="32.064133" cy="27.134174" fill="url(#g)" rx="26.314133" ry="19.994093"/></svg>