<svg height="64" preserveAspectRatio="none" viewBox="0 0 64 64" width="64" xmlns="http://www.w3.org/2000/svg" xmlns:xlink="http://www.w3.org/1999/xlink"><radialGradient id="a" cx="11.249023" cy="37.19043" gradientTransform="matrix(1.8478285 .0468227 -.0069597 .2744716 10.311297 37.200378)" gradientUnits="userSpaceOnUse" r="15.020376"><stop offset="0" stop-color="#1f1f1f"/><stop offset="1" stop-color="#0e0e0e" stop-opacity="0"/></radialGradient><path d="m58.9033203 48.6474609c-.0556641 2.4638672-12.6757813 4.1435547-28.1791992 3.7509766-15.5019531-.3935547-28.0170898-2.7089844-27.953125-5.171875.0625-2.4658203 12.6767578-4.1464844 28.1816406-3.7548828 15.5014649.3964844 28.0141602 2.7119141 27.9506836 5.1757812z" fill="url(#a)"/><path d="m20.7841797 41.2236328s1.75 3.7529297 0 4.2832031-2.9414063 1.5048828-1.9082031 2.8300781c0 0 5.1982422 1.0341797 7.9282227-1.0078125 0 0 1.1362305-4.1376953.2456055-6.6523438" fill="#c6ad9d"/><path d="m21.8413086 49.1015625c-1.6455078 0-2.9545898-.2529297-3.0629883-.2744141l-.1821289-.0361328-.1147461-.1464844c-.5673828-.7275391-.5390625-1.3447266-.4155273-1.734375.3198242-1.0078125 1.5756836-1.5791016 2.5732422-1.8818359.1577148-.0478516.2578125-.1367188.3256836-.2880859.3232422-.7246094-.2172852-2.4121094-.6337891-3.3056641l.90625-.421875c.1298828.2783203 1.2529297 2.7646484.640625 4.1357422-.1860352.4160156-.5141602.7050781-.9487305.8369141-1.0537109.3193359-1.7675781.7783203-1.9101563 1.2265625-.0244141.0771484-.0932617.2949219.1450195.6679688.9199219.1513672 4.9350586.6972656 7.2011719-.8515625.1938477-.7841797.9433594-4.1240234.2133789-6.1845703l.9423828-.3339844c.9326172 2.6328125-.1865234 6.7763672-.2348633 6.9521484l-.0454102.1650391-.137207.1025391c-1.467285 1.0976561-3.5473632 1.3720702-5.2622069 1.3720702z" fill="#140401"/><path d="m40.7587891 39.7900391s3.2597656 3.1328125 1.9482422 4.1894531c-.6826172.5498047-3.0791016.3330078-3.3017578 3.2910156 0 0 4.1367188 1.3896484 7.4960938-1.4003906 0 0 .2988281-2.6269531 1.0449219-4.8046875s.4550781-3.5537109.4550781-3.5537109" fill="#c6ad9d"/><path d="m41.8945313 48.1230469c-1.4882813 0-2.5605469-.3486328-2.6484375-.3789063l-.3681641-.1230469.0283203-.3876953c.1923828-2.5458984 1.8642578-3.078125 2.8632813-3.3955078.2578125-.0820313.5234375-.1669922.6240234-.2480469.0830078-.0664063.1191406-.1425781.1240234-.2636719.0332031-.7626953-1.2109375-2.3164063-2.1054688-3.1757813l.6933594-.7207031c.2539063.2441406 2.4775391 2.4267578 2.4111328 3.9404297-.0175781.40625-.1894531.7519531-.4960938.9990234-.2460938.1972656-.5712891.3007813-.9472656.4208984-.8769531.2792969-1.8613281.5927734-2.1201172 2.1083984 1.0419922.2382813 3.9873047.6640625 6.4765625-1.2900391.0869141-.6699219.4013672-2.8300781 1.0439453-4.7050781.6845703-1.9980469.4404297-3.2783203.4384766-3.2910156l.9785156-.2041016c.0126953.0615234.3105469 1.5371094-.4716797 3.8193359-.7197266 2.1015625-1.0175781 4.6738281-1.0205078 4.6992188l-.0234374.199219-.1542969.1289063c-1.7978515 1.493164-3.7851562 1.868164-5.3261718 1.868164z" fill="#140401"/><path d="m2.2871094 38.4648438s2.9248047.015625 4.7998047-2.8808594 2.6333008-6.1689453 6.5581055-8.5375977c0 0 5.8681641-9.6269531 12.1918945-5.7319336 6.3242187 3.8950196 28.2070312 9.9980469 29.7285156 11.4980469s1.0966797 5.5371094-2.1699219 9.0087891c-4.1669922 2.03125-16.6650391 5.7783203-24.9868164 3.1347656 0 0-9.0473633 2.0585938-17.0224609-1.15625 0 0-4.065918-1.2353516-6.5395508-1.8759766-1.4345703-.3710937-3.265625-2.1933593-2.5595703-3.4589843z" fill="#e0d2c7"/><path d="m35.0888672 46.3671875c-2.5244141 0-4.7783203-.3007813-6.7036133-.8945313-.6171875.1289063-3.2475586.6328125-6.7431641.6328125-3.8979492 0-7.4111328-.6201172-10.4428711-1.8417969-.0063477 0-4.0449219-1.2255859-6.4780273-1.8554688-1.1665039-.3017578-2.4379883-1.3740234-2.8945313-2.4404297-.2700195-.6308594-.2617188-1.234375.0239258-1.7460938.0878906-.1582031.2553711-.2568359.4365234-.2568359.1088867 0 2.6855469-.0351563 4.3798828-2.6523438.4853516-.75.8876953-1.5136719 1.3134766-2.3217773 1.1679688-2.2158203 2.375-4.5068359 5.3032227-6.3095703.5688477-.8984375 4.4931641-6.7944336 9.4257813-6.7944336 1.1694336 0 2.3100586.3369141 3.3896484 1.0019531 3.5664063 2.1967773 12.2807617 5.1499023 19.2827148 7.5229492 6.2597656 2.121582 9.8349609 3.3549805 10.5341797 4.0449219 1.7480469 1.7231445 1.2988281 6.0356445-2.15625 9.7075195-.0419922.0439453-.0908203.0800781-.1455078.1064453-3.2490234 1.5839846-11.1513672 4.0966799-18.5253906 4.0966799zm-6.6801758-1.9111328c.0512695 0 .1020508.0078125.1513672.0234375 1.8549805.5888672 4.0512695.8876953 6.5288086.8876953 6.7675781 0 14.5585938-2.2988281 18.0048828-3.9550781 3.1054688-3.3457031 3.3339844-7.0478516 2.1210938-8.2441406-.5703125-.5615234-5.4423828-2.2124023-10.1533203-3.809082-7.0498047-2.3891602-15.8242188-5.362793-19.4868164-7.6186523-.9194336-.5664063-1.8837891-.8535156-2.8652344-.8535156-4.6630859 0-8.5986328 6.355957-8.6376953 6.4199219-.0419922.0688477-.0996094.1264648-.168457.1679688-2.7646484 1.668457-3.8691406 3.7641602-5.0380859 5.9824219-.4174805.7919922-.8491211 1.6113281-1.3583984 2.3984375-1.6201172 2.5019531-3.9736328 2.9912109-4.8637695 3.0859375-.0317383.1865234.0029297.3974609.1035156.6328125.3359375.7861328 1.3549805 1.640625 2.2250977 1.8652344 2.4555664.6357422 6.519043 1.8691406 6.5600586 1.8818359 2.9536133 1.1884766 6.3413086 1.7841797 10.1103516 1.7841797 3.8051758 0 6.6279297-.6308594 6.6557617-.6367188.0366209-.0087893.0737302-.0126955.1108396-.0126955z" fill="#140401"/><path d="m2.2871094 38.4648438s2.9248047.015625 4.7998047-2.8808594 2.6333008-6.1689453 6.5581055-8.5375977c0 0 5.8681641-9.6269531 12.1918945-5.7319336 6.3242187 3.8950196 28.2070312 9.9980469 29.7285156 11.4980469s1.0966797 5.5371094-2.1699219 9.0087891c-4.1669922 2.03125-16.6650391 5.7783203-24.9868164 3.1347656 0 0-9.0473633 2.0585938-17.0224609-1.15625 0 0-4.065918-1.2353516-6.5395508-1.8759766-1.4345703-.3710937-3.265625-2.1933593-2.5595703-3.4589843z" fill="#e0d2c7"/><path d="m13.9902344 44.6376953s9.8383789-.234375 13.4003906-.7001953 5.5712891 1.0742188 9.1962891.3496094 13.5-2.9033203 13.5-2.9033203 2.4453125 2.4453125-6.1552734 3.4638672-16.9667969.5634766-19.6538086.6601563-9.1308594-.5556642-10.2875977-.8701173z" fill="#c6ad9d"/><path d="m35.0888672 46.3671875c-2.5244141 0-4.7783203-.3007813-6.7036133-.8945313-.6171875.1289063-3.2475586.6328125-6.7431641.6328125-3.8979492 0-7.4111328-.6201172-10.4428711-1.8417969-.0063477 0-4.0449219-1.2255859-6.4780273-1.8554688-1.1665039-.3017578-2.4379883-1.3740234-2.8945313-2.4404297-.2700195-.6308594-.2617188-1.234375.0239258-1.7460938.0878906-.1582031.2553711-.2568359.4365234-.2568359.1088867 0 2.6855469-.0351563 4.3798828-2.6523438.4853516-.75.8876953-1.5136719 1.3134766-2.3217773 1.1679688-2.2158203 2.375-4.5068359 5.3032227-6.3095703.5688477-.8984375 4.4931641-6.7944336 9.4257813-6.7944336 1.1694336 0 2.3100586.3369141 3.3896484 1.0019531 3.5664063 2.1967773 12.2807617 5.1499023 19.2827148 7.5229492 6.2597656 2.121582 9.8349609 3.3549805 10.5341797 4.0449219 1.7480469 1.7231445 1.2988281 6.0356445-2.15625 9.7075195-.0419922.0439453-.0908203.0800781-.1455078.1064453-3.2490234 1.5839846-11.1513672 4.0966799-18.5253906 4.0966799zm-6.6801758-1.9111328c.0512695 0 .1020508.0078125.1513672.0234375 1.8549805.5888672 4.0512695.8876953 6.5288086.8876953 6.7675781 0 14.5585938-2.2988281 18.0048828-3.9550781 3.1054688-3.3457031 3.3339844-7.0478516 2.1210938-8.2441406-.5703125-.5615234-5.4423828-2.2124023-10.1533203-3.809082-7.0498047-2.3891602-15.8242188-5.362793-19.4868164-7.6186523-.9194336-.5664063-1.8837891-.8535156-2.8652344-.8535156-4.6630859 0-8.5986328 6.355957-8.6376953 6.4199219-.0419922.0688477-.0996094.1264648-.168457.1679688-2.7646484 1.668457-3.8691406 3.7641602-5.0380859 5.9824219-.4174805.7919922-.8491211 1.6113281-1.3583984 2.3984375-1.6201172 2.5019531-3.9736328 2.9912109-4.8637695 3.0859375-.0317383.1865234.0029297.3974609.1035156.6328125.3359375.7861328 1.3549805 1.640625 2.2250977 1.8652344 2.4555664.6357422 6.519043 1.8691406 6.5600586 1.8818359 2.9536133 1.1884766 6.3413086 1.7841797 10.1103516 1.7841797 3.8051758 0 6.6279297-.6308594 6.6557617-.6367188.0366209-.0087893.0737302-.0126955.1108396-.0126955z" fill="#140401"/><path d="m45.5869141 42.3994141s.9482422.9335938.8583984 1.8486328c-.0859375.8720703-2.2910156.3828125-2.5136719 3.3408203 0 0 4.1367188 1.3896484 7.4960938-1.4003906 0 0 .2988281-2.6269531 1.0449219-4.8046875" fill="#e0d2c7"/><path d="m46.4208984 48.4414063c-1.4882813 0-2.5605469-.3486328-2.6484375-.3789063-.2167969-.0722656-.3564453-.2832031-.3398438-.5107422.1669922-2.2109375 1.3789063-2.7880859 2.1025391-3.1328125.1503906-.0712891.3779297-.1796875.4199219-.2382813.046875-.53125-.5029297-1.2109375-.7197266-1.4257813-.1953125-.1943359-.1972656-.5107422-.0039063-.7070313.1943359-.1953125.5107422-.1982422.7060547-.0048828.1142578.1132813 1.1152344 1.1337891 1.0058594 2.2539063-.0585938.5869141-.546875.8193359-.9785156 1.0253906-.6025391.2871094-1.2773438.6083984-1.4873047 1.8945313 1.0439453.2373047 3.9882813.6640625 6.4785156-1.2900391.0869142-.6699218.4013673-2.830078 1.0439454-4.705078.0878906-.2607422.3720703-.4003906.6347656-.3105469.2607422.0888672.4003907.3730469.3105469.6347656-.7197266 2.1015625-1.0175781 4.6738281-1.0205078 4.6992188-.0146484.1279297-.078125.2451172-.1777344.328125-1.7978515 1.4931641-3.7851562 1.8681641-5.3261719 1.8681641z" fill="#140401"/><path d="m8.3945313 33.4580078 2.8007812-3.0004883-3.8984375-1.4838867 4.152832-.421875-3.4350586-2.3710937 4.1484375.4882812-2.9096679-2.9946289 4.0004883 1.2055664-2.4018555-3.4179687 3.7836914 1.7734375-1.9125977-3.7153321 3.5126953 2.2631836-1.3671875-3.9482422 3.0698243 2.8198243-.2294922-4.1704102 2.4257812 3.487793.1069336-4.2563477 2.7211914 3.2651367.0463867-4.2563476 2.5732422 3.3842773.3935547-4.2353515 2.2211914 3.6269531.8413086-4.1689453 1.8344727 3.8364258 1.2333984-4.0708008 1.5039063 3.9799804 1.5390625-3.9648437 1.2353515 4.0737305 1.7861328-3.8642579 1.2285157 4.1791993 2.4033203-3.6337891.7490234 4.2895508 2.8261719-3.3139649.1777344 4.350586 3.265625-2.8803711-.475586 4.328125 3.678711-2.3291016-1.178711 4.1904297 4.0136719-1.684082-1.859375 3.9360351 4.2363281-.9995117-2.4746093 3.581543 4.3408203-.3271485-3.1855469 2.7563477 4.2080078.2001953-3.7285156 1.9619141 4.0439453 1.1816406-4.0917969 1 3.616211 2.1611328-4.2070313-.1074219 2.8730469 3.0751954-3.9785156-1.3574219 1.711914 3.8398437-3.2285156-2.6845703.0908203 4.1962891-1.8681641-3.7597656-1.5908203 3.8857421-.8173828-4.1728515-2.0068359 3.7509765-.8681641-4.1630859-2.0068359 3.7509766-.8378906-4.1708985-2.0595704 3.7216797-.7597656-4.1855469-2.1328125 3.678711-.6660156-4.2021485-2.2226563 3.6289063-.5742187-4.2167969-2.3037109 3.5771485-.4814454-4.2304688-2.9575195 3.2773438 1.2773438-4.3564454-4.0415039 1.647461 1.3798828-4.1411133-3.8881836 1.9780273.9633789-4.2558593-3.6201172 2.430664.3105469-4.352539-3.0883789 3.0683593-.7465821-4.2939453-2.0166015 3.8466797-2.2407227-3.7192383-.3149414 4.3339844-3.4951172-2.5776367z" fill="#30221d"/><path d="m53.7744141 45.4599609-2.3720703-4.7753906-1.8046875 4.4082031-.8681641-4.4345703-1.9941406 3.7275391-.8681641-4.1630859-2.0146484 3.765625-.84375-4.2011719-2.0791016 3.7568359-.7675781-4.2275391-2.1572266 3.7207031-.6738281-4.2539063-2.2480469 3.6689453-.5800781-4.2646483-2.3291016 3.6171875-.5151367-4.5214844-3.6821289 4.0800781 1.6020508-5.4628906-4.0878906 1.6660156 1.3378906-4.015625-3.7509766 1.9082031.9208984-4.0683594-3.4267578 2.2998047.2885742-4.043457-2.8227539 2.8046875-.6591797-3.7890625-1.7456055 3.3300781-1.8862305-3.1313477-.2666016 3.6674805-2.0932617-1.543457-3.9726563 4.2568359 1.3466797-5.1762695-3.6157227-1.3764648 4.081543-.4145508.0273438-.1049805.1220703.0898438.671875-.0683594-3.9736328-2.7426758 4.7495117.559082-3.2734373-3.3691405 4.4628906 1.3452148-2.6508789-3.7724609 4.1577148 1.9487305-2.0966797-4.0722656 3.8662109 2.4907227-1.5415039-4.4521484 3.6235352 3.3286133-.2587891-4.7036133 2.5605469 3.6816406.1020508-4.0581056 2.7021484 3.2426758.0478516-4.355957 2.6782227 3.5224609.4135742-4.4536133 2.3417969 3.8232422.8852539-4.3876953 1.9238281 4.0234375 1.2866211-4.2446289 1.5615234 4.1342773 1.5908203-4.0981445 1.2753906 4.2026367 1.7929688-3.8793945 1.3007813 4.4238281 2.5029297-3.7851563.7822266 4.4799805 2.9638672-3.4755859.1875 4.5766602 3.4462891-3.0405273-.5029297 4.5791016 3.9033203-2.4707031-1.2519531 4.4487305 4.2607422-1.7880859-1.9726563 4.1767578 4.4912109-1.0595703-2.6181641 3.7895508 4.8056641-.3623047-3.3847656 2.9287109 4.7929688.2280273-4.2587891 2.2407227 4.6464844 1.3579102-4.71875 1.1533203 4.2060547 2.5136719-4.919922-.1259768 3.421875 3.6630859-4.7832031-1.6318359 2.1191406 4.7529297-4.0361328-3.3554688zm-4.6035157-7.7470703.7666016 3.9111328 1.3769531-3.3632813 1.3642578 2.7441406-.0664063-3.0546875 2.4208984 2.0136719-1.3046875-2.9267578 3.1738281 1.0830078-2.3242188-2.4873047 3.4941406.0888672-3.0263672-1.8085938 3.4648438-.8466797-3.4414063-1.0053711 3.1982422-1.6831055-3.6230469-.1723633 2.9863281-2.5839844-3.8759766.2919922 2.3310547-3.3735352-3.9814453.9394531 1.7460938-3.6953125-3.7666016 1.5800781 1.1054688-3.9321289-3.4541016 2.1875.4482422-4.0771484-3.0849609 2.7202148-.1679688-4.1245117-2.6884766 3.1523438-.7158203-4.0991211-2.3037109 3.4824219-1.15625-3.9345703-1.7792969 3.8491211-1.1953125-3.9448242-1.4873047 3.831543-1.4462891-3.8256836-1.1801758 3.8969727-1.7451172-3.6494141-.7973633 3.9501953-2.1005859-3.4306641-.3735352 4.0170898-2.4682613-3.2460935-.0449219 4.1567383-2.7402344-3.2875977-.1118164 4.4545898-2.2910156-3.2939453.2001953 3.637207-2.5161133-2.3110352 1.1928711 3.4443359-3.1591797-2.0356445 1.7285156 3.3583984-3.409668-1.5981445 2.152832 3.0634766-3.5380859-1.065918 1.9433594 2 .0771484-1.0625 2.5952148 4.3071289 2.2875977-4.3632813.8339844 4.7988281 3.3540039-3.3320313-.3325195 4.6611328 3.8134766-2.5610352-1.0058594 4.4433594 4.0253906-2.0478516-1.421875 4.2666016 3.9951172-1.6289063-.9526367 3.25 2.2324219-2.4746094.4482422 3.9394531 2.2783203-3.5371094.5683594 4.1689453 2.1972656-3.5888672.6582031 4.1503906 2.1083984-3.6367188.7519531 4.1435547 2.0400391-3.6865234.8320313 4.140625 1.9990234-3.7363281.8681641 4.1630859zm-39.4702148-7.2890625-.3251953 1.2509766.9467773-1.0146484zm.8730469-1.2807617 2.0400391 1.5048828.1254883-1.7246094zm-.6186524-2.2304687 2.7905273 1.9257813.1147461-1.5839844z" fill="#140401"/><path d="m4.8466797 38.0556641s-.9116211 1.3212891-.9116211 3.2832031c0 1.5-2.7290039-1.1083984-1.6479492-2.8740234z" fill="#140401"/><circle cx="13.98999" cy="36.275391" fill="#140401" r="1.378662"/><path d="m25.0869141 43.4521484s.7231445 1.5048828-.0195313 2.0546875c-1.4697266 1.0878906-2.9414063 1.5048828-1.9082031 2.8300781 0 0 5.1982422 1.0341797 7.9282227-1.0078125 0 0 .0405273-.6953125-.2504883-3.3300781" fill="#e0d2c7"/><g fill="#140401"><path d="m26.1245117 49.1015625c-1.6455078 0-2.9545898-.2529297-3.0629883-.2744141-.1176758-.0234375-.2226563-.0878906-.296875-.1826172-.3632813-.4658203-.5048828-.8964844-.434082-1.3154297.1191406-.7011719.7875977-1.1318359 1.5610352-1.6298828.277832-.1787109.578125-.3720703.878418-.5947266.2866211-.2119141.0498047-1.0537109-.1337891-1.4355469-.1196289-.2490234-.0146484-.5478516.2338867-.6669922.2495117-.1240234.5478516-.015625.6674805.2333984.0922852.1923828.8720703 1.9003906-.1728516 2.6738281-.3183594.2353516-.6367188.4404297-.9316406.6308594-.5268555.3388672-1.0712891.6894531-1.1166992.9560547-.0185547.1103516.046875.2539063.1303711.3837891.9106445.1503906 4.8637695.6884766 7.140625-.8105469-.0092773-.3740234-.0532227-1.2578125-.2475586-3.015625-.0302734-.2744141.1674805-.5214844.4423828-.5517578.2768555-.0283203.5214844.1679688.5517578.4423828.2919922 2.6464844.2543945 3.3837891.2524414 3.4140625-.0083008.1464844-.081543.2832031-.199707.3710938-1.4672852 1.0976563-3.5473633 1.3720704-5.2622071 1.3720704z"/><path d="m53.3789063 36.7724609-.5566407-.8300781 2.2919922-1.5361328-3.8818359-.1728516 2.734375-2.758789-3.8486328.6030273 2.171875-3.2617187-3.71875 1.3115234 1.6152343-3.6376953-3.5322265 1.8969727 1.1210937-3.8872071-3.3271484 2.3461914.7070312-4.0356445-3.125 2.6811523.3701172-4.1264648-2.8095703 2.7895508-.461914-4.4418946-2.9970704 3.0952149-1.0820312-4.1660156-2.4804688 3.5131836-1.7197265-3.9384766-1.8881836 3.859375-2.3286133-3.6079102-1.237793 4.1103516-2.8828125-3.168457-.5200195 4.2407226-3.3681641-2.5703125.3457032 4.1552735-3.4462891-1.40625 1.4370117 2.2290039-.8408203.5419922-3.1547851-4.8950196 4.8730468 1.9882813-.3974609-4.7744141 3.7714844 2.8779297.5727539-4.6723633 3.1621093 3.4750977 1.3530274-4.4931641 2.5415039 3.9389649 2.0600586-4.209961 1.875 4.2929688 2.6992187-3.8247071 1.1757813 4.5292969 3.2509766-3.355957.4677734 4.4946289 3.2705078-3.2485352-.3955078 4.4077149 3.3769531-2.8969727-.7714844 4.3989258 3.6748047-2.590332-1.2519531 4.3393554 4.0126953-2.1547851-1.859375 4.1855469 4.3554688-1.5361329-2.5703125 3.8613282 4.6103515-.722168-3.2910156 3.3193359 4.6689453.2080079z"/><path d="m49.1347656 39.0117188-.4824218-.7128907 1.9589843-1.3271484-3.3300781-.1210938 2.3222656-2.3925781-3.2978515.5576172 1.8320312-2.8300781-3.1855469 1.1699219 1.350586-3.1484375-3.0214844 1.6713867.9257813-3.3574219-2.8408204 2.0522461.5722657-3.4833984-2.6699219 2.3344726.2900391-3.5541992-2.397461 2.4174805-.4345703-3.8300782-2.5830078 2.6772461-.9589844-3.5878906-2.1411133 3.0307617-1.4970703-3.3935547-1.6430664 3.3237305-2.0097656-3.1137695-1.0957031 3.5385742-2.4790039-2.7436524-.4897461 3.6547852-2.8911133-2.2387695.2470703 3.590332-2.9638672-1.2407227 1.2148438 1.9360352-.7285157.4570313-2.6582031-4.2348633 4.1816406 1.7504883-.2832031-4.112793 3.2270508 2.4985351.5375976-4.0141601 2.7104493 2.9995117 1.1943359-3.8549805 2.1865234 3.3881836 1.7866211-3.6147461 1.6269532 3.6875 2.324707-3.2905273 1.0390625 3.8916016 2.7939453-2.8959961.4384766 3.8623046 2.7939453-2.817871-.3095703 3.7915039 2.8789062-2.5161133-.6230469 3.7890625 3.1337891-2.2641602-1.0332031 3.7451172 3.4277344-1.8959961-1.5517579 3.6201172 3.7304688-1.3701172-2.1699219 3.3525391 3.9619141-.6708985-2.8066406 2.890625 4.0273437.1464844z"/><path d="m45.1552734 39.7080078-.359375-.5175781 1.4121094-.9814453-2.421875-.0439453 1.647461-1.7841797-2.3935547.4746094 1.274414-2.1064454-2.3027343.9267579.9160156-2.3330079-2.1748047 1.2900391.609375-2.4794922-2.0439453 1.5566406.3583984-2.5625-1.9199219 1.7529297.1591797-2.6083984-1.7207031 1.7988281-.3896484-2.8149414-1.8896485 1.9833984-.7509765-2.6308593-1.5820313 2.2314453-1.1264648-2.491211-1.2353516 2.4370118-1.4848633-2.2944336-.8564453 2.5942383-1.8100586-2.0366211-.430664 2.6831054-2.1054688-1.684082.0927734 2.6523437-2.165039-.965332.8486328 1.4521485-.5429688.3173828-1.836914-3.140625 3.0322265 1.3510742-.1054687-3.0146485 2.3320312 1.8657227.4697266-2.9272461 1.9663086 2.2124024.9257813-2.8051758 1.6040039 2.4790039 1.3339843-2.6323242 1.2153321 2.6875 1.7050781-2.40625.8095703 2.8349609 2.0322266-2.1318359.3896484 2.8178711 2.0078125-2.0996094-.1689453 2.7734375 2.0625-1.8828125-.3886719 2.7768554 2.2460938-1.7114257-.6777344 2.7548828 2.4619141-1.4594727-1.0527344 2.6801758 2.6972656-1.0869141-1.5107422 2.5009766 2.8896485-.5742187-2.006836 2.1748046 2.9648438.053711z"/></g><path d="m9.1953125 43.1464844s2.2905273.7167969 3.5161133-1.5712891l.7524414.2109375" fill="#e0d2c7"/><path d="m10.0039063 43.7587891c-.3745117 0-.7070313-.0566406-.9580078-.1347656-.2636719-.0830078-.4101563-.3632813-.3276367-.6269531.0825195-.2626953.3608398-.4101563.625-.328125.09375.0273438 1.9228516.5449219 2.9272461-1.3300781.1103516-.2060547.3510742-.3115234.5756836-.2451172l.7524414.2109375c.2661133.0742188.4213867.3505859.3466797.6162109-.0742188.2666016-.3525391.4238281-.6162109.3466797l-.3842773-.1074219c-.8227541 1.2470703-2.0102541 1.5986328-2.9409181 1.5986328z" fill="#140401"/><path d="m16.1191406 31.8789063s-.5224609-3.4848633 2.9575195-4.2519531c4.2607422-.9389648 6.9624023 5.1855469 3.8647461 7.7998047" fill="#e0d2c7"/><path d="m23.2700195 35.8164063-.6572266-.7792969c1.453125-1.2265625 1.3764648-3.2475586.6552734-4.706543-.6381836-1.2919922-2.090332-2.6479492-4.081543-2.2055664-2.980957.6567383-2.581543 3.5551758-2.5629883 3.6782227l-1.0087891.1513672c-.2050781-1.3681641.2314453-4.1376953 3.3520508-4.8256836 2.1118164-.4658203 4.1591797.6142578 5.215332 2.75.8969729 1.8154296.9628908 4.3554687-.9121092 5.9375z" fill="#140401"/><path d="m17.9619141 34.0546875c-.875-2.3671875.5703125-5.4921875 2.2226563-4.6171875s4.3496094 4.3369141-.3642578 5.9892578z" fill="#c6ad9d"/></svg>