<svg height="64" preserveAspectRatio="none" viewBox="0 0 64 64" width="64" xmlns="http://www.w3.org/2000/svg" xmlns:xlink="http://www.w3.org/1999/xlink"><linearGradient id="a" gradientUnits="userSpaceOnUse" x1="33.647461" x2="55.765774" y1="32.501953" y2="32.501953"><stop offset="0" stop-color="#3f1600"/><stop offset="1" stop-color="#d49640"/></linearGradient><path d="m37.426758-2.955566h18.833008v70.914551h-18.833008z" fill="url(#a)"/><path d="m57.3671875 69.0664063h-21.0478516v-73.1293946h21.0478516zm-18.8330078-2.2148438h16.6181641v-68.699707h-16.6181641z" fill="#632b01"/><path d="m46.0273438 31.0327148c-3.5917969.2241211-8.3613281 0-8.3613281 0l-2.0234375-1.8496094c3.4707031-2.0205078 5.765625-5.5004883 5.765625-9.4619141 0-.0966797-.0136719-.1918945-.0175781-.2885742 4.7558594-.5673828 8.4238281-4.1103516 8.4238281-8.4057617 0-4.690918-4.3701172-8.4931641-9.7578125-8.4931641-4.4072266 0-8.1289063 2.5439453-9.3398438 6.0366211-.6660156-.097168-1.3432617-.1582031-2.0415039-.1582031-3.8144531 0-7.2294922 1.4970703-9.5620117 3.8583984-1.5048828-.9702148-3.324707-1.5415039-5.2900391-1.5415039-5.1635742 0-9.3510742 3.9301758-9.3510742 8.7768555 0 4.8476563 4.1875 8.777832 9.3510742 8.777832 1.234375 0 2.402832-.2446289 3.4794922-.6538086-1.8251953 3.9458008-3.0537109 14.3583984-1.840332 21.1542969-.7114258-.4628906-1.5595703-.7392578-2.472168-.7392578-2.5004883 0-4.5268555 2.0185547-4.5268555 4.5126953 0 2.4892578 2.0263672 4.5078125 4.5268555 4.5078125 1.7670898 0 3.2792969-1.0175781 4.0258789-2.4873047.9624023 1.7666016 2.4365234 3.1943359 4.6645508 3.8896484 9.4189453 2.9287109 11.0932617.5546875 11.0932617.5546875l11.2368164 1.5585938s3.0732422.7431641 4.1269531-4.5800781c1.0527344-5.3261719-.65625-8.6357422-4.328125-7.4550781l-9.5957031-.8837891s3.0830078-1.9384766 1.8671875-7.8857422l9.9462891 1.2685547s3.84375.7578125 3.5732422-3.703125c-.272461-4.461914.0166015-6.5336913-3.5732422-6.309082z" fill="#ffa748"/><g fill="#f48e31"><path d="m40.2724609 18.7412109s-1.5673828-6.2744141-6.0566406-7.3564453c0 0 3.5751953-5.1181641 8.1494141-1.0664063 3.0751953 2.7241212 1.6904297 7.6694337-2.0927735 8.4228516z"/><path d="m16.6152344 22.1611328s-1.1386719-.9462891 1.1455078-6.0429688c0 0-6.8237305-1.3271484-6.8237305 4.0810547 0 5.4072266 5.6030273 4.7841797 6.5820313 5.137207"/><path d="m35.3847656 39.0820313-3.3886718 9.6367187c3.2988281.0322266 6.4980468-1.6064453 3.3886718-9.6367187z"/><path d="m32.3027344 58.2294922 2.0654297-1.6914063 9.8427734 2.109375s2.5742188-.1425781 3.2509766-1.4931641c0 0-1.734375 3.1074219-3.8974609 2.7021484z"/><path d="m20.9243164 28.7714844s3.3388672 6.3271484 12.565918 3.4272461c5.2763672-1.9853516 3.4296875-2.5712891 3.4296875-2.5712891l-.4423828-1.7348633c-3.5820313.8710938-3.2509766 2.8120117-15.5532227.8789063z"/></g><path d="m28.5732422 31.6640625c-4.7841797 0-8.2729492-1.1220703-10.387207-3.3447266-2.3115234-2.4291992-2.0400391-5.2548828-2.0273438-5.3740234.0629883-.5942383.6000977-1.0297852 1.1894531-.9609375.5917969.0625 1.0209961.5913086.9619141 1.1826172-.0087891.1010742-.1503906 2.0151367 1.4755859 3.6958008 1.9086914 1.9736328 5.5620117 2.8666992 10.5683594 2.5864258.5981445-.0419922 1.1064453.4223633 1.1401367 1.019043.0336914.5961914-.4223633 1.1069336-1.019043 1.1401367-.6547851.0371093-1.2890624.055664-1.9018554.055664z" fill="#632b01"/><ellipse cx="29.024414" cy="19.455811" fill="#632b01" rx="3.233774" ry="2.43366" transform="matrix(.2272463 .9738373 -.9738373 .2272463 41.375519 -13.230507)"/><path d="m21.2719727 22.3564453-.7988282-1.1899414-2.1625976 1.4506836 1.2045898 1.7958984 1.4633789-.9814453.5532227 1.1889649 1.8276367-.850586-.9125977-1.9604492z" fill="#ea6c6c"/><path d="m40.3203125 19.6098633-1.7197266-1.3129883-1.3232421 1.7324219-.9423829-.796875-1.1171875 1.3232422 1.6513672 1.3955078.6855469-.8115235 1.0087891.7705079z" fill="#ea6c6c"/><ellipse cx="28.200684" cy="17.827637" fill="#fff" rx=".534668" ry=".612793"/><circle cx="23.251953" cy="18.741455" fill="#632b01" r="2.175537"/><circle cx="22.688965" cy="17.827637" fill="#fff" r=".728516"/><path d="m9.8525391 54.5175781s4.3935547 2.109375 5.7114258-2.1083984l.7026367-.9658203 1.40625 3.4267578s-6.2387696 5.7109375-7.8203125-.3525391z" fill="#f48e31"/><circle cx="34.21582" cy="16.220703" fill="#632b01" r="2.175293"/><circle cx="33.632813" cy="15.285156" fill="#fff" r=".710449"/><path d="m44.3974609 61.6982422c-.2636719 0-.4628906-.0302734-.5703125-.0507813l-10.7197266-1.4873047c-.5878906.4003906-1.6933594.8515625-3.6914063.8515625-2.1201172 0-4.8305664-.5078125-8.0566406-1.5117188-1.7900391-.5585938-3.2607422-1.5722656-4.390625-3.0214844-1.034668 1.0546875-2.4541016 1.6679688-3.9785156 1.6679688-3.0922852 0-5.6083984-2.5068359-5.6083984-5.5888672 0-3.0849609 2.5161133-5.59375 5.6083984-5.59375.3842773 0 .7651367.0390625 1.1376953.1171875-.6489258-5.8945313.1337891-13.4277344 1.4487305-17.8637695-.5825195.0981445-1.1679688.1479492-1.753418.1479492-5.7524414 0-10.4326172-4.4228516-10.4326172-9.859375 0-5.4360352 4.6801758-9.8583984 10.4326172-9.8583984 1.8129883 0 3.5722656.4399414 5.1367188 1.2788086 2.5800781-2.2944336 6.0722656-3.5957031 9.715332-3.5957031.4375 0 .8842773.0219727 1.3491211.0664063 1.6518555-3.5888672 5.5683594-5.9448242 10.0322266-5.9448242 5.9765625 0 10.8388672 4.2954102 10.8388672 9.574707 0 4.4790039-3.5585938 8.347168-8.4238281 9.3271484-.1982422 3.5185547-2.0410156 6.7607422-5.0712891 8.9711914l.7041016.6435547c.7197266.027832 2.3505859.0820313 4.1591797.0820313 1.4160156 0 2.6591797-.0327148 3.6962891-.0976563.1992188-.012207.3876953-.0185547.5664063-.0185547 3.7724609 0 3.9111328 2.6914063 4.0859375 6.0986328.0195313.390625.0410156.8056641.0673828 1.2431641.0976563 1.6103516-.2646484 2.8642578-1.0771484 3.7275391-.7109375.7558594-1.7626953 1.1708984-2.9628906 1.1708984 0 0 0 0-.0009766 0-.4472656 0-.7617188-.0576172-.8203125-.0683594l-8.4472657-1.0751953c.2890625 2.7021484-.2998047 4.5517578-.9882813 5.7441406l7.3154297.6738281c1.8642578-.53125 3.4814453-.09375 4.5361328 1.1865234 1.2792969 1.5576172 1.6220703 4.2480469.9638672 7.5751953-.9794922 4.9521485-3.6845703 5.4873048-4.8007813 5.4873048zm-.1318359-2.1689453c.0078125 0 .0605469.0058594.1318359.0058594.5820313 0 2.0107422-.3652344 2.6796875-3.7441406.5136719-2.6025391.3222656-4.7636719-.5136719-5.78125-.5341797-.6513672-1.34375-.7822266-2.4228516-.4345703-.1386719.0458984-.2851563.0595703-.4306641.0478516l-9.5957031-.8837891c-.4609375-.0429688-.8447266-.375-.9521484-.8251953-.1074219-.4511719.0839844-.9208984.4765625-1.1669922.0849609-.0585938 2.4150391-1.703125 1.3828125-6.7539063-.0703125-.3417969.0292969-.6962891.2666016-.9521484s.578125-.3769531.9296875-.3378906l9.9462891 1.2685547c.0966797.0166016.2539063.0400391.4755859.0400391.4228516 0 1.0058594-.0849609 1.3876953-.4902344.4833984-.5126953.5351563-1.4326172.4941406-2.1142578-.0273438-.4443359-.0488281-.8652344-.0693359-1.2636719-.1962891-3.8208008-.4023438-4.0458984-1.9257813-4.0458984-.1367188 0-.2792969.0048828-.4316406.0146484-1.0820313.0673828-2.3710938.1015625-3.8310547.1015625-2.4746094 0-4.6269531-.1000977-4.6484375-.1010742-.2519531-.0117188-.4921875-.1113281-.6787109-.2817383l-2.0234375-1.8496094c-.2539063-.2324219-.3828125-.5712891-.3457031-.9135742.0361328-.3417969.2333984-.6464844.53125-.8193359 3.2734375-1.9057617 5.2285156-5.09375 5.2285156-8.5273438l-.0175781-.2451172c-.0224609-.5639648.3925781-1.050293.953125-1.1171875 4.2587891-.5083008 7.4707031-3.6601563 7.4707031-7.3320313 0-4.0869141-3.8925781-7.4116211-8.6767578-7.4116211-3.8134766 0-7.234375 2.1831055-8.3178711 5.3095703-.1704102.4902344-.6655273.7861328-1.1782227.7158203-.6772461-.0991211-1.2939453-.1469727-1.8852539-.1469727-3.3676758 0-6.5722656 1.2890625-8.7924805 3.5366211-.3603516.3632813-.9248047.4272461-1.3554688.1489258-1.3891602-.8955078-3.015625-1.3686523-4.7041016-1.3686523-4.5600586 0-8.2695313 3.4521484-8.2695313 7.6953125 0 4.2436523 3.7094727 7.6962891 8.2695313 7.6962891 1.0356445 0 2.0771484-.1962891 3.0952148-.5830078.4101563-.1567383.8754883-.0478516 1.175293.2734375s.375.7924805.1904297 1.1914063c-1.7597656 3.8046875-2.9165039 14.0166016-1.7573242 20.5097656.0761719.4248047-.1074219.8535156-.4667969 1.0917969-.3603516.2373047-.8271484.2402344-1.1875.0048828-.5673828-.3691406-1.2182617-.5644531-1.8823242-.5644531-1.8999023 0-3.4453125 1.5400391-3.4453125 3.4316406 0 1.8896484 1.5454102 3.4267578 3.4453125 3.4267578 1.2944336 0 2.4677734-.7265625 3.0615234-1.8964844.1821289-.3574219.5473633-.5849609.9487305-.5908203.4169922-.0048828.7734375.2119141.965332.5634766.934082 1.7148438 2.2543945 2.8183594 4.0371094 3.375 3.0166016.9375 5.5112305 1.4140625 7.4130859 1.4140625 1.9672852 0 2.5297852-.5214844 2.5351563-.5263672.2011719-.4316406.503418-.4384766.9711914-.3720703l11.2368164 1.5585938c.0361328.0048828.0712891.0117188.1054688.0205078.0000001-.0009767.0000001-.0009767.0009767-.0009767z" fill="#632b01"/></svg>