<svg height="64" preserveAspectRatio="none" viewBox="0 0 64 64" width="64" xmlns="http://www.w3.org/2000/svg" xmlns:xlink="http://www.w3.org/1999/xlink"><linearGradient id="a" gradientUnits="userSpaceOnUse" x1="32.000008" x2="32.000008" y1="62.833332" y2="3.25"><stop offset="0" stop-color="#804f21"/><stop offset=".3" stop-color="#de8400"/><stop offset="1" stop-color="#804f21"/></linearGradient><linearGradient id="b" gradientUnits="userSpaceOnUse" x1="32.100456" x2="32.100456" y1="59.5" y2="41.967041"><stop offset="0" stop-color="#af6700"/><stop offset="1" stop-color="#de8400"/></linearGradient><linearGradient id="c"><stop offset="0" stop-color="#ffefd9" stop-opacity="0"/><stop offset=".5" stop-color="#ffefd9"/></linearGradient><linearGradient id="d" gradientUnits="userSpaceOnUse" x1="40.833263" x2="40.833263" xlink:href="#c" y1="25.996128" y2="30.177317"/><linearGradient id="e" gradientTransform="matrix(-1 0 0 1 64 0)" gradientUnits="userSpaceOnUse" x1="40.871307" x2="40.871307" xlink:href="#c" y1="25.996128" y2="30.177317"/><linearGradient id="f"><stop offset="0" stop-color="#edad4e"/><stop offset="1" stop-color="#804f21"/></linearGradient><linearGradient id="g" gradientUnits="userSpaceOnUse" x1="31.980978" x2="31.980978" xlink:href="#f" y1="26.293478" y2="13.47337"/><linearGradient id="h" gradientUnits="userSpaceOnUse" x1="39.27813" x2="39.27813" xlink:href="#f" y1="21.076086" y2="12.925986"/><radialGradient id="i" cx="31.980988" cy="35.858673" gradientUnits="userSpaceOnUse" r="26.894232" xlink:href="#f"/><linearGradient id="j" gradientTransform="matrix(-1 0 0 1 64 0)" gradientUnits="userSpaceOnUse" x1="39.316174" x2="39.316174" xlink:href="#f" y1="21.076088" y2="12.925986"/><linearGradient id="k"><stop offset=".01" stop-color="#231815" stop-opacity="0"/><stop offset=".1" stop-color="#231815"/><stop offset=".9" stop-color="#231815"/><stop offset=".99" stop-color="#231815" stop-opacity="0"/></linearGradient><linearGradient id="l" gradientUnits="userSpaceOnUse" x1="36.060028" x2="45.024456" xlink:href="#k" y1="27.290091" y2="27.290091"/><linearGradient id="m"><stop offset=".6814159" stop-color="#f5b32c"/><stop offset="1" stop-color="#805d17"/></linearGradient><radialGradient id="n" cx="40.643093" cy="27.361305" gradientUnits="userSpaceOnUse" r="1.807826" xlink:href="#m"/><linearGradient id="o"><stop offset="0" stop-color="#fff"/><stop offset="1" stop-color="#fff" stop-opacity=".3"/></linearGradient><linearGradient id="p" gradientUnits="userSpaceOnUse" x1="39.623161" x2="39.623161" xlink:href="#o" y1="25.767628" y2="27.211897"/><linearGradient id="q" gradientUnits="userSpaceOnUse" x1="41.847912" x2="41.847912" xlink:href="#o" y1="28.09589" y2="28.892727"/><linearGradient id="r" gradientTransform="matrix(-1 0 0 1 64.166664 0)" gradientUnits="userSpaceOnUse" x1="36.148796" x2="45.113224" xlink:href="#k" y1="27.290091" y2="27.290091"/><radialGradient id="s" cx="23.434805" cy="27.361305" gradientUnits="userSpaceOnUse" r="1.807826" xlink:href="#m"/><linearGradient id="t" gradientUnits="userSpaceOnUse" x1="22.414873" x2="22.414873" xlink:href="#o" y1="25.767628" y2="27.211897"/><linearGradient id="u" gradientUnits="userSpaceOnUse" x1="24.639623" x2="24.639623" xlink:href="#o" y1="28.09589" y2="28.892727"/><linearGradient id="v"><stop offset="0" stop-color="#6a3906"/><stop offset="1" stop-color="#40210f"/></linearGradient><radialGradient id="w" cx="31.980978" cy="44.33152" gradientUnits="userSpaceOnUse" r="5.484233" xlink:href="#v"/><radialGradient id="x" cx="31.980978" cy="38.606522" gradientUnits="userSpaceOnUse" r="3.428892" xlink:href="#v"/><linearGradient id="y" gradientUnits="userSpaceOnUse" x1="31.980978" x2="31.980978" y1="27.163044" y2="35.858696"><stop offset=".0752212" stop-color="#c48436" stop-opacity="0"/><stop offset="1" stop-color="#c48436"/></linearGradient><linearGradient id="z"><stop offset="0" stop-color="#de8400"/><stop offset="1" stop-color="#a66100"/></linearGradient><linearGradient id="A" gradientUnits="userSpaceOnUse" x1="32" x2="42" xlink:href="#z" y1="11.136482" y2="11.136482"/><linearGradient id="B" gradientUnits="userSpaceOnUse" x1="22" x2="32" y1="11.136482" y2="11.136482"><stop offset="0" stop-color="#a66100"/><stop offset="1" stop-color="#de8400"/></linearGradient><linearGradient id="C" gradientUnits="userSpaceOnUse" x1="32.625" x2="32.625" xlink:href="#z" y1="8.25" y2="3.25"/><linearGradient id="D" gradientUnits="userSpaceOnUse" x1="29.605866" x2="29.605866" xlink:href="#z" y1="5.75" y2="3.25"/><path d="m43.9117661 13.25s10.5882339-1.25 10.5882339 2.5 0 7.5-3.9705887 8.75z" fill="#ffbe5e"/><path d="m20.0882359 13.25s-10.5882359-1.25-10.5882359 2.5 0 7.5 3.9705887 8.75z" fill="#ffbe5e"/><path d="m18.854248 13.140686c-2.0376587-.1431885-6.0823364-.2588501-8.1200562.8377686 3.2797852 2.1908569 4.6452026 5.5110474 5.0256958 6.6297607l3.657959-6.2185059c-.1334838-.4928588-.3237304-.9074706-.5635986-1.2490234z" fill="#b3761e"/><path d="m45.145752 13.140686c2.0376587-.1431885 6.0823364-.2588501 8.1200562.8377686-3.2797852 2.1908569-4.6452026 5.5110474-5.0256958 6.6297607l-3.657959-6.2185059c.1334838-.4928588.3237304-.9074706.5635986-1.2490234z" fill="#b3761e"/><path d="m50.4150391 24.7983398-.1015625-.1713867-6.8115234-11.5805664.3808594-.0444336c.0166016-.0024414 1.7324219-.2021484 3.7558594-.2021484 4.6523436 0 7.111328 1.0205078 7.111328 2.9501953 0 3.7773438 0 7.6835938-4.1455078 8.9882813zm-6.0898438-11.3393554 6.3173828 10.7402344c3.6074219-1.2519532 3.6074219-4.7495118 3.6074219-8.4492188 0-2.1318359-4.1416016-2.4501953-6.6113281-2.4501953-1.4296875 0-2.7021485.1010742-3.3134766.1591797z" fill="#40210f"/><path d="m13.5854492 24.7983398-.1899414-.0600586c-4.1455078-1.3046874-4.1455078-5.2109374-4.1455078-8.9882812 0-1.9296875 2.4589844-2.9501953 7.1113281-2.9501953 2.0239258 0 3.7392578.199707 3.7563477.2021484l.3803711.0444336zm2.7758789-11.4985351c-2.4692383 0-6.6113281.3183594-6.6113281 2.4501953 0 3.699707-.0004883 7.1972656 3.6074219 8.4492188l6.3178711-10.7402344c-.6113282-.0581055-1.8837891-.1591797-3.3139649-.1591797z" fill="#40210f"/><path d="m53.050293 28.796875c.373291-.170166 1.492981-.085144 1.492981-.085144-1.9408569-6.295105-5.2999268-4.423584-5.8224487-8.166626s-1.418335-4.508667-1.418335-4.508667c.746521.595459 1.492981.170105 1.492981.170105l-.149292-1.020813c.671814.255188 1.7168579.085083 1.7168579.085083-.447876-1.105957-.895752-1.786438-.895752-1.786438 1.0450439-.340332 2.6126709.510376 2.6126709.510376-.895752-2.722229-2.5380249-3.147522-2.5380249-3.147522 1.3436279.340271 3.2844238-.255188 3.2844238-.255188-1.8660889-.255188-5.5238647-3.0625-5.5238647-3.0625.671875 0 1.418335-.170166 1.418335-.170166-2.9859009-2.552063-4.6281128-2.552063-4.6281128-2.552063l.9703979-.255249c-3.2844238-1.616272-5.8970337-1.276001-5.8970337-1.276001l1.1196899-.680603c-2.4633179-.595459-4.5534058.340332-4.5534058.340332.298523-.340332.74646-.935791.74646-.935791-3.3591309 0-4.4788208 1.276062-4.4788208 1.276062s-1.1196899-1.276062-4.4788208-1.276062c0 0 .447937.595459.74646.935791 0 0-2.0900879-.935791-4.5534058-.340332l1.1196899.680603s-2.6126099-.340271-5.8970337 1.276001l.9703979.255249s-1.6422119 0-4.6281128 2.552063c0 0 .74646.170166 1.418335.170166 0 0-3.6577148 2.807312-5.5238647 3.0625 0 0 1.9407959.595459 3.2844238.255188 0 0-1.6422119.425293-2.5379028 3.147522 0 0 1.5675049-.850708 2.6125488-.510376 0 0-.447876.680481-.895752 1.786438 0 0 1.0450439.170105 1.7168579-.085083l-.149292 1.020813s.74646.425354 1.492981-.170105c0 0-.895813.765625-1.418335 4.508667s-3.8815918 1.871521-5.8223877 8.166626c0 0 1.1196899-.085022 1.4929199.085144 0 0-3.2252197 2.977356-2.7026978 8.59198l1.9562378-1.020874s-1.7523804 7.826416 1.6066895 13.015625c0 0 .5904541-1.361084 1.1876831-2.296875 0 0 .5703735 4.508728 4.7505493 8.592041 0 0 .5024414-.6419678 1.2870483-1.321228.9199219 2.1918945 2.489563 4.5393677 5.1966553 6.340332l1.2946777-1.276001s2.5894165 2.552063 6.4734497 3.828125c3.8867188-1.276062 6.4779053-3.828125 6.4779053-3.828125l1.2955933 1.276001c2.706543-1.7993774 4.2769775-4.1443481 5.197876-6.3345947.7807617.677124 1.2804565 1.3154907 1.2804565 1.3154907 4.1801758-4.083313 4.7505493-8.592041 4.7505493-8.592041.597229.935791 1.1876831 2.296875 1.1876831 2.296875 3.3590698-5.189209 1.6066895-13.015625 1.6066895-13.015625l1.9562378 1.020874c.5225831-5.614624-2.7026976-8.59198-2.7026976-8.59198z" fill="#a66100"/><path d="m32 63.5126953-.078125-.0253906c-3.3613281-1.1044922-5.7353516-3.1191406-6.3911133-3.71875l-1.2680664 1.25-.1694336-.1123047c-2.2817383-1.5185547-4.0126953-3.5800781-5.1499023-6.1308594-.609375.5634766-.9941406 1.0517578-.9985352 1.0576172l-.171875.21875-.199707-.1943359c-3.2924805-3.2158203-4.3735352-6.6533203-4.6977539-8.0722656-.4511719.8134766-.831543 1.6875-.8359375 1.6982422l-.1860352.4277344-.253418-.3916016c-2.9169922-4.5058594-2.0732422-10.8378906-1.7426758-12.6894531l-1.824707.9521484-.034668-.3701172c-.4335938-4.6606445 1.6318359-7.5180664 2.4575195-8.4584961-.3071289-.0229492-.9741211.0073242-.9794922.0078125l-.3662109.0273438.1083984-.3505859c1.0898438-3.5361328 2.6308594-4.5668945 3.8691406-5.3950195 1.0009766-.6694336 1.7236328-1.152832 1.9443359-2.7329102.2905273-2.081543.6943359-3.2661133 1.0112305-3.9208984-.0708008.0097656-.1425781.0141602-.215332.0141602-.418457 0-.7143555-.1611328-.746582-.1796875l-.1484375-.0844727.1191406-.8154297c-.5429688.0976563-1.4331055-.0024414-1.4550781-.0063477l-.3095703-.050293.1181641-.2900391c.277832-.6855469.5537109-1.2084961.7294922-1.5170898-.0507813-.0039063-.1040039-.0063477-.1586914-.0063477-.890625 0-1.9267578.5551758-1.9370117.5605469l-.5532227.2993164.1967773-.597168c.4672852-1.4194336 1.1333008-2.2441406 1.6884766-2.7158203-1.1323242-.0244141-2.2231445-.3554688-2.2705078-.3701172l-1.0849609-.3330078 1.1245117-.1533203c1.3608398-.1860352 3.7802734-1.8334961 4.859375-2.6108398-.4223633-.0507813-.7548828-.1254883-.7758789-.1303711l-.4848633-.1103516.3779297-.3232422c1.6806641-1.4365234 2.9516602-2.0830078 3.7612305-2.3740234l-.0043945-.0014648-.6479492-.1699219.6010742-.2958984c2.1401367-1.0537109 4.0043945-1.2924805 5.0732422-1.3271484l-.8330078-.5058594.5888672-.1425781c.5634766-.1362305 1.1538086-.2050781 1.7539063-.2050781.8598633 0 1.5986328.1391602 2.1225586.2788086-.1181641-.1523438-.203125-.265625-.2109375-.2758789l-.3012697-.4003908h.5009766c2.7192383 0 4.027832.8188477 4.4790039 1.1870117.4511719-.368164 1.7597656-1.1870117 4.4785156-1.1870117h.5l-.2998047.3999023c-.0078125.0107422-.0927734.1235352-.2109375.2763672.5244141-.1396484 1.2626953-.2788086 2.1230469-.2788086.6005859 0 1.1904297.0688477 1.7539063.2050781l.5888672.1425781-.8330078.5058594c1.0683594.034668 2.9326172.2734375 5.0732422 1.3271484l.6015625.2958984-.6533203.1713867c.8095703.2910156 2.0810547.9375 3.7607422 2.3740234l.3789063.3232422-.4853516.1103516c-.0205078.0048828-.3535156.0795898-.7753906.1303711 1.0791016.7773438 3.4990234 2.4248047 4.859375 2.6108398l1.1240234.1533203-1.0849609.3330078c-.0478516.0146484-1.1376953.3457031-2.2705078.3701172.5556641.4716797 1.2216797 1.2963867 1.6884766 2.7158203l.1962891.597168-.5527344-.2993164c-.0117188-.0058594-1.2041016-.6245117-2.0966797-.5541992.1767578.3085938.453125.831543.7304688 1.5170898l.1181641.2900391-.3095703.050293c-.0234375.0039063-.9121094.1040039-1.4550781.0063477l.1201172.8154297-.1484375.0844727c-.0322266.0185547-.328125.1796875-.7470703.1796875-.0732422 0-.1455078-.0043945-.2158203-.0141602.3173828.6547852.7207031 1.8393555 1.0117188 3.9208984.2197266 1.5800781.9433594 2.0634766 1.9433594 2.7329102 1.2382813.828125 2.7802734 1.8588867 3.8701172 5.3950195l.1074219.3505859-.3652344-.0273438c-.0068359-.0014648-.671875-.0317383-.9794922-.0078125.8251953.9404297 2.890625 3.7978516 2.4570313 8.4584961l-.0341797.3701172-1.8251953-.9521484c.3310547 1.8515625 1.1738281 8.1835938-1.7421875 12.6894531l-.2539063.3916016-.1855469-.4277344c-.0048828-.0107422-.3857422-.8847656-.8369141-1.6992188-.3242188 1.4199219-1.4052734 4.8574219-4.6972656 8.0732422l-.1992188.1953125-.1728516-.2197266c-.0039063-.0058594-.3867188-.4912109-.9912109-1.0517578-1.1386719 2.5488281-2.8701172 4.6083984-5.1513672 6.125l-.1689453.1123047-1.2695313-1.25c-.65625.5986328-3.03125 2.6142578-6.3955078 3.71875zm-6.4736328-4.4414062.175293.1728516c.0253906.024414 2.5620117 2.4921874 6.2983398 3.7421874 3.7392578-1.25 6.2763672-3.7177734 6.3017578-3.7421875l.1757813-.1728516 1.3251953 1.3056641c2.2089844-1.5146484 3.8701172-3.5693359 4.9384766-6.1103516l.133789-.3183593.2607422.2265625c.5224609.4521484.9189453.8857422 1.1337891 1.1347656 3.8964844-3.9257813 4.4785156-8.2109375 4.484375-8.2539063l.0869141-.6855469.3720703.5820313c.3974609.6230469.7861328 1.4169922 1.0107422 1.8994141 2.9345703-5.0400391 1.3457031-12.3535156 1.3291016-12.4287109l-.1171875-.5253906 2.0976563 1.0947266c.3339844-5.1889648-2.6210938-7.9833984-2.6523438-8.0117188l-.2763672-.2553711.3427734-.1557617c.1904297-.0864258.5136719-.1289063.9892578-.1289063.0917969 0 .1787109.0019531.2587891.0043945-1.0292969-3.0927734-2.4287109-4.0288086-3.5605469-4.7861328-1.0253906-.6850586-1.9101563-1.2773438-2.1621094-3.0791016-.4941406-3.5419922-1.328125-4.3486328-1.3359375-4.355957l.3222656-.3823242c.2177734.1743164.4580078.262207.7138672.262207.1386719 0 .2587891-.0263672.3476563-.0537109l-.1826172-1.2490234.3974609.1508789c.2138672.081543.515625.1245117.8701172.1245117.1464844 0 .2832031-.0068359.3984375-.0161133-.3867188-.8881836-.7421875-1.4321289-.7460938-1.4384766l-.1796875-.2734375.3115234-.1015625c.6621094-.215332 1.6503906.03125 2.2460938.2700195-.8554688-2.0498047-2.1435547-2.4238281-2.1582031-2.4277344l.1259766-.4838867c.6054688.1518555 1.5478516.0864258 2.2246094-.0361328-1.9511719-.7578125-4.5488281-2.7426758-4.6777344-2.8413086l-.5839844-.4482422h.7363281c.2890625 0 .5966797-.0336914.8466797-.0708008-2.5976563-2.1040039-4.0439453-2.1513672-4.0585938-2.1513672l-1.8251953-.0283202 2.0595703-.5415039c-2.8671875-1.230957-5.0986328-.9677734-5.1269531-.9633789l-1.1679688.1494141 1.5712891-.9545899c-.3310547-.0473633-.6689453-.0712891-1.0107422-.0712891-1.578125 0-2.7451172.5112305-2.7568359.5166016l-1.0439453.4643555.7548828-.8579102c.1259766-.144043.2822266-.3374023.4169922-.5097656-2.7822266.1181641-3.7651367 1.1699219-3.7753906 1.1811523l-.1879883.2084961-.1865235-.2094726c-.0087891-.0102539-.9907227-1.0620117-3.7744141-1.1801758.1357422.1723633.2915039.3657227.4179688.5097656l.7524414.8574219-1.0424805-.4638672c-.0112305-.0053711-1.1787109-.5166016-2.7558594-.5166016-.3422852 0-.6801758.0239258-1.0112305.0712891l1.5708008.9541016-1.1674805-.1489258c-.0292969-.0043945-2.2602539-.2675781-5.1269531.9638672l2.1679688.5693359h-1.9355469c-.0131836 0-1.4589844.0473633-4.0561523 2.1518555.2495117.0366211.5566406.0703125.8461914.0703125h.7363281l-.5839844.4482422c-.128418.0986328-2.7265625 2.0834961-4.6777344 2.8413086.6757813.1225586 1.6191406.1899414 2.2246094.0361328l.1240234.484375c-.012207.003418-1.300293.3774414-2.15625 2.4272461.597168-.2392578 1.5864258-.484375 2.2460938-.2700195l.3110352.1015625-.1796875.2734375c-.0039063.0058594-.3588867.550293-.7451172 1.4384766.1142578.0092773.2519531.0161133.3984375.0161133.3549805 0 .6557617-.0429688.8701172-.1245117l.3979492-.1508789-.1831055 1.2490234c.0883789.0273438.2089844.0537109.3476563.0537109.2553711 0 .4951172-.0878906.7138672-.262207l.3183594.3852539c-.0048828.0043945-.8383789.8110352-1.3330078 4.3530273-.2514648 1.8017578-1.1367188 2.394043-2.1611328 3.0791016-1.1323242.7573242-2.5317383 1.6933594-3.5605469 4.7861328.0791016-.0024414.1669922-.0043945.2583008-.0043945.4760742 0 .7998047.0424805.9897461.1289063l.3417969.1557617-.2753906.2553711c-.0307617.0283203-2.9853516 2.8349609-2.652832 8.0117188l2.0976563-1.0947266-.1171875.5253906c-.0170898.0751953-1.6040039 7.3916016 1.3291016 12.4287109.2246094-.4833984.6132813-1.2773438 1.0102539-1.8994141l.371582-.5810547.0874023.6845703c.0053711.0429688.5947266 4.3349609 4.4848633 8.2539063.2158203-.25.6152344-.6855469 1.1411133-1.140625l.2607422-.2265625.1333008.3183594c1.0668945 2.5429688 2.7275391 4.5996094 4.9365234 6.1152344z" fill="#40210f"/><path d="m52 36.3477859 1.25 2.5397873c.4677124-5.4071388-2.4099121-9.8310547-2.4099121-9.8310547.3341064-.1638718 1.3362427-.0820255 1.3362427-.0820255-1.7371216-6.0624428-4.7434692-4.2601032-5.2111206-7.8647842-.4676514-3.6047401-1.2694092-4.3420677-1.2694092-4.3420677.6680908.5734577 1.3361816.1638699 1.3361816.1638699l-.133606-.9831057c.1826782.074645.3954468.1088476.604187.1239691-.1218872-.1839123-.2000732-.2519569-.2000732-.2519569.175415.1375885.3500366.216135.5158081.2613163.34375-.005579.6166992-.0514221.6166992-.0514221-.4008789-1.0650711-.8016968-1.7203751-.8016968-1.7203751.9353027-.3277416 2.3383179.4914923 2.3383179.4914923-.8016968-2.6216345-2.2715454-3.0311613-2.2715454-3.0311613 1.2025757.3276815 2.9395752-.2457762 2.9395752-.2457762-1.670166-.2457762-4.9438477-2.949317-4.9438477-2.949317.6013184 0 1.2694092-.1638708 1.2694092-.1638708-2.6724243-2.4577637-4.1422119-2.4577637-4.1422119-2.4577637l.8685303-.2457762c-2.9395752-1.5565639-5.2778931-1.2288818-5.2778931-1.2288818l1.0021362-.6554236c-2.2046508-.5734583-4.0753173.3277415-4.0753173.3277415.2672119-.3277416.6680908-.9011998.6680908-.9011998-3.0064087 0-4.0085449 1.2288818-4.0085449 1.2288818s-1.0021362-1.2288818-4.0085449-1.2288818c0 0 .4008789.5734582.6680908.9011998 0 0-1.8706665-.9011998-4.0753174-.3277416l1.0021362.6554236s-2.3383179-.327682-5.2778931 1.2288818l.8685303.2457762s-1.4697876 0-4.1422119 2.4577637c0 0 .6680908.1638708 1.2694092.1638708 0 0-3.2736206 2.7035408-4.9438477 2.949317 0 0 1.7369995.5734577 2.9395752.2457762 0 0-1.4697876.4095268-2.2714233 3.0311613 0 0 1.4028931-.8192339 2.3381958-.4914923 0 0-.4008179.655304-.8016968 1.7203751 0 0 .2729492.0458431.6166992.0514221.1657715-.0451813.3403931-.1237278.5158081-.2613163 0 0-.078186.0680447-.2000732.2519569.2087402-.0151215.4215088-.049324.604187-.1239691l-.133606.9831057s.6680908.4095879 1.3361816-.1638699c0 0-.8017578.7373276-1.2694092 4.3420677-.4676514 3.604681-3.473999 1.8023415-5.2109985 7.8647842 0 0 1.0020752-.0818462 1.3361206.0820255 0 0-2.8775635 4.4239159-2.4099121 9.8310547l1.2500001-2.5397872s-.6369019 5.4692421.8858643 10.1797371c.0372925-.0606041.0742798-.1236076.1117554-.1813927 0 0 .0646973.4819527.2941284 1.2632027.1877441.4362297.3927002.865139.6380615 1.2730446 0 0 .5285034-1.3107872 1.0629883-2.2119865 0 0 .4413452 3.7020683 3.4533691 7.3652496.1715698-.1693306.3674927-.3530006.5890503-.5415344.1507568.3531837.326416.7108078.5142822 1.069149.2005615-.2373123.4908447-.5589371.8469849-.8907585.7659302 1.9636917 2.0465088 4.0514717 4.1704102 5.7302017l.9596558-.929821s.1454468.1396294.4092407.3636246l.2704468-.2868195s2.3175659 3.0547104 5.7937622 4.2836494c3.4786377-1.2289391 5.7977295-4.2836494 5.7977295-4.2836494l.2706909.2868195c.263916-.2239952.4094849-.3636246.4094849-.3636246l.9603882.929882c2.123291-1.6770515 3.4044189-3.7626114 4.1711426-5.7247429.3568726.3330231.6467896.6550636.8463745.8916626.1882935-.3586464.3643799-.7164497.515564-1.069931.218811.1865501.4125977.3683014.5824585.5358925 3.0120239-3.6631813 3.4533691-7.3652496 3.4533691-7.3652496.5344849.9011993 1.0629883 2.2119865 1.0629883 2.2119865.2453613-.4079056.4503174-.8368149.6380615-1.2730446.2294312-.78125.2941284-1.2632027.2941284-1.2632027.0374756.057785.0744629.1207886.1117554.1813927 1.522766-4.710495.8858641-10.1797371.8858641-10.1797371z" fill="url(#a)"/><path d="m43.2590332 52.9863281c3.3023682-3.999939 3.7529907-9.75 3.7529907-9.75.4718018.916687.9382324 2.25.9382324 2.25 2.6536865-5.083313 1.2693481-8.8334351 1.2693481-8.8334351l1.5454102 1.000061c.4128418-5.500061-2.1351318-8.416626-2.1351318-8.416626.2948608-.166687 1.1794434-.0834351 1.1794434-.0834351-1.5332642-6.166626-4.1869507-4.333313-4.5997925-7.999939-.4127808-3.666687-1.1204834-4.416687-1.1204834-4.416687.5897827.583313 1.1795044.166687 1.1795044.166687l-.117981-1c.5307617.25 1.3563232.083313 1.3563232.083313-.3538208-1.083374-.7076416-1.749939-.7076416-1.749939.8256226-.333374 2.0640259.499939 2.0640259.499939-.7076416-2.666687-2.0050659-3.083252-2.0050659-3.083252 1.0615234.333313 2.5947266-.25 2.5947266-.25-1.4741821-.25-4.3638916-3-4.3638916-3 .5308228 0 1.1204834-.166687 1.1204834-.166687-2.3588257-2.5-3.656189-2.5-3.656189-2.5l.7666016-.25c-2.5947266-1.583313-4.6586914-1.25-4.6586914-1.25l.8845825-.666687c-1.9460449-.583313-3.597229.333374-3.597229.333374.2358398-.333374.5896606-.916687.5896606-.916687-2.6536865 0-3.538269 1.25-3.538269 1.25s-.8845825-1.25-3.538269-1.25c0 0 .3538208.583313.5896606.916687 0 0-1.6511841-.916687-3.597229-.333374l.8845825.666687s-2.0639648-.333313-4.6586914 1.25l.7666016.25s-1.2973633 0-3.656189 2.5c0 0 .5896606.166687 1.1204834.166687 0 0-2.8896484 2.75-4.3638916 3 0 0 1.5332031.583313 2.5947266.25 0 0-1.2973633.4165649-2.0050049 3.083252 0 0 1.2383423-.833313 2.0639648-.499939 0 0-.3538208.6665649-.7076416 1.749939 0 0 .8255615.166687 1.3563232-.083313l-.117981 1s.5897217.416626 1.1795044-.166687c0 0-.7077026.75-1.1204834 4.416687-.4128418 3.666626-3.0665283 1.833313-4.5997314 7.999939 0 0 .8845215-.083252 1.1793823.0834351 0 0-2.5479126 2.9165649-2.1351318 8.416626l1.5454102-1.000061s-1.684082 3.7501221.9696045 8.8334351c0 0 .7661743-1.333313 1.2379761-2.25 0 0 .4506226 5.750061 3.7529907 9.75 0 0 .3969116-.5845947 1.0167847-1.25.6212769 1.8356323 1.6229858 3.8970947 3.2353516 5.5257568l.5334473-.5257568s.2978516.819397.8327637 1.25h.6406859s1.9315796 3.749939 5 5c3.0705566-1.250061 5-5 5-5h.6445923c.5352173-.430542.833313-1.25.833313-1.25l.5338745.5257568c1.6118164-1.6269531 2.6138306-3.6861572 3.2357178-5.5201416.6167602.6633301 1.0115356 1.2443848 1.0115356 1.2443848z" fill="#a66100"/><path d="m40.3146057 43.25s.213295 1.4134521-.0531921 3.5737305c-1.495369-5.4882202-13.1978264-.6912842-14.9764843.0740356l-5.7849293-3.6477661s1.38764 7.5 8.3258419 13.75c0 0-.5734863-1.8155518-.4133797-3.4384155 1.0612602 2.0671997 2.5449791 4.2493286 4.5762997 5.9384155 0 0 5.0112381-3.75 7.5112381-8.75 0 2.5-2.0849686 6.0001221-3.75 7.5 0 0 7.5-5 8.9509163-16.282959z" fill="url(#b)"/><path d="m48.8521156 29.684782c.236496-2.695652-2.3651085-5.391304-2.9169922-9.130434-.5518456-3.73913-3.4688377-4.956522-3.4688377-4.956522.2365417-.347826.6307335-.695652.6307335-.695652-2.0497627-1.478261-3.4688339-.347826-3.4688339-.347826l.3153457-1.304348c-1.7344208.434783-5.4397507 2.521739-5.4397507 2.521739l.4729958-1.391304c-.4729958 0-2.9957981 1.739131-2.9957981 1.739131s-2.5228004-1.739131-2.9957962-1.739131l.4729958 1.391304s-3.7053337-2.086956-5.4397507-2.521739l.3153458 1.304348s-1.4190731-1.130435-3.4688358.347826c0 0 .3941917.347826.6307316.695652 0 0-2.9169922 1.217392-3.4688339 4.956522-.5518436 3.73913-3.1534901 6.434782-2.9169922 9.130434 0 0 .3941917-1.130434.7883825-1.391304 0 0-1.2613783 5.3913059 1.1825743 9.826086 0 0 .2307663-.4454803.3468494-.7919922.0196171-.0585518.0359211-.1142578.0473423-.1645279.0788059-.3478279.4729958 4.8695641 2.9957981 8.3478241l.078804-1.0434761s.7095356 1.913044 2.9169922 3.5652161c2.2074127 1.6521759 1.734417 3.47826 2.9169483 4.3478279 1.1825752.8695641 5.5974445.8695641 5.5974445.8695641s4.4148693 0 5.5974445-.8695641c1.1265297-.8283806.7560272-2.5245438 2.6262741-4.1117554.0929832-.0789299.186142-.1578178.2906761-.2360725 2.2074547-1.6521721 2.9169922-3.5652161 2.9169922-3.5652161l.078804 1.0434761c2.5228004-3.47826 2.9169922-8.695652 2.9958382-8.3478241.0113792.0502701.0276833.1059761.0473442.1645279.1160393.3465118.3468475.7919922.3468475.7919922.0160904-.0292091.0280647-.0593987.0438614-.0886955 2.3795013-4.4178429 1.1386719-9.7373905 1.1386719-9.7373905.3941918.26087.7883835 1.391304.7883835 1.391304z" fill="#ffbe5e"/><path d="m42.6339607 28.6051292c-.2647362.6985397-2.8387413 1.8924503-3.9593277.0248814-.63591-1.0598679-1.1707687-1.0060291-2.0325661.0324802.7651596-.4197083 1.5302734.3440895 2.295433 1.1092491 0 0 2.1308594 1.3474007 4.3478279-.869566.8695641-.869566 1.7391281-1.7164154 1.7391281-1.7164154s-1.4940566-.9462451-2.3904952 1.4193707z" fill="url(#d)"/><path d="m21.3279972 28.6051292c.2647343.6985397 2.8387394 1.8924503 3.9593239.0248814.6359119-1.0598679 1.1707726-1.0060291 2.0325661.0324802-.7651577-.4197083-1.5302734.3440895-2.2954311 1.1092491 0 0-2.1308594 1.3474007-4.347826-.869566-.8695641-.869566-1.73913-1.7164154-1.73913-1.7164154s1.4940547-.9462451 2.3904971 1.4193707z" fill="url(#e)"/><path d="m29.4237423 26.2800617c2.554306-.6108608 2.5572357-1.7344189 2.5572357-1.7344189s.0029297 1.123558 2.5572338 1.7344189c-.40905-.1216888-3.1656742-1.2969189-2.0050087-10.5323973-.3262558.2163305-.5522251.3719015-.5522251.3719015s-.2259674-.155571-.5522251-.3719015c1.1606674 9.2354785-1.5959568 10.4107085-2.0050106 10.5323973z" fill="url(#g)"/><path d="m35.45924 21.076086c2.0334129-3.3890114 4.8567009-4.9249306 7.1366768-5.6452093.2286835-.2832031.5011024-.5287027.5011024-.5287027-1.0203362-.7358608-1.8840027-.8249826-2.4945221-.7292376-4.0234375 1.3236666-5.1432571 6.9031496-5.1432571 6.9031496z" fill="url(#h)"/><path d="m48.8521118 29.6847534c.2193604-2.5003052-1.9945068-5.0053101-2.7578125-8.338623-.0606079-.2598267-.1192017-.520874-.1591797-.7918091-.0518799-.3515625-.130188-.6738281-.2194824-.9818726-2.0147705-1.1018066-3.2998657-1.1051025-3.2998657-1.1051025 2.7384644 1.0953979 3.4060669 2.1898193 3.5258789 2.850708-.1818848.4382324-.5583496.9782104-.4534302 1.5551147.5797119 3.1883545-1.333313 3.4202881-1.333313 3.4202881l-.8695679.8695679c6.3126831 0 4.1298218 9.0212402 3.6716309 10.6913452.4638062-2.289856.3442383-4.7504883-1.0629272-7.2130737 0 0 1.7391357 6.956543-2.6087036 12.1738892 0 0 .8695679-1.7391357-2.6087036-5.2173462-2.1898193-2.1898804-3.3444824-4.0333862-3.9003296-5.0999146-.6228027-3.2759399.4220581-5.3348999.4220581-5.3348999s-2.6087036 2.6087036-.8695679 6.956543c1.0213013 2.5531006 1.7391357 3.4782715-3.4782715 6.0869141 0 0 4.3201904-.6176758 4.6409302-3.932373.6793823.9945068 2.3156128 3.6031494 2.3156128 5.6715088 0 2.6087036-1.7391357 3.4782715-3.4782715 3.4782715s-4.3478394-.8695679-3.4782715-4.3478394h-.8695679-.8695679c.8695679 3.4782715-1.7391357 4.3478394-3.4782104 4.3478394-1.7391357 0-3.4782715-.8695679-3.4782715-3.4782715 0-2.0683594 1.6362305-4.677002 2.3156128-5.6715088.3206787 3.3146973 4.6408691 3.932373 4.6408691 3.932373-5.2173462-2.6086426-4.4995117-3.5338135-3.4782104-6.0869141 1.7390747-4.3478394-.8695679-6.956543-.8695679-6.956543s1.0448608 2.05896.4219971 5.3348999c-.5557861 1.0665283-1.7104492 2.9100342-3.9002686 5.0999146-3.4782715 3.4782104-2.6087036 5.2173462-2.6087036 5.2173462-4.3478394-5.2173462-2.6087036-12.1738892-2.6087036-12.1738892-1.4071655 2.4625854-1.5267334 4.9232178-1.0629883 7.2130737-.4581299-1.670105-2.6409912-10.6913452 3.6716919-10.6913452l-.8695679-.8695679s-1.9130249-.2319336-1.333374-3.4202881c.1049194-.5769043-.2714844-1.1168823-.4533691-1.5551147.119812-.6608887.7874146-1.7553101 3.5258789-2.850708 0 0-1.2850952.0032959-3.2999268 1.1051025-.0892334.3080444-.1675415.6303101-.2194214.9818726-.0400391.2709351-.0985718.5319824-.1591797.7918091-.7633667 3.333313-2.9771729 5.8383179-2.7578125 8.338623 0 0 .394165-1.1304321.7883911-1.3912964 0 0-1.2408447 5.3195801 1.1386719 9.7373657.0157471.0292969.02771.0595093.0438232.0887451 0 0 .230835-.4454956.3468628-.7919922.0196533-.0585938.0359497-.1142578.0473633-.1645508.0787964-.3478394.4730225 4.8695679 2.9957886 8.3478394l.0788574-1.0435181s.3806763 1.0185547 1.4414673 2.2103882l.000061.0001221c.0936279.1052246.1925659.2114258.2971191.3187866.0073242.0075684.0142212.0150146.0216675.022583.0947876.0967407.1948242.1939697.2988281.2915649.0189209.0177612.036377.0354004.0556641.0531616.0966797.0892334.1987915.1783447.3034058.2674561.0280762.0239258.0540771.0480347.0827637.0718994.1325684.1104736.2706299.220459.4160156.3292847.1044922.0782471.1976318.1571655.2906494.236084 1.8702393 1.5872192 1.4997559 3.2833862 2.6262817 4.1117554 1.1825563.8695679 5.5974122.8695679 5.5974122.8695679s4.414917 0 5.5974731-.8695679c1.1265259-.8283691.7560425-2.5245361 2.6262817-4.1117554.0929565-.0789185.1860962-.1578369.2906494-.236084.1453857-.1088257.2834473-.218811.4160156-.3292847.0286865-.0238647.0546875-.0479736.0827637-.0718994.1046143-.0891113.2067261-.1782227.3034058-.2674561.0192261-.0177612.0367432-.0354004.055603-.0531616.1040649-.0975952.2041016-.1948242.2988892-.2915649.0074463-.0075684.0143433-.0150146.0216675-.022583.1045532-.1073608.2034302-.213562.2970581-.3187866l.0001221-.0001221c1.06073-1.1918335 1.4414673-2.2103882 1.4414673-2.2103882l.0787964 1.0435181c2.5228271-3.4782715 2.9169922-8.6956787 2.9958496-8.3478394.0114136.050293.02771.105957.0473633.1645508.1160278.3464966.3468628.7919922.3468628.7919922.0160522-.0292358.0280151-.0594482.0438232-.0887451 2.3795166-4.4177856 1.1386719-9.7373657 1.1386719-9.7373657.3942261.2608643.7883911 1.3912964.7883911 1.3912964zm-10.7841797 18.3478394c-.8695679 3.4782715-6.0869751 3.4782715-6.0869751 3.4782715s-5.2173462 0-6.0869141-3.4782715c-.0344849-.1379395-.0899658-.2622681-.1348877-.3880005.8453369-.3720703 1.7579346-.8583374 2.7435913-1.3511353 3.4782104-1.7391357 3.4782104-.8695679 3.4782104-.8695679s0-.8695679 3.4782715.8695679c.9855957.4927979 1.8982544.9790649 2.7435303 1.3511353-.0449218.1257324-.1003417.250061-.1348266.3880005z" fill="url(#i)"/><path d="m28.502718 21.076086c-2.0334167-3.3890114-4.8567009-4.9249306-7.1366768-5.6452093-.2286854-.2832031-.5011044-.5287027-.5011044-.5287027 1.0203381-.7358608 1.8840008-.8249826 2.494524-.7292376 4.0234375 1.3236666 5.1432572 6.9031496 5.1432572 6.9031496z" fill="url(#j)"/><path d="m36.0600281 29.426857s.9487305-4.4759884 4.583065-4.4759884c2.6258316 0 4.3813629 2.2348824 4.3813629 2.2348824s-1.494072-.9462452-2.3905144 1.4193668c-.2647171.6985607-2.8387337 1.8924904-3.9592857.0249023-.7686958-1.2811565-1.382019-.9586963-2.6146278.7968369z" fill="url(#l)"/><circle cx="40.643093" cy="27.361305" fill="#231815" r="2.410435"/><circle cx="40.643093" cy="27.361305" fill="url(#n)" r="1.807826"/><circle cx="40.469181" cy="27.361305" fill="#231815" r=".916364"/><ellipse cx="39.623161" cy="26.489761" fill="url(#p)" rx=".736849" ry=".722134"/><circle cx="41.847912" cy="28.494309" fill="url(#q)" r=".396775"/><path d="m28.017868 29.426857s-.9487286-4.4759884-4.5830631-4.4759884c-2.6258297 0-4.3813629 2.2348824-4.3813629 2.2348824s1.494072-.9462452 2.3905144 1.4193668c.2647171.6985607 2.8387356 1.8924904 3.9592876.0249023.7686939-1.2811565 1.3820172-.9586963 2.614624.7968369z" fill="url(#r)"/><circle cx="23.434805" cy="27.361305" fill="#231815" r="2.410435"/><circle cx="23.434805" cy="27.361305" fill="url(#s)" r="1.807826"/><circle cx="23.608719" cy="27.361305" fill="#231815" r=".916364"/><ellipse cx="22.414875" cy="26.489761" fill="url(#t)" rx=".736849" ry=".722134"/><circle cx="24.639624" cy="28.494309" fill="url(#u)" r=".396775"/><path d="m37.1983681 47.163044c-.8116074-.4637833-3.47826-1.7391319-4.3478241-2.608696-.869566-.8695641-.6376953-3.47826-.6376953-3.47826l-.2318707-.1739159-.2318687.1739159s.2318687 2.608696-.6376953 3.47826c-.869566.8695641-3.5362186 2.1449127-4.3478279 2.608696-1.0677223.610096-1.73913-.8695641-1.73913-.8695641s0 2.6086922 2.608696.8695641c2.608696-1.7391319 3.4782619-1.7391319 4.347826-1.7391319.869566 0 1.73913 0 4.347826 1.7391319 2.608696 1.7391281 2.608696-.8695641 2.608696-.8695641s-.6714097 1.4796601-1.739132.8695641z" fill="url(#w)"/><path d="m36.3635864 38.1891289s.6260872-1.4608688-1.4608688-1.4608688c-1.0434799 0-1.8782616.4521751-2.9217396.4521751s-1.8782616-.4521752-2.9217396-.4521752c-2.086956 0-1.4608688 1.4608688-1.4608688 1.4608688s2.2956524 2.2956543 4.3826084 2.2956543 4.3826084-2.2956542 4.3826084-2.2956542z" fill="url(#x)"/><path d="m31.980978 40.4847832s-3.130434-1.0434799-5.217392-3.1304359c0 0 0 1.0434799 2.0869579 2.086956 2.086956 1.0434799 2.086956 2.086956 3.130434 2.086956s1.043478-1.0434761 3.130434-2.086956c2.086956-1.0434761 2.086956-2.086956 2.086956-2.086956-2.0869559 2.086956-5.2173899 3.1304359-5.2173899 3.1304359z" fill="#231815"/><path d="m34.0679359 38.3978271c-1.0434799 1.0434761-1.0434799 2.086956-1.0434799 2.086956l3.1304359-2.086956c.0000001 0-1.0434799-1.0434799-2.086956 0z" fill="#231815"/><path d="m27.807066 38.3978271s1.043478-1.0434799 2.086956 0c1.043478 1.0434761 1.043478 2.086956 1.043478 2.086956" fill="#231815"/><path d="m34.5896721 33.25c0 2.4012375-1.1679497 2.608696-2.6086941 2.608696-1.4407425 0-2.608696-.2074585-2.608696-2.608696s1.1679535-6.086956 2.608696-6.086956c1.4407444 0 2.6086941 3.6857185 2.6086941 6.086956z" fill="url(#y)"/><path d="m31.980957 53.5c-.1835938 0-4.5112305-.0107422-5.7456055-.9179688-.5605469-.4121094-.7866211-1.0117188-1.0263672-1.6464844-.3178711-.8408203-.6777344-1.7939453-1.8920898-2.703125-1.3535156-1.0126953-2.15625-2.1142578-2.5859375-2.8457031l-.0625.8222656-.3999023-.5517578c-1.8574219-2.5605469-2.5854492-6.0742188-2.8652344-7.6259766-.0556641.1152344-.0966797.1953125-.1005859.203125l-.215332.4150391-.2255859-.4091797c-1.7670898-3.2070313-1.6464844-6.8486328-1.4179688-8.7319336-.0371094.0913086-.0703125.1791992-.0981445.2587891l-.3833008 1.0981445-.1015625-1.1586914c-.1308594-1.4897461.5649414-2.9760742 1.3017578-4.5498047.6694336-1.4306641 1.3618164-2.909668 1.6166992-4.6391602.46875-3.1728516 2.5551758-4.5859375 3.331543-5.0083008-.1962891-.2285156-.4086914-.4169922-.4116211-.4194336l-.234375-.2070313.253418-.1831055c.7441406-.5366211 1.4956055-.8085938 2.2333984-.8085938.4121094 0 .753418.0859375 1.0092773.1845703l-.2827148-1.168457.4008789.1000977c1.3540039.3393555 3.8217773 1.6303711 4.9350586 2.234375l-.3779297-1.1113281h.3491211c.46875 0 2.1533203 1.1103516 2.9956055 1.6860352.8422852-.5756836 2.5268555-1.6860352 2.9956055-1.6860352h.3486328l-.3769531 1.1113281c1.1132813-.6040039 3.5810547-1.8950195 4.9345703-2.234375l.4003906-.1000977-.2822266 1.1679688c.2558594-.0981445.5976563-.184082 1.0087891-.184082.7382813 0 1.4892578.2719727 2.2333984.8085938l.2529297.1826172-.2333984.2075195c-.0029297.0024414-.2148438.1904297-.4121094.4194336.7773438.4228516 2.8632813 1.8359375 3.3320313 5.0083008.2558594 1.7294922.9472656 3.2084961 1.6171875 4.6391602.7363281 1.5737305 1.4326172 3.0600586 1.3017578 4.5498047l-.1015626 1.1577149-.3837891-1.097168c-.0283203-.0810547-.0615234-.1704102-.0996094-.2631836.2255859 1.8637695.3457031 5.4580078-1.3720703 8.6455078-.0234375.0498047-.0341797.0732422-.0478516.0957031l-.2294922.3916016-.2080078-.4023438c-.0039063-.0078125-.0449219-.0869141-.1005859-.203125-.2802734 1.5507813-1.0087891 5.0664063-2.8652344 7.6259766l-.3994141.5517578-.0625-.8222656c-.4306641.7314453-1.2324219 1.8330078-2.5869141 2.8457031-.0986328.0751953-.1884766.1503906-.2773438.2265625-.9902344.8398438-1.3203125 1.7099609-1.6123047 2.4765625-.2402344.6347656-.46875 1.234375-1.0283203 1.6464844-1.2353514.9072266-5.5620115.9179688-5.7456053.9179688zm-11.5947265-10.1826172.3979492 1.0634766c.0068359.0185547.7163086 1.8681641 2.8325195 3.4511719 1.3310547.9960938 1.7348633 2.0664063 2.0600586 2.9267578.230957.6123047.4135742 1.0957031.8549805 1.4208984.915039.6728516 4.2436523.8203125 5.4492187.8203125s4.5336914-.1474609 5.4487305-.8203125c.4414063-.3251953.625-.8085938.8583984-1.4208984.296875-.7832031.6669922-1.7578125 1.7548828-2.6806641.0966797-.0820313.1923828-.1630859.3007813-.2451172 2.1259766-1.5898438 2.8271484-3.4335938 2.8339844-3.4521484l.3974609-1.0722656.1113281 1.4648438c1.6474609-2.6328125 2.2392578-6.0205078 2.4433594-7.1894531.0996094-.5693359.1201172-.6875.3486328-.6875h.1992188l.0537109.2109375c.0087891.0449219.0234375.0917969.0400391.140625.0322266.0966797.0751953.203125.1181641.3037109 2.0585938-4.2119141.9423828-9.1508789.9306641-9.2016602l-.1425781-.6113281.5234375.3461914c.1123047.0742188.2207031.1958008.3203125.3393555-.1943359-.9614258-.6601563-1.9560547-1.1748047-3.0556641-.6523438-1.3950195-1.3925781-2.9760742-1.6582031-4.777832-.5244141-3.5458984-3.2910156-4.7509766-3.3193359-4.7626953l-.2822266-.1186523.1728516-.2529297c.1308594-.1923828.3027344-.3813477.4404297-.5205078-.5722656-.3618164-1.1396484-.5449219-1.6904297-.5449219-.7568359 0-1.2226563.355957-1.2275391.359375l-.5644531.4404297.3808594-1.5791016c-1.7998047.5961914-4.9384766 2.3588867-4.9716797 2.3779297l-.5703125.3208008.515625-1.5161133c-.5703125.293457-1.5820313.9331055-2.4492188 1.53125l-.1420898.0976563-.1420898-.0976563c-.8671875-.5981445-1.878418-1.2368164-2.4487305-1.5307617l.5146484 1.515625-.5693359-.3208008c-.0341797-.019043-3.171875-1.7817383-4.972168-2.3779297l.3847656 1.5917969-.5698243-.4536134c-.003418-.0029297-.4697266-.3588867-1.2265625-.3588867-.5507813 0-1.1181641.1831055-1.6904297.5444336.1376953.1396484.3100586.3291016.440918.5214844l.171875.2524414-.2817383.1186523c-.027832.0117188-2.7949219 1.2167969-3.3178711 4.7626953-.2661133 1.8017578-1.0063477 3.3828125-1.6591797 4.777832-.5141602 1.0991211-.9799805 2.09375-1.1743164 3.0546875.0996094-.1430664.2075195-.2641602.3198242-.3383789l.5239258-.3461914-.1425781.6113281c-.012207.0512695-1.1293945 4.9985352.9277344 9.206543.0444336-.1025391.0878906-.2109375.1210938-.3085938.0166016-.0507813.0307617-.0986328.0410156-.1425781l.0449219-.1923828.2070313-.0166016c.2280273 0 .2485352.1181641.3476563.6845703.2041016 1.1699219.7954102 4.5585938 2.4443359 7.1933594z" fill="#40210f"/><g fill="#231815"><path d="m25.3519821 40.4069633s-.1486702-.051651-.4088383-.1420441c-.2563877-.0899048-.6311836-.2070007-1.0843925-.3435173-.4517365-.1392059-.9870205-.2757721-1.5588245-.4301758-.5777073-.1264877-1.1893024-.2949944-1.8120193-.4040833-.622139-.110878-1.2420979-.2501297-1.832243-.3141022-.5889874-.069294-1.1373558-.1740608-1.6124153-.1944771-.950407-.0667038-1.5840101-.1111717-1.5840101-.1111717s.6360979.0010605 1.5902433.002655c.4789543-.0120163 1.032671.0549812 1.6302605.0842094.598877.0239258 1.2293377.1207008 1.8646736.1896782.6359291.0672035 1.2621803.1942253 1.8558311.2824516.587862.1161728 1.1392002.217453 1.6072121.3272095.4681759.10672.8590145.2000465 1.1334343.2756119.2708378.0738182.425602.1160049.425602.1160049.1855145.0505638.2949123.2419434.2443466.4274559-.0505638.1855125-.2419434.2949104-.4274559.2443466-.0073986-.002018-.0146751-.0042572-.0218258-.0067139z"/><path d="m24.3935623 42.2437439s-.1564465-.0387459-.4084358-.0786324c-.2499466-.0520897-.636591-.0868835-1.0911064-.1402664-.4599514-.0183182-.996912-.0797691-1.5763645-.0612373-.2899036.0011177-.5894718.0022697-.8938713.0034447-.3041725.020668-.6131725.0416679-.9221706.0626678-.3088093.0257988-.6204224.0332718-.9232197.0738258-.3029518.0419579-.6010933.0832481-.889616.1232109-.5793381.0719604-1.1179752.15588-1.5724201.2658539-.9160099.1935616-1.5266838.3226051-1.5266838.3226051s.6008301-.1713905 1.5020771-.4284821c.4485493-.1420746.9820385-.2638397 1.5588932-.3767586.2878819-.0604935.5853596-.1230011.8876362-.1865196.3028107-.0621758.6158009-.0917435.9264927-.1396065.3117733-.0430641.6235447-.0861244.9304466-.1285133.3094807-.0228424.614048-.0453224.9087906-.0670776.5895767-.0596581 1.1449909-.0361252 1.6208115-.0495605.4781513.0223503.8716545.0298576 1.1608696.0682945.290205.0269547.4392242.0536118.4392242.0536118l.0136547.0024414c.1892853.0338631.3152809.2147598.2814198.4040451s-.2147598.3152809-.4040451.2814217c-.0072404-.001297-.0153314-.0030518-.0223829-.0047684z"/><path d="m24.834137 44.2882843s-.1455402-.0358658-.3664494-.0602875c-.2195816-.0422325-.5670433-.0470123-.9762611-.0713501-.2065697.0080528-.4303513.016777-.6670456.026001-.2381783.0008469-.4876938.0254326-.7445526.0697937-.258337.036644-.5252838.0745125-.7965374.1129875-.2682915.0552979-.5367584.133007-.8084908.1990967-.2692966.0741043-.5470028.12603-.807045.2175713-.2584705.0977554-.5128384.1939583-.7590008.2870598-.2471619.0934181-.486084.1837196-.7126503.269352-.221981.0961533-.4202271.2118912-.6098671.3056755-.7544594.389576-1.2574329.6492958-1.2574329.6492958s.4824753-.2980614 1.2061901-.7451553c.1831455-.108799.374733-.2409897.5907211-.3549957.2215691-.103878.455225-.2134209.6969376-.3267441.242712-.1136398.493515-.2310638.7483635-.3503876.2576084-.11343.5349674-.1881866.8048496-.2851295.2725086-.0889893.5427227-.189682.8147488-.2678032.2770557-.0614052.5497112-.1218338.8135738-.1803131.26334-.0660553.5214596-.1116638.7705574-.1323013.2483463-.0286407.4831448-.0557213.6998825-.0807152.4396877-.0085526.8013115-.0315895 1.0736408-.0028076.273531.0126305.4056377.0358925.4056377.0358925l.0239391.0042152c.1894016.0333519.3159046.213932.2825527.4033356s-.2139301.3159027-.4033337.2825508c-.0074346-.0013086-.0156916-.0030824-.022928-.0048372z"/><path d="m38.5230179 40.4069633s.1486702-.051651.4088402-.1420441c.2563858-.0899048.6311836-.2070007 1.0843925-.3435173.4517326-.1392059.9870186-.2757721 1.5588226-.4301758.5777054-.1264877 1.1893005-.2949944 1.8120193-.4040833.622139-.110878 1.2420998-.2501297 1.8322411-.3141022.5889893-.069294 1.1373596-.1740608 1.6124191-.1944771.9504051-.0667038 1.5840073-.1111717 1.5840073-.1111717s-.636097.0010605-1.5902443.002655c-.4789505-.0120163-1.0326691.0549812-1.6302567.0842094-.5988808.0239258-1.2293396.1207008-1.8646736.1896782-.6359329.0672035-1.2621803.1942253-1.8558311.2824516-.5878639.1161728-1.1392021.217453-1.6072121.3272095-.4681778.10672-.8590164.2000465-1.1334343.2756119-.2708397.0738182-.4256058.1160049-.4256058.1160049-.1855125.0505638-.2949104.2419434-.2443466.4274559.0505676.1855125.2419434.2949104.4274597.2443466.0073967-.002018.0146751-.0042572.0218239-.0067139z"/><path d="m39.4814377 42.2437439s.1564484-.0387459.4084358-.0786324c.2499466-.0520897.6365891-.0868835 1.0911064-.1402664.4599495-.0183182.9969101-.0797691 1.5763664-.0612373.2899017.0011177.5894699.0022697.8938713.0034447.3041687.020668.6131706.0416679.9221687.0626678.3088074.0257988.6204224.0332718.9232216.0738258.302948.0419579.6010895.0832481.8896141.1232109.5793381.0719604 1.1179771.15588 1.5724182.2658539.9160118.1935616 1.5266876.3226051 1.5266876.3226051s-.6008339-.1713905-1.502079-.4284821c-.4485474-.1420746-.9820366-.2638397-1.5588913-.3767586-.2878838-.0604935-.5853615-.1230011-.8876381-.1865196-.3028107-.0621758-.615799-.0917435-.9264908-.1396065-.3117752-.0430641-.6235466-.0861244-.9304504-.1285133-.3094788-.0228424-.6140442-.0453224-.9087868-.0670776-.5895805-.0596581-1.1449928-.0361252-1.6208153-.0495605-.4781494.0223503-.8716507.0298576-1.1608658.0682945-.2902069.0269547-.4392281.0536118-.4392281.0536118l-.0136528.0024414c-.1892853.0338631-.3152809.2147598-.2814178.4040451.0338593.1892853.214756.3152809.4040413.2814217.0072442-.001297.0153352-.0030518.0223848-.0047684z"/><path d="m39.040863 44.2882843s.1455421-.0358658.3664474-.0602875c.2195816-.0422325.5670471-.0470123.976265-.0713501.2065659.0080528.4303513.016777.6670418.026001.2381821.0008469.4876976.0254326.7445564.0697937.2583351.036644.5252838.0745125.7965355.1129875.2682915.0552979.5367584.133007.8084908.1990967.2692947.0741043.5470009.12603.807045.2175713.2584724.0977554.5128403.1939583.7589989.2870598.2471619.0934181.4860878.1837196.7126503.269352.221981.0961533.4202271.2118912.6098709.3056755.7544594.389576 1.257431.6492958 1.257431.6492958s-.4824753-.2980614-1.2061882-.7451553c-.1831474-.108799-.3747368-.2409897-.5907211-.3549957-.2215729-.103878-.4552269-.2134209-.6969414-.3267441-.2427101-.1136398-.493515-.2310638-.7483597-.3503876-.2576103-.11343-.5349693-.1881866-.8048515-.2851295-.2725067-.0889893-.5427246-.189682-.8147507-.2678032-.2770538-.0614052-.5497093-.1218338-.8135719-.1803131-.26334-.0660553-.5214615-.1116638-.7705574-.1323013-.2483444-.0286407-.4831467-.0557213-.6998825-.0807152-.4396858-.0085526-.8013115-.0315895-1.0736427-.0028076-.2735291.0126305-.4056358.0358925-.4056358.0358925l-.0239372.0042152c-.1894035.0333519-.3159065.213932-.2825546.4033356s.213932.3159027.4033318.2825508c.0074346-.0013086.0156935-.0030824.0229299-.0048372z"/></g><path d="m32 13.25s3.5470581-5.916687 10-3.75c0 0-6.25 0-10 3.75z" fill="url(#A)"/><path d="m32 13.25s-3.5470581-5.916687-10-3.75c0 0 6.25 0 10 3.75z" fill="url(#B)"/><path d="m32 8.25s0-2.5 2.5-5c0 0-2.5 0-2.5 1.25 0 0 0-1.25-1.25-1.25 0 0 1.25 1.25 1.25 5z" fill="url(#C)"/><path d="m30.75 5.75s-.8265381-2.5-2.288269-2.5c0 0 1.038269 1.25 2.288269 2.5z" fill="url(#D)"/></svg>