<svg height="64" preserveAspectRatio="none" viewBox="0 0 64 64" width="64" xmlns="http://www.w3.org/2000/svg" xmlns:xlink="http://www.w3.org/1999/xlink"><radialGradient id="a" cx="16.71875" cy="45.427063" gradientUnits="userSpaceOnUse" r="2.15625"><stop offset=".4159292" stop-color="#71bbde"/><stop offset="1" stop-color="#344185"/></radialGradient><linearGradient id="b" gradientUnits="userSpaceOnUse" x1="15.783855" x2="15.783855" y1="43.917191" y2="45.160942"><stop offset=".4159292" stop-color="#fff" stop-opacity=".8"/><stop offset="1" stop-color="#fff" stop-opacity=".3"/></linearGradient><linearGradient id="c" gradientUnits="userSpaceOnUse" x1="17.736979" x2="17.736979" y1="46.167191" y2="46.910942"><stop offset=".4159292" stop-color="#fff" stop-opacity=".6"/><stop offset="1" stop-color="#fff" stop-opacity=".2"/></linearGradient><linearGradient id="d" gradientUnits="userSpaceOnUse" x1="27.86529" x2="27.86529" y1="2.708191" y2="46.123192"><stop offset="0" stop-color="#fff" stop-opacity="0"/><stop offset=".1637168" stop-color="#fff" stop-opacity=".6"/><stop offset=".3097345" stop-color="#fff" stop-opacity=".4"/><stop offset=".539823" stop-color="#fff" stop-opacity="0"/><stop offset=".7079646" stop-color="#fff" stop-opacity=".550443"/><stop offset=".8230088" stop-color="#fff" stop-opacity=".551328"/><stop offset=".9557522" stop-color="#fff" stop-opacity="0"/></linearGradient><path d="m21.2104492 63.4970703c-.1230469 0-.2460938-.0185547-.3662109-.0537109-.2285156-.0673828-.9243164-.2714844-1.0371094-.8837891-.1123047-.6054688.4248047-1.1123047 1.0375977-1.5927734-.6342773.2236328-1.3378906.4599609-1.9355469.4599609-.7851563 0-1.2954102-.4267578-1.4003906-1.1728516-.059082-.4199219.0288086-.7695313.2612305-1.0361328.5283203-.609375 1.4848633-.5253906 2.3271484-.4951172.5141602.0205078.9833984.0087891 1.1425781-.0283203-.28125-.1005859-.8813477-.1572265-1.2666016-.1943359-1.0014648-.0947266-1.9472656-.1845703-2.2958984-.8144531-.1176758-.2128906-.206543-.5703125.0415039-1.0634766.1938477-.3876953.6000977-.8486328 1.4331055-.8486328.6665039 0 1.4462891.2998047 2.2207031.6298828-.2348633-.2304688-.3833008-.3925781-.46875-.5488281-.1777344-.328125-.1640625-.7236328.0361328-1.0595703.3198242-.5380859 1.0419922-.7607422 1.5722656-.4677734.2578125.1425781.484375.4296875.7978516.8261719.4726563.5976563 1.109375 1.4033203 1.8378906 1.5742188 2.7163086-1.4052734 4.3789063-2.8251953 4.3798828-3.2382813-.0952148-.2412109-.4995117-.9824219-2.0761719-3.0263672-2.4589844.0800781-5.4677734.1855469-8.3925781.5332031-1.3808594.1650391-2.6767578.2480469-3.8510742.2480469-3.0263672 0-4.7866211-.5507813-5.7412109-1.0263672-2.4667969-.569336-4.1743164-2.0292969-4.3569336-3.7314454-.1650391-1.5361328.902832-2.9570313 2.9296875-3.8964844 2.1254883-.9863281 3.1000977-1.7460938 3.9594727-2.4169922 1.1411133-.890625 2.0419922-1.59375 4.8881836-2.2539063.9785156-.2265625 1.9428711-.3369141 2.9477539-.3369141 1.4453125 0 2.7807617.2226563 4.2231445.5058594.6113281-1.0263672.8198242-1.5009766.8852539-1.7197266-.1015625-.4882813-2.5561523-1.4912109-3.7353516-1.9726563l-.7001953-.2890625c-.7158203.2216797-1.2924805 1.0742188-1.7207031 1.7060547-.2832031.4179688-.4873047.7197266-.7333984.8808594-.5244141.34375-1.28125.1484375-1.6279297-.3876953-.2050781-.3173828-.2373047-.6875-.0888672-1.0166016.0732422-.1621094.2094727-.3349609.4262695-.5820313-.8061523.4160156-1.6196289.7958984-2.3232422.7958984-.5825195 0-1.0444336-.2578125-1.3359375-.7470703-.2832031-.4736328-.2211914-.8369141-.1191406-1.0576172.3012695-.6542969 1.2382813-.8125 2.2299805-.9804688.3808594-.0644531.9736328-.1650391 1.2475586-.2856445-.1914063-.0302734-.6918945.0039063-1.1401367.0541992-.3662109.0415039-.7397461.0820313-1.074707.0820313-.3886719 0-.9472656-.0449219-1.3110352-.4335938-.2314453-.2470703-.3349609-.5786133-.3081055-.9853516.0253906-.3842773.222168-1.2788086 1.496582-1.2788086.5546875 0 1.1977539.1660156 1.7788086.3237305-.6464844-.4345703-1.2197266-.9003906-1.1523438-1.5126953.0678711-.6186523.746582-.8740234.9697266-.9580078.1425781-.0532227.2866211-.0805664.4282227-.0805664.6933594 0 1.1259766.6098633 1.5439453 1.199707.1166992.1640625.2382813.3359375.3701172.5029297.1645508.2070313.300293.3671875.4121094.4907227-.0415039-.1464844-.0864258-.2929688-.1225586-.4106445-.2368164-.7729492-.3520508-1.1918945-.1679688-1.5229492.065918-.1186523.2436523-.2587891.375-.2939453.8168945-.2167969 1.8662109.269043 1.9003906 1.6601563l-.0004883.2758789c-.0097656.8901367.078125 1.3823242.2617188 1.4628906l.7167969.3125c3.4165039 1.4848633 6.9492188 3.0205078 7.0419922 4.9052734.0361328.7353516-.4428711 1.5595703-1.046875 2.4980469 1.1264648.1777344 2.527832.3417969 4.1499023.3417969 5.6821289 0 9.4995117-3.0605469 9.4995117-7.6162109 0-1.2988281.2822266-2.7949219.8398438-4.4575195-2.0361328.3154297-4.0869141.3916016-4.7167969.3916016l-.1308594-.0009766c-.4560547-.0097656-.8330078-.0751953-1.1386719-.1982422.03125.4428711.0234375.7817383-.1416016 1.0395508-.3798828.597168-1.3369141.6577148-1.8330078.1606445-.1992188-.1992188-.3076172-.4614258-.3076172-.737793 0-.0976563.0195313-.2822266.0458984-.5136719.0859375-.7416992.1113281-1.2680664.0761719-1.574707-.1865234.2075195-.4277344.5161133-.6220703.7646484-.8227539 1.0522461-1.7553711 2.2446289-2.7578125 2.2446289-.2558594 0-.4946289-.0761719-.7104492-.2270508-.4526367-.3164063-.5449219-.6728516-.5424805-.9160156.0068359-.7197266.7958984-1.2485352 1.6313477-1.8085938.3203125-.2148438.8178711-.5483398 1.0195313-.7709961-.2651367.0712891-.6757813.3144531-1.0161133.515625-.6210938.3676758-1.2631836.7475586-1.8544922.7475586-.3100586 0-.871582-.1118164-1.1508789-.8623047-.1948242-.5234375-.0761719-.9067383.0576172-1.1357422.4204102-.7197266 1.5288086-.918457 2.5375977-1.0786133-.7675781-.1308594-1.4814453-.3208008-1.6713867-.9067383-.1918945-.5917969.3227539-1.1030273.4916992-1.2709961.2329102-.2314453.5117188-.3486328.8286133-.3486328.4765625 0 .9394531.2719727 1.4291992.5595703.1733398.1020508.3549805.2089844.5439453.3071289.7856445.40625 1.078125.4501953 1.1669922.4501953.2753906-.1708984.09375-.8208008-.1767578-1.6499023-.2236328-.6855469-.4165039-1.2773438-.2124023-1.753418.1767578-.4121094.5649414-.6679688 1.012207-.6679688.5625 0 1.0810547.3798828 1.3857422 1.0161133.1289063.2680664.1142578.6801758.0751953 1.4453125-.0224609.4248047-.0644531 1.2607422.0166016 1.5859375 1.5136719.0229492 2.4833984.3745117 2.8291016.9960938.1640625.2954102.1738281.6279297.03125.9306641-.0029297.0195313-.0078125.0385742-.0146484.0610352 1.9892578-.5351563 4.5175781-1.046875 5.7978516-1.2954102.46875-.8710938.8408203-1.4765625.9667969-1.6757813.2197266-.9091797 1.9052734-9.1113281-7.2861328-14.4399414-2.3115234-1.340332-5.0385742-2.0200195-8.1035156-2.0200195-7.6948242 0-15.0673828 4.293457-15.1411133 4.3369141-.2182617.1303711-.5019531.0737305-.6547852-.1318359-.152832-.2050781-.1264648-.4916992.0610352-.6655273 4.3808591-4.0634764 10.7045896-6.3940428 17.3491208-6.3940428 4.3271484 0 8.4677734.9824219 11.9746094 2.8408203 8.2314453 4.3632813 7.9091797 12.7426758 7.7880859 15.8969727-.0117188.3095703-.0224609.5712891-.0224609.7768555 0 .4462891.1816406 1.1738281.3896484 1.9643555 1.4746094.5258789 3.8642578 1.4077148 5.6318359 2.2021484.078125-.3046875.1464844-.6606445.2089844-.9897461.1445313-.7509766.2275391-1.1538086.4160156-1.3833008.3662109-.4472656.8261719-.6928711 1.2958984-.6928711.5664063 0 1.0253906.3798828 1.1162109.9233398.0859375.5112305-.2431641 1.0405273-.6230469 1.6538086-.2890625.4667969-.6757813 1.090332-.6171875 1.4257813.0732422.0493164.140625.0976563.1992188.144043.2285156-.003418.6083984-.0517578 1.0947266-.1699219.2080078-.050293.4101563-.1113281.6035156-.1694336.4169922-.1245117.8095703-.2426758 1.1777344-.2426758.5898438 0 .9042969.3120117 1.0644531.5742188.1201172.1972656.4873047.796875.1933594 1.3208008-.3007813.5356445-1.0507813.5356445-1.3330078.5356445-.1679688 0-.3457031-.0087891-.5253906-.0214844.9423828.3955078 1.9726563.8515625 2.2099609 1.6508789.0761719.2543945.1005859.6547852-.2128906 1.1171875-.3378906.496582-.7431641.6010742-1.0244141.6010742-.6914063 0-1.3173828-.6118164-1.9228516-1.2036133-.2490234-.2436523-.6376953-.6230469-.8691406-.7504883.1386719.2626953.5488281.7114258.8115234.9990234.6787109.7421875 1.3193359 1.4433594 1.1552734 2.144043-.0556641.2373047-.2294922.5615234-.7451172.7617188-.1484375.0576172-.3017578.0869141-.4541016.0869141-1.140625 0-1.828125-1.5253906-2.4355469-2.871582-.1289063-.2871094-.2900391-.644043-.4228516-.8896484-.1064453.2890625-.2060547.8071289-.2988281 1.5473633-.0292969.2314453-.0546875.4155273-.078125.5112305-.1181641.4873047-.5625.8154297-1.1054688.8154297-.5166016 0-.953125-.2998047-1.1113281-.7641602-.1230469-.3623047.0234375-.7880859.2246094-1.3769531.2412109-.7036133.5371094-1.5654297.2519531-2.0917969-.7802734-.1713867-1.8066406-.4213867-2.8447266-.7446289.125.8452148.2001953 1.6552734.2294922 2.4570313 1.2578125 12.4584961-8.0380859 17.309082-10.9179688 18.4985352-3.0039063 1.2402344-6.7353516 1.5712891-10.1318359 1.7294922.0439453.0585938.0874023.1171875.1303711.1748047.8378906 1.1191406 1.4995117 2.0029297 1.519043 2.8300781.0498047 2.015625-3.8286133 4.5009766-7.090332 6.2304688-.2529297.1347656-.3266602.9658203-.2207031 1.5917969.1103516.6523438-.0151367 1.2490234-.3432617 1.6376953-.3330078.3945313-.8544922.5205078-1.3579102.3164063-.7719727-.3144531-.5834961-1.2304688-.4428711-1.9033203-.0507813.0810547-.1000977.1611328-.1459961.2353516-.566406.920898-1.2714841 2.0673824-2.2714841 2.0673824zm-.3911133-1.1367187c.050293.0302734.1435547.0761719.3071289.1240234l.0839844.0126953c.440918 0 1.0537109-.9960938 1.4199219-1.5917969.4682617-.7607422.8066406-1.3105469 1.3344727-1.3105469.0654297 0 .1992188.0263672.2597656.0507813.3588867.1474609.4833984.4472656.5019531.7871094.0146484-.6347656.1694336-1.4306641.7973633-1.7636719 4.0117188-2.1279297 6.5869141-4.2177734 6.5595703-5.3242188-.012207-.5068359-.6474609-1.3554688-1.3198242-2.2539063-.2260742-.3017578-.4614258-.6171875-.6938477-.9433594-.105957-.1503906-.1220703-.3457031-.0410156-.5107422.0810547-.1640625.2456055-.2714844.4287109-.2792969 3.5483398-.1416016 7.5952148-.4013672 10.7270508-1.6943359 2.7177734-1.1230469 11.4921875-5.703125 10.3017578-17.5063477-.0390625-1.0424805-.1533203-2.0688477-.3515625-3.1694336-.03125-.175293.0322266-.3535156.1679688-.4692383.1347656-.116699.3222656-.1508787.4892578-.0917967 1.4003906.4897461 2.9248047.8457031 3.7099609 1.0141602.1083984.0234375.2070313.0825195.2783203.168457.7822266.9375.3378906 2.2353516.0126953 3.1831055-.09375.2749023-.2226563.6508789-.2158203.7661133.0195313.0444336.1240234.0507813.15625.0507813.0644531 0 .1279297-.0244141.1337891-.0517578.0185547-.0756836.0351563-.2192383.0576172-.3989258.1572266-1.2578125.3623047-2.4047852 1.1259766-2.6162109.0439453-.012207.125-.0229492.1699219-.0229492.4619141 0 .7382813.425293 1.0839844 1.1567383-.0341797-.1181641-.0507813-.2363281-.0439453-.3549805.0126953-.2416992.1181641-.4560547.3037109-.6206055.1777344-.15625.3925781-.2392578.6230469-.2392578.5839844 0 1.1201172.5239258 1.6875 1.0791016.3740234.3657227.9394531.918457 1.2236328.918457.0214844 0 .0859375 0 .1962891-.1625977.1132813-.1669922.0908203-.2446289.0830078-.2705078-.1113281-.3740234-1.1318359-.8012695-1.7412109-1.0566406-.8935547-.3740234-1.5390625-.6445313-1.5615234-1.2241211-.0068359-.1782227.0566406-.3466797.1787109-.4731445.0126953-.0131836.0253906-.0253906.0380859-.0371094-.3037109.0385742-.5449219.0361328-.7314453.0029297-.0966797-.0170898-.1865234-.0620117-.2578125-.1298828-.0751953-.0708008-.1865234-.1479492-.3222656-.2324219-.0722656-.0449219-.1318359-.1074219-.1728516-.1821289-.1269531-.2290039-.171875-.4692383-.1591797-.7128906-.0126953.0317383-.0253906.0625-.0390625.0927734-.0546875.1230469-.1572266.21875-.2832031.265625-.1279297.0463867-.2666016.0400391-.3886719-.0170898-1.9130859-.9091797-5.0419922-2.0429688-6.2978516-2.4882813-.1552734-.0551758-.2744141-.1835938-.3164063-.3432617-.3046875-1.1518555-.4902344-1.8930664-.4902344-2.4750977 0-.2158203.0107422-.4907227.0224609-.8154297.1259766-3.2631836.4199219-10.9057617-7.2568359-14.9746094-3.3623047-1.7827149-7.3417969-2.7246094-11.5058594-2.7246094-4.4272461 0-8.7011719 1.0703125-12.3051758 3.0209961 2.8759766-1.0952148 6.7070313-2.1665039 10.690918-2.1665039 3.2436523 0 6.1386719.7250977 8.6054688 2.1547852 10.2138672 5.9213867 7.7578125 15.5390625 7.7314453 15.6352539-.0126953.0498047-.0341797.0976563-.0625.140625-.0039063.0073242-.4814453.7504883-1.0800781 1.8847656-.0712891.1337891-.1992188.2285156-.3486328.2573242-1.3339844.2558594-4.6679688.9204102-6.7958984 1.5605469-.1738281.0522461-.3652344.0053711-.4951172-.1235352-.1298828-.128418-.1796875-.3178711-.1289063-.4936523.0849609-.2939453.1699219-.5966797.2353516-.8515625.0107422-.0634766.03125-.1513672.0654297-.206543-.0058594-.1025391-.4345703-.5161133-2.0087891-.5161133-.0009766 0-.0019531 0-.0029297 0-.3037109 0-.4960938-.0834961-.640625-.2353516-.1650391-.1738281-.256836-.4228515-.3027344-.7456054-.0664063.3486328-.2460938.6582031-.6132813.8823242-.296875.1791992-.6801758.1704102-1.28125-.0585938.0043945.0058594.0083008.0117188.0117188.0175781.1010742.1577148.1279297.3442383.0761719.5258789-.1591797.5581055-.8505859.6674805-1.8071289.8188477-.652832.1030273-1.7451172.2758789-1.9418945.612793-.0136719.0229492-.0546875.0932617.0161133.2827148.078125.2109375.1469727.2109375.2133789.2109375.3178711 0 .8876953-.3374023 1.3452148-.6079102.5878906-.3481445 1.1430664-.6767578 1.6445313-.6767578.3310547 0 .6147461.1455078.7988281.409668.1416016.2036133.1928711.4370117.1479492.6748047-.0219727.1171875-.065918.2290039-.1279297.3359375.4541016-.5605469.7861328-.8857422 1.1748047-.8857422.0849609 0 .2382813.0395508.3134766.0810547.6914063.387207.6181641 1.5493164.4726563 2.8081055-.0205078.1806641-.0390625.3237305-.0390625.4003906.1181641.152832.2822266.0639648.2978516.0380859.0195313-.078125-.0146484-.4731445-.0400391-.7612305-.0712891-.8198242-.1689453-1.9418945.4013672-2.7094727.1503906-.2021484.4257813-.2597656.6445313-.1391602.21875.1220703.3144531.387207.2216797.6206055-.1660156.4208984-.1630859.5405273-.1621094.5532227.0253906.0893555.0214844.1645508-.0048828.2543945-.004883.0190431-.0126955.0385744-.020508.0581056-.0322266.2338867-.0058594.4272461.0869141.5400391.1396484.1694336.5009766.269043 1.0175781.2802734l.109375.0009766c.8730469 0 3.3359375-.1269531 5.3798828-.5209961.1787109-.0307617.3603516.03125.4765625.1689453.1171875.1381836.1494141.3291016.0859375.4985352-.7070313 1.8774414-1.0654297 3.5327148-1.0654297 4.9194336 0 5.1533203-4.2197266 8.6162109-10.4995117 8.6162109-2.0810547 0-3.8032227-.2578125-5.0712891-.4833984-.1650391-.0292969-.3041992-.1386719-.3710938-.2929688-.0668945-.1533203-.0522461-.3300781.0385742-.4707031l.1816406-.2802734c.5888672-.9042969 1.1450195-1.7587891 1.1201172-2.2636719-.0620117-1.2636719-3.9013672-2.9326172-6.4414063-4.0371094l-.7197266-.3134766c-.4594727-.2016602-.6762695-.6386719-.7768555-1.1166992-.065918.1879883-.2006836.3310547-.4360352.4047852-.0483398.0146484-.1674805.0327148-.2182617.0327148-.3017578 0-.6049805-.1679688-1.0107422-.5839844.0004883.0039063.0014648.0083008.0019531.0126953.0273438.1850586-.0249023.3662109-.1464844.5102539-.3286133.3876953-1.0258789.265625-1.9838867.0053711-.5478516-.1494141-1.1689453-.3183594-1.625-.3183594-.4755859 0-.4863281.159668-.4985352.3452148-.0039063.0541992-.0068359.1850586.0405273.2358398.0253906.0273438.1430664.1166992.5805664.1166992.300293 0 .6352539-.0385742.9633789-.0756836.3530273-.0395508.6992188-.0771484.9975586-.0771484.9780273 0 1.2685547.4545898 1.3398438.8359375.0458984.2441406-.0029297.4780273-.1416016.6762695-.3422852.4912109-1.1220703.6230469-2.0249023.7763672-.4697266.0791016-1.3383789.2265625-1.4858398.4101563.0068359.0039063.019043.0498047.0664063.1298828.3808594.6347656 1.5332031-.0019531 2.6767578-.5996094.5498047-.2880859 1.1186523-.5849609 1.637207-.762207.1875-.0644531.3974609-.0102539.53125.1362305.1342773.1474609.1679688.3603516.0864258.5419922-.246582.546875-.7597656 1.1162109-1.171875 1.5742188-.1811523.2011719-.4291992.4765625-.4746094.5683594.0585938.1230469.1391602.171875.2011719.171875.1420898-.0800781.3549805-.3945313.5107422-.6240234.5522461-.8154297 1.3085938-1.9316406 2.4926758-2.1601563.097168-.0185547.1977539-.0087891.2880859.0302734l.8457031.3486328c2.5185547 1.0283203 4.6933594 1.9169922 4.3154297 3.1835938-.1293945.4355469-.5117188 1.1728516-1.168457 2.2529297-.1088867.1796875-.3154297.2753906-.5249023.2304688-1.5239258-.3037109-2.9047852-.5546875-4.3730469-.5546875-.9282227 0-1.8183594.1015625-2.722168.3115234-2.6303711.609375-3.4140625 1.2207031-4.4985352 2.0673828-.8574219.6689453-1.9243164 1.5019531-4.1538086 2.5351563-1.6137695.7490234-2.4726563 1.7998047-2.3564453 2.8828125.1376953 1.2832031 1.5673828 2.4130859 3.6425781 2.8769531.0410156.0097656.0805664.0244141.1181641.0429688.8432617.4316406 2.4545898.9453125 5.3432617.9453125 1.1352539 0 2.3911133-.0810547 3.7329102-.2402344 3.0698242-.3662109 6.2104492-.4667969 8.7338867-.5488281.1552734.0029297.3125.0673828.4111328.1933594 2.0527344 2.6425781 2.300293 3.2929688 2.3813477 3.5068359.5693359 1.5-3.3154297 3.6728516-5.012207 4.5380859-.0878906.0449219-.1870117.0605469-.2856445.0517578-1.1972656-.1416016-2.0332031-1.1992188-2.644043-1.9716797-.171875-.2177734-.4072266-.515625-.4995117-.5722656-.112793-.0068359-.1875.0390625-.2265625.1044922.0341797.15625.3012695.4121094.4960938.5986328.4453125.4267578.9995117.9580078 1.2851563 1.4853516.0947266.1757813.0761719.390625-.0463867.546875-.1230469.1572266-.324707.2304688-.5200195.1748047-.5302734-.1386719-1.1196289-.3935547-1.6894531-.6396484-.7929688-.34375-1.612793-.6982422-2.1728516-.6982422-.3242188 0-.4501953.1181641-.5395508.296875-.0541992.1083984-.0527344.1542969-.0527344.1542969.1318359.1494141 1.0268555.234375 1.5078125.2802734.9116211.0859375 1.6992188.1611328 2.0761719.625.152832.1875.21875.4179688.1914063.6640625-.105957.9443359-1.2304688.9443359-1.6538086.9443359-.1982422 0-.4086914-.0078125-.6220703-.015625-.2055664-.0078125-.4135742-.0166016-.6137695-.0166016-.6748047 0-.8666992.1044922-.9208984.1669922-.0444336.0517578-.0351563.1738281-.0253906.2421875.0297852.2119141.0800781.3115234.4101563.3115234.4604492 0 1.1245117-.234375 1.7104492-.4404297.9267578-.328125 1.6206055-.5058594 1.9785156-.140625.1313477.1347656.1967773.3115234.1831055.4980469-.0307617.4257813-.4482422.7441406-1.0258789 1.1845703-.2690431.2050781-.8007814.6103516-.9360353.8320313zm3.9067383-1.7265625c-.0126953.2568359-.0688477.5234375-.1176758.7568359-.0493164.2363281-.1396484.6669922-.1049805.8173828.0004883-.0175781.0307617-.0117188.0532227-.0117188.0200195 0 .0571289 0 .1079102-.0605469.1005859-.1181641.1923828-.40625.1210938-.8261719-.0122071-.0712889-.0527344-.3359374-.0595704-.6757811zm33.7729492-30.5336914c.0175781.0371094.0341797.0751953.0517578.1137695.359375.7973633 1.0292969 2.2822266 1.5234375 2.2822266.2060547-.0634766.2353516-.0986328.2353516-.0986328.0029297-.1992188-.6035156-.862793-.9296875-1.2192383-.3496094-.3828125-.671875-.7358399-.8808594-1.078125zm-42.7221679-1.2924805c.152832.2119141.7109375.5756836.9931641.7597656.1494141.0976563.2885742.1884766.4140625.2758789-.1074219-.1416016-.2084961-.2841797-.3066406-.4223633-.2456055-.3461914-.5512695-.777832-.7280273-.777832-.2094728.0717774-.3178712.1289063-.3725587.1645508zm3.3784179-.2001953c.0449219.1699219.105957.3691406.1538086.5249023.0512695.1674805.1040039.3393555.1499023.5092773.0004883-.0371094.0004883-.0732422.0009766-.1079102l.0004883-.2402344c-.0083008-.3461913-.1186523-.5874022-.3051758-.686035zm10.9897461-1.1772461c.0083008.0009766.0380859.0375977.1142578.0908203.0463867.0327148.0874023.0463867.137207.0463867.5151367 0 1.4257813-1.1645508 1.9697266-1.8603516.0268555-.0341797.0527344-.0678711.0786133-.1005859-.2836914.2836914-.6816406.5507813-1.112793.8398438-.395996.2651367-1.1274414.7553711-1.1870117.9838867zm30.1879883-.4042969c.1542969.0083008.3232422.0219727.4960938.0366211.5205078.0439453 1.1103516.0454102 1.2519531.0083008-.0166016-.0566406-.0556641-.1518555-.1435547-.2949219-.0361328-.059082-.0654297-.0957031-.2109375-.0957031-.2207031 0-.5458984.0976563-.890625.2006836-.1621094.0488281-.3310547.0991211-.5029297.1450195zm-1.5576172-3.9106445c-.0595703 0-.2744141.0234375-.5224609.3261719-.0449219.0913086-.1386719.5805664-.2070313.9375-.0419922.222168-.0869141.4560547-.1367188.6845703.1474609-.3139648.3359375-.6186523.5097656-.8984375.1865234-.300293.4980469-.8037109.4863281-.9638672-.0048827-.0263672-.0146483-.0859375-.1298827-.0859375zm-29.0932617-1.2978516c.2246094.1313477.8852539.2348633 1.2192383.2866211.1757813.027832.3393555.0532227.4902344.081543-.1557617-.0849609-.3066406-.1733398-.4521484-.2587891-.3530273-.2075195-.7177734-.421875-.9223633-.421875-.0371094 0-.0698242.0043945-.1240234.0581055-.1206056.1201172-.1811524.2041015-.2109376.2543945zm4.0981445-3.0668945c-.0488281 0-.0732422.0170898-.09375.0625-.0488281.1503906.1347656.7128906.2441406 1.0488281.1005859.3076172.2128906.6523438.2832031.9985352.0048828-.2163086.015625-.4492188.0283203-.699707.0185547-.3637695.0439453-.8618164.0097656-.9921875-.1367186-.2792969-.3378905-.4179688-.4716796-.4179688z" fill="#804f21"/><path d="m27.980896 36.2500801c-.083252-1.6986694-4.2373581-3.3731689-7.4598179-4.7843609-.6740112-.295166-.5482788-1.678894-.5605469-2.1842041-.0238037-.980896-.6933594-1.3435669-1.2720337-1.1893921-.43573.1160889.8186035 2.4716187.2698364 2.6422119-.2625942.0816307-.6948528-.3323441-1.286459-1.078125-.6447296-.8127499-1.0493965-1.7367268-1.7748413-1.4641113-2.1968994.8255615 1.9109497 2.1279907 1.4546509 2.6690674-.4562378.5411987-4.0976563-1.5875854-4.2244263.321228-.1268311 1.9087505 3.7022705-.0535889 3.9298096 1.1614361.227478 1.2150879-4.5073242.5091553-3.5239868 2.156311.8510742 1.4255371 3.2264404-.5712891 4.9047241-1.144165-.3596802.7987061-1.4776001 1.7676392-1.6452637 2.138855-.2370605.5251465.4690552 1.1192627.9866333.7802734.5057373-.3312378 1.322876-2.4147339 2.7678833-2.6934204 2.083374.8757935 5.1603394 1.9731445 4.8754272 2.9286499-.3605957 1.2091064-3.1043091 5.1990356-3.1043091 5.1990356-3.2299194 3.9088135 3.1001587 6.2433472 2.5195923 2.7508545s3.2264406-6.5114746 3.1431276-8.210144z" fill="#1bc768"/><path d="m8.75 49.125s1.8900805 2.370739 10.25 1.375 16.625 0 22.375-2.375 15-9.75 8.5-26.25l-9.25 19.25z" fill="#b08046"/><path d="m14.083333 8.26087s13.750001-8.115942 23.75-2.318841 7.5 15.072463 7.5 15.072463-3.75 5.797102-3.75 10.4347839-3.75 8.1159401-9.9999981 8.1159401-9.5833349-2.31884-14.5833349-1.1594199c-4.8507128 1.1248055-3.75 2.31884-8.75 4.6376839-5 2.3188399-2.5 6.95652 3.75 6.95652 5 0 9.583334-1.15942 18.333334-1.15942s16.2499981-2.31884 19.9999981-10.4347839 0-15.0724621 0-17.391304 1.25-11.594202-7.5-16.231884-21.2499981-3.4782602-28.7499991 3.4782619z" fill="#24d473"/><path d="m28.7358513 45.1433525c.3230095-3.5257034-5.9929867-.6547661-2.4852715 3.0068398 0 0 3.301218 4.0036736 3.7494202 5.1831398.3542042.9320793-2.7585182 2.8885612-4.772131 3.9146538-1.4614639-.1720276-2.4291496-2.1900139-2.9577923-2.4832993-.5410805-.3001633-1.2017269.3441048-.9267597.8504562.1943569.3579521 1.3803062 1.2422943 1.797533 2.0125504-1.7157574-.4483681-4.23106-2.2656975-4.9753742-.7816582-.8599968 1.7147827 3.8103333.6637955 3.6725502 1.8922462-.1378422 1.2284622-4.1005344-.447937-3.8341274 1.4463425.266367 1.894413 3.7419395-.4955444 4.2366047.0107384.4947166.5062103-3.5066071 2.1061592-1.2551289 2.7685585 1.3874111.4081802 2.413887-3.1161613 3.0494347-2.8555069.6355495.2606544-.5227547 2.2221756.2232857 2.5249367.7069798.2869034 1.1828022-.4489937 1.0207615-1.4067154-.0748901-.4423218-.1665936-1.773777.4795513-2.1165314 3.1077404-1.6485367 6.8663864-4.0765381 6.8249245-5.7767715-.0413895-1.7001801-4.1705017-4.6643372-3.8474808-8.1899796z" fill="#24d473"/><circle cx="16.71875" cy="45.427063" fill="url(#a)" r="2.15625"/><path d="m16.71875 47.8330078c-1.3266602 0-2.40625-1.0791016-2.40625-2.40625s1.0795898-2.40625 2.40625-2.40625 2.40625 1.0791016 2.40625 2.40625-1.0795898 2.40625-2.40625 2.40625zm0-4.3125c-1.0512695 0-1.90625.8554688-1.90625 1.90625s.8549805 1.90625 1.90625 1.90625 1.90625-.8554688 1.90625-1.90625-.8549805-1.90625-1.90625-1.90625z" fill="#b08046"/><ellipse cx="16.71875" cy="45.427063" fill="#231815" rx=".191667" ry="1.629167"/><circle cx="15.783855" cy="44.539066" fill="url(#b)" r=".621875"/><circle cx="17.736979" cy="46.539066" fill="url(#c)" r=".371875"/><ellipse cx="7.296875" cy="47.328125" fill="#6a3906" rx=".703125" ry=".171875" transform="matrix(.992792 -.1198498 .1198498 .992792 -5.61967 1.215668)"/><path d="m56.7044373 26.2523479c.7129898.1818275.8415375-2.7369614 1.1620102-3.1278419.6220818-.7587757 1.43293-.593811 1.5318947-.0031834.1377144.8218746-1.9417686 2.5813847-1.0118675 3.5155296.1940041.1948891.7522888.1653328 1.6774597-.0588245 1.0082474-.2442856 1.8956223-.7239246 2.299942-.0627823 1.2244377 2.0021687-2.8155899.5025215-2.7886047 1.2098007.0268631.7073383 4.2073784 1.2685394 3.1332932 2.8515682-1.0739975 1.5830193-2.8862-2.3193817-3.8129272-1.5013103-.9267159.8181572 3.2407646 3.1737461 1.4523201 3.8676777-1.5478477.6005402-2.5180931-4.0972118-3.1635323-3.9188633s-.734642 2.255085-.8307648 2.6509037c-.1360817.5598755-1.0582581.594017-1.2578545.0083885-.195034-.5722351 1.2546425-2.6701412.2866936-3.7786484-2.1813623-.5908622-2.086876-2.5217342 1.3219375-1.6524143z" fill="#1bc266"/><path d="m49.9561005 23.0643902s8.8350754 3.0237064 8.8568001 3.9248333c.0217209.901125-.4050331 1.4200363-1.7732887 1.2449474s-12.680935-2.3992538-7.0835114-5.1697807z" fill="#24d473"/><path d="m35.1010208 22.2968979c-.735775.0072765-.1673851-2.8585205-.3858414-3.3143311-.4240608-.8848152-1.250885-.9171619-1.4873047-.3669434-.3289833.765646 1.2730827 2.9687195.1479149 3.6552639-.2347412.1432323-.7700272-.0180798-1.6154823-.4555664-.9213734-.4767704-1.6694317-1.15345-2.2192154-.6072598-1.6649456 1.6540508 2.6156616 1.156889 2.4214554 1.8375206-.1940975.6807156-4.3882751.2329159-3.7209225 2.0257568.6672707 1.7928104 3.3544979-1.5674896 4.0604-.5527153.7058716 1.0148544-3.9018421 2.3131886-2.3293972 3.4120483 1.3609161.9509945 3.4191914-3.3818741 4.0038013-3.0553265.5846062.3265476.1779976 2.3650417.1773567 2.7723637-.0007935.5761738.8868828.828371 1.2198677.3069096.3253632-.5095348-.5845375-2.8917274.6189995-3.7386112 2.2592774-.0558432 2.6261102-1.9539031-.891632-1.9191092z" fill="#1bc768"/><path d="m36.3995628 23.0173512c.3697395-.7517662 1.4327354-.1754131 1.2247581.6264706s-.6008224 2.0798855-.6008224 2.0798855-.7163696.3508244-1.1323242 0-.7512855-.1451322.5083885-2.7063561z" fill="#1dcf6d"/><path d="m44.8561134 22.8177242s-9.1853065 1.6827221-9.3401642 2.5707073c-.1548615.8879871.1903915 1.4643459 1.5694885 1.4937 1.3791009.0293561 12.8963815-.495922 7.7706757-4.0644073z" fill="#24d473"/><g fill="#84ffcb"><ellipse cx="47.1875" cy="23.875" rx="1.4375" ry="2.5" transform="matrix(.9977479 .0670755 -.0670755 .9977479 1.707698 -3.111356)"/><ellipse cx="46.1875" cy="31.375" rx="1.4375" ry="2.5" transform="matrix(.9839508 .1784399 -.1784399 .9839508 6.339822 -7.738148)"/><ellipse cx="42.3125" cy="38.75" rx="1.4375" ry="2.5" transform="matrix(.7313985 .6819503 -.6819503 .7313985 37.790772 -18.446714)"/><ellipse cx="34.1875" cy="41.625" rx="1.4375" ry="2.5" transform="matrix(.0482469 .9988354 -.9988354 .0482469 74.114586 5.469036)"/><ellipse cx="25.5625" cy="41.125" rx="1.4375" ry="2.5" transform="matrix(-.1930504 .9811888 -.9811888 -.1930504 70.84874 23.982557)"/></g><path d="m15.625 42.5c4.125-2.5 7.625-.5 13.75.375 4.7963028.6851845 7.0294228.1995354 11.125-2.625 3.625-2.5 4.5833321-3.75 4.8333321-8.416666.0930862-1.7375603-.0052185-3.1503429.625-5.75.6666679-2.75.9878769-4.2447529 1.6666679-6.333334 1.0833321-3.333334 2.4583321-8.666667-3.125-13-3.4061432-2.6435728-9.1666679-4.333333-15.333334-4 3.833334.3125 10.8541661.9375 15.395834 5.5625 4.2506714 4.3286657 2.1786003 10.5460644 1.5 12.125-.444973 1.0353413-1.3165092 3.540266-1.8125 4.5625-.9674644 1.9939327-1.3401604 4.007391-1.4166679 6.25-.1463547 4.2901154-2.3371277 6.7955589-6.4166641 8.3333321-3.2193336 1.2135239-7.2397995.6888542-10.5766582.1312103-3.8034859-.6356277-6.7288475-1.6335716-10.5108109-.2358971-1.0117321.3738976-1.8079329 1.0075188-2.6543455 1.6541862-1.2297564.9395447-2.5672703 1.7038002-3.9701042 2.354702-1.0178986.4715996-2.2758698 1.4206467-1.1214156 2.4291344 1.0912613.9532814 5.0465654-1.6014557 8.0416664-3.4166679z" fill="url(#d)"/></svg>