<svg height="64" preserveAspectRatio="none" viewBox="0 0 64 64" width="64" xmlns="http://www.w3.org/2000/svg"><path d="m13.450707 26.962505h37.099564v2.999793h-37.099564z" fill="#190110" transform="matrix(.8842338 .4670446 -.4670446 .8842338 16.997786 -11.650669)"/><path d="m8.66113 54.1405983 10.1430692-4.2675972 1.3042011 3.1739006-9.2436504 4.2304001z" fill="#8d72b5"/><path d="m10.4980469 58.6318359-3.4892578-4.9667969 12.3798828-5.2080078 2.1118164 5.1386719zm-.1845703-4.015625.9179688 1.3066406 7.4848633-3.4248047-.496582-1.2089844z" fill="#1c0801"/><path d="m10.33008 54.7480011s-2.5371099-.5839005-3.1972699-3.1660004l-1.8491201-1.7089996-1.35937 1.6582985 2.94433 8.0917015 4.7451196-2.3925018z" fill="#947656"/><path d="m6.2983398 61.0615234-3.5400391-9.7294922 2.421875-2.9541016 2.8735352 2.6552734.0751953.2939453c.4990234 1.953125 2.4125977 2.4150391 2.4316406 2.4189453l.4638672.1074219 1.9794922 3.8271484zm-1.2080078-9.3310546 2.3486328 6.4541016 2.784668-1.4042969-.6118164-1.1835938c-.878418-.3271484-2.6899414-1.25-3.3876953-3.4550781l-.8369141-.7734375z" fill="#1c0801"/><path d="m18.6611309 44.4530983c-4.250001 1.125-6.1445293 6.9356003-6.1445293 6.9356003s3.7695293 6.8593025 6.7695293 5.8593025c2.9999695-1 5.9858685-4.2128029 5.9858685-4.2128029l11.0151024-2.0781975-7.0635014-12.2089996z" fill="#cc5a21"/><path d="m18.6660156 58.3476563c-.0004883 0-.0004883 0-.0009766 0-3.2978516-.0009766-6.4301758-5.3955078-7.0249023-6.4775391l-.2084961-.3798828.1342773-.4111328c.0834961-.2568359 2.0830078-6.2402344 6.7202148-7.5595703l11.3168946-6.1132813 8.2563477 14.2714844-12.0888672 2.28125c-.7895508.8007813-3.4287109 3.3242188-6.1679688 4.2373047-.3007812.1005859-.6157226.1513672-.9365234.1513672zm-5.0502929-7.0478516c1.2973633 2.2167969 3.5688477 5.0478516 5.0498047 5.0478516h.0004883c.1069336 0 .206543-.015625.3037109-.0478516 2.7260742-.9091797 5.5415039-3.9150391 5.5698242-3.9453125l.2236328-.2412109 9.9516602-1.8769531-5.8706055-10.1464844-9.9272461 5.3300781c-3.0668945.8115234-4.8051758 4.625-5.3012695 5.8798828z" fill="#1c0801"/><path d="m54.7733994 45.1719017-10.6424981 2.7929001-.8437996-3.3261032 9.7480965-2.8827973z" fill="#8d72b5"/><path d="m43.3525391 49.2841797-1.3662109-5.3857422 11.6035156-3.4316406 2.7519531 5.4091797zm1.2353515-3.9052734.3212891 1.2666016 8.2958984-2.1777344-.7246094-1.4228516z" fill="#1c0801"/><path d="m53.2070007 44.3358994s2.4296989.9356003 2.7187996 3.5860023l1.589798 1.9510994 1.7422028-1.0937004-1.9336014-8.7831993-5.0370979 1.6991997z" fill="#947656"/><path d="m57.2929688 51.2265625-2.3564453-2.890625-.0322266-.3027344c-.21875-2.0039063-2.0478516-2.7304688-2.0664063-2.7382813l-.4453125-.1708984-1.4179688-4.0712891 7.1074219-2.3974609 2.3349609 10.609375zm-.3886719-3.7314453.8339844 1.0244141.3603516-.2255859-1.5322266-6.9570313-2.9667969 1.0009766.4384766 1.2597656c.8242187.4472656 2.4863281 1.6162109 2.8662109 3.8974609z" fill="#1c0801"/><path d="m24.0723 26.3208008-11.8848 5.0189991 3.45996 4.8887005 3.9345693 2.3437996 6.7929707-8.2378006z" fill="#a33a0a"/><path d="m19.7866211 39.7509766-4.769043-2.8408203-4.2226563-5.9672852 13.6645508-5.7709961 3.0151367 5.2553711zm-3.5092773-4.2041016 3.1000977 1.8466797 5.8979492-7.1518555-1.590332-2.7719727-10.1049805 4.2670898z" fill="#1c0801"/><path d="m10.0620098 32.9658012s3.6538105-3.075201 4.6538105-2.8501015 2.7607403 3.9761009 2.7607403 3.9761009l-5.0107403 4.25c0 .0000001-2.68262-2.6249999-2.4038105-5.3759994z" fill="#edad82"/><path d="m12.4179688 39.6943359-.6513672-.6376953c-.1235352-.1210938-3.0229492-2.9980469-2.699707-6.1914063l.0410156-.4033203.3100586-.2612305c1.3740234-1.15625 3.8745117-3.0966797 5.1821289-3.0966797.1157227 0 .2285156.012207.3354492.0361328 1.2211914.2749023 2.5483398 2.6132813 3.4462891 4.5268555l.3251953.6923828zm-1.3754883-6.2421875c.0332031 1.3574219.9121094 2.7060547 1.5283203 3.4892578l3.6645508-3.1083984c-.6391602-1.2475586-1.3603516-2.3754883-1.737793-2.7045898-.5512695.1738281-2.0512695 1.1791992-3.4550781 2.3237304z" fill="#1c0801"/><path d="m50.3730011 8.95117.6133003-3.2333999-2.7675018-3.0385702-1.5732994 2.42432-2.8076019 2.2851501 2.3252029 4.0698261.5341988-.3183594.9267005 1.2709961 3.5634995-1.1347656-2.1621017-1.5224571z" fill="#edad82"/><path d="m47.2753906 13.4775391-.8251953-1.1308594-.6171875.3681641-3.1679688-5.5449219 3.2949219-2.6821289 2.1376953-3.293457 3.8671875 4.246582-.7734375 4.0825195-.4941406.2944336 2.5126953 1.7695313zm-.3310547-3.5439453 1.0283203 1.4111328 1.1923828-.3793945-1.8115234-1.2753906 2.2011719-1.3110352.4521484-2.3842773-1.6669922-1.8305664-1.1201172 1.6455078-2.2089844 1.7978516 1.4824219 2.5947266z" fill="#1c0801"/><path d="m29.7959003 18.7285194.3549995-4.3930693s9.3169003-3.9746103 13.3374004-6.46875l2.5848999 2.7226601s-13.1328011 9.8369093-14.0897999 11.7983389c-.9565009 1.961401-2.1874999-3.6591797-2.1874999-3.6591797z" fill="#edad82"/><path d="m31.5439453 23.8300781c-.503418 0-1.6821289 0-2.7514648-4.8818359l-.0327148-.1499023.4174805-5.1640625.5708008-.2436523c.0922852-.0390625 9.2910156-3.9726563 13.1992188-6.3964844l.7099609-.440918 3.9560547 4.1660156-.9248047.6918945c-6.3339845 4.7451172-13.2207033 10.3164063-13.7822267 11.4272461-.4208984.862793-1.0341797.9916992-1.3623047.9916992zm-.711914-5.1738281c.2163086.949707.5092773 1.9111328.7646484 2.5522461 2.2109375-2.543457 9.5029297-8.1542969 12.9384766-10.7475586l-1.2255859-1.2905273c-3.7021485 2.1474609-10.2109376 5.0092773-12.1845704 5.8637695z" fill="#1c0801"/><path d="m43.1338005 9.2226601 1.517601 1.3583898-2.5088005 1.6523485-1.8496017-1.4208984z" fill="#8d72b5"/><path d="m29.9745998 48.6973s2.9312 2.3847008 8.5292988 4.8788986c5.7383003-2.0741997 11.7988014-6.0351982 11.7988014-6.0351982s-.0858994-2-2.2108994-5.25c-4.125-1.25-7.732399-2.294899-7.732399-2.294899s.107399-2.4238014-3.0723-4.1464996c-3.755802-2.0351029-22.3124913-4.2759018-7.3125018 12.8476982z" fill="#cc5a21"/><path d="m38.4648438 54.6533203-.3681641-.1640625c-5.6542969-2.5185547-8.6293945-4.9150391-8.7529297-5.0166016l-.121582-.1162109c-5.0732422-5.7919922-6.9135742-9.9892578-5.625-12.8300781.90625-1.9990234 3.2563477-3.0556641 6.7958984-3.0556641 2.9897461 0 6.0288086.7724609 7.3706055 1.5 2.5419922 1.3769531 3.2900391 3.2050781 3.5078125 4.2490234 1.2128906.3544922 4.0166016 1.1767578 7.1103516 2.1142578l.3476563.1054688.1992188.3046875c2.2119141 3.3818359 2.3632813 5.5214844 2.3730469 5.7539063l.0244141.5683594-.4765625.3115234c-.2509768.1640625-6.2246096 4.0488281-12.0058596 6.1386719zm-7.7983399-6.6835937c.4345703.3369141 3.1459961 2.3779297 7.8754883 4.5273438 4.4658203-1.6757813 9.1083984-4.4726563 10.6669922-5.4462891-.1630859-.703125-.6025391-2.0693359-1.7597656-3.9091797-3.9697266-1.2001953-7.3681641-2.1845703-7.3681641-2.1845703l-.7558594-.2197266.0351563-.7851563c0-.0585938-.0136719-1.8496094-2.5498047-3.2236328-1.1162109-.6044922-3.8876953-1.2578125-6.4174805-1.2578125-1.5390625 0-4.2324219.2441406-4.9746094 1.8808594-.5146484 1.1347656-.5126953 4.0214844 5.2480469 10.6181641z" fill="#1c0801"/><path d="m23.1513996 39.0429993s1.9393997 2.6543007 2.4393997 3.1543007l8.7510014-6.25 1.9453011-.0976982s-.1816025-2.2148018-1.0019035-4.2539024l-8.5703983 6.232399z" fill="#827340"/><path d="m25.5366211 42.8505859-.2993164-.2998047c-.5126953-.5126953-2.2885742-2.9375-2.4897461-3.2128906l-.4008789-.5488281 4.1352539-1.4101563 9.027832-6.5649414.2392578.5952148c.8388672 2.0849609 1.0283203 4.3056641 1.0361328 4.3994141l.0419922.5146484-2.3144531.1162109zm-1.578125-3.5546875c.5234375.7070313 1.2670898 1.6962891 1.7089844 2.2324219l8.503418-6.0732422 1.5576172-.078125c-.0869141-.6445313-.2851563-1.8105469-.6835938-2.9882813l-8.1689453 5.9130859z" fill="#1c0801"/><path d="m36.2871017 35.8496017s-.1816025-2.2148018-1.0019035-4.2539024" fill="#827340"/><path d="m35.2900391 35.9326172c-.0009766-.0214844-.1816406-2.0976563-.9326172-3.9638672l1.8554688-.7460938c.8671875 2.1542969 1.0625 4.4482422 1.0712891 4.5449219z" fill="#1c0801"/><path d="m19.9111309 22.7455997s.125-4.1176701 5.6249695-5.7651291c2.4375-3.0346708 6.5547009-5.8945341 6.5547009-5.8945341l.3202972 2.1533232 3.6260033 6.9204102-2 3.7353306s.2011986 1.0170994 3.25 3.0937996c-2.25 6.9584999-3.330101 5.0376015-4.4067001 6.3568993-2.9058018 3.5508003-4.2813015 3.5508003-8.8584023 7.5078011-4.7500286-4.3241997-3.976099-15.1763-3.976099-15.1763z" fill="#cc5a21"/><path d="m24.0063477 42.0664063-.5952148-.5419922c-4.8911133-4.4521484-4.3359375-14.9033203-4.2744141-15.8569336l-.1323242-2.8803711c.0053711-.2597656.2080078-4.7241211 6.0014648-6.5922852 2.5024414-3.015625 6.3989258-5.7373047 6.5673828-5.8544922l1.2001953-.8334961.5126953 3.4472656 3.7783203 7.2099609-2.0029297 3.7397461c.2607422.3398438.9707031 1.1323242 2.7363281 2.3349609l.5615234.3823242-.2089844.6469727c-1.6279297 5.0351563-2.7373047 5.815918-4.0175781 6.3139648-.2978516.1162109-.4082031.1650391-.5488281.3378906-1.8110352 2.2119141-3.1064453 3.1425781-4.746582 4.3212891-1.128418.8105469-2.4072266 1.7294922-4.2216797 3.2988281zm7.4091796-29.3515625c-1.3735352 1.0571289-3.6376953 2.9238281-5.171875 4.8339844l-.1767578.2202148-.2705078.0805664c-4.8173828 1.4433594-4.9770508 4.8886719-4.9780273 4.9233398l.1367188 2.9155273-.0039063.0532227c-.0068359.0991211-.6254883 9.5610352 3.1269531 13.871582 1.5498047-1.3007813 2.7294922-2.1484375 3.699707-2.8457031 1.6513672-1.1865234 2.7416992-1.9697266 4.4003906-3.996582.4492188-.5512695.9194336-.7338867 1.2963867-.8803711.5849609-.2275391 1.3769531-.5356445 2.7382813-4.5458984-2.5322266-1.8212891-2.9892578-2.8852539-3.0664063-3.2734375l-.0625-.3183594 1.9257813-3.5976563-3.4736328-6.6308594z" fill="#1c0801"/><path d="m15.41113 24.2245998 4.6972703 2.7642002 2.4813996 5.8325005.5615997-8.9771004-2.9902687-5.2499599z" fill="#edad82"/><path d="m23.3242188 37.1015625-4.0068359-9.4179688-5.4345703-3.1982422 6.4379883-7.6313477 3.847168 6.7548828zm-6.3847657-13.1376953 3.9599609 2.3300781.9560547 2.2470703.2792969-4.4614258-2.1333008-3.7451172z" fill="#1c0801"/><path d="m7.9306598 14.2514601 1.94239 9.3203402s3.6694307 3.6488991 5.4023399 3.4053001c5.4404306-5.7812996 5.5654306-9.1562996 5.5654306-9.1562996l3.181179-.9160099-2.1928997-3.4575205.7616997-6.6264706s-3.732399 1.5483398-9.2201891 1.2373104c-5.1132898 2.2338801-5.4399504 6.1933499-5.4399504 6.1933499z" fill="#cc5a21"/><path d="m15.1020508 27.9887695c-.0004883 0-.0004883 0-.0004883 0-2.0986328-.0004883-5.3110352-3.0888672-5.9335938-3.7080078l-.2128906-.2114258-2.0327148-9.7558594.0117188-.144043c.0151367-.1860352.4399414-4.5830078 6.0361328-7.027832l.21875-.0952148.2382813.0131836c5.2016602.2963867 8.7485352-1.1494141 8.7802734-1.1625977l1.5708008-.6513672-.9155273 7.9648438 2.71875 4.2861328-3.8530273 1.109375c-.3071289 1.3754883-1.453125 4.5170898-5.7250977 9.0566406l-.2407227.2558594-.3481445.0488281c-.1005861.0141602-.2050782.0214844-.3125001.0214844zm-4.3120117-4.9189453c1.3647461 1.3139648 3.1508789 2.6582031 4.0703125 2.8852539 4.7255859-5.1381836 4.9799805-8.1557617 4.9819336-8.1860352l.046875-.7001953 2.5732422-.7558594-1.6669922-2.6289063.6245117-5.4335938c-1.6132813.4404297-4.3876953.9838867-7.8603516.8188477-3.8310547 1.7607422-4.5083008 4.5151367-4.6152344 5.1455078z" fill="#1c0801"/><path d="m8.5620098 17.2797909 11.3491211-3.1084013-5.6748009 4.4228506-4.7788105 2.9843693z" fill="#edad82"/><path d="m9.1142578 22.3823242-1.1376953-5.4604492 14.2143555-3.8930664-7.6474609 5.9599609zm.0332031-4.7446289.6533203 3.137207 4.1708984-2.6049805 3.6621094-2.8564453z" fill="#1c0801"/><g fill="#ad400e"><path d="m19.9111309 13.5810499-10.7578106 1.2807703.25 1.6464806z"/><path d="m10.7158203 23.1278992 8.5654297-3.4906883s-2.2114296 4.1889896-4.2827101 6.3319893c0-.0000001-2.0327196-.5340996-4.2827196-2.841301z"/><path d="m32.4033012 15.1957998 2.5634995 5.000001-3.5254002 8.2655983z"/><path d="m36.1054993 27.2583008s-10.6513996 11.1381989-12.0834999 11.7846985c0 0 11.5073013-5.3203011 12.0834999-11.7846985z"/><path d="m26.8407993 46.4473-2.8188 4-8.3144798 3.6132011s1.6821308 2.9511986 2.6333008 2.5117989c5.681179-2.625 6.4291801-4.5567017 6.4291801-4.5567017l6.6718999-1.0057983z"/><path d="m38.5293007 52.5723 9.5625-6.375-.6191025-2.7969017 1.8691025 3.6719017s-.3105011 1.2635994-10.8125 5.5z"/><path d="m26.375 42.1973 9.9121017-5.3008004h-1.820301z"/><path d="m39.4668007 39.9961014-5 2.2011986 7.125-.4413987-2.375-.9024009z"/></g><path d="m28.8613281 33.9501953c-9.0795898 0-11.5458984-6.5844727-11.574707-6.6665039l2.1064453-.7553711c.1225586.3325195 3.1567383 8.09375 16.3833008 4.015625l.6582031 2.1386719c-2.9277344.9023437-5.434082 1.2675781-7.5732422 1.2675781z" fill="#4c231b"/></svg>