<svg enable-background="new 0 0 512 512" viewBox="0 0 512 512" xmlns="http://www.w3.org/2000/svg"><path d="m320.13 296.081h-128.258c-57.553 0-104.21 46.656-104.21 104.21v104.209h336.677v-104.21c.001-57.553-46.656-104.209-104.209-104.209z" fill="#37508c"/><g fill="#283764"><path d="m360.211 408.307v96.193h64.129v-104.21c0-13.276-2.579-25.925-7.106-37.602z"/><path d="m151.791 408.307v96.193h-64.129v-104.21c0-13.276 2.579-25.925 7.106-37.602z"/><path d="m226.675 413.784.528-.265 11.792 11.792c4.696 4.695 10.85 7.043 17.005 7.043s12.309-2.348 17.005-7.043l11.792-11.792.528.265c3.395 1.697 7.079 2.539 10.754 2.539 4.437 0 8.861-1.227 12.746-3.655 2.43-1.519 47.865-30.995 66.981-100.361-16.118-10.223-35.178-16.226-55.678-16.226h-128.256c-20.5 0-39.56 6.003-55.678 16.226 19.117 69.365 64.552 98.841 66.981 100.361 3.886 2.428 8.31 3.655 12.746 3.655 3.676 0 7.359-.842 10.754-2.539z"/></g><path d="m151.791 151.791v96.193c0 104.21 64.129 88.177 64.129 88.177h80.161s64.129 16.032 64.129-88.177v-96.193z" fill="#f0c087"/><path d="m153.265 273.191c.048.445.105.879.155 1.322 9.973 74.771 62.5 61.649 62.5 61.649h3.699c-7.783-22.679-11.715-44.383-11.715-64.129v-72.145c0-8.855 7.178-16.032 16.032-16.032h112.226c8.854 0 16.032-7.178 16.032-16.032v-16.032h-200.403v96.193c0 5.931.264 11.595.656 17.115.22 2.803.494 5.497.818 8.091z" fill="#e6af78"/><path d="m320.13 272.033h-128.258c-22.136 0-40.081-17.945-40.081-40.081v16.032c0 104.21 64.129 144.29 64.129 144.29l16.032-8.016 24.049 24.049 24.048-24.048 16.032 8.016s64.129-40.081 64.129-144.29v-16.032c.001 22.135-17.944 40.08-40.08 40.08z" fill="#694b4b"/><path d="m288.065 304.097h-64.129s0-3.589 0-8.016c0-13.282 10.767-24.048 24.048-24.048h16.032c13.282 0 24.048 10.767 24.048 24.048.001 4.427.001 8.016.001 8.016z" fill="#fff"/><circle cx="207.901" cy="456.4" fill="#ffdc64" r="16.03"/><path d="m347.643 71.969h-183.284c-53.802-23.139-60.664-.303-60.664 7.677 0 5.887 5.527 18.036 12.776 18.036h279.061c7.248 0 12.776-12.149 12.776-18.036-.001-7.98-6.863-30.816-60.665-7.677z" fill="#283764"/><path d="m103.695 79.646c0 5.887 5.527 12.67 12.776 12.67 65.551 0 68.936-84.816 139.53-84.816 52.945 0 68.086 47.709 100.002 71.563 10.639 7.951 23.141 13.253 39.529 13.253 7.248 0 12.776-6.784 12.776-12.67 0 19.394-21.114 52.863-32.693 69.76-4.485 6.545-11.873 10.402-19.808 10.402h-199.612c-7.935 0-15.323-3.856-19.808-10.402-11.579-16.898-32.692-50.367-32.692-69.76z" fill="#37508c"/><path d="m196.691 128.299c-23.576-19.907-32.331-56.329-32.331-56.33-12.447 11.728-27.009 20.347-47.889 20.347-7.249 0-12.776-6.783-12.776-12.67 0 19.393 21.114 52.863 32.693 69.759 4.486 6.545 11.873 10.402 19.807 10.402h204.016v-8.016c0-8.854-7.178-16.032-16.032-16.032h-126.843c-7.538-.001-14.886-2.597-20.645-7.46z" fill="#283764"/><path d="m379.4 143.775h-1.612c.789.226 1.411.302 1.612 0z" fill="#283764"/><path d="m191.872 272.033c-22.136 0-40.081-17.945-40.081-40.081v16.032c0 104.21 64.129 144.29 64.129 144.29l16.032-8.016 24.049 24.049c-32.064-48.097-48.097-96.193-48.097-136.274z" fill="#5a4146"/><circle cx="300.091" cy="219.93" fill="#5b5d6e" r="28.06"/><circle cx="304.101" cy="456.4" fill="#ffdc64" r="16.03"/><path d="m408.307 79.646c0 5.887-5.527 12.67-12.776 12.67-16.388 0-28.89-5.301-39.529-13.252-31.915-23.855-47.056-71.564-100.001-71.564-70.593 0-73.979 84.816-139.531 84.816-7.249 0-12.776-6.783-12.776-12.67 0 11.916 7.975 29.138 16.807 44.572 44.494-1.702 69.226-30.914 87.379-52.478 17.801-21.144 28.025-32.174 48.12-32.174s30.319 11.03 48.12 32.174c18.153 21.564 42.885 50.776 87.379 52.478 8.833-15.435 16.808-32.657 16.808-44.572z" fill="#ffdc64"/><path d="m164.36 71.969c-12.447 11.728-27.009 20.347-47.889 20.347-7.249 0-12.776-6.783-12.776-12.67 0 11.916 7.975 29.138 16.807 44.572 23.811-.911 41.924-9.725 56.437-21.004-8.907-16.095-12.579-31.245-12.579-31.245z" fill="#ffc850"/><path d="m207.904 216.436c-4.142 0-7.5 3.358-7.5 7.5v8.017c0 4.142 3.358 7.5 7.5 7.5s7.5-3.358 7.5-7.5v-8.017c0-4.142-3.358-7.5-7.5-7.5z"/><path d="m234.738 200.939-40.081-16.032c-3.846-1.538-8.211.333-9.749 4.179-1.539 3.846.332 8.21 4.178 9.749l40.081 16.032c.914.365 1.856.538 2.783.538 2.977 0 5.793-1.784 6.966-4.717 1.539-3.845-.332-8.21-4.178-9.749z"/><path d="m264.017 320.646h-16.032c-4.142 0-7.5 3.357-7.5 7.5 0 4.142 3.358 7.5 7.5 7.5h16.032c4.142 0 7.5-3.358 7.5-7.5 0-4.143-3.358-7.5-7.5-7.5z"/><path d="m362.621 296.959c3.142-14.46 5.09-30.753 5.09-48.975v-83.014c5.633-2.29 10.563-6.177 14.091-11.326 28.106-41.014 34.006-62.879 34.006-73.999 0-3.071-.777-13.607-10.779-20.258-11.542-7.674-30.226-6.352-55.561 3.926-5.091-5.193-9.984-11.005-15.081-17.058-18.255-21.681-38.946-46.255-78.386-46.255s-60.131 24.574-78.386 46.256c-5.096 6.053-9.99 11.864-15.081 17.058-25.335-10.277-44.02-11.6-55.561-3.926-10.002 6.651-10.779 17.187-10.779 20.258 0 11.12 5.9 32.985 34.006 73.999 3.528 5.149 8.458 9.037 14.091 11.326v83.014c0 18.224 1.948 34.52 5.091 48.981-41.629 17.121-69.22 57.925-69.22 103.324v104.21c0 4.142 3.358 7.5 7.5 7.5s7.5-3.358 7.5-7.5v-104.21c0-15.721 3.832-30.8 10.722-44.193l8.138 8.347c1.47 1.508 3.419 2.265 5.371 2.265 1.888 0 3.777-.708 5.235-2.13 2.966-2.892 3.026-7.64.134-10.606l-10.736-11.01c3.443-4.68 7.302-9.054 11.542-13.059l11.134 15.34c1.467 2.021 3.755 3.095 6.076 3.095 1.527 0 3.068-.465 4.399-1.431 3.353-2.433 4.098-7.123 1.665-10.476l-11.583-15.959c4.956-3.398 10.262-6.362 15.88-8.818 6.661 22.458 16.063 39.624 24.559 51.836 16.718 24.032 33.539 34.701 34.246 35.143 2.216 1.385 4.993 1.517 7.329.349l11.197-5.599 18.029 18.029v37.49h-18.297c-3.139-9.308-11.946-16.032-22.3-16.032-12.976 0-23.532 10.557-23.532 23.532s10.557 23.532 23.532 23.532c10.354 0 19.16-6.724 22.3-16.032h18.299v40.597c0 4.142 3.358 7.5 7.5 7.5s7.5-3.358 7.5-7.5v-40.597h18.297c3.139 9.308 11.946 16.032 22.3 16.032 12.976 0 23.532-10.557 23.532-23.532s-10.557-23.532-23.532-23.532c-10.354 0-19.16 6.724-22.3 16.032h-18.297v-37.49l18.029-18.029 11.197 5.599c2.336 1.168 5.113 1.036 7.329-.349.708-.442 17.528-11.111 34.246-35.143 8.495-12.212 17.896-29.375 24.557-51.829 5.363 2.346 10.443 5.153 15.205 8.364l-11.908 16.406c-2.433 3.353-1.688 8.042 1.665 10.476 1.331.966 2.872 1.431 4.399 1.431 2.32 0 4.609-1.073 6.076-3.095l11.526-15.881c4.294 3.99 8.212 8.351 11.707 13.027l-11.293 11.582c-2.892 2.966-2.832 7.714.134 10.606 1.458 1.422 3.348 2.13 5.235 2.13 1.951 0 3.901-.757 5.371-2.265l8.775-9c7.117 13.566 11.087 28.886 11.087 44.846v104.211c0 4.142 3.358 7.5 7.5 7.5s7.5-3.358 7.5-7.5v-104.21c.001-45.318-27.614-86.211-69.217-103.331zm-154.717 167.977c-4.705 0-8.532-3.828-8.532-8.532s3.828-8.532 8.532-8.532 8.532 3.828 8.532 8.532-3.827 8.532-8.532 8.532zm96.194-17.065c4.705 0 8.532 3.828 8.532 8.532s-3.828 8.532-8.532 8.532-8.532-3.828-8.532-8.532 3.827-8.532 8.532-8.532zm-23.533-151.79v.516h-49.129v-.516c0-9.125 7.423-16.549 16.548-16.549h16.032c9.126 0 16.549 7.424 16.549 16.549zm-88.693-31.549c-17.965 0-32.581-14.615-32.581-32.58v-64.646h77.571l33.362 33.362c-3.594 5.554-5.691 12.164-5.691 19.259 0 19.605 15.951 35.557 35.557 35.557 7.094 0 13.704-2.097 19.259-5.691l12.536 12.536c-3.649 1.417-7.611 2.203-11.755 2.203zm108.218-24.048c-11.335 0-20.557-9.222-20.557-20.557s9.222-20.557 20.557-20.557c11.334 0 20.556 9.222 20.556 20.557s-9.222 20.557-20.556 20.557zm44.322 13.16-14.457-14.458c3.594-5.555 5.691-12.165 5.691-19.259 0-19.606-15.95-35.557-35.556-35.557-7.094 0-13.705 2.097-19.259 5.691l-22.755-22.756h94.635v64.646c-.001 8.325-3.143 15.927-8.299 21.693zm52.311-181.765c3.791 2.52 4.085 6.582 4.085 7.767 0 1.77-2.228 5.17-5.276 5.17-13.517 0-24.004-3.969-33.14-10.332 11.295-3.911 26.706-7.675 34.331-2.605zm-281.444 0c2.636-1.753 6.202-2.45 10.208-2.45 7.581 0 16.733 2.496 24.123 5.054-9.136 6.363-19.624 10.332-33.14 10.332-3.048 0-5.276-3.4-5.276-5.17 0-1.184.295-5.246 4.085-7.766zm17.788 58.752c40.156-6.118 63.31-33.583 80.552-54.063 18.396-21.855 26.271-29.503 42.382-29.503 9.403 0 16.105 2.656 23.902 9.471 3.117 2.726 7.856 2.408 10.583-.711 2.726-3.119 2.408-7.856-.711-10.583-10.426-9.113-20.842-13.177-33.774-13.177-24.529 0-36.832 14.616-53.86 34.846-17.419 20.688-39.018 46.313-77.352 49.605-3.301-6.023-6.052-11.63-8.194-16.703 35.576-.053 54.345-22.34 72.495-43.896 17.716-21.042 34.45-40.917 66.911-40.917s49.195 19.875 66.911 40.917c18.15 21.556 36.919 43.844 72.495 43.896-2.142 5.074-4.894 10.682-8.196 16.707-38.333-3.291-59.924-28.913-77.353-49.612-2.668-3.168-7.397-3.573-10.567-.905-3.168 2.668-3.573 7.401-.905 10.569 17.249 20.486 40.397 47.944 80.549 54.058-2.918 4.692-6.09 9.548-9.507 14.535-3.064 4.472-8.156 7.142-13.621 7.142h-199.612c-5.465 0-10.557-2.67-13.621-7.142-3.417-4.986-6.589-9.842-9.507-14.534zm189.373 223.642c-10.815 15.722-21.751 25.188-27.049 29.271l-11.987-5.994c-2.889-1.444-6.375-.877-8.657 1.405l-18.746 18.745-18.745-18.745c-2.282-2.282-5.769-2.849-8.657-1.405l-11.986 5.993c-5.308-4.089-16.24-13.555-27.05-29.27-12.002-17.446-26.001-45.975-29.461-86.939 8.431 7.578 19.57 12.198 31.771 12.198h29.268c-2.979 4.814-4.703 10.483-4.703 16.549v8.016c0 4.143 3.358 7.5 7.5 7.5h64.129c4.142 0 7.5-3.357 7.5-7.5v-8.016c0-6.066-1.725-11.734-4.703-16.549h29.268c12.201 0 23.341-4.62 31.771-12.198-3.462 40.964-17.461 69.493-29.463 86.939z"/><path d="m151.792 400.807c-4.142 0-7.5 3.357-7.5 7.5v96.193c0 4.142 3.358 7.5 7.5 7.5s7.5-3.358 7.5-7.5v-96.193c0-4.143-3.358-7.5-7.5-7.5z"/><path d="m360.21 400.807c-4.142 0-7.5 3.357-7.5 7.5v96.193c0 4.142 3.358 7.5 7.5 7.5s7.5-3.358 7.5-7.5v-96.193c0-4.143-3.357-7.5-7.5-7.5z"/></svg>