<svg height="64" preserveAspectRatio="none" viewBox="0 0 64 64" width="64" xmlns="http://www.w3.org/2000/svg" xmlns:xlink="http://www.w3.org/1999/xlink"><radialGradient id="a" cx="55.988281" cy="43.757813" gradientTransform="matrix(.9694883 .0098775 -.0020816 .2030038 -15.094107 49.644318)" gradientUnits="userSpaceOnUse" r="14.591079"><stop offset="0" stop-color="#595959"/><stop offset="1" stop-color="#414141" stop-opacity="0"/></radialGradient><path d="m53.3994141 59.2246094c-.0166016 1.7714844-6.4335938 3.1386719-14.3369141 3.0605469-7.8989258-.0839844-14.2875977-1.5820313-14.2714844-3.3535156.0200195-1.7714844 6.4389648-3.140625 14.3369141-3.0576172 7.9023437.0800781 14.2910156 1.5800781 14.2714844 3.3505859z" fill="url(#a)"/><path d="m31.5141602 56.7900391-.159668.7216797s-1.2836914.1601563-.9628906.4003906c.3212891.2412109 3.6103516.7226563 6.0175781-.3212891 0 0-3.690918-1.7636719-4.8950195-.8007812z" fill="#081735"/><path d="m43.5488281 58.875-.4814453 1.0439453s-.5595703.2402344.2412109.5605469c.8027344.3212891.8027344.3212891.8027344.3212891s1.4443359.3212891 2.3261719-.1601563c.8828125-.4814453.5625-2.0869141.5625-2.0869141s-2.1669922-1.2841796-3.4511719.3212891z" fill="#081735"/><path d="m45.137695 57.836914-.647461 1.21582" fill="#081735"/><path d="m44.327293 57.756088h.973346v1.37747h-.973346z" fill="#081735" transform="matrix(.8829078 .4695464 -.4695464 .8829078 32.689926 -14.198807)"/><path d="m32.8305664 58.4746094c-1.1518555 0-2.3105469-.1660156-2.5830078-.3701172-.1777344-.1337891-.1503906-.2998047-.1381836-.3457031.0258789-.0976563.0849609-.3222656 1.0463867-.4628906l.1425781-.6416016.065918-.0527344c.2822266-.2255859.6879883-.3398438 1.2060547-.3398438 1.5966797 0 3.8466797 1.0683594 3.9423828 1.1132813l.4775391.2265625-.4853516.2109375c-1.265625.5478516-2.696289.6621094-3.6743164.6621094zm-1.9057617-.6464844c.3984375.0810547 1.0693359.1650391 1.9057617.1650391.793457 0 1.8979492-.0771484 2.9418945-.4189453-.7548828-.3125-2.1611328-.8320313-3.2021484-.8320313-.3642578 0-.6455078.0654297-.840332.1884766l-.1767578.7998047-.168457.0205078c-.1577149.0185547-.319336.046875-.459961.0771484z" fill="#1b4f5b"/><path d="m32.8305664 58.9609375c-.7783203 0-2.3813477-.0976563-2.8745117-.4667969-.3354492-.2529297-.3837891-.6103516-.3168945-.8603516.1035156-.3896484.4326172-.6201172 1.1123047-.7607422l.0717773-.3242188c.0239258-.1083984.0844727-.2050781.1708984-.2744141.4370117-.3486328.9448242-.4990234 1.5761719-.4990234 1.6044922 0 3.734375.9638672 4.1455078 1.1572266l.4833984.2294922c.171875.0820313.2802734.2568359.2773438.4472656-.0029297.1914063-.1171875.3623047-.2919922.4384766l-.4853516.2109375c-1.3417968.5810548-2.8447265.7021485-3.8686523.7021485zm-.7246094-1.4765625c.4702148.0302734 1.0737305.0439453 1.8374023-.0332031-.6933594-.1884766-1.4916992-.2558594-1.7910156-.1757813z" fill="#081735"/><path d="m45.1533203 61.1464844c-.5898438 0-1.0742188-.1074219-1.0947266-.1113281l-.8398437-.3320313c-.2480469-.0996094-.5791016-.265625-.5830078-.5654297-.0019531-.1767578.1181641-.3134766.2470703-.3935547l.4472656-.9707031c.5078125-.6455078 1.1416016-.9453125 1.9189453-.9453125.9833984 0 1.8369141.4980469 1.8730469.5185547l.0927734.0546875.0205078.1054688c.0146484.0732422.3427734 1.7841797-.6826172 2.3447266-.3574218.1953124-.8291015.2949218-1.399414.2949218zm-.953125-.5712891c.0126953 0 .4453125.0898438.953125.0898438.4882813 0 .8828125-.0791016 1.1679688-.2373047.59375-.3222656.5058594-1.3759766.4589844-1.7177734-.2333984-.1210938-.8583984-.4013672-1.53125-.4013672-.6220703 0-1.1318359.2412109-1.5117188.7167969l-.4902344 1.078125-.0839844.0361328c.0429688.0273438.1152344.0693359.234375.1152344l.8017578.3212891c.0000001-.0009767.0000001-.0009767.0009766-.0009767z" fill="#1b4f5b"/><path d="m45.1533203 61.6328125c-.5507813 0-1.0136719-.0839844-1.1875-.1201172l-.9257813-.3574219c-.5859375-.2353516-.8847656-.5751953-.890625-1.0107422-.0029297-.2714844.1230469-.5302734.34375-.7167969l.3945313-.8583984c.0166016-.0341797.0361328-.0664063.0595703-.0966797.5908203-.7509766 1.3652344-1.1308594 2.3017578-1.1308594 1.0429688 0 1.9423828.484375 2.1123047.5810547l.1005859.0595703c.1201172.0703125.2041016.1894531.2304688.3261719l.0205078.1054688c.0429688.2148438.3876953 2.1464844-.9267578 2.8642578-.430664.2353516-.9794922.3544922-1.6328125.3544922zm-.8271484-1.5302734c.7412109.1289063 1.4169922.0888672 1.7587891-.1005859.1767578-.0957031.2666016-.4833984.2382813-.9667969-.25-.1044922-.6572266-.2402344-1.0742188-.2402344-.4550781 0-.8134766.1611328-1.0957031.4902344l-.2871094.6328125z" fill="#081735"/><path d="m32.8305664 58.4746094c-1.1518555 0-2.3105469-.1660156-2.5830078-.3701172-.1777344-.1337891-.1503906-.2998047-.1381836-.3457031.0258789-.0976563.0849609-.3222656 1.0463867-.4628906l.1425781-.6416016.065918-.0527344c.2822266-.2255859.6879883-.3398438 1.2060547-.3398438 1.5966797 0 3.8466797 1.0683594 3.9423828 1.1132813l.4775391.2265625-.4853516.2109375c-1.265625.5478516-2.696289.6621094-3.6743164.6621094zm-1.9057617-.6464844c.3984375.0810547 1.0693359.1650391 1.9057617.1650391.793457 0 1.8979492-.0771484 2.9418945-.4189453-.7548828-.3125-2.1611328-.8320313-3.2021484-.8320313-.3642578 0-.6455078.0654297-.840332.1884766l-.1767578.7998047-.168457.0205078c-.1577149.0185547-.319336.046875-.459961.0771484z" fill="#e5ba6e"/><path d="m45.1533203 61.1464844c-.5898438 0-1.0742188-.1074219-1.0947266-.1113281l-.8398437-.3320313c-.2480469-.0996094-.5791016-.265625-.5830078-.5654297-.0019531-.1767578.1181641-.3134766.2470703-.3935547l.4472656-.9707031c.5078125-.6455078 1.1416016-.9453125 1.9189453-.9453125.9833984 0 1.8369141.4980469 1.8730469.5185547l.0927734.0546875.0205078.1054688c.0146484.0732422.3427734 1.7841797-.6826172 2.3447266-.3574218.1953124-.8291015.2949218-1.399414.2949218zm-.953125-.5712891c.0126953 0 .4453125.0898438.953125.0898438.4882813 0 .8828125-.0791016 1.1679688-.2373047.59375-.3222656.5058594-1.3759766.4589844-1.7177734-.2333984-.1210938-.8583984-.4013672-1.53125-.4013672-.6220703 0-1.1318359.2412109-1.5117188.7167969l-.4902344 1.078125-.0839844.0361328c.0429688.0273438.1152344.0693359.234375.1152344l.8017578.3212891c.0000001-.0009767.0000001-.0009767.0009766-.0009767z" fill="#e5ba6e"/><path d="m39.5371094 29.1904297-7.4614258.6416016 7.4614258-15.8051758 2.0859375.6416015z" fill="#1b4f5b"/><path d="m32.0756836 30.3134766c-.1567383 0-.3046875-.0766602-.3950195-.206543-.0986328-.1416016-.1137695-.324707-.0405273-.4804688l7.4614258-15.8051758c.1015625-.2163086.3486328-.3266602.5771484-.2543945l2.0859375.6416016c.2265625.0693359.3681641.2939453.3349609.5283203l-2.0859375 14.5219727c-.0322266.2216797-.2119141.3920898-.4355469.4111328l-7.4614258.6416016c-.0136719.0014648-.0273437.0019531-.0410156.0019531zm7.7182617-15.7041016-6.9257813 14.6713867 6.2470703-.5371094 1.9726563-13.7363281z" fill="#081735"/><path d="m36.6494141 15.7114258-3.1298828 1.765625s-1.4438477 2.0058594-1.4438477 2.8881836-2.4858398 7.1401367-3.0478516 8.1030273l-.0805664 1.3637695-.9628906.9624023s.4023438 2.4067383 2.4873047 3.3696289 1.6850586-2.3261719 1.6850586-2.3261719l1.6850586-1.203125z" fill="#1b4f5b"/><path d="m31.1547852 34.8222656c-.2695313 0-.5673828-.0742188-.8847656-.2207031-2.2900391-1.0576172-2.7421875-3.6191406-2.7602539-3.7275391-.0258789-.1538086.0244141-.3100586.1342773-.4199219l.8334961-.8330078.0698242-1.1811523c.0043945-.0756836.0263672-.1489258.0649414-.2143555.6210938-1.0644531 2.9794922-7.1489258 2.9819336-7.8603516 0-.9873047 1.2783203-2.8134766 1.534668-3.1694336.0410156-.0566406.09375-.1035156.1542969-.1381836l3.1298828-1.765625c.1621094-.0922852.3652344-.0820313.5166016.0283203.1523438.1088867.2275391.2963867.1923828.4799805l-2.8076172 14.9233398c-.0224609.1220703-.0917969.2304688-.1933594.3027344l-1.4614258 1.0439453c.0322266.5478516.0249023 1.6933594-.5258789 2.3154297-.2529297.2851563-.5917969.4365235-.9790039.4365235zm-2.6411133-3.8759765c.1572266.5820313.6962891 2.1044922 2.159668 2.7802734.3530273.1640625.5893555.1914063.7397461.0205078.3261719-.3681641.3198242-1.40625.265625-1.8510742-.0209961-.1748047.0546875-.3476563.1982422-.449707l1.5273438-1.0908203 2.5810547-13.7167969-2.1357423 1.2050781c-.5566406.7890625-1.2924805 2.0385742-1.2924805 2.5214844 0 1.003418-2.3793945 6.9682617-3.0551758 8.2402344l-.0742188 1.2548828c-.0068359.1176758-.0566406.2290039-.1401367.3120117z" fill="#081735"/><path d="m32.2363281 33.0419922-1.6049805 2.9677734.3222656 1.4433594-.5629883.6416016.4023438 1.2851563s-2.7275391 9.9472656-2.0053711 15.4042969l1.5234375 2.40625s3.3686523-.2402344 8.0229492.9628906c4.6533203 1.203125 9.2265625 1.2841797 9.2265625 1.2841797s-.4023438-11.4736328-1.2841797-15.0839844-.3212891-7.5419922-2.1660156-10.5898438l-7.3007813-3.6103516c.0000001 0-3.2080077-1.2036133-4.5732421 2.8886719z" fill="#1b4f5b"/><path d="m47.5605469 59.9189453c-.0029297 0-.0058594 0-.0087891 0-.0458984-.0009766-4.6835938-.0957031-9.3378906-1.2998047-3.2558594-.8408203-5.8632813-.9667969-7.128418-.9667969-.4692383 0-.730957.0175781-.7407227.0185547-.175293.0117188-.3457031-.0732422-.4404297-.2226563l-1.5234375-2.40625c-.0371094-.0595703-.0615234-.1259766-.0703125-.1943359-.6889648-5.2060547 1.6411133-14.1894531 1.980957-15.4580078l-.3603516-1.1513672c-.050293-.1601563-.0131836-.3349609.0976563-.4609375l.4018555-.4580078-.269043-1.2050781c-.0253906-.1132813-.0087891-.2314453.0463867-.3330078l1.6049805-2.9682617c.9487305-2.8666992 2.8735352-3.3061523 3.9331055-3.3061523.6904297 0 1.1787109.1757813 1.2324219.1958008l7.3447266 3.6293945c.0830078.0410156.1513672.1035156.1992188.1826172 1.2158203 2.0087891 1.4365234 4.3916016 1.6503906 6.6962891.1240234 1.3369141.2519531 2.7207031.5712891 4.0283203.8828125 3.6171875 1.28125 14.7109375 1.2978516 15.1816406.0039063.1318359-.0458984.2597656-.1376953.3544922-.0908204.0917968-.2148439.1435546-.3437501.1435546zm-16.4750977-3.2294922c1.3105469 0 4.0102539.1298828 7.3686523.9980469 3.6513672.9433594 7.2939453 1.1894531 8.6054688 1.25-.0908203-2.2724609-.4970703-11.3818359-1.2509765-14.4697266-.3359375-1.3769531-.4677734-2.7958984-.5947266-4.1679688-.2080078-2.2480469-.4052734-4.3730469-1.4453125-6.1679688l-7.1689453-3.5454102c-.0097656 0-.3681641-.1166992-.8535156-.1166992-.9785156 0-2.3017578.4726563-3.0532227 2.7246094l-1.5527344 2.8857422.2832031 1.2685547c.0336914.1494141-.0063477.3066406-.1079102.421875l-.3847656.4384766.3217773 1.0273438c.0273438.0878906.0292969.1816406.0048828.2705078-.0268555.0986328-2.6586914 9.7900391-2.0058594 15.1103516l1.3168945 2.0800781c.1308596-.0039062.3046877-.0078125.51709-.0078125z" fill="#081735"/><path d="m30.2158203 31.0742188c-.152832.152832-.1616211.6030273-.1015625 1.1474609-.1264648.0664063-.2553711.1865234-.3847656.3935547l-.9731445 1.8652344s.8911133.1630859 1.6210938 0c.0581055-.0126953.1083984-.0410156.1606445-.0654297.0932617.3769531.1645508.6328125.1645508.6328125l.8916016.2431641.5625-3.453125c-.0000001-.0000001-1.4541017-1.2504884-1.9409181-.7636719z" fill="#efc39e"/><path d="m31.5942383 35.7724609c-.0424805 0-.0849609-.0058594-.1264648-.0166016l-.8916016-.2431641c-.1635742-.0449219-.2915039-.1728516-.3374023-.3359375 0 0-.0175781-.0644531-.0473633-.1757813-.6264648.0810547-1.496582-.0419922-1.5214844-.046875-.1503906-.0273438-.2788086-.125-.3461914-.2626953-.0668945-.1367188-.0649414-.2978516.0058594-.4335938l.9731445-1.8652344c.1005859-.1625977.2016602-.2915039.3076172-.3935547-.0458984-.6513672.0371094-1.0371094.2651367-1.2651367.1157227-.1157227.3212891-.253418.6450195-.253418.7573242 0 1.7573242.8266602 1.9501953.9926758.1269531.1088867.1879883.2768555.1611328.4418945l-.5625 3.453125c-.0219727.1347656-.1000977.2539063-.2148438.328125-.0781249.049805-.1689452.0761721-.2602538.0761721zm-.4980469-1.1162109.1088867.0292969.4316406-2.6494141c-.3745117-.2871094-.8222656-.5507813-1.0625-.5883789-.0146484.1020508-.0263672.3149414.0185547.7211914.0214844.1967773-.0795898.3867188-.2548828.4790039-.0336914.0180664-.1054688.0703125-.2001953.222168l-.625 1.2001953c.2758789.0078125.5493164-.0126953.7597656-.0595703.1298828-.0605469.3115234-.0771484.4423828-.0146484.1298828.0625.2558594.1630859.2905273.3037109.0341798.1376953.0649415.2587891.0908204.3564453z" fill="#40210f"/><path d="m35.6865234 31.1157227-.7226562 8.2641601-.3203125 17.8916016 6.8193359 1.1220703-4.5732422-18.4521484-.0800781-8.9863282z" fill="#081735" opacity=".47"/><path d="m28.4311523 31.0742188s1.9360352-.824707 3.7255859.7636719c1.7895508 1.5878906-.3193359-1.9804688-1.6166992-2.4667969" fill="#1b4f5b"/><path d="m32.7749023 32.7241211c-.3129883 0-.6328125-.2558594-.9375-.5263672-1.5283203-1.355957-3.1513672-.7084961-3.2197266-.6796875-.246582.1010742-.5263672-.0141602-.6293945-.2583008-.1020508-.2441406.0107422-.5244141.2543945-.628418.0761719-.0317383 1.5922852-.65625 3.2539063.1762695-.3730469-.4506836-.796875-.862793-1.1254883-.9858398-.2490234-.0932617-.375-.3706055-.2817383-.6196289s.3696289-.3754883.6196289-.2817383c1.0830078.4057617 2.5878906 2.4907227 2.6181641 3.1972656.0126953.2915039-.1533203.4760742-.3134766.5522461-.0791015.0375977-.1586913.0541993-.2387695.0541993z" fill="#081735"/><path d="m32.5888672 36.9306641.4501953-4.3710938-1.4448242 3.53125.1108398 1.4736328c-.4873047.3808594-.8325195.6923828-.8325195.6923828-1.043457 3.0488281-1.925293 15.4033203-1.925293 15.4033203s.1025391-.3496094.3413086-1.0576172l-.3413086 1.7802734 1.6040039 2.3261719 1.3974609-11.1767578c.5405273-1.3388672 1.2416992-6.0820313 1.9682617-7.7822266 2.4609376-5.7597655.3691407-1.9287108-1.3281249-.8193358z" fill="#081735" opacity=".47"/><path d="m29.2426758 35.4541016.1616211-1.703125s2.3530273-.5683594 3.2446289.5673828c.8920898 1.1357422-1.8647461 2.9199219-3.40625 1.1357422z" fill="#efc39e"/><path d="m30.8540039 36.6914063c-.5375977 0-1.3164063-.1601563-1.9755859-.9228516-.0859375-.0986328-.1274414-.2294922-.1147461-.3603516l.1616211-1.703125c.019043-.2041016.1665039-.3740234.3662109-.421875.0258789-.0068359.652832-.15625 1.4018555-.15625 1.0678711 0 1.875.3095703 2.3339844.8945313.3154297.4013672.3632813.9052734.1318359 1.3828125-.362793.7460937-1.3325195 1.2871094-2.3051758 1.2871094zm-1.1113281-1.4101563c.387207.3662109.8105469.4482422 1.1113281.4482422.6650391 0 1.2646484-.3876953 1.4389648-.7460938.0898438-.1845703.0390625-.2890625-.0224609-.3681641-.3413086-.4335938-1.0458984-.5253906-1.5771484-.5253906-.3256836 0-.6274414.0341797-.8442383.0673828z" fill="#40210f"/><path d="m36.0078125 19.1621094-.8037109-2.6479492 1.0439453-1.3642578-.1601563-2.4067383 2.0859375-1.4443359.6416016 3.0493164c0-.0000001-1.4443359 4.8940429-2.8076172 4.8139648z" fill="#ce9e7e"/><path d="m36.0410156 19.6630859-.4101563-.0224609-.9794922-3.2265625 1.0849609-1.418457-.1660156-2.5019531 2.9375-2.034668.8232422 3.909668-.0361328.1210938c-.4589843 1.555664-1.6953124 5.1733397-3.2539062 5.1733397zm-.2841797-3.0488281.5742188 1.890625c.5537109-.5224609 1.3925781-2.269043 1.96875-4.1782227l-.4599609-2.1879883-1.234375.8540039.1542969 2.3115234z" fill="#40210f"/><path d="m35.4873047 29.2895508-2.4482422 3.2700195s-1.6074219.2167969-1.6884766.6230469c-.0805664.4052734-.7192383 2.8271484-.7192383 2.8271484s1.9370117.4970703 2.2607422.5791016c.324707.0820313 1.2973633-.9736328 1.2973633-.9736328s.3242188-.8916016.8105469-1.053711c.4873047-.1621094.6494141-1.296875.6494141-1.296875l3-2.0283203s-.2431641-4.055664-3.1621094-1.9467773z" fill="#efc39e"/><path d="m32.9311523 37.0751953c-.0400391 0-.1186523-.0097656-.1567383-.0195313l-2.2626953-.5800781c-.1240234-.03125-.2304688-.1113281-.2954102-.2216797-.0649414-.1113281-.0830078-.2431641-.050293-.3671875.1762695-.6689453.6489258-2.4775391.7124023-2.7978516.0356445-.1777344.140625-.7041016 1.8945313-.9770508l2.3286133-3.1108398c.0292969-.0390625.0644531-.0732422.1035156-.1015625.6513672-.4702148 1.2294922-.6992188 1.7685547-.6992188 1.5595703 0 2.0888672 1.890625 2.15625 3.0073242.0097656.1699219-.0703125.3325195-.2109375.4277344l-2.8300781 1.9135742c-.0917969.4550781-.3378906 1.2705078-.9365234 1.4697266-.1347656.0449219-.3828125.4150391-.5107422.7617188-.0214844.0595703-.0556641.1152344-.0976563.1611328-.6933593.7519532-1.2353514 1.1337891-1.6127929 1.1337891zm-1.7114257-1.4111328 1.699707.4345703c.1694336-.0888672.5356445-.4072266.8549805-.7441406.1230469-.3027344.4804688-1.0517578 1.0732422-1.25.1015625-.0673828.2685547-.5205078.3251953-.9082031.0195313-.1347656.0947266-.2543945.2070313-.3305664l2.7578125-1.8647461c-.0810547-.5649414-.3554688-1.8378906-1.1640625-1.8378906-.3066406 0-.7021484.1640625-1.1464844.4750977l-2.4023438 3.2099609c-.078125.1030273-.1933594.1713867-.3212891.1879883-.5292969.0722656-1.112793.2255859-1.3022461.3388672-.0971679.4296874-.40625 1.6201171-.5815429 2.2890624z" fill="#40210f"/><path d="m38.4882813 33.0205078s.6494141 6.1630859 2.6757813 8.4345703c2.0273438 2.2714844 5.0283203 5.1904297 5.0283203 5.1904297l-1.2167969-3.0820313-.2431641-6.2451172z" fill="#081735" opacity=".47"/><path d="m36.2480469 15.1499023-1.8457031 1.8457031s-1.0429688 4.2519531.0800781 8.5844727l.7216797-1.043457s.4033203-7.7016602 1.0439453-9.3867188z" fill="#1b4f5b"/><path d="m34.4824219 26.0615234c-.0283203 0-.0556641-.0024414-.0839844-.0073242-.1855469-.0332031-.3349609-.1708984-.3818359-.3535156-1.140625-4.3994141-.1259766-8.6411133-.0820313-8.8198242.0214844-.0854492.0654297-.1635742.1269531-.225586l1.8457031-1.8457031c.1621094-.1601563.4140625-.1870117.6025391-.0639648.1904297.1235352.2685547.3632813.1884766.5751953-.5039063 1.324707-.9023438 7.1196289-1.0136719 9.2412109-.0048828.0888672-.0341797.1748047-.0849609.2485352l-.7216797 1.043457c-.0908203.1313477-.2392578.2075195-.3955078.2075195zm.359375-8.8242187c-.1416016.6601563-.7363281 3.7905273-.1259766 7.1591797l.0146485-.0214844c.046875-.8442383.2949219-5.1220703.6972656-7.7236328z" fill="#081735"/><path d="m33.921875 9.0527344 1.4433594 3.6904297.4023438 1.3642578s2.0058594-.3208008 2.8876953-.9628906l.6416016-1.7651367-.3212891-3.9316406s-.0800781-1.203125-2.4863281-1.6040039c-2.4072266-.400879-2.9697266 2.1665038-2.5673829 3.2089843z" fill="#efc39e"/><path d="m35.4833984 14.5581055-.5019531-1.7016602-1.4316406-3.6582031c-.2578125-.6660156-.2021484-1.8500977.4052734-2.7363281.5722656-.8334961 1.4384766-1.2089844 2.5996094-1.0126953 2.6884766.4477539 2.8154297 1.9101562 2.8203125 1.9721679l.328125 4.0126953-.7138672 1.9619141-.0986328.0717773c-.9482422.690918-2.9736328 1.0209961-3.0595703 1.034668zm.5185547-8.3564453c-.5957031 0-1.0625.2397461-1.3867188.7128906-.4306641.6279297-.5019531 1.5239258-.3203125 1.9941406l1.4423828 3.6889648.3115234 1.0512695c.6396484-.1289063 1.6982422-.3969727 2.2744141-.7626953l.5673828-1.5615234-.3134766-3.8442383c-.0009766-.0029297-.1425781-.9072266-2.1533203-1.2421875-.1484374-.0249023-.2900389-.036621-.4218749-.036621z" fill="#40210f"/><path d="m38.5419922 9.75-.375 1.0834961-.2089844 1.125.7919922-1.0834961z" fill="#ce9e7e"/><path d="m40.9013672 14.5083008-1.6044922-1.3637695s-6.4179688 8.2636719-6.0976563 15.8051758l.6425781 1.6850586c.0000001-.0000001.881836-9.6274415 7.0595704-16.1264649z" fill="#1b4f5b"/><path d="m33.8417969 31.1162109c-.1972656 0-.3779297-.121582-.4501953-.3100586l-.6420898-1.6850586c-.0185547-.0483398-.0288086-.0991211-.03125-.1508789-.3242188-7.6303711 5.9321289-15.777832 6.1987305-16.1210938.0800781-.1035156.2001953-.1699219.3300781-.1835938.1279297-.012207.2617188.0268555.3613281.1123047l1.6044922 1.3637695c.1005859.0854492.1621094.2089844.1689453.3413086.0068359.1318359-.0400391.2612305-.1318359.3569336-5.9853516 6.2973633-6.9199219 15.7441406-6.9287109 15.8388672-.0205078.2231445-.1923828.4023438-.4140625.4331055-.0224611.0029298-.0439454.0043946-.0654298.0043946zm5.5361328-17.2709961c-1.2246094 1.7011719-5.7783203 8.4560547-5.7080078 14.6982422.59375-3.1381836 2.2421875-9.2519531 6.5361328-13.9941406z" fill="#081735"/><path d="m31.1928711 25.8208008s13.0786133 6.8989258 22.0629883 19.7358398c0 0 .7226563.0810547.8027344-.7226563 0 0-12.0341797-16.2055664-22.465332-19.8955078-.0000001.0000001-.5600587-.1611327-.4003907.8823243z" fill="#081735"/><path d="m53.3105469 46.0585938c-.0185547 0-.0917969-.0029297-.1103516-.0048828-.1425781-.0166016-.2714844-.0927734-.3535156-.2099609-8.8134766-12.5927734-21.7573242-19.512207-21.887207-19.5805664-.1401367-.0742188-.2368164-.2099609-.2607422-.3666992-.0830078-.5410156-.0151367-.9296875.206543-1.1879883.1542969-.1801758.371582-.2788086.6113281-.2788086.046875 0 .1699219.0151367.2148438.0283203 10.4833984 3.7075195 22.2333984 19.4111328 22.7285156 20.078125.0742188.0996094.1083984.2236328.0957031.3476563-.0859375.8671874-.7246094 1.1748046-1.2451172 1.1748046zm-1.1435547-2.8291016c.4453125.5791016.8847656 1.1728516 1.3134766 1.7773438.015625-.0146484.0292969-.0332031.0400391-.0556641-.216797-.2841797-.6835938-.890625-1.3535157-1.7216797zm-20.5024414-17.7202149c1.4399414.8012695 9.1342773 5.2636719 16.387207 12.9174805-4.3720703-4.8076172-10.6455078-10.796875-16.387207-12.9306641z" fill="#081735"/><path d="m37.9335938 21.1674805v1.4438477l-4.1728516 7.7021484s1.2568359-1.5839844 2.8613281-.9423828c1.6054688.6420898.8925781 3.3251953.8925781 3.3251953s1.3808594 2.5107422 2.34375 4.5166016c.9628906 2.0048828 2.1660156 2.5673828 2.1660156 2.5673828s4.0927734-3.6103516 3.4501953-6.8193359c-.6425781-3.2094727-1.7646484-16.2866211-2.3271484-17.2495117-.5625-.9624023-2.4863281-1.5244141-2.4863281-1.5244141" fill="#1b4f5b"/><path d="m42.0244141 40.2617188c-.0693359 0-.1386719-.0146484-.2041016-.0449219-.0556641-.0263672-1.3701172-.6601563-2.3955078-2.7958984-.9462891-1.9697266-2.3183594-4.4677734-2.3320313-4.4926758-.0595703-.1079102-.0751953-.2353516-.0439453-.3549805.0068359-.0224609.5644531-2.2871094-.6054688-2.7553711-1.2587891-.5009766-2.2949219.7817383-2.3056641.7949219-.15625.1958008-.4335938.2387695-.6425781.1025391-.2080078-.1376953-.2763672-.4116211-.1572266-.6313477l4.1142578-7.5947266v-1.3217773c0-.265625.2158203-.4814453.4814453-.4814453s.4814453.2158203.4814453.4814453v1.4438477c0 .0800781-.0205078.1586914-.0585938.2294922l-3.25 6c.4931641-.1464844 1.0693359-.1669922 1.6943359.0834961 1.7119141.6845703 1.3691406 3.0068359 1.2236328 3.7016602.3212891.5898438 1.4501953 2.6757813 2.2675781 4.3789063.6025391 1.2529297 1.3017578 1.8935547 1.6738281 2.1689453.8603516-.8378906 3.5273438-3.6689453 3.0371094-6.1181641-.2871094-1.4321289-.6552734-4.6870117-1.0449219-8.1328125-.4238281-3.7553711-.9521484-8.4296875-1.2285156-8.9726563-.3779297-.6464844-1.7519531-1.1694336-2.203125-1.3012695-.2558594-.0742188-.4013672-.3417969-.3271484-.5966797.0751953-.2553711.34375-.4008789.5966797-.3271484.2158203.0629883 2.1259766.6474609 2.7675781 1.7436523.3300781.5649414.6816406 3.4194336 1.3515625 9.3461914.3701172 3.2739258.7529297 6.659668 1.03125 8.0512695.6894531 3.4414063-3.4277344 7.1201172-3.6035156 7.2753906-.0898435.0791015-.2031248.1201172-.3183591.1201172z" fill="#081735"/><path d="m9.9414063 44.5117188s8.9848633-4.0908203 18.5327148-9.2265625l.1606445.9619141s-14.1201172 7.6230469-17.0888672 8.4248047c0-.0000001-1.1235351.4814452-1.6044921-.1601563z" fill="#fff"/><g fill="#081735"><path d="m10.7138672 45.3261719c-.6308594 0-.9775391-.2861328-1.1577148-.5253906l-.3588867-.4794922.5444336-.2480469c.0898438-.0400391 9.0810547-4.1435547 18.5043945-9.2119141l.5922852-.3183594.3276367 1.9638672-.3027344.1640625c-.5786133.3125-14.2036133 7.6582031-17.1918945 8.4658203.012207.0000001-.4467774.1894532-.9575196.1894532zm11.2734375-6.1152344c-3.5854492 1.8173828-6.7485352 3.3427734-8.9023438 4.3632813 2.2451172-.9677735 5.7885743-2.7509766 8.9023438-4.3632813z"/><path d="m38.3320313 31.7631836s2.2460938 6.659668 3.4492188 6.8989258c1.2041016.2421875 2.4082031-5.2939453 1.765625-11.7924805-.6425781-6.4990234-1.203125-7.6220703-2.1660156-4.894043-.9628906 2.7275391 1.203125 3.6098633-.4814453 4.3325195-1.6845704.7216798-2.7275392 4.1708985-2.5673829 5.4550782z" opacity=".47"/><path d="m38.4951172 19.4829102c.3203125-1.2036133 3.4492188-4.3320313 2.5664063-2.8081055-.8828126 1.5244141-2.5664063 2.8081055-2.5664063 2.8081055z"/><path d="m37.4521484 22.3710938s.2392578-4.171875 3.5292969-4.4125977-1.3632812.1606445-3.5292969 4.4125977z"/><path d="m36.0878906 20.6860352c-1.25-1.6645508-3.1298828 7.4609375-2.5683594 8.6645508.5625001 1.2036132 2.8085938-8.3437501 2.5683594-8.6645508z" opacity=".47"/></g><path d="m35.0048828 10.5371094.5605469.3608398.1210937-.8017578-.8818359-.0805664z" fill="#ce9e7e"/><path d="m36.7216797 9.7749023.4492187.4814454.6816407-.4414063.1054687-.6479492z" fill="#ce9e7e"/><path d="m35.8828125 11.2241211.6074219.1655273-.0556641.3857422s-.4951172-.0546875-.5517578-.5512695z" fill="#ce9e7e"/><path d="m35.8291016 13.0161133-.1230469-.4658203 1.6005859-.4208985.475586.1899414-.1796875.4472657-.3271485-.1313477z" fill="#40210f"/><path d="m34.4433594 9.5742188 1.0830078.0405273.1601562.4814453h-1.2841796z" fill="#40210f"/><path d="m36.2089844 9.3764648.5126953.3984375 1.6933594-.8554687-.9238282-.2270508z" fill="#40210f"/><path d="m39.4199219 8.7700195s.28125-.3613281.8828125.1201172c.7851563.628418-.6796875 2.2333984-.6796875 2.2333984" fill="#efc39e"/><path d="m39.6230469 11.6049805c-.1152344 0-.2314453-.0415039-.3242188-.1259766-.1962891-.1787109-.2099609-.4829102-.03125-.6796875.3330078-.3662109.8125-1.074707.7841797-1.4311523-.0048828-.0561524-.0205078-.0786133-.0498047-.1020508-.1767578-.1416016-.2626953-.1450195-.2705078-.1450195-.1621094.2109375-.4306641.2202148-.6416016.0566406-.2099609-.1635742-.2128906-.4936523-.0498047-.7036133.0996094-.1279297.3046875-.2768555.5791016-.309082.3125-.0371094.6474609.0800781.984375.3491211.2421875.1938477.3837891.4633789.4082031.7792969.0703125.8964844-.8486328 1.9521484-1.0332031 2.1547852-.0947265.1040038-.2246093.1567382-.3554687.1567382z" fill="#40210f"/><path d="m33.1992188 4.8012695-2.9282227.5610352 1.8457031 1.0830078-1.0834961 1.2841797 2.1660157.2402344-.1601563 1.0024414 1.8046875-1.5239258.0800781 1.484375 1.765625-1.4042969-.3613281 1.0834961 1.8056641-.9223633.3203125 1.8847657-.2802735.5219726.7617188.6416016-.4814453.1601562.4414062.4814453.4824219-2.6875 1.0419922.0400391-.4404297-2.6074219.7207031-.4414062-1.203125-1.0429688-.0800781-1.203125h-1.7246094l-2.8486328-1.7250976-.2412109 1.7250976h-3.128418z" fill="#40210f"/><path d="m28.942417 34.141197h.439383v2.784991h-.439383z" fill="#898064" transform="matrix(.9212584 -.3889511 .3889511 .9212584 -11.524597 14.140614)"/><path d="m27.283169 34.827366h3.757881v1.412653h-3.757881z" fill="#081735" transform="matrix(.3883765 .9215008 -.9215008 .3883765 50.580559 -5.139664)"/><path d="m29.8100586 30.5874023 1.9462891-2.1894531.8925781-4.6230469 1.2163086-.8110351.3242187 7.2988281-1.3789062 1.703125z" fill="#081735" opacity=".47"/><path d="m9.9414063 44.5117188s.7290039.1875 1.7836914-.2177734c1.0541992-.40625 16.7875977-8.4355469 16.7875977-8.4355469l-.0385742-.5732422z" fill="#777" opacity=".37"/></svg>