<svg height="64" preserveAspectRatio="none" viewBox="0 0 64 64" width="64" xmlns="http://www.w3.org/2000/svg" xmlns:xlink="http://www.w3.org/1999/xlink"><radialGradient id="a" cx="15.438477" cy="47.580078" gradientTransform="matrix(1.2630692 .0320097 -.007206 .2842778 8.543193 42.644394)" gradientUnits="userSpaceOnUse" r="15.020823"><stop offset="0" stop-color="#1f1f1f"/><stop offset="1" stop-color="#0e0e0e" stop-opacity="0"/></radialGradient><path d="m46.8847656 57.1513672c-.0605469 2.5507813-8.7060547 4.4033203-19.3022461 4.1357422-10.5961914-.2705078-19.1328125-2.5566406-19.0673828-5.1064453.0649414-2.5546875 8.7050781-4.40625 19.3037109-4.1386719 10.5952149.2705078 19.1293946 2.5566406 19.065918 5.109375z" fill="url(#a)"/><path d="m16.6118164 55.5634766 3.6879883-3.5136719 6.2451172 1.0292969 2.1416016-3.8691406-2.9418945-8.3632813 1.2651367-.8515625 4.4643555 11.3886719-3.1972656 1.6992188-.5444336 3.2519531-1.8334961-1.4589844c-.0000001 0-3.0107423.2226562-9.2871095.6875z" fill="#e5b120"/><path d="m27.7324219 56.890625c-.1240234 0-.2460938-.0410156-.3461914-.1210938l-1.6630859-1.3232422-9.0703125.671875c-.2333984.0146484-.4541016-.1142578-.5493164-.3291016s-.0449219-.4658203.125-.6279297l3.6879883-3.5136719c.1264648-.1210938.3037109-.1748047.4736328-.1464844l5.8583984.9658203 1.8310547-3.3076172-2.859375-8.1279297c-.0839844-.2392578.0039063-.5039063.2138672-.6455078l1.2651367-.8515625c.140625-.09375.3168945-.1201172.4760742-.0693359.1611328.0498047.2905273.1699219.3520508.3271484l4.4643555 11.3886719c.1030273.2626953-.0073242.5615234-.2568359.6943359l-2.9550781 1.5703125-.4990234 2.9814453c-.0327148.1943359-.1655273.3564453-.3491211.4267578-.0644533.0253909-.1323244.0371096-.1992189.0371096zm-1.8334961-2.5703125c.1254883 0 .2475586.0419922.3461914.1210938l1.0947266.8710937.3886719-2.3212891c.0288086-.1708984.1347656-.3183594.2875977-.3994141l2.7597655-1.4667968-4.0307617-10.28125-.3334961.2236328 2.7993164 7.9580078c.0527344.1494141.0385742.3144531-.0380859.4541016l-2.1416016 3.8691406c-.1142578.2050781-.3447266.3134766-.5766602.2792969l-5.9716797-.984375-2.362793 2.2509766 7.737793-.5732422c.0136719-.0009766.0273438-.0009766.0410157-.0009766z" fill="#190901"/><path d="m21.0454102 58.4619141 3.6879883-3.5136719 6.2451172 1.0292969 2.140625-3.8691406-2.940918-8.3632813 1.2651367-.8515625 4.4628906 11.3886719-3.1958008 1.6992188-.5444336 3.2519531-1.8330078-1.4589844s-3.0112305.2226562-9.2875976.6875z" fill="#e5b120"/><path d="m32.1660156 59.7890625c-.1240234 0-.2460938-.0410156-.3461914-.1210938l-1.6625977-1.3232422-9.0708008.671875c-.234375.0126953-.4536133-.1142578-.5493164-.3291016-.0952148-.2148438-.0449219-.4658203.125-.6279297l3.6879883-3.5136719c.1264648-.1201172.2998047-.1738281.4736328-.1464844l5.8583984.9658203 1.8305664-3.3076172-2.8588867-8.1279297c-.0839844-.2392578.0039063-.5039063.2138672-.6455078l1.2651367-.8515625c.1411133-.09375.315918-.1201172.4760742-.0693359.1611328.0498047.2905273.1708984.3520508.3271484l4.4628906 11.3886719c.1025391.2626953-.0078125.5615234-.2568359.6943359l-2.9541015 1.5703127-.4985352 2.9814453c-.0327148.1943359-.1655273.3564453-.3491211.4267578-.064453.0253907-.1323241.0371094-.1992187.0371094zm-1.8330078-2.5703125c.1254883 0 .2475586.0419922.3461914.1210938l1.0942383.8710938.3886719-2.3212891c.0288086-.1708984.1347656-.3183594.2875977-.3994141l2.7583008-1.4667969-4.0292969-10.28125-.3334961.2236328 2.7983398 7.9580078c.0527344.1494141.0390625.3144531-.0380859.4541016l-2.140625 3.8691406c-.1142578.2050781-.3466797.3154297-.5766602.2792969l-5.9716797-.984375-2.362793 2.2509766 7.7382813-.5732422c.0136719-.0009766.0273437-.0009766.0410156-.0009766z" fill="#190901"/><path d="m60.6220703 26.6923828c-.3623047-.7539063-1.0224609-1.2597656-1.7685547-1.4677734l.2998047-.25c1.1826172-.9863281 1.3417969-2.7441406.3554688-3.9262695-.546875-.6567383-1.3320313-.9980469-2.125-1.0024414l.2666016-.3574219c.9208984-1.234375.6660156-2.980957-.5683594-3.9008789-.7441406-.5556641-1.6748047-.6762695-2.4980469-.418457l.2080078-.402832c.7089844-1.3662109.1767578-3.0488281-1.1904297-3.7583008-.7890625-.409668-1.6787109-.3935547-2.4296875-.0537109l.1806641-.512207c.5107422-1.4526367-.2519531-3.0439453-1.7050781-3.5551758-1.0068359-.3525391-2.0722656-.0849609-2.8066406.5898438l.0361328-.1860352c.2929688-1.5117188-.6953125-2.9736328-2.2070313-3.2670898-1.1865234-.2285156-2.3320313.3359375-2.9160156 1.315918-.1826172-1.2661133-1.2216797-2.2827148-2.5498047-2.3803711-1.0996094-.0854492-2.0869141.4887695-2.6074219 1.3813477-.5205078-.8925781-1.5097656-1.4667969-2.6054688-1.3813477-1.4628906.1079102-2.5649414 1.3305664-2.5678711 2.7744141-.5932617-1.0146484-1.7832031-1.5874023-2.9902344-1.324707-1.5039062.328613-2.4575195 1.8139646-2.1293945 3.3178708l.0107422.0507813c-.7036133-.4785156-1.6118164-.6381836-2.4780273-.3359375-1.284668.4462891-2.03125 1.737793-1.8408203 3.0351563-.7470703-.3276367-1.6259766-.3369141-2.4052734.0693359-1.3496094.7036133-1.8774414 2.3574219-1.2006836 3.7133789-.5395508-.0224609-1.0913086.1103516-1.5844727.4165039-1.3071289.8125-1.7094727 2.53125-.8969727 3.8388672l8.168457 13.1489258c2.1835938-1.8496094 5.0053711-2.972168 8.0913086-2.972168 6.9179688 0 12.5263672 5.609375 12.5263672 12.5292969 0 .4960938-.0361328.9824219-.0917969 1.4628906l6.7841797 1.546875c.2089844.0488281.4179688.0703125.6230469.0703125 1.2705078 0 2.4199219-.875 2.7148438-2.1679688.1289063-.5644531.0761719-1.1289063-.1201172-1.6308594l1.5185547-.3242188c1.4130859-.3027344 2.359375-1.6367188 2.1806641-3.0703125-.0644531-.5234375-.2695313-.9941406-.5751953-1.3808594l.5439453-.1855469c1.3837891-.4746094 2.1660156-1.9375 1.7900391-3.3520508-.1972656-.7480469-.6835938-1.3476563-1.3105469-1.7070313l.5634766-.2695313c1.3876952-.6679685 1.9736327-2.3325193 1.3066405-3.7202146z" fill="#dbc2a1"/><path d="m52.0097656 44.9658203c-.2490234 0-.4941406-.0283203-.7285156-.0830078l-6.7822266-1.5458984c-.2304688-.0527344-.3857422-.2714844-.3583984-.5068359.0605469-.5146484.0888672-.9755859.0888672-1.4091797 0-6.6523438-5.4111328-12.0649414-12.0615234-12.0649414-2.8452148 0-5.6123047 1.0166016-7.7910156 2.8623047-.1020508.0878906-.2382813.128418-.3725586.1044922-.1333008-.0209961-.2509766-.0991211-.3222656-.2138672l-8.168457-13.1489258c-.9462891-1.5224609-.4770508-3.5317383 1.0463867-4.4785156.3618164-.2246094.7617188-.375 1.1777344-.4448242-.3710938-1.4321289.28125-2.9951172 1.6376953-3.7026367.6591797-.3427734 1.4145508-.4438477 2.1342773-.296875.0927734-1.2709961.9306641-2.4023438 2.1743164-2.8344727.6796875-.2373047 1.4277344-.2358398 2.1005859-.0053711.0664063-1.4575195 1.0854492-2.722168 2.5493164-3.0424805.996582-.2192383 2.0507813.0683594 2.8046875.7202148.4155273-1.1923828 1.5068359-2.0825195 2.8183594-2.1791992.9794922-.0751953 1.9755859.3276367 2.6396484 1.0620117.6650391-.7338867 1.6220703-1.1357422 2.6435547-1.0620117 1.1875.0874023 2.2167969.8325195 2.7050781 1.878418.7412109-.6821289 1.7685547-1.0083008 2.8125-.8066406 1.4853516.2880859 2.5400391 1.550293 2.6289063 2.9941406.7451172-.3413086 1.6240234-.3901367 2.4140625-.1132813 1.5839844.5571289 2.4667969 2.2216797 2.0869141 3.8193359.6679688-.0952148 1.3339844.0195313 1.9277344.328125.7714844.3999023 1.3408203 1.0766602 1.6025391 1.9047852.2177734.6860352.2021484 1.4086914-.0361328 2.074707.6806641-.0244141 1.4033203.2114258 1.9785156.6401367.6962891.5185547 1.1484375 1.277832 1.2734375 2.1376953.109375.7495117-.0410156 1.4970703-.4257813 2.1376953.6425781.1713867 1.2226563.5375977 1.6582031 1.0600586.5556641.6669922.8193359 1.5107422.7412109 2.3759766-.0673828.7431641-.3798828 1.4257813-.8896484 1.9560547.5722656.3232422 1.0361328.8120117 1.3232422 1.4082031.7568359 1.5742188.1259766 3.4643555-1.4042969 4.2792969.4199219.4067383.7226563.9208984.875 1.5.4345703 1.6357422-.4755859 3.3486328-2.0751953 3.9052734.1708984.3349609.2822266.6982422.328125 1.0751953.2099609 1.6855469-.8837891 3.2255859-2.5439453 3.5810547l-1.0292969.2197266c.0957031.4541016.0908203.9248047-.0136719 1.3847656-.3398438 1.4892579-1.6425781 2.5292969-3.1679688 2.5292969zm-6.9033203-2.4433594 6.3837891 1.4550781c.1669922.0390625.3417969.0585938.5195313.0585938 1.0888672 0 2.0195313-.7431641 2.2617188-1.8066406.1044922-.4550781.0693359-.9248047-.0996094-1.3583984-.0498047-.1269531-.0410156-.2695313.0234375-.3896484.0644531-.1191406.1787109-.2050781.3125-.2333984l1.5185547-.3242188c1.1855469-.2539063 1.9667969-1.3544922 1.8164063-2.5585938-.0517578-.4228516-.2177734-.8203125-.4785156-1.1503906-.09375-.1181641-.1240234-.2744141-.0810547-.4189453.0419922-.1455078.1523438-.2597656.2949219-.3085938l.5439453-.1855469c1.1474609-.3935547 1.8027344-1.6210938 1.4912109-2.793457-.1591797-.6054688-.5478516-1.1108398-1.0927734-1.4233398-.1494141-.0854492-.2392578-.2475586-.2324219-.4199219.0058594-.1728516.1074219-.3276367.2636719-.4018555l.5634766-.2695313c1.1542969-.5556641 1.6425781-1.9462891 1.0878906-3.1000977-.2851563-.5947266-.8232422-1.0400391-1.4746094-1.2211914-.1660156-.0463867-.2929688-.1811523-.3291016-.3500977s.0244141-.34375.15625-.4545898l.2998047-.25c.4765625-.3974609.7705078-.956543.8261719-1.574707.0556641-.6176758-.1318359-1.2207031-.5292969-1.6967773-.4394531-.5273438-1.0849609-.8320313-1.7714844-.8359375-.1748047-.0009766-.3349609-.1000977-.4130859-.2573242-.078125-.1567383-.0615234-.3442383.0439453-.4848633l.2666016-.3574219c.3710938-.4975586.5263672-1.109375.4365234-1.7236328-.0898438-.6137695-.4130859-1.15625-.9101563-1.5268555-.5908203-.4414063-1.3740234-.5703125-2.0820313-.3476563-.1806641.0576172-.3730469-.0009766-.4941406-.1445313s-.1435547-.3452148-.0576172-.512207l.2080078-.402832c.2861328-.5512695.3408203-1.1801758.1533203-1.7719727-.1875-.5913086-.59375-1.074707-1.1445313-1.3603516-.6220703-.3227539-1.3740234-.3378906-2.0244141-.0429688-.1699219.0776367-.3681641.0439453-.5058594-.0810547-.1367187-.1259763-.1855468-.3212888-.1240234-.4965818l.1806641-.5126953c.4248047-1.2080078-.2119141-2.5371094-1.4208984-2.9619141-.8017578-.2807617-1.7080078-.0854492-2.3378906.4936523-.1494141.1362305-.3671875.159668-.5410156.0634766-.1748047-.0981445-.2675781-.2973633-.2294922-.4941406l.0361328-.1860352c.2431641-1.2573242-.5820313-2.4785156-1.8398438-2.7226563-.9667969-.1865234-1.9335938.2685547-2.4277344 1.0976563-.1005859.1694336-.3007813.2553711-.4902344.2177734-.1933594-.0385742-.3408203-.1943359-.3691406-.3891602-.1542969-1.0703125-1.0478516-1.9042969-2.1240234-1.9833984-.9072266-.0708008-1.7246094.3842773-2.171875 1.1518555-.1660156.2861328-.6367188.2861328-.8027344 0-.4472656-.7666016-1.2685547-1.2255859-2.1679688-1.1518555-1.1977539.0883789-2.1367188 1.1035156-2.1391602 2.3120117-.0004883.2094727-.1416016.3930664-.34375.4477539-.2026367.0537109-.4165039-.0336914-.5219727-.2143555-.5024413-.8574217-1.5224608-1.3154295-2.4907225-1.1049803-1.2509766.2734375-2.046875 1.5136719-1.7739258 2.7646484.0405273.1860352-.03125.402832-.1884766.5092773-.1572266.1069336-.359375.1313477-.5161133.0249023-.609375-.4150391-1.3769531-.5214844-2.0639648-.2817383-1.050293.3652344-1.6953125 1.4287109-1.5341797 2.5292969.0249023.1669922-.043457.3344727-.1777344.4370117-.1352539.1015625-.3154297.1225586-.4682617.0556641-.6464844-.2827148-1.3886719-.2641602-2.0039063.0561523-1.1132813.5800781-1.5615234 1.9682617-1 3.09375.0737305.1469727.0639648.3222656-.0253906.4599609-.0893555.1381836-.2299805.2109375-.409668.2119141-.0043945 0-.0087891 0-.0126953 0-.5234375 0-.9423828.1206055-1.3071289.3466797-1.0878906.6762695-1.4233398 2.1113281-.7475586 3.1992188l7.8901367 12.7011719c2.277832-1.7734375 5.0888672-2.7441406 7.9750977-2.7441406 7.1630859 0 12.9912109 5.8291016 12.9912109 12.9941406.0000001.3486329-.017578.7119141-.0527343 1.1015625z" fill="#190901"/><path d="m8.4594727 16.5820313s-3.2514648-2.8852539-5.2651367 2.878418c0 0 3.7856445-1.9951172 5.996582 0z" fill="#e5b120"/><path d="m9.190918 20.0161133c-.1342773 0-.2675781-.0483398-.3725586-.1430664-.5463867-.4931641-1.2749023-.7436523-2.1645508-.7436523-1.6118164 0-3.1850586.8149414-3.2006836.8232422-.2021484.1064453-.4487305.0776367-.621582-.0717773-.1728516-.1489258-.2373047-.3881836-.1621094-.6035156 1.1474609-3.2841797 2.7597656-3.9731445 3.9106445-3.9731445 1.2617188 0 2.2084961.8266602 2.2485352.8618164.0830078.0742188.1420898.1713867.1694336.2792969l.7314453 2.878418c.0605469.2373047-.0415039.4863281-.2514648.612793-.0888672.0537107-.1879883.0795896-.2871094.0795896zm-2.6108399-3.600586c-1.050293 0-1.8217773.9438477-2.3613281 2.027832 1.1254883-.3696289 2.8647461-.6054688 4.1030273-.1459961l-.3540039-1.3935547c-.2314453-.1645507-.765625-.4882812-1.3876953-.4882812z" fill="#190901"/><path d="m56.4296875 27.4560547c-.3183594-.6132813-.8994141-1.0244141-1.5576172-1.1933594l.2646484-.203125c1.0410156-.8027344 1.1816406-2.2329102.3134766-3.1953125-.4824219-.5341797-1.1738281-.8115234-1.8720703-.8149414l.234375-.2915039c.8115234-1.0039063.5869141-2.4243164-.5009766-3.1733398-.65625-.4516602-1.4765625-.5498047-2.2011719-.3408203l.1826172-.3271484c.6259766-1.1113281.1552734-2.4799805-1.0488281-3.0581055-.6943359-.3325195-1.4785156-.3198242-2.1396484-.0429688l.1591797-.4169922c.4492188-1.1816406-.2226563-2.4760742-1.5039063-2.8925781-.8876953-.2871094-1.8242188-.0683594-2.4726563.4799805l.0322266-.1513672c.2578125-1.2294922-.6123047-2.4194336-1.9453125-2.6586914-1.0458984-.1850586-2.0546875.2744141-2.5693359 1.0712891-.1601563-1.0302734-1.0751953-1.8569336-2.2470703-1.9365234-.9677734-.0698242-1.8378906.3974609-2.2958984 1.1235352-.4609375-.7260742-1.3310547-1.1933594-2.2958984-1.1235352-1.2890625.0878906-2.2607422 1.0830078-2.2626953 2.2573242-.5234375-.8251953-1.5717773-1.2915039-2.6352539-1.078125-1.3251953.2675781-2.1650391 1.4760742-1.8759766 2.699707l.0087891.0415039c-.6196289-.3896484-1.4199219-.5195313-2.1826172-.2734375-1.1323242.3632813-1.7905273 1.4135742-1.6225586 2.4692383-.6582031-.2661133-1.4331055-.2739258-2.1196289.0566406-1.1889648.5717773-1.6547852 1.9174805-1.0576172 3.0214844-.4750977-.019043-.9614258.0893555-1.3964844.3378906-1.1518555.6611328-1.5063477 2.0595703-.7895508 3.1235352l7.1962891 10.7001953c1.9243164-1.5078125 4.4111328-2.4204102 7.1303711-2.4204102 6.0952148 0 11.0385742 4.5634766 11.0385742 10.1923828 0 .4042969-.0322266.8007813-.0820313 1.1914063l5.9785156 1.2597656c.1835938.0371094.3671875.0566406.5478516.0566406 1.1191406 0 2.1318359-.7128906 2.3925781-1.7636719.1123047-.4609375.0673828-.9199219-.1064453-1.328125l1.3388672-.2636719c1.2451172-.2460938 2.0800781-1.3320313 1.921875-2.4980469-.0576172-.4238281-.2392578-.8085938-.5068359-1.1230469l.4785156-.1523438c1.2197266-.3847656 1.9082031-1.5771484 1.5771484-2.7270508-.1738281-.6074219-.6025391-1.0957031-1.1542969-1.3867188l.4960938-.2207031c1.2236328-.5429686 1.7392578-1.8979491 1.1503906-3.0268553z" fill="#331d14"/><path d="m48.8417969 42.4111328c-.2109375 0-.4257813-.0224609-.6396484-.0664063l-6.4013672-1.3486328.0537109-.4248047c.0527344-.4130859.078125-.7841797.078125-1.1328125 0-5.3642578-4.7431641-9.7280273-10.5737305-9.7280273-2.5029297 0-4.9331055.824707-6.84375 2.3217773l-.3935547.3081055-7.4750977-11.1147461c-.4101563-.609375-.5463867-1.3330078-.3823242-2.0371094.1704102-.7348633.6416016-1.3554688 1.3261719-1.7485352.3017578-.1723633.6313477-.2915039.9736328-.3530273-.109375-.4560547-.0922852-.9331055.0561523-1.3901367.230957-.7124023.7470703-1.2919922 1.4545898-1.6318359.5703125-.2753906 1.2207031-.3608398 1.8457031-.2539063.1166992-1.0356445.8623047-1.9453125 1.9555664-2.2958984.5844727-.1879883 1.2241211-.1928711 1.8051758-.0229492.0341797-.421875.1713867-.8261719.4052734-1.1914063.4135744-.645996 1.1025392-1.1074218 1.8896486-1.2666015.8964844-.1801758 1.7875977.0498047 2.4555664.5625.3950195-.9614258 1.3544922-1.6713867 2.5024414-1.7495117.8569336-.0664063 1.730957.2607422 2.3266602.8510742.5947266-.590332 1.4394531-.9194336 2.3300781-.8510742 1.0400391.0708008 1.9443359.6655273 2.3964844 1.5078125.6601563-.5419922 1.5585938-.7973633 2.4677734-.6367188.7929688.1425781 1.4931641.5893555 1.9238281 1.2270508.2451172.3637695.3925781.7700195.4365234 1.1889648.6523438-.2612305 1.4052734-.2905273 2.0869141-.0703125.7587891.246582 1.3818359.7802734 1.7089844 1.4648438.2480469.5170898.3173828 1.0839844.2041016 1.6313477.5664063-.0546875 1.125.0375977 1.6289063.2792969.7207031.3457031 1.2421875.9350586 1.4707031 1.6606445.1640625.5214844.1591797 1.0654297-.0087891 1.574707.6054688.0097656 1.1806641.1914063 1.6689453.5268555.6425781.4428711 1.0556641 1.09375 1.1630859 1.8334961.0839844.5820313-.0302734 1.1606445-.3242188 1.6669922.5322266.1513672 1.0136719.4438477 1.3808594.8505859.5039063.5581055.7441406 1.2661133.6787109 1.9941406-.0537109.59375-.3046875 1.140625-.7177734 1.5776367.4667969.2680664.8457031.6533203 1.0859375 1.1176758.3339844.6401367.3876953 1.3671875.1513672 2.0454102-.2255859.6445313-.6835938 1.1728516-1.3017578 1.5097656.3271484.3242188.5654297.7211914.6923828 1.1650391.390625 1.3569336-.3886719 2.7700195-1.78125 3.2641602.125.2529297.2080078.5234375.2460938.8037109.1904297 1.3994141-.8164063 2.7246094-2.2919922 3.0166016l-.8378906.165039c.0654297.3544922.0546875.7207031-.0332031 1.0810547-.3095703 1.2480468-1.4785156 2.118164-2.84375 2.118164zm-6.0185547-2.149414 5.5664063 1.1728516c1.0654297.2167969 2.1582031-.4121094 2.3935547-1.3642578.0849609-.3486328.0566406-.7060547-.0830078-1.0341797l-.2246094-.5263672 1.9013672-.375c1.0107422-.1992188 1.6777344-1.0507813 1.5517578-1.9794922-.0439453-.3222656-.1826172-.6279297-.4003906-.8847656l-.453125-.53125 1.1445312-.3642579c.9726563-.3076172 1.53125-1.2539063 1.2714844-2.15625-.1347656-.4682617-.4628906-.8603516-.9248047-1.1040039l-.8466797-.4467773 1.3710938-.609375c.4951172-.2197266.8583984-.6025391 1.0244141-1.0776367.1523438-.4335938.1171875-.8984375-.0976563-1.3100586-.2412109-.465332-.7011719-.8144531-1.2607422-.9580078l-.9248047-.2373047 1.0214844-.784668c.4042969-.3115234.6513672-.7475586.6943359-1.2275391.0429688-.4672852-.1152344-.9243164-.4423828-1.2880859-.3769531-.4174805-.9345703-.6586914-1.5292969-.6616211l-.9638672-.0043945.8378906-1.0424805c.3046875-.3769531.4355469-.8374023.3681641-1.2978516-.0693359-.480957-.3427734-.9077148-.7705078-1.2016602-.5117188-.3525391-1.1933594-.4560547-1.8085938-.2773438l-1.0849609.3129883.7333984-1.3129883c.2294922-.4077148.2792969-.8725586.1416016-1.3105469-.1503906-.4775391-.5009766-.8691406-.9863281-1.1020508-.5400391-.2592773-1.1953125-.2700195-1.7587891-.0332031l-1 .418457.5458984-1.4296875c.1611328-.4262695.1416016-.8891602-.0566406-1.3027344-.2216797-.4628906-.6328125-.8120117-1.1572266-.9824219-.6933594-.2236328-1.4824219-.0688477-2.0292969.3930664l-1.0371094.8769531.3154297-1.4799805c.0917969-.4384766 0-.8911133-.2568359-1.2729492-.2910156-.4306641-.7705078-.7338867-1.3164063-.831543-.8339844-.1489258-1.6738281.2109375-2.0966797.8657227l-.6621094 1.0249023-.1875-1.2055664c-.1298828-.8320313-.8945313-1.4814453-1.8193359-1.5444336-.7910156-.0522461-1.4902344.3027344-1.8720703.9082031l-.3916016.6206055-.3935547-.6196289c-.3837891-.605957-1.1083984-.9648438-1.8696289-.9091797-1.0263672.0698242-1.8300781.8583984-1.8320313 1.7949219l-.0024414 1.5947266-.8544922-1.3466797c-.4287109-.6762695-1.2890625-1.0444336-2.1513672-.871582-.5410156.109375-1.0117188.4213867-1.2905273.8569336-.2485352.3876953-.328125.8422852-.2246094 1.2802734l.2607422 1.1040039-.9516602-.5625c-.5258789-.3310547-1.1938477-.4169922-1.7924805-.2241211-.8916016.2861328-1.440918 1.1074219-1.3061523 1.9541016l.1289063.8115234-.762207-.3081055c-.5600586-.2265625-1.2094727-.2119141-1.7436523.0444336-.4760742.2290039-.8217773.6132813-.9736328 1.081543-.1401367.4326172-.0966797.8945313.1230469 1.300293l.3881836.7182617-.8154297-.0327148c-.0043945 0-.0083008 0-.012207 0-.4560547 0-.8188477.0961914-1.1352539.2768555-.4575195.2626953-.7714844.6723633-.8833008 1.152832-.1044922.4501953-.0161133.9145508.2485352 1.3076172l6.9238281 10.2954102c2.0068359-1.4350586 4.4790039-2.2207031 7.0175781-2.2207031 6.3422852 0 11.503418 4.7802734 11.503418 10.6572266 0 .2626954-.0126953.5351563-.0390625.8232423z" fill="#190901"/><path d="m51.0820313 28.6293945c-.25-.4829102-.7070313-.8061523-1.2255859-.9394531l.2089844-.159668c.8193359-.6318359.9296875-1.7573242.2460938-2.5151367-.3798828-.4204102-.9228516-.6381836-1.4736328-.6411133l.1855469-.2294922c.6376953-.7900391.4609375-1.9082031-.3945313-2.4970703-.5166016-.355957-1.1621094-.4326172-1.7324219-.2685547l.1435547-.2573242c.4931641-.8745117.1220703-1.9521484-.8261719-2.4067383-.5458984-.2617188-1.1630859-.2514648-1.6835938-.0336914l.1259766-.3286133c.3535156-.9296875-.1748047-1.9482422-1.1845703-2.2763672-.6982422-.2255859-1.4345703-.0537109-1.9453125.3779297l.0253906-.1191406c.2021484-.9677734-.4824219-1.9038086-1.5302734-2.0927734-.8232422-.1455078-1.6181641.2163086-2.0234375.84375-.125-.8110352-.8457031-1.4614258-1.7675781-1.5244141-.7617188-.0551758-1.4472656.3129883-1.8066406.8842773-.3632813-.5712891-1.0488281-.9394531-1.8071289-.8842773-1.0146484.0693359-1.7792969.8525391-1.7807617 1.7763672-.4116211-.6494141-1.2368164-1.0161133-2.0737305-.8481445-1.0429688.2104492-1.7041016 1.1616211-1.4765625 2.1245117l.0068359.0327148c-.487793-.3066406-1.1176758-.4086914-1.7177734-.215332-.8911133.2861328-1.4091797 1.112793-1.2768555 1.9433594-.5180664-.2094727-1.1279297-.215332-1.668457.0444336-.9350586.4501953-1.3017578 1.5092773-.8320313 2.3779297-.3740234-.0146484-.7568359.0703125-1.0991211.2661133-.9067383.5205078-1.1855469 1.6206055-.6210938 2.4580078l5.6635742 8.4213867c1.5141602-1.1875 3.4711914-1.9042969 5.6113281-1.9042969 4.7963867 0 8.6870117 3.5913086 8.6870117 8.0209961 0 .3183594-.0253906.6289063-.0644531.9375l4.7050781.9902344c.1445313.0292969.2890625.0449219.4316406.0449219.8808594 0 1.6777344-.5605469 1.8828125-1.3867188.0878906-.3632813.0527344-.7246094-.0839844-1.046875l1.0537109-.2070313c.9794922-.1933594 1.6367188-1.0488281 1.5126953-1.9648438-.0458984-.3339844-.1884766-.6367188-.3984375-.8847656l.3759766-.1191406c.9599609-.3027344 1.5019531-1.2412109 1.2412109-2.1459961-.1367188-.4785156-.4746094-.8623047-.9082031-1.0917969l.3896484-.1738281c.9638673-.4277343 1.3691407-1.493164.9052736-2.3818359z" fill="#331d14"/><path d="m45.1113281 40.3974609c-.1669922 0-.3349609-.0175781-.5039063-.0517578l-5.0380859-1.0605469.0429688-.3339844c.0371094-.2939453.0615234-.5888672.0615234-.8916016 0-4.2216797-3.7333984-7.6552734-8.3217773-7.6552734-1.9711914 0-3.8837891.6484375-5.3857422 1.8261719l-.3095703.2426758-5.8828125-8.7475586c-.3232422-.4794922-.4306641-1.0488281-.3017578-1.6030273.1342773-.578125.5048828-1.0668945 1.0439453-1.3759766.2373047-.1357422.496582-.2294922.7666016-.277832-.0864258-.3588867-.0727539-.734375.0439453-1.09375.1816406-.5610352.5878906-1.0170898 1.144043-1.2851563.4492188-.2167969.9614258-.284668 1.453125-.1992188.0917969-.8149414.6787109-1.5307617 1.5390625-1.8071289.4609375-.1474609.9638672-.1513672 1.4204102-.0180664.0273438-.331543.1352539-.6499023.3193359-.9375.3256836-.5083008.8676758-.871582 1.4873047-.996582.7050781-.1430664 1.4067383.0385742 1.9321289.4418945.3110352-.7563477 1.0664063-1.3149414 1.9697266-1.3764648.6689453-.0571289 1.3613281.2045898 1.8310547.6699219.4677734-.4648438 1.1357422-.7216797 1.8339844-.6699219.8183594.0561523 1.5302734.5239258 1.8857422 1.1865234.5195313-.4267578 1.2265625-.6279297 1.9423828-.5009766.6240234.1123047 1.1748047.4643555 1.5126953.9658203.1933594.2861328.3095703.605957.34375.9360352.5126953-.2045898 1.1054688-.2294922 1.6425781-.0561523.5976563.1943359 1.0878906.6147461 1.3466797 1.1538086.1943359.4067383.2490234.8525391.1601563 1.2836914.4394531-.0458984.8837891.0292969 1.28125.2197266.5664063.2714844.9775391.7358398 1.1582031 1.3071289.1289063.4101563.125.8383789-.0078125 1.2387695.4765625.0078125.9306641.1508789 1.3134766.4150391.5058594.3476563.8300781.8598633.9150391 1.4418945.0664063.4584961-.0234375.9140625-.2548828 1.3129883.4189453.1191406.7978516.3491211 1.0869141.6689453.3964844.4394531.5859375.9970703.5341797 1.5703125-.0419922.4667969-.2392578.8974609-.5644531 1.2412109.3671875.2109375.6650391.5146484.8535156.8798828.2636719.503418.3056641 1.0751953.1191406 1.6088867-.1767578.5073242-.5371094.9233398-1.0244141 1.1884766.2587891.2553711.4462891.5683594.5458984.9174805.3076172 1.0668945-.3056641 2.1791992-1.4023438 2.5678711.0986328.1992188.1640625.4130859.1943359.6328125.1494141 1.1015625-.6435547 2.1445313-1.8037109 2.3730469l-.6601564.1298828c.0507813.2792969.0429688.5673828-.0253906.8515625-.2441406.9824219-1.1640625 1.6660156-2.2382813 1.6660156zm-4.7373047-1.6904296 4.3808594.9228516c.8359375.1669922 1.6982422-.3251953 1.8847656-1.0722656.0664063-.2753907.0439454-.5576173-.0664062-.8164064l-.1757813-.4140625 1.4960938-.2939453c.78125-.1542969 1.3183594-.8388672 1.2207031-1.5576172-.0351563-.2539063-.1435547-.4951172-.3154297-.6972656l-.3544922-.4189453.8994141-.2851563c.765625-.2412109 1.2050781-.9863281 1-1.6962891-.1054688-.3681641-.3632813-.6767578-.7275391-.8696289l-.6640625-.3510742 1.0751953-.4799805c.390625-.1733398.6777344-.4741211.8085938-.8481445.1181641-.3408203.0908203-.706543-.078125-1.0307617-.1894531-.3662109-.5507813-.640625-.9921875-.7543945l-.7294922-.1875.8076172-.6166992c.3173828-.2446289.5117188-.5878906.5449219-.965332.0332031-.3676758-.0908203-.7280273-.3486328-1.0141602-.296875-.328125-.7353516-.5180664-1.2041016-.5205078l-.7607422-.0039063.6640625-.8212891c.2382813-.2954102.3408203-.6582031.2880859-1.0209961-.0546875-.378418-.2705078-.7138672-.6054688-.9448242-.4023438-.2773438-.9414063-.3588867-1.4238281-.2182617l-.8535156.2451172.5761719-1.0322266c.1806641-.3208008.2207031-.6865234.1113281-1.03125-.1181641-.3759766-.3935547-.684082-.7763672-.8676758-.4248047-.203125-.9423828-.2124023-1.3837891-.0258789l-.7890625.3295898.4316406-1.1264648c.1279297-.3349609.1123047-.6987305-.0439453-1.0239258-.1738281-.3647461-.4980469-.6396484-.9121094-.7739258-.5449219-.1772461-1.1660156-.0537109-1.5957031.3095703l-.8164063.6899414.2480469-1.1645508c.0722656-.3447266 0-.7011719-.203125-1.0019531-.2285156-.3388672-.6054688-.5776367-1.0341797-.6547852-.6630859-.1137695-1.3183594.1674805-1.6513672.6821289l-.5224609.8081055-.1464844-.9506836c-.1005859-.6542969-.703125-1.1655273-1.4316406-1.215332l-.125-.0043945c-.5517578 0-1.0673828.2753906-1.3466797.71875l-.3076172.4892578-.3105469-.487793c-.2822266-.4443359-.7998047-.7202148-1.3486328-.7202148l-.1235352.0043945c-.8076172.0551758-1.4404297.675293-1.4414063 1.4121094l-.0019531 1.2563477-.6723633-1.0610352c-.3369141-.53125-1.0097656-.8203125-1.6933594-.6855469-.4257813.0859375-.7963867.3320313-1.015625.6743164-.1953125.3051758-.2583008.6630859-.1767578 1.0078125l.2050781.8686523-.7490234-.4423828c-.4160156-.2617188-.9423828-.3286133-1.4106445-.1767578-.7021484.2250977-1.1342773.8720703-1.027832 1.5375977l.1015625.6391602-.6000977-.2426758c-.4418945-.1782227-.953125-.1674805-1.3730469.0351563-.3740234.1801758-.6459961.4824219-.7651367.8510742-.1103516.3408203-.0761719.7041016.0966797 1.0234375l.3051758.5644531-.6411133-.0253906c-.362793.0292969-.6523438.0742188-.9033203.2182617-.3603516.2070313-.6074219.5292969-.6953125.9072266-.0825195.3540039-.0126953.7197266.1958008 1.0288086l5.4492188 8.1025391c1.5776367-1.1289063 3.5234375-1.746582 5.5224609-1.746582 4.9916992 0 9.0522461 3.7617188 9.0522461 8.3867188.0000002.2060546-.0097654.4199218-.0302733.6474609z" fill="#664434"/><path d="m46.1425781 31.9282227c-.1943359-.375-.5498047-.6269531-.9541016-.7304688l.1630859-.125c.6376953-.4921875.7236328-1.3681641.1914063-1.9580078-.2958984-.3271484-.71875-.496582-1.1474609-.4990234l.1445313-.1787109c.4970703-.6147461.359375-1.4853516-.3066406-1.9438477-.4023438-.2768555-.9052734-.3369141-1.3486328-.2089844l.1113281-.2001953c.3837891-.6811523.0957031-1.5200195-.6425781-1.8735352-.4257813-.2041016-.90625-.1958008-1.3105469-.0263672l.0976563-.2558594c.2753906-.7236328-.1357422-1.5166016-.921875-1.7719727-.5439453-.1757813-1.1171875-.0419922-1.5146484.2939453l.0195313-.0927734c.1572266-.753418-.375-1.4819336-1.1914063-1.6289063-.640625-.1132813-1.2597656.168457-1.5751953.6567383-.0966797-.6313477-.6582031-1.1376953-1.3759766-1.1865234-.5927734-.0429688-1.1269531.2436523-1.40625.6879883-.2817383-.4443359-.8154297-.730957-1.40625-.6879883-.7900391.0537109-1.3852539.6635742-1.3867188 1.3828125-.3203125-.5058594-.9624023-.7910156-1.6142578-.6606445-.8120117.1640625-1.3266602.9042969-1.1494141 1.6542969l.0053711.0253906c-.3798828-.2387695-.8701172-.3183594-1.3374023-.1679688-.6933594.2231445-1.0966797.8666992-.9936523 1.5131836-.4033203-.1630859-.878418-.1679688-1.2988281.034668-.7280273.3500977-1.0136719 1.1748047-.6479492 1.8510742-.2910156-.0117188-.5893555.0546875-.8554688.2070313-.7060547.4052734-.9228516 1.2617188-.4833984 1.9135742l4.4086914 6.5566406c1.1787109-.9257813 2.7021484-1.4833984 4.3681641-1.4833984 3.7338867 0 6.762207 2.7958984 6.762207 6.2451172 0 .2460938-.0195313.4902344-.0498047.7285156l3.6630859.7714844c.1123047.0234375.2246094.0351563.3359375.0351563.6855469 0 1.3056641-.4355469 1.4658203-1.0800781.0683594-.28125.0410156-.5644531-.0654297-.8144531l.8203125-.1621094c.7617188-.1484375 1.2734375-.8144531 1.1777344-1.5292969-.0361328-.2597656-.1474609-.4960938-.3105469-.6875l.2929688-.09375c.7470703-.2363281 1.1689453-.9648438.9658203-1.6699219-.1064453-.3730469-.3691406-.671875-.7070313-.8496094l.3037109-.1367188c.75-.3320312 1.0654297-1.1625976.7041015-1.8540038z" fill="#331d14"/><path d="m41.4951172 41.0898438c-.1308594 0-.2636719-.0136719-.3945313-.0410156l-3.9199219-.8251953.0332031-.2607422c.0283203-.2265625.0478516-.4580078.0478516-.6923828 0-3.2861328-2.90625-5.9609375-6.4780273-5.9609375-1.5356445 0-3.0244141.5058594-4.1923828 1.4228516l-.2412109.1894531-4.5795898-6.8110352c-.2514648-.3730469-.3349609-.8164063-.2348633-1.2480469.1044922-.449707.3930664-.8300781.8129883-1.0712891.1845703-.1054688.3862305-.1782227.5961914-.2158203-.0668945-.2797852-.0561523-.5717773.034668-.8520508.1411133-.4365234.4575195-.7915039.890625-.9995117.3496094-.1679688.7470703-.2216797 1.1313477-.1552734.0712891-.6342773.527832-1.1918945 1.1972656-1.4072266.3583984-.1147461.7495117-.1176758 1.1064453-.0136719.0209961-.2583008.1049805-.5063477.2480469-.7299805.253418-.3955078.6757813-.6787109 1.1582031-.7758789.5488281-.1103516 1.0947266.0307617 1.5043945.3442383.2421875-.5888672.8300781-1.0239258 1.5332031-1.0717773.5307617-.0341797 1.0605469.159668 1.4248047.5209961.3642578-.3613281.8935547-.5605469 1.4277344-.5205078.6376953.0429688 1.1914063.4072266 1.4677734.9233398.4042969-.3320313.9521484-.4907227 1.5126953-.3901367.4853516.0874023.9140625.3613281 1.1777344.7514648.1503906.2226563.2402343.472168.2675781.7290039.3994141-.1601563.8603516-.1791992 1.2792969-.043457.4648438.1513672.8466797.4785156 1.0478516.8979492.1513672.3168945.1933594.6640625.1240234.9995117.3525391-.0351563.6904297.0234375.9980469.1708984.4404297.2114258.7607422.5722656.9003906 1.0166016.1015625.3193359.0976563.6533203-.0048828.965332.3710938.0058594.7236328.1176758 1.0224609.3232422.3935547.2709961.6464844.6699219.7128906 1.1230469.0517578.3564453-.0185547.7114258-.1992188 1.0214844.3261719.0927734.6210938.2714844.8457031.5205078.3085938.3422852.4570313.7758789.4169922 1.2216797-.0332031.3642578-.1875.699707-.4404297.9672852.2851563.1640625.5175781.4003906.6650391.6845703.2050781.3920898.2382813.8378906.0927734 1.253418-.1386719.3945313-.4189453.71875-.7978516.9248047.2011719.1982422.3476563.4423828.4248047.7148438.2392578.8300781-.2382813 1.6953125-1.0908203 1.9980469.0761719.1552734.1269531.3203125.1513672.4921875.1152344.8603516-.5019531 1.671875-1.4052734 1.8476563l-.5136719.1015625c.0410156.2177734.0341797.4423828-.0195313.6630859-.189453.7646483-.9062499 1.2968749-1.7421874 1.2968749zm-3.6884766-1.3164063 3.4111328.71875c.65625.1328125 1.3222656-.2539063 1.4667969-.8349609.0517578-.2138672.0341797-.4335938-.0507813-.6347656l-.1376953-.3222656 1.1640625-.2304688c.609375-.1181641 1.0263672-.6513672.9511719-1.2119141-.0273438-.1972656-.1123047-.3847656-.2451172-.5410156l-.2773438-.3251953.7001953-.2246094c.5966797-.1884766.9384766-.7675781.7792969-1.3193359-.0820313-.2880859-.2832031-.5283203-.5664063-.6767578l-.5166016-.2714844.8359375-.3769531c.3046875-.1347656.5273438-.3681641.6289063-.6591797.09375-.265625.0722656-.5512695-.0595703-.8032227-.1484375-.2851563-.4296875-.4985352-.7724609-.5864258l-.5673828-.1455078.6279297-.4814453c.2470703-.190918.3984375-.4580078.4248047-.7519531.0253906-.2861328-.0712891-.5664063-.2714844-.7890625-.2314453-.2553711-.5732422-.4033203-.9384766-.4052734l-.5917969-.003418.5166016-.6391602c.1865234-.2299805.2666016-.5117188.2255859-.7944336-.0429688-.2944336-.2109375-.5556641-.4716797-.7358398-.3144531-.2163086-.7324219-.277832-1.1083984-.1699219l-.6630859.1914063.4462891-.8032227c.1416016-.2504883.171875-.5361328.0869141-.8046875-.0917969-.2924805-.3066406-.5317383-.6035156-.6738281-.3300781-.1586914-.7333984-.1660156-1.0771484-.0205078l-.6132813.2568359.3349609-.8769531c.0986328-.2607422.0869141-.5444336-.0341797-.7973633-.1357422-.2836914-.3876953-.4975586-.7099609-.6025391-.4267578-.1362305-.9082031-.0415039-1.2431641.2407227l-.6328125.5351563.1904297-.9038086c.0556641-.2695313 0-.546875-.1582031-.7807617-.1777344-.2636719-.4707031-.4492188-.8056641-.5092773-.5068359-.0893555-1.0263672.1298828-1.2851563.5307617l-.4072266.6298828-.1132813-.7412109c-.078125-.5092773-.546875-.9067383-1.1142578-.9453125l-.0976563-.0039063c-.4296875 0-.8310547.2143555-1.0478516.559082l-.2402344.3813477-.2407227-.3798828c-.2197266-.3457031-.621582-.5605469-1.0498047-.5605469l-.0961914.003418c-.6289063.0429688-1.121582.5258789-1.1225586 1.0996094l-.0019531.9780273-.5234375-.8261719c-.2617188-.4140625-.7875977-.6411133-1.3178711-.5336914-.331543.0668945-.6196289.2583008-.7905273.5249023-.1523438.237793-.2011719.5161133-.1376953.784668l.1601563.6762695-.5830078-.3442383c-.3237305-.2036133-.7324219-.2568359-1.0986328-.1381836-.5463867.1757813-.8823242.6791992-.7998047 1.1972656l.0791016.4975586-.4672852-.1889648c-.34375-.1401367-.7421875-.1303711-1.0683594.0273438-.2915039.1401367-.503418.3754883-.5961914.6625977-.0859375.2651367-.0595703.5483398.0751953.796875l.237793.4399414-.4995117-.0205078c-.0029297 0-.0053711 0-.0078125 0-.2797852 0-.5014648.059082-.6948242.1699219-.2807617.1611328-.4731445.4121094-.5415039.7060547-.0639648.2758789-.0097656.5605469.1523438.8012695l4.2416992 6.3085938c1.2275391-.8789063 2.7421875-1.3603516 4.2993164-1.3603516 3.8852539 0 7.0463867 2.9287109 7.0463867 6.5292969.0000001.1611326-.0068358.3271483-.0234374.5029295z" fill="#664434"/><path d="m52.0097656 44.9658203c-.2490234 0-.4941406-.0283203-.7285156-.0830078l-6.7822266-1.5458984c-.2304688-.0527344-.3857422-.2714844-.3583984-.5068359.0605469-.5146484.0888672-.9755859.0888672-1.4091797 0-6.6523438-5.4111328-12.0649414-12.0615234-12.0649414-2.8452148 0-5.6123047 1.0166016-7.7910156 2.8623047-.1020508.0878906-.2382813.128418-.3725586.1044922-.1333008-.0209961-.2509766-.0991211-.3222656-.2138672l-8.168457-13.1489258c-.9462891-1.5224609-.4770508-3.5317383 1.0463867-4.4785156.3618164-.2246094.7617188-.375 1.1777344-.4448242-.3710938-1.4321289.28125-2.9951172 1.6376953-3.7026367.6591797-.3427734 1.4145508-.4438477 2.1342773-.296875.0927734-1.2709961.9306641-2.4023438 2.1743164-2.8344727.6796875-.2373047 1.4277344-.2358398 2.1005859-.0053711.0664063-1.4575195 1.0854492-2.722168 2.5493164-3.0424805.996582-.2192383 2.0507813.0683594 2.8046875.7202148.4155273-1.1923828 1.5068359-2.0825195 2.8183594-2.1791992.9794922-.0751953 1.9755859.3276367 2.6396484 1.0620117.6650391-.7338867 1.6220703-1.1357422 2.6435547-1.0620117 1.1875.0874023 2.2167969.8325195 2.7050781 1.878418.7412109-.6821289 1.7685547-1.0083008 2.8125-.8066406 1.4853516.2880859 2.5400391 1.550293 2.6289063 2.9941406.7451172-.3413086 1.6240234-.3901367 2.4140625-.1132813 1.5839844.5571289 2.4667969 2.2216797 2.0869141 3.8193359.6679688-.0952148 1.3339844.0195313 1.9277344.328125.7714844.3999023 1.3408203 1.0766602 1.6025391 1.9047852.2177734.6860352.2021484 1.4086914-.0361328 2.074707.6806641-.0244141 1.4033203.2114258 1.9785156.6401367.6962891.5185547 1.1484375 1.277832 1.2734375 2.1376953.109375.7495117-.0410156 1.4970703-.4257813 2.1376953.6425781.1713867 1.2226563.5375977 1.6582031 1.0600586.5556641.6669922.8193359 1.5107422.7412109 2.3759766-.0673828.7431641-.3798828 1.4257813-.8896484 1.9560547.5722656.3232422 1.0361328.8120117 1.3232422 1.4082031.7568359 1.5742188.1259766 3.4643555-1.4042969 4.2792969.4199219.4067383.7226563.9208984.875 1.5.4345703 1.6357422-.4755859 3.3486328-2.0751953 3.9052734.1708984.3349609.2822266.6982422.328125 1.0751953.2099609 1.6855469-.8837891 3.2255859-2.5439453 3.5810547l-1.0292969.2197266c.0957031.4541016.0908203.9248047-.0136719 1.3847656-.3398438 1.4892579-1.6425781 2.5292969-3.1679688 2.5292969zm-6.9033203-2.4433594 6.3837891 1.4550781c.1669922.0390625.3417969.0585938.5195313.0585938 1.0888672 0 2.0195313-.7431641 2.2617188-1.8066406.1044922-.4550781.0693359-.9248047-.0996094-1.3583984-.0498047-.1269531-.0410156-.2695313.0234375-.3896484.0644531-.1191406.1787109-.2050781.3125-.2333984l1.5185547-.3242188c1.1855469-.2539063 1.9667969-1.3544922 1.8164063-2.5585938-.0517578-.4228516-.2177734-.8203125-.4785156-1.1503906-.09375-.1181641-.1240234-.2744141-.0810547-.4189453.0419922-.1455078.1523438-.2597656.2949219-.3085938l.5439453-.1855469c1.1474609-.3935547 1.8027344-1.6210938 1.4912109-2.793457-.1591797-.6054688-.5478516-1.1108398-1.0927734-1.4233398-.1494141-.0854492-.2392578-.2475586-.2324219-.4199219.0058594-.1728516.1074219-.3276367.2636719-.4018555l.5634766-.2695313c1.1542969-.5556641 1.6425781-1.9462891 1.0878906-3.1000977-.2851563-.5947266-.8232422-1.0400391-1.4746094-1.2211914-.1660156-.0463867-.2929688-.1811523-.3291016-.3500977s.0244141-.34375.15625-.4545898l.2998047-.25c.4765625-.3974609.7705078-.956543.8261719-1.574707.0556641-.6176758-.1318359-1.2207031-.5292969-1.6967773-.4394531-.5273438-1.0849609-.8320313-1.7714844-.8359375-.1748047-.0009766-.3349609-.1000977-.4130859-.2573242-.078125-.1567383-.0615234-.3442383.0439453-.4848633l.2666016-.3574219c.3710938-.4975586.5263672-1.109375.4365234-1.7236328-.0898438-.6137695-.4130859-1.15625-.9101563-1.5268555-.5908203-.4414063-1.3740234-.5703125-2.0820313-.3476563-.1806641.0576172-.3730469-.0009766-.4941406-.1445313s-.1435547-.3452148-.0576172-.512207l.2080078-.402832c.2861328-.5512695.3408203-1.1801758.1533203-1.7719727-.1875-.5913086-.59375-1.074707-1.1445313-1.3603516-.6220703-.3227539-1.3740234-.3378906-2.0244141-.0429688-.1699219.0776367-.3681641.0439453-.5058594-.0810547-.1367187-.1259763-.1855468-.3212888-.1240234-.4965818l.1806641-.5126953c.4248047-1.2080078-.2119141-2.5371094-1.4208984-2.9619141-.8017578-.2807617-1.7080078-.0854492-2.3378906.4936523-.1494141.1362305-.3671875.159668-.5410156.0634766-.1748047-.0981445-.2675781-.2973633-.2294922-.4941406l.0361328-.1860352c.2431641-1.2573242-.5820313-2.4785156-1.8398438-2.7226563-.9667969-.1865234-1.9335938.2685547-2.4277344 1.0976563-.1005859.1694336-.3007813.2553711-.4902344.2177734-.1933594-.0385742-.3408203-.1943359-.3691406-.3891602-.1542969-1.0703125-1.0478516-1.9042969-2.1240234-1.9833984-.9072266-.0708008-1.7246094.3842773-2.171875 1.1518555-.1660156.2861328-.6367188.2861328-.8027344 0-.4472656-.7666016-1.2685547-1.2255859-2.1679688-1.1518555-1.1977539.0883789-2.1367188 1.1035156-2.1391602 2.3120117-.0004883.2094727-.1416016.3930664-.34375.4477539-.2026367.0537109-.4165039-.0336914-.5219727-.2143555-.5024413-.8574217-1.5224608-1.3154295-2.4907225-1.1049803-1.2509766.2734375-2.046875 1.5136719-1.7739258 2.7646484.0405273.1860352-.03125.402832-.1884766.5092773-.1572266.1069336-.359375.1313477-.5161133.0249023-.609375-.4150391-1.3769531-.5214844-2.0639648-.2817383-1.050293.3652344-1.6953125 1.4287109-1.5341797 2.5292969.0249023.1669922-.043457.3344727-.1777344.4370117-.1352539.1015625-.3154297.1225586-.4682617.0556641-.6464844-.2827148-1.3886719-.2641602-2.0039063.0561523-1.1132813.5800781-1.5615234 1.9682617-1 3.09375.0737305.1469727.0639648.3222656-.0253906.4599609-.0893555.1381836-.2299805.2109375-.409668.2119141-.0043945 0-.0087891 0-.0126953 0-.5234375 0-.9423828.1206055-1.3071289.3466797-1.0878906.6762695-1.4233398 2.1113281-.7475586 3.1992188l7.8901367 12.7011719c2.277832-1.7734375 5.0888672-2.7441406 7.9750977-2.7441406 7.1630859 0 12.9912109 5.8291016 12.9912109 12.9941406.0000001.3486329-.017578.7119141-.0527343 1.1015625z" fill="#190901"/><path d="m8.9243164 32.9321289s-4.2094727 6.9672852 1.0703125 11.9243164c0 0 7.1367188 7.7421875 22.3139648 6.96875 15.1767578-.7734375 16.1054688-17.6542969 7.1230469-23.5390625-8.9814453-5.8847656-17.6533203-5.5756836-23.5385742-1.2387695 0 0-6.0395508.0004883-6.96875 5.8847656z" fill="#331d14"/><g fill="#190901"><path d="m30.1987305 52.34375c-.0004883 0-.0009766 0-.0019531 0-13.7724609 0-20.2739258-6.8798828-20.5439453-7.1728516-5.150879-4.8339843-1.6337891-11.5732421-1.1738282-12.3959961.9326172-5.5717773 6.2583008-6.1308594 7.2543945-6.1860352 2.918457-2.1123047 6.4482422-3.2280273 10.2182617-3.2280273 4.4560547 0 9.2045898 1.5688477 13.7348633 4.5366211 4.7080078 3.0849609 7.0185547 9.4091797 5.4941406 15.0390625-1.5185547 5.6044922-6.2021484 9.0136719-12.8486328 9.3525391-.7299804.0371094-1.4399414.0546875-2.1333007.0546875zm-4.2470703-28.0537109c-3.6201172 0-7.003418 1.0830078-9.7832031 3.1313477l-.1220703.090332-.1523438.0004882c-.230957.0004883-5.65625.0800781-6.5107422 5.4916992l-.0610352.1679688c-.1635742.2714844-3.9482422 6.7089844.9902344 11.3457031.0869141.0917969 6.5439453 6.8964844 19.8847656 6.8974609h.0009766c.6782227 0 1.3725586-.0175781 2.0869141-.0537109 6.21875-.3173828 10.5917969-3.4765625 11.9990234-8.6679688 1.421875-5.2519531-.7255859-11.1474609-5.1074219-14.0185547-4.3779297-2.8686523-8.9506836-4.3847655-13.2250976-4.3847655z"/><path d="m13.3647461 46.8505859c-1.2739258 0-2.4941406-.6181641-2.5664063-.6552734l.425293-.8261719c.5683594.2910156 2.25.9072266 3.199707.2783203.6533203-.4335938.9272461-1.4179688.8149414-2.9248047l-.0205078-.2773438.2358398-.1494141c.1137695-.0742188 2.8232422-1.9199219-.125-6.8271484l-.2587891-.4306641.4506836-.2246094c.0234375-.0117188 2.3583984-1.1943359 3.0249023-3.2783203.3364258-1.0517578.1918945-2.175293-.4296875-3.3398438l.8203125-.4375c.7446289 1.3964844.9106445 2.7646484.4926758 4.0664063-.6054688 1.8837891-2.2685547 3.0917969-3.0644531 3.578125 2.5454102 4.5625.5361328 6.8701172-.184082 7.4980469.0864258 1.734375-.3325195 2.9179688-1.2451172 3.5224609-.4770507.3154299-1.0283202.4277345-1.5703124.4277345z"/><path d="m17.6235352 49.8203125-.6147461-.6972656c.0229492-.0195313 2.2856445-2.0576172 1.1264648-3.8613281l-.5615234-.8720703 1.0253906.1621094c.0288086.0058594 2.7851563.4238281 3.809082-.9453125.6484375-.8671875.484375-2.3935547-.4755859-4.4140625l.8388672-.3984375c1.1342773 2.3867188 1.2617188 4.1943359.3789063 5.3710938-.9511719 1.2685547-2.8007813 1.40625-3.8730469 1.3759766.5151367 1.7490233-.7802735 3.5097655-1.6538086 4.2792967z"/><path d="m21.8095703 51.3466797-.2104492-.9052734c.2543945-.0605469.9482422-.3251953 1.1064453-.8173828.1674805-.5214844-.2905273-1.1992188-.7041016-1.6757813l-.9868164-1.1357422 1.4555664.3818359c.027832.0068359 2.7626953.7070313 4.0893555-.4609375.6123047-.5400391.8408203-1.4384766.6796875-2.6699219l.9208984-.1210938c.2045898 1.5595703-.128418 2.7333984-.9882813 3.4892578-1.0751953.9443359-2.7109375.9736328-3.8027344.8574219.3061523.5869141.3798828 1.1308594.2192383 1.625-.3554686 1.0927735-1.7211913 1.4189454-1.7788085 1.4326173z"/><path d="m26.3745117 52.125-.230957-.9003906c.2666016-.0693359.6572266-.2724609.6870117-.4443359.0053711-.0322266.0297852-.3310547-.8344727-.9257813l-3.6166992-2.4912109 4.0581055 1.6787109c1.159668.4814453 3.0297852.9140625 3.5605469.3837891.2695313-.2695313.215332-.9082031-.152832-1.7998047l.8588867-.3554688c.5361328 1.2988281.5195313 2.2451172-.0498047 2.8134766-.6679688.6650391-1.9077148.5771484-2.940918.3398438.0522461.1738281.0625.3476563.0317383.5205078-.1508789.8457031-1.2460938 1.1484374-1.3706055 1.180664z"/></g><path d="m18.5258789 36.4931641c-3.4072266-6.3481445.6191406-14.4013672 9.1367188-15.3305664 8.5170898-.9291992 15.315918 10.7070313 15.315918 10.7070313s8.2236328 16.3950195-11.4438477 17.4790039c0-.0000001-9.5444336-3.482422-13.0087891-12.8554688z" fill="#331d14"/><path d="m31.4648438 49.8173828-.0893555-.0322266c-.3979492-.1455078-9.7866211-3.6650391-13.2851563-13.1308594-1.6567383-3.0771484-1.6723633-6.6782227-.0170898-9.8217773 1.8081055-3.4326172 5.2851563-5.6674805 9.5390625-6.1318359 8.6972656-.956543 15.4941406 10.4672852 15.7675781 10.9345703.1611328.3188477 3.5722656 7.2514648.4970703 12.5561523-1.9638672 3.3876953-6.1083984 5.2792969-12.3168945 5.6210938zm-2.8291016-28.243164c-.3051758 0-.612793.0166016-.9228516.050293-3.9418945.4301758-7.1557617 2.4858398-8.8173828 5.6411133-1.5092773 2.8657227-1.4946289 6.1484375.0395508 9.0078125 3.2036133 8.6542969 11.7231445 12.2304688 12.6733398 12.6054688 5.8183594-.3378906 9.6748047-2.0703125 11.4628906-5.1503906 2.8251953-4.8671875-.4746094-11.5834961-.5078125-11.6508789-.0478515-.0786135-6.2343749-10.5034181-13.9277343-10.5034181z" fill="#190901"/><path d="m14.1894531 18.0649414c-2.3232422-6.6586914-9.4477539-2.3227539-6.5043945 1.2392578 2.0805664 2.5185547 2.3095703 3.871582 2.3095703 3.871582l-.9160156 4.9555664c-4.6191406 6.869629-6.5039063 12.5708008-.8071289 15.6020508 3.449707 1.8359375 3.3574219-6.1542969 1.6977539-9.8710938 1.1611328-9.2929687 6.4345703-9.4487304 4.2202148-15.7973632z" fill="#c12b2b"/><path d="m7.6850586 19.3041992s.4262695-3.0976563 3.2329102-4.0268555 4.2207031 5.578125-.8999023 4.1831055l-.8271485 1.9394531z" fill="#99b9dd"/><path d="m9.2080078 44.4677734s0 0-.0004883 0c-.3613281 0-.75-.109375-1.1542969-.3242188-1.9448242-1.0351563-3.1518555-2.4423828-3.5869141-4.1845703-.7177734-2.8701172.6088867-6.6875 4.1728516-12.0068359l.8808594-4.7646484c-.0800781-.2910156-.4970703-1.5341797-2.1933594-3.5874023-.8496094-1.0283203-1.0385742-2.2519531-.5185547-3.3564453.5961914-1.2661133 1.9897461-2.1171875 3.4667969-2.1171875.9121094 0 3.1611328.3691406 4.3530273 3.7856445 1.2641602 3.6240234.1923828 5.4023438-1.1650391 7.6542969-1.1064453 1.8354492-2.480957 4.1157227-3.0166016 8.2275391 1.2006836 2.8066406 1.581543 7.7939453.3085938 9.7558594-.4921874.758789-1.1127929.9179686-1.5468749.9179686zm1.0668945-29.4121093c-1.1069336 0-2.1870117.6513672-2.6264648 1.5839844-.3657227.7768555-.2255859 1.6181641.3945313 2.3686523 2.1352539 2.5844727 2.3994141 4.0297852 2.409668 4.0898438.0092773.0537109.0087891.1083984-.0009766.1621094l-.9160156 4.9555664c-.0117188.0625-.0361328.1220703-.0712891.1748047-3.4477539 5.1269531-4.7495117 8.7314453-4.0966797 11.3427734.3740234 1.4970703 1.3955078 2.6708984 3.1220703 3.5898438.2685547.142578.5102539.2158202.7182617.2158202h.0004883c.1914063 0 .4790039-.0517578.7670898-.4951172 1.012207-1.5595703.7866211-6.265625-.4306641-8.9921875-.034668-.0771484-.0473633-.1630859-.0366211-.2470703.5483398-4.387207 1.9956055-6.7885742 3.1586914-8.7182617 1.3271484-2.2016602 2.2041016-3.65625 1.0839844-6.8686523-.7011718-2.0092774-1.9682617-3.1621094-3.4760742-3.1621094z" fill="#190901"/><path d="m26.2597656 46.3837891s7.1318359 8.5390625 14.1015625 9.0039063c0 0 2.1669922.1542969 2.7871094-1.2382813 0 0 2.7890625.8828125 3.4072266-2.2695313 0 0 3.0986328-.3632813 2.7880859-3.4609375 0 0 1.7470703-1.0839844.0214844-3.8710938 0 0 .5966797-2.0136719-1.2617188-3.5625 0 0 1.59375-1.3945313-2.9199219-4.4921875 0 0 1.8359375-1.859375-1.2607422-4.1811523l-3.1347656-3.5664063s2.0507813 2.7841797 2.0507813 9.1069336c0 8.5527344-12.5527344 10.8535157-16.5791016 8.5312501z" fill="#dbc2a1"/><path d="m40.5527344 55.8574219c-.140625 0-.2246094-.0058594-.2246094-.0058594-7.0839844-.4726563-14.128418-8.8154297-14.4248047-9.1699219-.1445313-.1728516-.144043-.4248047.0009766-.5966797.1455078-.1738281.3935547-.2158203.5874023-.1035156.8818359.5087891 2.2553711.7880859 3.8686523.7880859 4.9882813 0 12.0136719-2.7666016 12.0136719-8.9169922 0-6.0996094-1.9404297-8.8046875-1.9599609-8.831543-.1474609-.2001953-.1113281-.480957.0830078-.637207.1923828-.1552734.4765625-.1323242.6396484.0551758l3.1347656 3.5664063c1.1679688.862793 1.8339844 1.8530273 1.9101563 2.8774414.0478516.6445313-.1542969 1.1611328-.3486328 1.4990234 1.9296875 1.3896484 2.9404297 2.6513672 3.0048828 3.7548828.0185547.3212891-.0458984.5771484-.1308594.7695313 1.4003906 1.3828125 1.2597656 2.9902344 1.1523438 3.5615234 1.3916016 2.3730469.4482422 3.6884766-.0351563 4.1523438.1181641 2.3945313-1.6660156 3.4023438-2.8837891 3.6660156-.5458984 2.1152344-2.0615234 2.4414063-2.9433594 2.4414063-.2373047 0-.4472656-.0224609-.6123047-.0498047-.7187499 1.0566406-2.1904296 1.1796875-2.8320311 1.1796875zm-12.6796875-8.4023438c2.3242188 2.3984375 7.5136719 7.1347656 12.5195313 7.46875.0078125.0009766.0664063.0039063.1601563.0039063.4082031 0 1.7714844-.0693359 2.1708984-.9677734.0957031-.2148438.3369141-.3203125.5634766-.2539063.0029297.0009766.3056641.0927734.7099609.0927734 1.1337891 0 1.8417969-.6757813 2.1025391-2.0087891.0390624-.196289.2011718-.3466796.4003905-.3710937.2705078-.0341797 2.6376953-.4013672 2.3818359-2.9541016-.0175781-.1757813.0664063-.3476563.2167969-.4404297.0498047-.0332031 1.3134766-.9033203-.1289063-3.2324219-.0693359-.1123047-.0878906-.2490234-.0498047-.3759766.0195313-.0683594.4746094-1.75-1.1142578-3.0742188-.1044922-.0869141-.1650391-.2148438-.1669922-.3505859-.0009766-.1357422.0566406-.265625.1591797-.3554688-.0019531 0 .1416016-.1552734.109375-.484375-.0478516-.4912109-.5-1.5683594-2.9863281-3.2753906-.1132813-.0771484-.1865234-.2021484-.2001953-.3388672-.0126953-.1367188.0351563-.2724609.1318359-.3701172.0166016-.0175781.4619141-.4941406.4013672-1.2304688-.0615234-.7304688-.6171875-1.5087891-1.609375-2.2529297l-1.2167969-1.378418c.4628906 1.5185547.8759766 3.6772461.8759766 6.5473633 0 6.7919922-7.5693359 9.8466797-12.9433594 9.8466797-.9023437.0000003-1.7441406-.0839841-2.4873046-.2441404z" fill="#190901"/><circle cx="11.010986" cy="17.317871" fill="#211005" r=".900147"/><path d="m23.7910156 42.0693359s3.4467773 6.3085938 4.2788086 6.2519531 11.7260742 6.9941406 12.1137695 1.0273438c0 0 4.9511719.6191406 4.5-4.0273438 0 0 1.9492188-.6347656.5-3.7167969l-1.4667969-3.7519531s.7089844-1.390625-.4130859-4.4550781c-1.1210938-3.065918-4.3378906-6.8144531-6.8144531-7.1245117-2.477539-.3095703-19.0478515 1.2382813-12.6982422 15.7963867z" fill="#331d14"/><path d="m30.3652344 49.3486328s5.6835938 1.8847656 6.5078125-1.1835938c0 0 5.703125-1.375 4.4023438-5.2714844 0 0 2.1767578-1.7421875.9755859-5.0410156 0 0 1.2763672-5.2797852.3613281-7.3520508" fill="#331d14"/><path d="m33.7714844 50.2861328c-1.7109375 0-3.4179688-.5556641-3.5214844-.5908203l.2299805-.6933594c.0341797.0107422 3.4223633 1.1142578 5.1586914.1806641.4580078-.2470703.7470703-.6113281.8808594-1.1123047l.0566406-.2099609.2109375-.0507813c.0292969-.0068359 2.9882813-.7431641 3.9902344-2.5517578.3779297-.6845703.4277344-1.4199219.1513672-2.2480469l-.0800781-.2402344.1972656-.1601563c.0800781-.0654297 1.953125-1.6347656.8613281-4.6318359l-.0371094-.1035156.0253906-.1074219c.0126953-.0517578 1.2373047-5.1831055.3818359-7.1186523l.6699219-.2949219c.890625 2.0175781-.1328125 6.6899414-.3154297 7.4790039.9863281 2.8427734-.4130859 4.6269531-.9414063 5.1699219.2597656.9355469.1679688 1.8134766-.2744141 2.6113281-1.0039063 1.8125-3.5146484 2.6425781-4.2539063 2.8525391-.2099609.5957031-.6054688 1.0527344-1.1777344 1.3613281-.6347654.3408204-1.4238279.4589844-2.2128904.4589844z" fill="#664434"/><path d="m20.1811523 40.1884766s8.0957031 7.4609375 8.6459961 2.5175781c0 0 5.4072266 1.3457031 4.4550781-3.4492188 0 0 4.4638672 0 2.8652344-4.7949219 0 0 4.4736328-.6015625 2.3964844-4.1977539 0 0 2.2783203-.7890625-.9375-4.9643555" fill="#331d14"/><path d="m27.2685547 44.7607422c-2.5844727 0-6.8178711-3.8271484-7.3349609-4.3037109l.4951172-.5371094c1.4526367 1.3378906 5.59375 4.6767578 7.2954102 4.0371094.418457-.15625.6601563-.5791016.7397461-1.2910156l.0458984-.4150391.4052734.1005859c.0249023.0068359 2.4370117.5859375 3.5473633-.4746094.5395508-.515625.6948242-1.3730469.4619141-2.5488281l-.0864258-.4355469.4433594-.0009766c.0166016 0 1.6503906-.0195313 2.4267578-1.1005859.5273438-.734375.5585938-1.8164063.0927734-3.2138672l-.1396484-.4179688.4375-.0595703c.0185547-.0029297 1.9160156-.2753906 2.4755859-1.4155273.2871094-.5878906.1708984-1.340332-.3466797-2.2373047l-.2216797-.3833008.4179688-.1450195c.0097656-.003418.3583984-.1416016.4873047-.6005859.1328125-.4716797.1025391-1.5917969-1.5947266-3.7949219l.5800781-.4462891c1.4560547 1.8911133 2.03125 3.3945313 1.7099609 4.46875-.1201172.4013672-.3525391.6791992-.5742188.8535156.4951172.9907227.5615234 1.8671875.1972656 2.6088867-.546875 1.1132813-1.9160156 1.5693359-2.6132813 1.734375.4082031 1.4511719.3017578 2.6201172-.3173828 3.4804688-.7246094 1.0048828-1.9443359 1.2890625-2.5898438 1.3681641.1689453 1.2382813-.0800781 2.1835938-.7431641 2.8164063-1.1044922 1.0507813-3.019043.8701172-3.8378906.7314453-.1665039.7753906-.5512695 1.2802734-1.1479492 1.5029297-.217285.0820312-.4565428.1191406-.7114256.1191406z" fill="#664434"/><path d="m17.6757813 32.1293945s3.3696289 5.7231445 4.4384766 1.980957c0 0 3.1704102.8984375 3.5507813-1.980957 0 0 3.6777344-.4785156 3.2963867-2.6396484 0 0 3.4111328-.8486328 2.7836914-3.3632813 0 0 2.1474609-1.2084961 0-4.1123047" fill="#331d14"/><path d="m20.9941406 35.7451172c-1.5336914 0-3.2880859-2.8432617-3.6333008-3.4301758l.6298828-.3710938c.7871094 1.3344727 2.2573242 3.168457 3.0625 3.065918.3632813-.0458984.5864258-.5693359.7094727-1l.0996094-.3496094.3510742.0986328c.0141602.0039063 1.3862305.3759766 2.2915039-.2207031.4399414-.2910156.7084961-.7802734.7978516-1.456543l.0366211-.277832.2783203-.0371094c.0205078-.0024414 2.0473633-.2792969 2.7680664-1.2626953.2080078-.2836914.2783203-.5942383.2158203-.9506836l-.0595703-.3349609.3305664-.0830078c.125-.0317383 3.0488281-.7924805 2.5175781-2.9204102l-.0673828-.2705078.2431641-.1367188c.0214844-.012207.5820313-.3457031.7319336-1.0703125.1455078-.706543-.1391602-1.5493164-.8466797-2.5058594l.5878906-.4345703c.8417969 1.1376953 1.1679688 2.1826172.9707031 3.1049805-.152832.7163086-.5874023 1.1650391-.8583984 1.3837891.1787109 1.0874023-.2866211 2.0400391-1.3574219 2.7675781-.5361328.3647461-1.1020508.5874023-1.4394531.699707.0102539.4296875-.1171875.8266602-.3798828 1.1845703-.7324219.9975586-2.3476563 1.3896484-2.9921875 1.5102539-.1542969.7612305-.5161133 1.3334961-1.078125 1.7026367-.8740234.5761719-1.9897461.4833984-2.5454102.3867188-.2719727.7275391-.6791992 1.1298828-1.2133789 1.1982422-.050293.006836-.1005859.0097657-.1513672.0097657z" fill="#664434"/><path d="m40.5527344 55.8574219c-.140625 0-.2246094-.0058594-.2246094-.0058594-6.8867188-.4599609-13.7915039-8.4228516-14.387207-9.1259766-2.59375-1.8994141-6.0429688-5.1796875-7.8505859-10.0712891-1.6567383-3.0771484-1.6723633-6.6782227-.0170898-9.8217773 1.8081055-3.4326172 5.2851563-5.6674805 9.5390625-6.1318359 5.6611328-.6171875 10.5390625 3.9638672 13.5429688 7.7597656l3.1162109 3.5449219c1.1679688.862793 1.8339844 1.8530273 1.9101563 2.8774414.0478516.6445313-.1542969 1.1611328-.3486328 1.4990234 1.9296875 1.3896484 2.9404297 2.6513672 3.0048828 3.7548828.0185547.3212891-.0458984.5771484-.1308594.7695313 1.4003906 1.3828125 1.2597656 2.9902344 1.1523438 3.5615234 1.3916016 2.3730469.4482422 3.6884766-.0351563 4.1523438.1181641 2.3945313-1.6660156 3.4023438-2.8837891 3.6660156-.5458984 2.1152344-2.0615234 2.4414063-2.9433594 2.4414063-.2373047 0-.4472656-.0224609-.6123047-.0498047-.7187501 1.0566406-2.1904298 1.1796875-2.8320313 1.1796875zm-11.9165039-34.2832031c-.3051758 0-.612793.0166016-.9233398.050293-3.9418945.4301758-7.1557617 2.4858398-8.8173828 5.6411133-1.5092773 2.8657227-1.4946289 6.1484375.0395508 9.0078125 1.7646484 4.7617188 5.1040039 7.9160156 7.5986328 9.7353516.0307617.0224609.059082.0488281.0834961.078125.0703125.0839844 7.0732422 8.3896484 13.7753906 8.8369141.0078125.0009766.0664063.0039063.1601563.0039063.4082031 0 1.7714844-.0693359 2.1708984-.9677734.0957031-.2148438.3369141-.3203125.5634766-.2539063.0029297.0009766.3056641.0927734.7099609.0927734 1.1337891 0 1.8417969-.6757813 2.1025391-2.0087891.0390624-.1962892.2011718-.3466798.4003905-.3710939.2705078-.0341797 2.6376953-.4013672 2.3818359-2.9541016-.0175781-.1757813.0664063-.3466797.2167969-.4404297.0498047-.0332031 1.3134766-.9033203-.1289063-3.2324219-.0693359-.1123047-.0878906-.2490234-.0498047-.3759766.0195313-.0683594.4746094-1.75-1.1142578-3.0742188-.1044922-.0869141-.1650391-.2148438-.1669922-.3505859-.0009766-.1357422.0566406-.265625.1591797-.3554688-.0019531 0 .1416016-.1552734.109375-.484375-.0478516-.4912109-.5-1.5683594-2.9863281-3.2753906-.1132813-.0771484-.1865234-.2021484-.2001953-.3388672-.0126953-.1367188.0351563-.2724609.1318359-.3701172.0166016-.0175781.4619141-.4941406.4013672-1.2304688-.0615234-.7304688-.6171875-1.5087891-1.609375-2.2529297l-3.2021484-3.628418c-2.2207031-2.8051755-6.6855469-7.4809567-11.8061523-7.4809567z" fill="#190901"/><path d="m23.2636719 40.2851563c-1.5756836 0-4.2402344-2.6123047-5.0712891-3.46875l.6669922-.6464844c1.6567383 1.7070313 3.8554688 3.3974609 4.4755859 3.1777344.0986328-.0332031.1357422-.234375.1494141-.3505859l.0625-.5498047.53125.1572266c.0170898.0058594 1.628418.4677734 2.7192383-.2470703.5664063-.3710938.9111328-1.0175781 1.0239258-1.921875l.0439453-.3535156.3535156-.0488281c.0239258-.0039063 2.4311523-.3515625 3.3349609-1.5810547.2802734-.3818359.3774414-.8037109.2963867-1.2890625l-.0693359-.4160156.4091797-.1088867c.1518555-.0405273 3.7163086-1.0229492 3.0649414-3.7861328l-.0878906-.3740234.3505859-.1567383c.0214844-.0102539.6289063-.3022461.8271484-1.0478516.21875-.8178711-.1337891-1.9179688-1.0185547-3.1811523l.7617188-.5332031c1.0693359 1.527832 1.4560547 2.8662109 1.1484375 3.9775391-.2080078.7519531-.6865234 1.2050781-1.0126953 1.4375.3730469 2.4892578-1.8662109 3.9233398-3.4169922 4.4477539.0136719.5761719-.1557617 1.1064453-.5058594 1.5820313-.9111328 1.2382813-2.8256836 1.7333984-3.6113281 1.8896484-.1938477 1.015625-.659668 1.7695313-1.3881836 2.2441406-1.0419922.6796875-2.3344727.5810547-3.0175781.4628906-.1586914.3789063-.4248047.5498047-.6494141.6269531-.114746.0390623-.2392578.057617-.3706054.057617z" fill="#190901"/><path d="m29.559082 48.1035156c-2.5869141 0-6.8510742-4.2236328-7.3671875-4.7441406l.6601563-.6542969c1.9594727 1.9765625 5.6015625 4.9150391 7.0307617 4.4208984.1352539-.0478516.546875-.1923828.6557617-1.2333984l.0522461-.5029297.4970703.0947266c.0244141.0039063 2.4960938.4580078 3.6513672-.6933594.5605469-.5576172.7324219-1.4453125.5107422-2.6367188l-.1005859-.5449219.5556641-.0048828c.0126953 0 1.28125-.0205078 1.9472656-.9326172.5419922-.7431641.5742188-1.8935547.0976563-3.4189453l-.1621094-.5195313.5390625-.0791016c.0166016-.0019531 1.7460938-.2685547 2.2919922-1.3583984.2978516-.5947266.1933594-1.3681641-.3105469-2.2978516l-.2275391-.4189453.4248047-.2163086c.0058594-.003418.3427734-.1992188.4619141-.7446289.1445313-.6586914-.0048828-1.8891602-1.5380859-4.0102539l.7539063-.5439453c1.4121094 1.9550781 1.9775391 3.5717773 1.6806641 4.8051758-.1201172.4970703-.3564453.8291016-.5625 1.0361328.4970703 1.0693359.546875 2.0136719.1464844 2.8105469-.5429688 1.0791016-1.7695313 1.5546875-2.4726563 1.7460938.4130859 1.5966797.2861328 2.8623047-.3789063 3.765625-.6279297.8544922-1.5712891 1.1503906-2.1582031 1.2519531.1416016 1.2744141-.1416016 2.2724609-.8457031 2.9726563-1.1572266 1.1494141-3.1088867 1.1064453-4.0053711 1.0107422-.1777344.8056641-.5786133 1.3222656-1.1958008 1.5390625-.1958009.069336-.407715.1015625-.6323244.1015625z" fill="#190901"/><path d="m37.3876953 52.4726563c-3.6054688.0009766-8.9438477-3.4921875-9.206543-3.6660156l.5117188-.7753906c1.9692383 1.2988281 7.5932617 4.4257813 9.9399414 3.2714844.6552734-.3222656 1.0117188-.9726563 1.0878906-1.9892578l.0341797-.4658203.4667969.0380859c.0244141.0009766 2.5742188.1923828 3.6533203-1.0664063.4814453-.5615234.6015625-1.3652344.3564453-2.390625l-.1005859-.421875.4140625-.1289063c.0009766-.0009766.3076172-.1210938.4912109-.6103516.2441406-.6484375.3720703-2.2626953-1.5117188-5.7958984l-.2851563-.5234375.015625-.1455078c.0302734-.2822266.0712891-.5615234.1123047-.8417969.2246094-1.5341797.4375-2.9833984-1.0029297-5.4594727l.8027344-.4667969c1.6035156 2.7563477 1.3466797 4.512207 1.1191406 6.0610352-.0322266.2216797-.0644531.4414063-.0908203.6640625l.1484375.2734375c1.5957031 2.9931641 2.1113281 5.2236328 1.5351563 6.6318359-.1865234.4550781-.4521484.7304688-.671875.8916016.2099609 1.1757813-.0009766 2.1396484-.6289063 2.8701172-1.0712891 1.2480469-3.0537109 1.4003906-3.9609375 1.4003906-.0068359 0-.0146484 0-.0214844 0-.1777344 1.1152344-.6992188 1.890625-1.5537109 2.3095703-.4794921.2353516-1.0419921.3359376-1.6542968.3359376z" fill="#190901"/></svg>