<svg height="216" preserveAspectRatio="xMidYMid" viewBox="0 0 193 216" width="193" xmlns="http://www.w3.org/2000/svg"><g fill-rule="evenodd"><path d="m161.822 210.141h-130.955s42.19-175.548 42.19-175.548c4.901-7.84 13.602-12.891 23.281-12.891h.013c9.736 0 18.478 5.113 23.361 13.031 0 0 42.11 175.408 42.11 175.408z" fill="#142a3b"/><path d="m161.822 210.141h-130.955s7.688-31.99 7.688-31.99h115.454s7.813 31.99 7.813 31.99z" fill="#fbb713"/><path d="m119.712 34.733c-4.884-7.918-13.625-13.031-23.361-13.031h-.011s31.165 129.817 31.165 129.817c4.516 18.809-9.797 36.879-29.21 36.879h-62.203s-5.225 21.743-5.225 21.743h130.955s-42.11-175.408-42.11-175.408z" fill="#060606" opacity=".35"/><path d="m119.707 93.304c-4.787-3.903-11.764-3.556-16.138.801 0 0-.023.023-.023.023-4.374 4.358-4.723 11.307-.805 16.077 0 0 30.974 37.715 30.974 37.715 4.511 5.491 12.796 5.903 17.833.884 0 0 6.906-6.879 6.906-6.879 5.038-5.018 4.624-13.271-.889-17.765 0 0-37.858-30.856-37.858-30.856z" fill="#060606" opacity=".35"/><path d="m89.316 94.105c-4.374-4.357-11.351-4.704-16.139-.801 0 0-37.857 30.856-37.857 30.856-5.513 4.494-5.926 12.747-.889 17.765 0 0 6.905 6.879 6.905 6.879 5.038 5.019 13.323 4.607 17.833-.884 0 0 30.975-37.715 30.975-37.715 3.918-4.77 3.569-11.719-.805-16.077 0 0-.023-.023-.023-.023z" fill="#060606" opacity=".35"/><g fill="#ededed"><path d="m88.631 71.967c-.917 0-1.835-.349-2.534-1.046 0 0-10.217-10.178-10.217-10.178-1.408-1.399-1.411-3.675-.011-5.079 1.4-1.408 3.676-1.411 5.079-.011 0 0 10.218 10.177 10.218 10.177 1.407 1.4 1.41 3.675.011 5.079-.702.705-1.625 1.058-2.546 1.058z"/><path d="m114.471 97.709c-.917 0-1.835-.349-2.535-1.047 0 0-10.414-10.373-10.414-10.373-1.406-1.4-1.41-3.675-.01-5.08 1.397-1.408 3.674-1.41 5.079-.011 0 0 10.414 10.374 10.414 10.374 1.407 1.399 1.41 3.675.011 5.08-.702.705-1.625 1.057-2.545 1.057z"/><path d="m104.055 71.971c-.923 0-1.844-.353-2.545-1.058-1.4-1.405-1.397-3.68.01-5.079 0 0 10.326-10.286 10.326-10.286 1.405-1.4 3.682-1.395 5.08.011 1.4 1.404 1.396 3.68-.01 5.079 0 0-10.327 10.286-10.327 10.286-.699.698-1.617 1.047-2.534 1.047z"/><path d="m78.294 97.632c-.92 0-1.843-.352-2.544-1.058-1.4-1.404-1.397-3.679.01-5.079 0 0 10.338-10.298 10.338-10.298 1.404-1.4 3.68-1.396 5.08.01 1.4 1.405 1.396 3.68-.01 5.08 0 0-10.339 10.298-10.339 10.298-.7.697-1.617 1.047-2.535 1.047z"/></g><path d="m107.257 76.06c0 6.004-4.885 10.871-10.913 10.871-6.027 0-10.912-4.867-10.912-10.871s4.885-10.872 10.912-10.872c6.028 0 10.913 4.868 10.913 10.872z" fill="#fbb713"/><path d="m48.256 4.396c-4.51-5.493-12.795-5.905-17.832-.886 0 0-6.906 6.88-6.906 6.88-5.037 5.018-4.624 13.271.889 17.765 0 0 37.858 30.856 37.858 30.856 4.787 3.902 11.764 3.556 16.139-.802 0 0 .023-.022.023-.022 4.374-4.358 4.721-11.308.804-16.077 0 0-30.975-37.714-30.975-37.714z" fill="#fbb713"/><path d="m23.518 17.637s6.906-6.88 6.906-6.88c5.037-5.018 13.322-4.606 17.833.886 0 0 30.974 37.714 30.974 37.714.976 1.188 1.685 2.511 2.136 3.895 1.161-3.735.505-7.929-2.136-11.142 0 0-30.974-37.714-30.974-37.714-4.511-5.493-12.796-5.905-17.833-.886 0 0-6.906 6.88-6.906 6.88-3.314 3.301-4.222 7.991-2.916 12.099.562-1.766 1.5-3.441 2.916-4.852z" fill="#060606" opacity=".35"/><path d="m114.481 58.209c4.375 4.358 11.351 4.704 16.139.802 0 0 37.858-30.856 37.858-30.856 5.513-4.494 5.926-12.747.889-17.765 0 0-6.906-6.88-6.906-6.88-5.037-5.019-13.322-4.607-17.833.886 0 0-30.974 37.714-30.974 37.714-3.917 4.769-3.57 11.719.804 16.077 0 0 .023.022.023.022z" fill="#fbb713"/><path d="m169.368 10.39s-6.907-6.88-6.907-6.88c-2.793-2.783-6.577-3.835-10.17-3.339 2.383.394 4.679 1.492 6.533 3.339 0 0 6.906 6.88 6.906 6.88 5.037 5.018 4.623 13.271-.89 17.765 0 0-37.858 30.857-37.858 30.857-1.703 1.388-3.686 2.213-5.728 2.536 3.246.473 6.655-.326 9.366-2.536 0 0 37.858-30.857 37.858-30.857 5.513-4.494 5.926-12.747.89-17.765z" fill="#060606" opacity=".35"/><path d="m78.404 94.105c-4.375-4.357-11.352-4.704-16.139-.801 0 0-37.858 30.856-37.858 30.856-5.513 4.494-5.926 12.747-.889 17.765 0 0 6.906 6.879 6.906 6.879 5.037 5.019 13.322 4.607 17.832-.884 0 0 30.975-37.715 30.975-37.715 3.917-4.77 3.57-11.719-.804-16.077 0 0-.023-.023-.023-.023z" fill="#fbb713"/><path d="m78.427 94.128s-.023-.023-.023-.023c-3.286-3.273-8.038-4.281-12.23-2.929 1.814.56 3.528 1.508 4.954 2.929 0 0 .023.023.023.023 4.374 4.358 4.722 11.308.805 16.078 0 0-30.974 37.714-30.974 37.714-1.544 1.878-3.542 3.114-5.687 3.791 4.535 1.432 9.719.156 12.962-3.791 0 0 30.974-37.714 30.974-37.714 3.917-4.77 3.57-11.72-.804-16.078z" fill="#060606" opacity=".35"/><path d="m130.62 93.304c-4.788-3.903-11.764-3.556-16.139.801 0 0-.023.023-.023.023-4.374 4.358-4.721 11.307-.804 16.077 0 0 30.974 37.715 30.974 37.715 4.511 5.491 12.796 5.903 17.833.884 0 0 6.906-6.879 6.906-6.879 5.037-5.018 4.624-13.271-.889-17.765 0 0-37.858-30.856-37.858-30.856z" fill="#fbb713"/><path d="m168.478 124.159s-37.858-30.855-37.858-30.855c-4.787-3.903-11.764-3.556-16.139.801 0 0-.023.023-.023.023-.621.619-1.139 1.3-1.596 2.011 4.304-2.758 10.013-2.56 14.12.789 0 0 37.858 30.854 37.858 30.854 5.513 4.496 5.927 12.748.89 17.767 0 0 3.638-3.624 3.638-3.624 5.036-5.019 4.623-13.271-.89-17.766z" fill="#060606" opacity=".35"/><path d="m187.285 215.529h-181.883c-2.976 0-5.388-2.411-5.388-5.388 0-2.976 2.412-5.388 5.388-5.388h181.883c2.977 0 5.389 2.412 5.389 5.388 0 2.977-2.412 5.388-5.389 5.388z" fill="#142a3b"/></g></svg>