<svg viewBox="0 0 72 72" xmlns="http://www.w3.org/2000/svg"><circle cx="31.592" cy="45.6233" r="1"/><circle cx="30.1589" cy="41.739" r="1"/><circle cx="32.814" cy="39.7492" r="1"/><circle cx="40.4278" cy="45.6233" r="1"/><circle cx="41.8608" cy="41.739" r="1"/><circle cx="39.2058" cy="39.7492" r="1"/><path d="m43.12 34.5381h-14.2395a1.0054 1.0054 0 0 1 -.5068-.1377 7.0918 7.0918 0 0 1 -3.2578-6.7861 3.1992 3.1992 0 0 1 .625-1.626 3.6052 3.6052 0 0 1 2.2461-1.1055c.205-.043.4111-.084.6064-.1426a6.5658 6.5658 0 0 0 1.9266-1.1543c.2158-.1621.4306-.3252.6494-.4795a4.7522 4.7522 0 0 1 3.99-1.0556.9933.9933 0 0 1 .1289.0439 2.1056 2.1056 0 0 0 1.4219 0c1.498-.6289 2.9892.21 4.12 1.0117.2178.1543.4316.3155.6455.4776a6.5716 6.5716 0 0 0 1.9322 1.156c.1943.0586.4.1.6064.1426a3.6031 3.6031 0 0 1 2.2451 1.1055 3.1827 3.1827 0 0 1 .624 1.6269 7.09 7.09 0 0 1 -3.2568 6.785 1.0054 1.0054 0 0 1 -.5066.1381z" fill="#5c9e31"/><path d="m44.5006 33.2559c-2.7872-2.2383-7.4574-1.51-8.5009-1.3124-1.043-.1981-5.711-.9269-8.5 1.3114a5.7772 5.7772 0 0 0 -2.0655 4.7617c0 3.4863 0 14.0967 9.1084 15.6582a.9977.9977 0 0 0 1.0537-.5186l.4037-.7641.4033.7641a.9977.9977 0 0 0 1.0537.5186c9.1094-1.5615 9.1094-12.1719 9.1094-15.6582a5.7742 5.7742 0 0 0 -2.0658-4.7607z" fill="#186648"/><circle cx="31.592" cy="45.6233" fill="#fcea2b" r="1"/><circle cx="30.1589" cy="41.739" fill="#fcea2b" r="1"/><circle cx="32.814" cy="39.7492" fill="#fcea2b" r="1"/><circle cx="40.4278" cy="45.6233" fill="#fcea2b" r="1"/><circle cx="41.8608" cy="41.739" fill="#fcea2b" r="1"/><circle cx="39.2058" cy="39.7492" fill="#fcea2b" r="1"/><g fill="none" stroke="#000" stroke-linecap="round" stroke-linejoin="round" stroke-width="2"><path d="m31.746 51.6805c-4.4446-2.4527-5.3118-8.2931-5.3118-13.6639 0-7.1689 9.5658-5.0535 9.5658-5.0535v17.2857l-1.2881 2.4412"/><path d="m36 50.2488 1.288 2.441"/><path d="m40.2539 51.6805c4.4446-2.4527 5.3118-8.2931 5.3118-13.6639 0-7.1689-9.5657-5.0535-9.5657-5.0535"/><path d="m26.817 43.343-3.772 2.958 3.047 5.844"/><path d="m25.1274 50.2952s-3.0066 6.004-.8821 11.2089"/><path d="m27.12 35.201-6.241-1.084.245 4.574"/><path d="m18.3507 46.24a9.7065 9.7065 0 0 1 2.6593-9.681"/><path d="m26.8806 31.4565a6.0714 6.0714 0 0 1 -.7723-3.7131 2.2123 2.2123 0 0 1 .4085-1.1252c.5429-.6693 1.5368-.6726 2.3623-.92a10.4722 10.4722 0 0 0 2.8685-1.7764 3.9325 3.9325 0 0 1 3.1539-.9056 3.1056 3.1056 0 0 0 2.197 0c1.0423-.4384 2.2315.2515 3.1539.9056a10.4722 10.4722 0 0 0 2.8685 1.7764c.8255.2474 1.8194.2507 2.3623.92a2.2123 2.2123 0 0 1 .4085 1.1252 6.0714 6.0714 0 0 1 -.7723 3.7131"/><path d="m45.183 43.343 3.772 2.958-3.047 5.844"/><path d="m46.8726 50.2952s3.0066 6.004.8821 11.2089"/><path d="m44.88 35.201 6.241-1.084-.245 4.574"/><path d="m53.6493 46.24a9.7065 9.7065 0 0 0 -2.6593-9.681"/><path d="m31.57 10.958 4.43 4.148 4.43-4.148"/><path d="m36 15.1064v8.1114"/><path d="m26.1083 27.7434-2.5868-3.9026"/><path d="m20.3839 15.1064s-3.0817 8.29 4.2655 10.4359"/><path d="m45.8938 27.7434 2.5868-3.9026"/><path d="m51.6182 15.1064s3.0817 8.29-4.2654 10.4359"/></g></svg>