<svg viewBox="0 0 72 72" xmlns="http://www.w3.org/2000/svg"><ellipse cx="36.0957" cy="23.5591" fill="#fff" rx="9.5299" ry="9.1651"/><ellipse cx="36.1194" cy="39.8918" fill="#d22f27" rx="14.5896" ry="15.8769"/><g style="fill:none;stroke:#000;stroke-linecap:round;stroke-linejoin:round;stroke-miterlimit:10;stroke-width:2"><path d="m20.67 23.16c0 2.92 3.73 5.22 4.84 5.83"/><path d="m16.38 37.75c0 .65 3.49 1.8 5.15 2.32"/><path d="m20.67 54.91c0-2.54 2.82-4.14 4.28-4.8"/><path d="m47.2761 29.1642s4.291-3.4328 4.291-6.0075"/><path d="m50.7 39.41c1.13-.12 3.12-.48 4.3-1.66"/><path d="m46.85 50.65c1.11.1 4.03.64 4.72 3.4"/><path d="m30.11 12c.67 2.66 1.85 3.26 2.35 3.39"/><path d="m41.2687 15.4328s2.3467-2.0597 1.76-3.4328"/><ellipse cx="36.1194" cy="39.8918" rx="14.5896" ry="15.8769"/><path d="m36.1194 24.8731v30.0373"/></g><circle cx="27.5373" cy="35.1716" r="1.7164"/><circle cx="44.7015" cy="35.1716" r="1.7164"/><circle cx="41.2687" cy="40.3209" r="1.7164"/><circle cx="44.7015" cy="45.4701" r="1.7164"/><circle cx="30.9701" cy="40.3209" r="1.7164"/><circle cx="27.5373" cy="45.4701" r="1.7164"/><path d="m27.5373 23.1567c0-4.7398 3.8423-8.5821 8.5821-8.5821s8.5821 3.8423 8.5821 8.5821" style="fill:none;stroke:#000;stroke-linecap:round;stroke-linejoin:round;stroke-miterlimit:10;stroke-width:2"/></svg>