<svg height="64" viewBox="0 0 64 64" width="64" xmlns="http://www.w3.org/2000/svg"><g fill="none" fill-rule="evenodd"><path d="m1 6h3v55h-3z" fill="#bd7575"/><path d="m59 6h3v55h-3z" fill="#bd7575"/><path d="m1 9s15.25 3 30.5 3 30.5-3 30.5-3v18s-15.25 3-30.5 3-30.5-3-30.5-3z" fill="#d8d8d8"/><path d="m19.1585883 15.372c.0186668.4200021-.1633314.6766662-.546.77-.0186667.0093334-.3686632.0373331-1.05.084-.0560003 0-.0933332.0046666-.112.014-.5693362.270668-.989332.4573328-1.26.56-.1026672.8306708-.1120004 1.9413264-.028 3.332.121334-.0840004.3079988-.2099992.56-.378.2240011-.2613346.4106659-.3873334.56-.378.3080016.0186668.6183318.1703319.931.455s.469.5809985.469.889c0 .1213339-.0279997.2333328-.084.336-.1026672.2053344-.3593313.3173332-.77.336-.466669.0186668-.7793325.0933327-.938.224-.1306673.0466669-.2543327.1283328-.371.245-.1166672.1166673-.2263328.2309994-.329.343-.074667.6253365-.074667 1.502661 0 2.632.0466669.1213339.07.2379994.07.35 0 .2986682-.1633317.5319992-.49.7-.1213339.0653337-.2659991.098-.434.098-.2986681 0-.5739987-.0886658-.826-.266-.2800014-.1866676-.4479997-.4246652-.504-.714-.0186667-.1306673.002333-.2286663.063-.294s.1236664-.1259997.189-.182c-.0560003-4.0693537-.0560003-7.074657 0-9.016-.0093334-.0933338-.014-.177333-.014-.252 0-.4853358.2939971-.728.882-.728.1026672 0 .2146661.0093332.336.028.2053344.0280001.345333.0653331.42.112.0186668.0093334.0839995.0746661.196.196.1866676-.0653337.4853313-.1679993.896-.308.0933338-.0560003.1936661-.1189996.301-.189.1073339-.0700003.2776655-.105.511-.105.270668 0 .5646651.1166655.882.35s.4806666.485332.49.756zm3.528 10.164c-.0840004.2333345-.3266646.35-.728.35-.1120005 0-.2333327-.0093332-.364-.028-.7653371-.1213339-1.2133327-.3499983-1.344-.686-.0280001-.0653337-.042-.1306663-.042-.196 0-.196001.1073323-.391999.322-.588-.0373335-1.400007-.1213327-4.2559784-.252-8.568.0093334-.1213339-.0233329-.2636658-.098-.427-.074667-.1633341-.112-.282333-.112-.357 0-.1680008.1073323-.3453324.322-.532.1493341-.1306673.359332-.196.63-.196.3080016 0 .634665.0793325.98.238.4106687.196001.616.4339986.616.714 0 .0653337-.097999.3173311-.294.756l.14 8.484c0 .1120006.0419996.2543325.126.427s.126.3103328.126.413c0 .0653337-.0093332.1306663-.028.196zm8.484-.896c-.0186667.3360017-.1353322.6183322-.35.847-.2146677.2286678-.4806651.3336668-.798.315-.7933373-.0466669-1.3346652-.4339964-1.624-1.162-.0466669-.1120006-.0746666-.2939987-.084-.546-.0186667-.2240011-.0653329-.4059993-.14-.546-.345335-.5320027-.6626652-1.0453309-.952-1.54-.7093369-1.1946726-1.2319983-2.1933293-1.568-2.996-.0373335.9520048.0373324 2.7439868.224 5.376 0 .0560003.0466662.181999.14.378s.14.3593327.14.49c0 .1680008-.0559994.3219993-.168.462-.1586674.2053344-.3966651.308-.714.308-.3360017 0-.6649984-.1049989-.987-.315s-.5016665-.4549986-.539-.735c-.0280001-.2240011.0326659-.3966661.182-.518s.2193334-.2286662.21-.322l-.42-8.568c0-.0466669-.0093332-.1166662-.028-.21-.0186667-.0933338-.028-.1633331-.028-.21 0-.1400007.0723326-.2519996.217-.336s.3476654-.126.609-.126c.7000035 0 1.1993319.1819982 1.498.546.0840004.0933338.126.2053327.126.336 0 .0560003-.0093332.1306662-.028.224-.0186667.0933338-.028.1586665-.028.196 0 .0280001.0046666.0559999.014.084.1866676.9520048 1.1666578 2.9493181 2.94 5.992l-.168-6.832c0-.0840004-.0326663-.1773328-.098-.28-.0653336-.1026672-.098-.1819997-.098-.238 0-.1213339.0933324-.2753324.28-.462.1026672-.1120006.2613323-.168.476-.168.3453351 0 .6999982.1213321 1.064.364s.5506666.5039986.56.784c.0093334.1773342-.0629992.3173328-.217.42s-.231.2053328-.231.308l.196 7.672c0 .1306673.067666.2963323.203.497s.1983334.3709993.189.511zm3.724.896c-.0840004.2333345-.3266646.35-.728.35-.1120005 0-.2333327-.0093332-.364-.028-.7653371-.1213339-1.2133327-.3499983-1.344-.686-.0280001-.0653337-.042-.1306663-.042-.196 0-.196001.1073323-.391999.322-.588-.0373335-1.400007-.1213327-4.2559784-.252-8.568.0093334-.1213339-.0233329-.2636658-.098-.427-.074667-.1633341-.112-.282333-.112-.357 0-.1680008.1073323-.3453324.322-.532.1493341-.1306673.359332-.196.63-.196.3080016 0 .634665.0793325.98.238.4106687.196001.616.4339986.616.714 0 .0653337-.097999.3173311-.294.756l.14 8.484c0 .1120006.0419996.2543325.126.427s.126.3103328.126.413c0 .0653337-.0093332.1306663-.028.196zm7.364-2.212c0 .7280036-.2309977 1.3649973-.693 1.911s-1.0336632.819-1.715.819c-1.3720068 0-2.3799968-.6533268-3.024-1.96-.7000035-.4573356-1.05-.8446651-1.05-1.162 0-.1586675.097999-.2893328.294-.392.3826686-.2053344.7326651-.308 1.05-.308.6906701 0 1.1526655.4106626 1.386 1.232.1120006.2240011.2286661.4479989.35.672.121334.2240011.2846657.336.49.336.5506694 0 .826-.3919961.826-1.176 0-.7000035-.1259987-1.1713321-.378-1.414-.1120005-.1026672-.5599961-.3173317-1.344-.644-.6253364-.2613346-1.1293314-.7093302-1.512-1.344-.345335-.5786696-.5226666-1.1806635-.532-1.806-.0093334-1.008005.2426641-1.9039961.756-2.688.5413361-.8400042 1.2133293-1.26 2.016-1.26.933338 0 1.6146645.3733296 2.044 1.12.2800014.466669.4386665 1.0453299.476 1.736.1026672.3546684.154.6766652.154.966 0 .1866676-.0233331.3406661-.07.462-.1400007.3453351-.4153313.518-.826.518-.3080015 0-.5879987-.1119989-.84-.336-.2800014-.2426679-.4526663-.5833311-.518-1.022-.0280001-.1493341.0023329-.2986659.091-.448s.133-.2333332.133-.252-.0093332-.0373332-.028-.056c.0093334-.0466669.014-.0933331.014-.14 0-.2800014-.1633317-.4106668-.49-.392-.3173349.0186668-.5646658.2286647-.742.63-.1586674.3453351-.2286667.7419978-.21 1.19.0280002.7933373.5506616 1.4279976 1.568 1.904.8026707.3733352 1.3579985.7419982 1.666 1.106.4386689.5226693.658 1.2553286.658 2.198zm6.384-2.324c-.0373335.7466704-.0280003 1.819993.028 3.22 0 .0933338.0326664.2239992.098.392.0653337.1680008.098.289333.098.364 0 .1866676-.1586651.3453327-.476.476-.0653336.0280001-.1493328.042-.252.042-.3080015 0-.6346649-.0839992-.98-.252-.4106687-.196001-.616-.429332-.616-.7 0-.1213339.0443329-.279999.133-.476s.1749996-.3873324.259-.574v-2.408l-1.876.392c0 .4573356.0046666 1.1013292.014 1.932s.014 1.2506666.014 1.26c0 .1120006.030333.2846655.091.518s.091.4013328.091.504c0 .1866676-.0629994.3383328-.189.455-.1260006.1166673-.2963322.175-.511.175-.2240011 0-.4526655-.0606661-.686-.182s-.3896663-.2449994-.469-.371-.119-.2169997-.119-.273c0-.0186668.037333-.1166658.112-.294 0-.4013353-.0046666-1.0546621-.014-1.96s-.014-1.4839987-.014-1.736c-.0093334-.0280001-.1213322-.2286648-.336-.602-.1306673-.2146677-.1773335-.4153324-.14-.602.0186668-.1026672.0746662-.1866663.168-.252l.28-.196c-.0280001-2.2213444-.0186669-3.7239961.028-4.508-.0840004-.1680008-.126-.3033328-.126-.406 0-.2053344.1446652-.3779993.434-.518.121334-.0560003.2939989-.084.518-.084.7280037 0 1.1713326.195998 1.33.588.0280002.074667.042.1446663.042.21 0 .1306673-.0816658.3243321-.245.581-.1633341.256668-.245.4689992-.245.637-.0560003 1.4933408-.0653335 2.6039964-.028 3.332.9146713-.1586675 1.5213319-.2799996 1.82-.364-.0840004-1.1386724-.0746672-2.4733257.028-4.004-.0840004-.2333345-.126-.4246659-.126-.574 0-.2800014.172665-.5086658.518-.686.0746671-.0373335.1819993-.056.322-.056.3266683 0 .6439985.0793325.952.238.3546685.1866676.5366666.4246652.546.714.0093334.1306673-.0723325.293999-.245.49s-.259.3686659-.259.518c-.0186667 1.3440067-.0093335 2.4733288.028 3.388.1493341.1213339.3009992.2986655.455.532s.231.4246659.231.574-.0793325.261333-.238.336c-.1586674.074667-.3079993.1446663-.448.21z" fill="#0a3586"/></g></svg>