<svg enable-background="new 0 0 64 64" height="64" viewBox="0 0 64 64" width="64" xmlns="http://www.w3.org/2000/svg"><path d="m18 21v3h-2-2v-3z" fill="#656d78"/><path d="m35 22c8.81 0 14 6 14 6h-15v-5.98c.33-.01.66-.02 1-.02z" fill="#5d9cec"/><path d="m34 22.02v5.98l-9.02-3.96c2.45-.99 5.56-1.87 9.02-2.02z" fill="#5d9cec"/><path d="m52.99 36c1.109 0 2 .9 2 2s-.891 2-2 2c-1.101 0-2-.9-2-2s.9-2 2-2z" fill="#e6e9ed"/><path d="m27 38c0-1.1-.89-2-2-2-1.1 0-2 .9-2 2s.9 2 2 2c1.11 0 2-.9 2-2zm-2-5c2.76 0 5 2.24 5 5 0 .34-.03.68-.1 1-.46 2.28-2.48 4-4.9 4s-4.44-1.72-4.9-4c-.069-.32-.1-.66-.1-1 0-2.76 2.24-5 5-5z" fill="#656d78"/><path d="m25 36c1.11 0 2 .9 2 2s-.89 2-2 2c-1.1 0-2-.9-2-2s.9-2 2-2z" fill="#e6e9ed"/><path d="m54.99 38c0-1.1-.891-2-2-2-1.101 0-2 .9-2 2s.899 2 2 2c1.11 0 2-.9 2-2zm3 0c0 .34-.03.68-.101 1-.46 2.28-2.479 4-4.899 4-2.41 0-4.431-1.72-4.9-3.99-.07-.33-.1-.67-.1-1.01 0-2.76 2.24-5 5-5s5 2.24 5 5z" fill="#656d78"/><path d="m63 39h-5.11c.07-.32.101-.66.101-1 0-2.76-2.24-5-5-5s-5 2.24-5 5c0 .34.029.68.1 1.01l-.161-.01h-18.03c.069-.32.1-.66.1-1 0-2.76-2.24-5-5-5s-5 2.24-5 5c0 .34.03.68.1 1h-2.1l-3-2.4v-9.6h2.78 1.6s2.15-1.58 5.601-2.96l9.019 3.96h15l9 .66c2.27.38 4 2.35 4 4.74v1.6h1z" fill="#a0d468"/><path d="m62.002 34.396c-.553 0-1-.447-1-1 0-1.865-1.333-3.442-3.169-3.749-.545-.091-.912-.606-.821-1.151.091-.544.604-.919 1.151-.821 2.804.469 4.839 2.875 4.839 5.722 0 .552-.447.999-1 .999z"/><path d="m62.002 36c-.553 0-1-.447-1-1v-1.604c0-.553.447-1 1-1s1 .447 1 1v1.604c0 .553-.447 1-1 1z"/><path d="m63 39.998c-.553 0-1-.447-1-1v-2.998h-.602c-.553 0-1-.447-1-1s.447-1 1-1h1.602c.553 0 1 .447 1 1v3.998c0 .553-.447 1-1 1z"/><path d="m48.09 39.998h-18.188c-.553 0-1-.447-1-1s.447-1 1-1h18.188c.553 0 1 .447 1 1s-.447 1-1 1z"/><path d="m17.999 39.998c-.219 0-.439-.071-.624-.22l-2.998-2.401c-.432-.345-.501-.975-.155-1.405.345-.431.973-.503 1.405-.155l2.998 2.401c.432.345.501.975.155 1.405-.197.247-.487.375-.781.375z"/><path d="m15.002 37.597c-.553 0-1-.447-1-1v-9.597c0-.553.447-1 1-1s1 .447 1 1v9.597c0 .552-.447 1-1 1z"/><path d="m19.381 28h-4.379c-.553 0-1-.447-1-1s.447-1 1-1h4.379c.553 0 1 .447 1 1s-.447 1-1 1z"/><path d="m49 28.997c-.279 0-.557-.116-.755-.343-.05-.056-5.026-5.654-13.243-5.654-8.358 0-14.965 4.759-15.03 4.807-.445.324-1.071.23-1.397-.216-.326-.445-.229-1.07.215-1.397.288-.213 7.18-5.194 16.212-5.194 9.158 0 14.53 6.085 14.754 6.344.361.417.315 1.047-.101 1.408-.189.164-.423.245-.655.245z"/><path d="m58.001 29.661c-.024 0-.049-.001-.074-.003l-9-.66c-.551-.04-.965-.52-.924-1.07.04-.55.501-.963 1.07-.924l9 .66c.551.04.965.52.924 1.07-.038.526-.476.927-.996.927z"/><path d="m34.002 29c-.552 0-1-.447-1-1 0-.552.447-1 1-1l14.998-.002c.552 0 1 .447 1 1 0 .552-.447 1-1 1z"/><path d="m34.001 29c-.134 0-.271-.027-.401-.085l-9.018-3.964c-.506-.222-.735-.812-.513-1.317s.81-.736 1.317-.513l9.018 3.964c.506.222.735.812.513 1.317-.164.375-.531.598-.916.598z"/><path d="m34.002 29c-.553 0-1-.447-1-1v-5.979c0-.553.447-1 1-1s1 .447 1 1v5.979c0 .553-.447 1-1 1z"/><path d="m18 25h-4c-.553 0-1-.447-1-1v-3c0-.553.447-1 1-1h4c.553 0 1 .447 1 1v3c0 .553-.447 1-1 1zm-3-2h2v-1h-2z"/><path d="m17.78 28c-.342 0-.675-.175-.861-.49l-1.777-3c-.281-.476-.125-1.089.351-1.37.479-.281 1.09-.124 1.37.351l1.777 3c.281.476.125 1.089-.351 1.37-.16.094-.336.139-.509.139z"/><path d="m52.99 44c-3.309 0-6-2.691-6-5.999 0-3.309 2.691-6.001 6-6.001s6 2.692 6 6.001c0 3.308-2.691 5.999-6 5.999zm0-10c-2.206 0-4 1.795-4 4.001 0 2.205 1.794 3.999 4 3.999s4-1.794 4-3.999c0-2.206-1.794-4.001-4-4.001z"/><path d="m52.99 41c-1.654 0-3-1.346-3-3s1.346-3 3-3 3 1.346 3 3-1.345 3-3 3zm0-4c-.552 0-1 .448-1 1s.448 1 1 1 1-.448 1-1-.448-1-1-1z"/><path d="m25.002 44c-3.309 0-6-2.691-6-5.999 0-3.309 2.691-6.001 6-6.001s6 2.692 6 6.001c0 3.308-2.691 5.999-6 5.999zm0-10c-2.206 0-4 1.795-4 4.001 0 2.205 1.794 3.999 4 3.999s4-1.794 4-3.999c0-2.206-1.794-4.001-4-4.001z"/><path d="m25.002 41c-1.654 0-3-1.346-3-3s1.346-3 3-3 3 1.346 3 3-1.346 3-3 3zm0-4c-.552 0-1 .448-1 1s.448 1 1 1 1-.448 1-1-.448-1-1-1z"/><path d="m20.102 39.998h-2.102c-.553 0-1-.447-1-1s.447-1 1-1h2.102c.553 0 1 .447 1 1s-.448 1-1 1z"/><path d="m63 39.998h-5.109c-.553 0-1-.447-1-1s.447-1 1-1h5.109c.553 0 1 .447 1 1s-.447 1-1 1z"/><path d="m63 44h-62c-.553 0-1-.447-1-1s.447-1 1-1h62c.553 0 1 .447 1 1s-.447 1-1 1z"/><path d="m9.998 39.999h-6.998c-.553 0-1-.447-1-1s.447-1 1-1h6.998c.553 0 1 .447 1 1s-.447 1-1 1z"/><path d="m12 36h-11c-.553 0-1-.447-1-1s.447-1 1-1h11c.553 0 1 .447 1 1s-.447 1-1 1z"/><path d="m3.996 32.001h-.994c-.553 0-1-.447-1-1s.447-1 1-1h.994c.553 0 1 .447 1 1s-.447 1-1 1z"/><path d="m12.004 32.001h-4.998c-.553 0-1-.447-1-1s.447-1 1-1h4.998c.553 0 1 .447 1 1s-.447 1-1 1z"/><path d="m6.996 28.002h-5.996c-.553 0-1-.447-1-1s.447-1 1-1h5.996c.553 0 1 .447 1 1s-.447 1-1 1z"/></svg>