<svg viewBox="0 0 17 16" xmlns="http://www.w3.org/2000/svg"><path d="m16.844 7.747-2.062-2.591c-.215-.215-.564-.215-.779 0v1.875h-4.014v-4.062h1.855c.212-.215.212-.563 0-.78l-2.453-2.001c-.212-.215-.559-.215-.771 0l-2.432 2.001c-.214.217-.214.565 0 .78h1.822v4.062h-4.025v-1.859c-.216-.215-.563-.215-.779 0 0 0-2.194 2.404-2.194 2.898 0 .428 2.194 2.68 2.194 2.68.216.216.563.216.779 0v-1.766h4.025v4.047h-1.838c-.208.21-.208.55 0 .76 0 0 2.332 2.192 2.826 2.192.43 0 2.846-2.192 2.846-2.192.208-.21.208-.55 0-.76h-1.855v-4.047h4.014v1.812c.215.215.564.215.779 0l2.062-2.27c.215-.215.215-.564 0-.779z" fill="#434343" fill-rule="evenodd"/></svg>