<svg height="32" viewBox="0 0 32 32" width="32" xmlns="http://www.w3.org/2000/svg"><path d="m0 19.429q0-2.554.991-4.884t2.679-4.018 4.018-2.679 4.884-.991q3.25 0 6.125 1.589l1.143-1.143q.339-.339.813-.339t.813.339l1.214 1.214 4.339-4.357.821.821-4.357 4.339 1.214 1.214q.339.339.339.813t-.339.813l-1.143 1.143q1.589 2.875 1.589 6.125 0 2.554-.991 4.884t-2.679 4.018-4.018 2.679-4.884.991-4.884-.991-4.018-2.679-2.679-4.018-.991-4.884zm3.036-2.983q.179.429.625.607.232.089.429.089.75 0 1.071-.714.607-1.5 1.759-2.652t2.652-1.759q.446-.196.625-.625t0-.875-.607-.625-.875 0q-1.929.786-3.411 2.268t-2.268 3.411q-.179.446 0 .875zm21.535-15.303q0-.232.161-.411.179-.161.411-.161t.411.161l1.607 1.625q.179.161.179.402t-.179.402q-.179.179-.393.179-.232 0-.411-.179l-1.625-1.607q-.161-.179-.161-.411zm2.858 1.143v-1.714q0-.25.161-.411t.411-.161.411.161.161.411v1.714q0 .25-.161.411t-.411.161-.411-.161-.161-.411zm1.232 2.955q0-.241.179-.402.161-.179.402-.179t.402.179l1.625 1.607q.161.179.161.411t-.161.411q-.196.161-.411.161t-.411-.161l-1.607-1.625q-.179-.161-.179-.402zm0-2.482q0-.241.179-.402l1.607-1.625q.179-.161.411-.161t.411.161q.161.179.161.411t-.161.411l-1.625 1.607q-.179.179-.393.179-.232 0-.411-.179-.179-.161-.179-.402zm.482 1.241q0-.25.161-.411t.411-.161h1.714q.25 0 .411.161t.161.411-.161.411-.411.161h-1.714q-.25 0-.411-.161t-.161-.411z"/></svg>