<svg viewBox="0 0 50 50" xmlns="http://www.w3.org/2000/svg"><path d="m25 2c-15.773437 0-17 6.890625-17 9 0 2.324219 1.195313 4.613281 2.84375 7.78125.710938 1.363281 1.5 2.898438 2.3125 4.65625l.96875 1.59375c.359375.597656 1.019531.96875 1.71875.96875h18.3125c.699219 0 1.359375-.371094 1.71875-.96875l.96875-1.59375c.8125-1.757812 1.601563-3.292969 2.3125-4.65625 1.648438-3.167969 2.84375-5.457031 2.84375-7.78125 0-2.109375-1.226562-9-17-9zm-18.9375 17.6875c-.839844.089844-1.636719.480469-2.25 1.09375-1.226562 1.226563-1.441406 3.113281-.53125 4.59375l4.53125 7.34375c1.628906 2.640625 4.554688 4.28125 7.65625 4.28125h19.0625c3.101563 0 6.03125-1.640625 7.65625-4.28125l4.53125-7.34375c.910156-1.480469.695313-3.367187-.53125-4.59375-.816406-.816406-1.9375-1.234375-3.09375-1.09375-1.148437.140625-2.15625.820313-2.75 1.8125l-2.75 4.5625c-.71875 1.199219-2.042969 1.9375-3.4375 1.9375h-18.3125c-1.394531 0-2.71875-.738281-3.4375-1.9375l-2.75-4.5625c-.59375-.992187-1.601562-1.671875-2.75-1.8125-.289062-.035156-.5625-.03125-.84375 0zm17.9375 18.3125v3h-1l-8.375 2.25c-2.136719.582031-3.625 2.535156-3.625 4.75h3l9.125-2h3.78125l8.875 1.96875 3.21875.03125c0-2.21875-1.488281-4.167969-3.625-4.75l-8.125-2.21875h-1.25v-3.03125z"/></svg>