<svg enable-background="new 0 0 128 128" viewBox="0 0 128 128" xmlns="http://www.w3.org/2000/svg" xmlns:xlink="http://www.w3.org/1999/xlink"><linearGradient id="a" gradientTransform="matrix(.8759 -.0643 .068 .9265 -4.0349 6.5822)" gradientUnits="userSpaceOnUse" x1="70.948" x2="45.394" y1="66.12" y2="121.49"><stop offset="0" stop-color="#00eccc"/><stop offset=".1086" stop-color="#0aeecf" stop-opacity=".8503"/><stop offset=".2905" stop-color="#24f2d5" stop-opacity=".5996"/><stop offset=".5219" stop-color="#4df8e1" stop-opacity=".2806"/><stop offset=".7255" stop-color="#78ffec" stop-opacity="0"/><stop offset="1" stop-color="#78ffec" stop-opacity="0"/></linearGradient><linearGradient id="b" gradientTransform="matrix(.9649 .2627 -.2627 .9649 16.674 -14.622)" gradientUnits="userSpaceOnUse" x1="1.2732" x2="125.07" y1="55.48" y2="55.48"><stop offset="0" stop-color="#8690bb"/><stop offset=".265" stop-color="#6e76a6"/><stop offset=".6652" stop-color="#b0bee1"/><stop offset=".8836" stop-color="#6e76a6"/><stop offset="1" stop-color="#8a90b3"/></linearGradient><clipPath id="c"><path d="m123.83 67.58c.21-4.72-22.68-24.05-22.68-24.05l-64.96-17.69s-29.43 5.09-31.65 9.26.73 22.22 54.11 36.75 64.97.45 65.18-4.27z"/></clipPath><radialGradient id="d" cx="39.873" cy="60.84" gradientTransform="matrix(1.0083 .2745 -.2627 .9649 37.508 -8.9496)" gradientUnits="userSpaceOnUse" r="42.895"><stop offset=".2278" stop-color="#00eccc"/><stop offset="1" stop-color="#00ccb1"/></radialGradient><linearGradient id="e"><stop offset=".065" stop-color="#00eccc"/><stop offset=".2517" stop-color="#00e7c7"/><stop offset=".4807" stop-color="#00d8bb"/><stop offset=".7318" stop-color="#00bfa5"/><stop offset=".9973" stop-color="#009c87"/><stop offset="1" stop-color="#009c87"/></linearGradient><radialGradient id="f" cx="-133.62" cy="-125.32" gradientTransform="matrix(.7567 .6538 -.4888 .5657 56.232 194.16)" gradientUnits="userSpaceOnUse" r="3.6423" xlink:href="#e"/><radialGradient id="g" cx="-120.13" cy="-123.57" gradientTransform="matrix(.7567 .6538 -.4888 .5657 56.799 193.66)" gradientUnits="userSpaceOnUse" r="3.6423" xlink:href="#e"/><radialGradient id="h" cx="-23.659" cy="-46.43" gradientTransform="matrix(.8594 .5113 -.3823 .6425 42.906 95.938)" gradientUnits="userSpaceOnUse" r="3.6423" xlink:href="#e"/><radialGradient id="i" cx="62.855" cy="43.713" gradientTransform="matrix(.9381 .3465 -.259 .7013 10.954 8.9184)" gradientUnits="userSpaceOnUse" r="3.6423" xlink:href="#e"/><radialGradient id="j" cx="101.03" cy="77.59" gradientTransform="matrix(.9578 .2876 -.215 .716 -2.5951 -18.71)" gradientUnits="userSpaceOnUse" r="3.6423" xlink:href="#e"/><radialGradient id="k" cx="144.19" cy="135.63" gradientTransform="matrix(.9824 .1869 -.1397 .7345 -28.593 -59.022)" gradientUnits="userSpaceOnUse" r="3.6423" xlink:href="#e"/><radialGradient id="l" cx="203.09" cy="351.7" gradientTransform="matrix(.9856 -.169 .1263 .7369 -132.78 -159.11)" gradientUnits="userSpaceOnUse" r="3.6423" xlink:href="#e"/><radialGradient id="m" cx="59.093" cy="42.536" gradientTransform="matrix(.8949 .4462 -.4304 .8633 27.943 -21.146)" gradientUnits="userSpaceOnUse" r="35.889"><stop offset="0" stop-color="#78ffec"/><stop offset=".0939" stop-color="#73feeb"/><stop offset=".2099" stop-color="#64fce7"/><stop offset=".3375" stop-color="#4af8e0"/><stop offset=".4724" stop-color="#28f2d7"/><stop offset=".5999" stop-color="#00eccc"/><stop offset="1" stop-color="#00ccb1"/></radialGradient><path d="m30.94 52.47-24.56 49.05s77.44 25.32 77.06 24.13 10.23-52.44 10.23-52.44z" fill="url(#a)"/><path d="m123.83 67.58c.21-4.72-22.68-24.05-22.68-24.05l-64.96-17.69s-29.43 5.09-31.65 9.26 0 26.82 53.38 41.35 65.7-4.15 65.91-8.87z" fill="url(#b)"/><path d="m102.14 40.44c-2.04-18.19-18.73-30.45-36.5-31.14-11.13-.43-21.62 4.65-28.25 13.51-2.15 2.88-4.97 6.31-2.9 9.97 2.47 4.37 8.36 7.32 12.71 9.43 11.43 5.55 24.14 9.01 36.83 10.03 4.82.38 11.23.78 15.57-1.73 3.64-2.11 2.94-6.5 2.54-10.07z" fill="#505c70"/><path clip-path="url(#c)" d="m59.23 69.89c-32.16-8.76-55.93-24.98-54.36-36.82-.14.34-.27.68-.36 1.04-3.24 11.91 21 28.87 54.14 37.9 33.14 9.02 62.64 6.69 65.88-5.22.1-.36.17-.72.21-1.08-4.64 10.99-33.36 12.93-65.51 4.18z" fill="url(#d)"/><path d="m19.38 38.17c-.67.93-2.45.79-3.98-.31s-2.22-2.75-1.55-3.68 2.45-.79 3.98.31c1.53 1.11 2.22 2.75 1.55 3.68z" fill="url(#f)"/><path d="m29.3 47.48c-.67.93-2.45.79-3.98-.31s-2.22-2.75-1.55-3.68 2.45-.79 3.98.31 2.22 2.75 1.55 3.68z" fill="url(#g)"/><path d="m43.67 55.72c-.5 1.03-2.28 1.21-3.97.39-1.7-.82-2.67-2.32-2.17-3.35s2.28-1.21 3.97-.39 2.67 2.31 2.17 3.35z" fill="url(#h)"/><path d="m62.2 62.42c-.3 1.11-2.02 1.6-3.84 1.11s-3.05-1.79-2.75-2.9 2.02-1.6 3.84-1.11 3.05 1.8 2.75 2.9z" fill="url(#i)"/><path d="m81.15 66.75c-.23 1.12-1.92 1.72-3.76 1.34-1.85-.38-3.15-1.6-2.92-2.72s1.92-1.72 3.76-1.34c1.85.38 3.16 1.6 2.92 2.72z" fill="url(#j)"/><path d="m97.84 68.01c-.11 1.14-1.73 1.91-3.6 1.73-1.87-.19-3.3-1.27-3.19-2.41s1.73-1.91 3.6-1.73 3.3 1.26 3.19 2.41z" fill="url(#k)"/><path d="m115.48 64.86c.29 1.11-.95 2.4-2.77 2.88s-3.54-.03-3.83-1.14.95-2.4 2.77-2.88c1.83-.48 3.54.03 3.83 1.14z" fill="url(#l)"/><path d="m102.91 38.11c-2.24-17.66-19.18-29.73-37.06-30.59-11.21-.54-21.7 4.28-28.29 12.8-2.14 2.77-4.93 6.07-2.81 9.64 2.53 4.26 8.5 7.19 12.89 9.28 11.56 5.5 24.39 9 37.17 10.12 4.85.42 11.31.88 15.65-1.51 3.64-2 2.89-6.27 2.45-9.74z" fill="url(#m)"/><path d="m78.25 15.37c.82.18 1.76.47 2.76.88s2.07.93 3.17 1.57 2.23 1.39 3.34 2.26c1.11.86 2.21 1.84 3.25 2.92s2.03 2.26 2.92 3.53 1.69 2.63 2.36 4.07 1.22 2.95 1.61 4.53c.39 1.57.63 3.21.7 4.89s-.04 3.41-.32 5.18c0 0-.02-.4-.15-1.14s-.36-1.81-.82-3.16-1.14-2.97-2.18-4.8c-1.04-1.82-2.45-3.84-4.37-5.94-.85-.93-1.91-1.94-3.11-2.98-1.21-1.04-2.56-2.1-3.97-3.14-1.41-1.03-2.87-2.04-4.28-2.98s-2.77-1.81-3.94-2.58c-1.18-.77-2.17-1.45-2.85-2.02s-1.04-1.02-.96-1.34c.09-.32.63-.5 1.73-.48s2.78.23 5.11.73z" fill="#dcfffa" opacity=".48"/><g fill="#a3b0d6"><path d="m18.66 57.37 2.56 1.9c.44.38 1.32.99 1.37 1.57.19 2.02.01 2.7-.11 4.25-.13 1.69-4.41-2.96-5.32-6.4-.37-1.4.4-2.25 1.5-1.32z"/><path d="m100.44 79.63-3.17.34c-.57.1-1.64.19-1.98.66-1.18 1.64-1.38 2.32-2.06 3.71-.75 1.53 5.31-.32 7.83-2.82 1.03-1 .8-2.14-.62-1.89z"/><path d="m60.43 75.2c-.33-.66-1.31-1.14-1.85-1.37-1.06-.46-2.35-.5-3.42-.02-.22.1-.39.28-.45.51-.32 1.26.57 4.95 2.19 4.9.74-.02 1.55-.91 2.07-1.37.59-.52 1.3-1.16 1.53-1.95.07-.25.04-.49-.07-.7z"/></g><path d="m64.33 10.65c.51 0 1.04.01 1.55.04 8.31.4 16.37 3.37 22.68 8.35 6.59 5.2 10.58 11.99 11.55 19.62l.06.48c.23 1.77.49 3.79.05 5.05-.4 1.16-.06 2.45.87 3.25 12.72 11.02 19.17 18.18 19.89 20.31-.19.9-1.27 3.06-4.14 5.25-2.6 1.98-7.47 4.56-15.86 5.59-.72.09-1.38.43-1.86.97-.02.03-.05.05-.07.08-.44.41-1.03.81-1.66 1.15-.04-.09-.09-.18-.14-.26-.54-.93-1.53-1.49-2.59-1.49h-.06c-.52.01-1.05.02-1.59.02-9.17 0-20-1.62-32.19-4.81-.25-.07-.51-.1-.76-.1-.84 0-1.66.36-2.24 1-.21-1.1-1.02-2-2.11-2.32-12.7-3.68-23.21-8.1-31.26-13.15-.49-.31-1.04-.46-1.59-.46-.51 0-1.03.13-1.49.4-.12.07-.24.15-.34.23-.34-.58-.62-1.18-.76-1.72-.06-.85-.47-1.64-1.15-2.17-10.58-8.22-12.43-15.72-11.86-18.89.02-.11.04-.2.06-.26 1.78-1.52 11.66-4.53 27.52-7.47 1.2-.22 2.14-1.14 2.39-2.33.28-1.32 1.51-2.91 2.6-4.32l.28-.36c5.74-7.42 14.56-11.68 24.22-11.68m0-3c-10.57 0-20.34 4.76-26.59 12.85-1.37 1.77-2.99 3.76-3.44 5.89-6.73 1.25-27.72 5.39-29.58 8.89-.18.34-.33.78-.41 1.3-.68 3.78 1.06 12.49 12.95 21.75.01.17.03.35.09.54.78 2.93 4.01 6.76 5.02 6.76.17 0 .28-.11.3-.36.09-1.19.21-1.87.18-3.04 7.49 4.7 17.84 9.39 32.02 13.49.17 1.56.97 3.68 2.18 3.68h.04c.74-.02 1.55-.91 2.07-1.37.3-.26.62-.55.9-.87 13.54 3.55 24.35 4.91 32.95 4.91.56 0 1.11-.01 1.65-.02-.52.86-.76 1.5-1.24 2.48-.19.39.06.56.57.56 1.51 0 5.38-1.5 7.26-3.37.04-.04.07-.08.11-.12 16.63-2.04 22.01-10 22.6-13.36.03-.17.05-.32.05-.47.17-3.93-15.63-17.96-20.95-22.57.72-2.08.32-4.66.03-6.9-2.25-17.68-19.19-29.75-37.07-30.61-.56-.02-1.13-.04-1.69-.04z" fill="#424242" opacity=".2"/></svg>