<svg fill="none" height="220" viewBox="0 0 220 220" width="220" xmlns="http://www.w3.org/2000/svg" xmlns:xlink="http://www.w3.org/1999/xlink"><clipPath id="a"><path d="m0 0h220v220h-220z"/></clipPath><g clip-path="url(#a)"><path d="m185.511 34.3766c10.033 10.0205 18.093 22.02 23.523 35.3723 5.054 12.4254 7.835 26.0157 7.835 40.2511 0 7.703-.815 15.219-2.368 22.458-4.459 20.868-15.012 39.475-29.711 53.873-7.095 6.958-15.168 12.939-23.986 17.705-15.112 8.186-32.416 12.833-50.804 12.833-1.791 0-3.57-.044-5.336-.132-33.362-1.641-62.697-18.582-81.1472-43.946-12.82-17.63-20.38545-39.331-20.38545-62.791 0-1.171.01879-2.336.05636-3.501.77033-23.9739 9.44429-45.9564 23.49179-63.4234 17.9805-22.3582 44.7791-37.32634 75.1095-39.63105 2.712-.20667 5.449-.31314 8.211-.31314 24.055 0 46.251 7.94749 64.112 21.35619 4.034 3.0249 7.841 6.3317 11.399 9.889z" fill="#f9911e"/><path d="m86.5507 70.9232h-6.4933c-1.7291 0-3.1314-1.4022-3.1314-3.1314s1.4023-3.1314 3.1314-3.1314h6.4933c1.7292 0 3.1314 1.4022 3.1314 3.1314s-1.4016 3.1314-3.1314 3.1314z" fill="#fff"/><path d="m33.1598 70.9232h-3.2473c-1.7291 0-3.1314-1.4022-3.1314-3.1314s1.4023-3.1314 3.1314-3.1314h3.2473c1.7292 0 3.1314 1.4022 3.1314 3.1314s-1.4016 3.1314-3.1314 3.1314z" fill="#4d4d4d"/><path d="m103.507 70.9232h-6.4935c-1.7292 0-3.1314-1.4022-3.1314-3.1314s1.4022-3.1314 3.1314-3.1314h6.4935c1.729 0 3.131 1.4022 3.131 3.1314s-1.402 3.1314-3.131 3.1314z" fill="#fff"/><path d="m60.5771 59.0189h-17.3161c-1.7291 0-3.1314-1.4023-3.1314-3.1315 0-1.7291 1.4023-3.1314 3.1314-3.1314h17.3161c1.7292 0 3.1314 1.4023 3.1314 3.1314 0 1.7292-1.4022 3.1315-3.1314 3.1315z" fill="#4d4d4d"/><path d="m106.032 27.9941h-17.3161c-1.7292 0-3.1314-1.4022-3.1314-3.1314 0-1.7291 1.4022-3.1314 3.1314-3.1314h17.3161c1.729 0 3.131 1.4023 3.131 3.1314 0 1.7292-1.402 3.1314-3.131 3.1314z" fill="#4d4d4d"/><path d="m78.2536 42.4243h-9.3798c-1.7291 0-3.1314-1.4022-3.1314-3.1314s1.4023-3.1314 3.1314-3.1314h9.3798c1.7292 0 3.1315 1.4022 3.1315 3.1314s-1.4023 3.1314-3.1315 3.1314z" fill="#4d4d4d"/><path d="m113.968 42.4243h-3.607c-1.73 0-3.132-1.4022-3.132-3.1314s1.402-3.1314 3.132-3.1314h3.607c1.729 0 3.131 1.4022 3.131 3.1314s-1.402 3.1314-3.131 3.1314z" fill="#fff"/><path d="m124.791 42.4243h-3.608c-1.729 0-3.131-1.4022-3.131-3.1314s1.402-3.1314 3.131-3.1314h3.608c1.729 0 3.131 1.4022 3.131 3.1314s-1.402 3.1314-3.131 3.1314z" fill="#4d4d4d"/><path d="m164.113 42.4243h-9.38c-1.729 0-3.131-1.4022-3.131-3.1314s1.402-3.1314 3.131-3.1314h9.38c1.729 0 3.132 1.4022 3.132 3.1314s-1.403 3.1314-3.132 3.1314z" fill="#4d4d4d"/><path d="m56.2481 42.4249c-.2067 0-.4071-.0188-.6138-.0626-.2004-.0376-.3945-.1002-.5824-.1754-.1879-.0814-.3758-.1753-.5449-.2881-.1691-.119-.3319-.2442-.4759-.3945-.1441-.1441-.2756-.3006-.3883-.476-.1128-.1691-.2067-.3507-.2881-.5386-.0752-.1879-.1378-.3883-.1754-.5824-.0438-.2067-.0626-.4134-.0626-.6138 0-.8267.3319-1.6346.9144-2.217.144-.1441.3068-.2756.4759-.3883.1691-.1128.3508-.2067.5449-.2881.1879-.0752.382-.1378.5824-.1754 1.0209-.2067 2.1043.1253 2.8308.8518.1441.144.2693.3068.3883.4759.1128.1691.2067.3508.2881.5449.0752.1879.1378.382.1754.5824.0438.2005.0626.4071.0626.6138 0 .8267-.3319 1.6346-.9144 2.2108-.5887.5887-1.3903.9206-2.217.9206z" fill="#4d4d4d"/><path d="m75.0072 59.0189h-3.2466c-1.7292 0-3.1314-1.4023-3.1314-3.1315 0-1.7291 1.4022-3.1314 3.1314-3.1314h3.2466c1.7292 0 3.1314 1.4023 3.1314 3.1314 0 1.7292-1.4022 3.1315-3.1314 3.1315z" fill="#4d4d4d"/><path d="m134.915 59.0189h-6.9c-1.729 0-3.131-1.4023-3.131-3.1315 0-1.7291 1.402-3.1314 3.131-3.1314h6.9c1.729 0 3.131 1.4023 3.131 3.1314 0 1.7292-1.402 3.1315-3.131 3.1315z" fill="#fff"/><path d="m103.507 115.657h-6.4935c-1.7292 0-3.1314-1.403-3.1314-3.132s1.4022-3.131 3.1314-3.131h6.4935c1.729 0 3.131 1.402 3.131 3.131s-1.402 3.132-3.131 3.132z" fill="#fff"/><path d="m18.3688 115.657h-6.4933c-1.7291 0-3.13136-1.403-3.13136-3.132s1.40226-3.131 3.13136-3.131h6.4933c1.7292 0 3.1314 1.402 3.1314 3.131s-1.4022 3.132-3.1314 3.132z" fill="#4d4d4d"/><path d="m38.5715 130.087h-6.4939c-1.7292 0-3.1314-1.403-3.1314-3.132s1.4022-3.131 3.1314-3.131h6.4933c1.7291 0 3.1314 1.402 3.1314 3.131s-1.4017 3.132-3.1308 3.132z" fill="#4d4d4d"/><path d="m115.773 130.087h-6.494c-1.73 0-3.132-1.403-3.132-3.132s1.402-3.131 3.132-3.131h6.494c1.729 0 3.131 1.402 3.131 3.131s-1.402 3.132-3.131 3.132z" fill="#fff"/><path d="m85.83 145.96h-6.4933c-1.7291 0-3.1314-1.402-3.1314-3.132 0-1.729 1.4023-3.131 3.1314-3.131h6.4933c1.7292 0 3.1314 1.402 3.1314 3.131 0 1.73-1.4022 3.132-3.1314 3.132z" fill="#4d4d4d"/><path d="m67.4317 160.029h-6.4939c-1.7292 0-3.1314-1.402-3.1314-3.131s1.4022-3.132 3.1314-3.132h6.4939c1.7292 0 3.1314 1.403 3.1314 3.132s-1.4022 3.131-3.1314 3.131z" fill="#4d4d4d"/><path d="m122.266 160.029h-6.493c-1.73 0-3.132-1.402-3.132-3.131s1.402-3.132 3.132-3.132h6.493c1.729 0 3.131 1.403 3.131 3.132s-1.402 3.131-3.131 3.131z" fill="#fff"/><path d="m115.411 169.048h-12.987c-1.729 0-3.1315-1.402-3.1315-3.131s1.4025-3.132 3.1315-3.132h12.987c1.729 0 3.131 1.403 3.131 3.132s-1.401 3.131-3.131 3.131z" fill="#fff"/><path d="m94.8484 188.168h-11.1835c-1.7292 0-3.1315-1.402-3.1315-3.131 0-1.73 1.4023-3.132 3.1315-3.132h11.1828c1.7292 0 3.1314 1.402 3.1314 3.132 0 1.729-1.4016 3.131-3.1307 3.131z" fill="#fff"/><path d="m137.778 178.427h-3.968c-1.729 0-3.131-1.402-3.131-3.131s1.402-3.131 3.131-3.131h3.968c1.729 0 3.132 1.402 3.132 3.131s-1.403 3.131-3.132 3.131z" fill="#4d4d4d"/><path d="m108.557 198.269h-4.329c-1.73 0-3.132-1.403-3.132-3.132s1.402-3.131 3.132-3.131h4.329c1.729 0 3.131 1.402 3.131 3.131s-1.402 3.132-3.131 3.132z" fill="#fff"/><path d="m73.5643 198.269h-4.3289c-1.7292 0-3.1314-1.403-3.1314-3.132s1.4022-3.131 3.1314-3.131h4.3289c1.7291 0 3.1314 1.402 3.1314 3.131s-1.4023 3.132-3.1314 3.132z" fill="#4d4d4d"/><path d="m58.6468 170.633h-7.5755c-1.7291 0-3.1314-1.402-3.1314-3.132 0-1.729 1.4023-3.131 3.1314-3.131h7.5762c1.7291 0 3.1314 1.402 3.1314 3.131 0 1.73-1.4029 3.132-3.1321 3.132z" fill="#4d4d4d"/><path d="m166.278 169.048h-7.577c-1.729 0-3.131-1.402-3.131-3.131s1.402-3.132 3.131-3.132h7.577c1.729 0 3.131 1.403 3.131 3.132s-1.402 3.131-3.131 3.131z" fill="#4d4d4d"/><path d="m174.3 160.195h-11.183c-1.729 0-3.131-1.402-3.131-3.131s1.402-3.132 3.131-3.132h11.183c1.729 0 3.132 1.403 3.132 3.132s-1.403 3.131-3.132 3.131z" fill="#4d4d4d"/><path d="m46.5076 160.029h-12.2657c-1.7292 0-3.1314-1.402-3.1314-3.131s1.4022-3.132 3.1314-3.132h12.2657c1.7291 0 3.1314 1.403 3.1314 3.132s-1.4023 3.131-3.1314 3.131z" fill="#4d4d4d"/><path d="m188.283 145.96h-6.493c-1.729 0-3.132-1.402-3.132-3.132 0-1.729 1.403-3.131 3.132-3.131h6.493c1.729 0 3.132 1.402 3.132 3.131 0 1.73-1.403 3.132-3.132 3.132z" fill="#4d4d4d"/><path d="m172.861 145.96h-6.494c-1.729 0-3.131-1.402-3.131-3.132 0-1.729 1.402-3.131 3.131-3.131h6.494c1.729 0 3.131 1.402 3.131 3.131 0 1.73-1.402 3.132-3.131 3.132z" fill="#4d4d4d"/><path d="m133.088 145.96h-6.494c-1.729 0-3.131-1.402-3.131-3.132 0-1.729 1.402-3.131 3.131-3.131h6.494c1.729 0 3.131 1.402 3.131 3.131 0 1.73-1.401 3.132-3.131 3.132z" fill="#fff"/><path d="m77.5324 130.087h-10.462c-1.7292 0-3.1314-1.403-3.1314-3.132s1.4022-3.131 3.1314-3.131h10.462c1.7292 0 3.1314 1.402 3.1314 3.131s-1.4022 3.132-3.1314 3.132z" fill="#4d4d4d"/><path d="m56.6089 115.657h-15.1516c-1.7291 0-3.1314-1.403-3.1314-3.132s1.4023-3.131 3.1314-3.131h15.1516c1.7292 0 3.1314 1.402 3.1314 3.131s-1.4022 3.132-3.1314 3.132z" fill="#4d4d4d"/><path d="m31.0905 115.656c-.2067 0-.4071-.019-.6137-.063-.2005-.037-.3946-.1-.5825-.175-.1879-.081-.3695-.175-.5386-.288-.1753-.113-.3319-.244-.4822-.388-.5825-.583-.9144-1.391-.9144-2.217 0-.201.0188-.408.0626-.614.0376-.194.1002-.395.1754-.583.0814-.188.1754-.369.2881-.538.119-.176.2442-.332.3883-.476.1503-.144.3069-.276.4822-.389.1691-.118.3507-.212.5386-.288.1879-.081.382-.144.5825-.181 1.0208-.207 2.1043.131 2.8307.858.1441.144.2756.3.3883.476.1128.169.2067.35.2881.538.0752.188.1378.389.1754.583.0438.206.0626.413.0626.614 0 .826-.3319 1.634-.9144 2.217-.144.144-.3068.275-.4759.388s-.357.207-.5449.288c-.1879.075-.382.138-.5824.175-.2067.044-.4071.063-.6138.063z" fill="#4d4d4d"/><path d="m114.179 115.656c-.826 0-1.634-.332-2.217-.914-.582-.583-.914-1.391-.914-2.217 0-.207.019-.408.062-.614.038-.194.101-.395.176-.583s.175-.369.288-.538c.113-.176.244-.332.388-.476.727-.727 1.81-1.065 2.825-.858.2.037.401.1.588.181.188.076.37.17.539.282.175.119.332.251.476.395s.276.3.388.476c.113.169.213.35.288.538.082.188.138.389.182.583.038.206.063.407.063.614 0 .826-.339 1.634-.921 2.217-.144.144-.301.275-.476.388-.169.113-.351.207-.539.288-.187.075-.388.138-.588.175-.201.044-.407.063-.608.063z" fill="#fff"/><path d="m113.966 27.9954c-.2 0-.407-.0188-.607-.0627-.201-.0375-.401-.1002-.589-.1753-.188-.0814-.369-.1754-.539-.2881-.169-.119-.332-.2505-.476-.3946-.582-.5824-.914-1.384-.914-2.2107 0-.2067.019-.4134.056-.6138.044-.2004.101-.3945.182-.5824.075-.1942.175-.3758.288-.5449s.244-.3319.388-.476c.144-.144.307-.2755.476-.3883.17-.1127.351-.2066.539-.288.188-.0752.388-.1378.589-.1754.401-.0814.82-.0814 1.221 0 .2.0376.401.1002.589.1754.188.0814.369.1753.538.288.169.1128.332.2443.476.3883.144.1441.276.3069.389.476.112.1691.212.3507.288.5449.081.1879.137.382.181.5824.038.2004.057.4071.057.6138 0 .8267-.332 1.6283-.915 2.2107-.144.1441-.307.2756-.476.3946-.169.1127-.35.2067-.538.2881-.188.0751-.389.1378-.589.1753-.2.0439-.407.0627-.614.0627z" fill="#4d4d4d"/><path d="m120.101 84.2711h-6.494c-1.729 0-3.131-1.4022-3.131-3.1314s1.402-3.1314 3.131-3.1314h6.494c1.73 0 3.132 1.4022 3.132 3.1314s-1.402 3.1314-3.132 3.1314z" fill="#fff"/><g fill="#4d4d4d"><path d="m196.483 84.2711h-11.732c-1.729 0-3.131-1.4022-3.131-3.1314s1.402-3.1314 3.131-3.1314h11.732c1.729 0 3.132 1.4022 3.132 3.1314s-1.403 3.1314-3.132 3.1314z"/><path d="m69.9562 84.2711h-6.4933c-1.7291 0-3.1314-1.4022-3.1314-3.1314s1.4023-3.1314 3.1314-3.1314h6.4933c1.7292 0 3.1314 1.4022 3.1314 3.1314s-1.4016 3.1314-3.1314 3.1314z"/><path d="m158.764 97.2558c-.82 0-1.628-.3319-2.211-.9144-.582-.5824-.92-1.3903-.92-2.2107 0-.8267.338-1.6346.92-2.2171.727-.7264 1.81-1.0584 2.825-.858.2.0439.395.1002.589.1817.188.0751.369.1753.538.2881.169.1127.332.2442.476.3882.583.5825.915 1.3904.915 2.2171 0 .8204-.332 1.6283-.915 2.2107-.144.1441-.307.2756-.476.3883-.169.1128-.35.213-.538.2881-.194.0814-.389.1378-.589.1817-.2.0375-.407.0563-.614.0563z"/><path d="m54.0562 97.2558c-.2067 0-.4133-.0188-.6137-.0563-.2005-.0439-.3946-.1003-.5888-.1817-.1878-.0751-.3695-.1753-.5386-.2881-.1691-.1127-.3319-.2442-.4759-.3883-.1441-.144-.2756-.3068-.3883-.4759-.1128-.1691-.213-.3507-.2881-.5386-.0814-.1942-.1378-.3883-.1816-.5887-.0376-.2004-.0564-.4071-.0564-.6138 0-.2004.0188-.4071.0564-.6075.0438-.2004.1002-.4008.1816-.5887.0751-.1879.1753-.3695.2881-.5386.1127-.1691.2442-.3319.3883-.476.144-.144.3068-.2755.4759-.3882.1691-.1128.3508-.213.5386-.2881.1942-.0815.3883-.1378.5888-.1817 1.0208-.2004 2.098.1316 2.8245.858.144.1441.2755.3069.3883.476.1127.1691.2129.3507.2881.5386.0814.1879.1377.3883.1816.5887.0376.2004.0626.4071.0626.6075 0 .2067-.025.4134-.0626.6138-.0439.2004-.1002.3945-.1816.5887-.0752.1879-.1754.3695-.2881.5386-.1128.1691-.2443.3319-.3883.4759-.1441.1441-.3006.2756-.476.3883-.1691.1128-.3507.213-.5386.2881-.1879.0814-.3883.1378-.5887.1817-.2004.0375-.4071.0563-.6075.0563z"/><path d="m172.771 97.2583h-6.493c-1.73 0-3.132-1.4022-3.132-3.1314s1.402-3.1314 3.132-3.1314h6.493c1.729 0 3.131 1.4022 3.131 3.1314s-1.402 3.1314-3.131 3.1314z"/><path d="m208.124 97.2583h-6.493c-1.729 0-3.131-1.4022-3.131-3.1314s1.402-3.1314 3.131-3.1314h6.493c1.73 0 3.132 1.4022 3.132 3.1314s-1.402 3.1314-3.132 3.1314z"/><path d="m38.21 97.2583h-6.4933c-1.7291 0-3.1314-1.4022-3.1314-3.1314s1.4023-3.1314 3.1314-3.1314h6.4933c1.7292 0 3.1314 1.4022 3.1314 3.1314s-1.4016 3.1314-3.1314 3.1314z"/><path d="m161.587 70.9232h-6.493c-1.73 0-3.132-1.4022-3.132-3.1314s1.402-3.1314 3.132-3.1314h6.493c1.73 0 3.132 1.4022 3.132 3.1314s-1.402 3.1314-3.132 3.1314z"/></g><path d="m119.149 211.053c-12.501-4.415-23.9367-11.098-33.8069-19.546-22.9156-19.603-37.4391-48.725-37.4391-81.241 0-28.8344 11.4234-55.0067 29.9864-74.2273 10.2271-10.5904 22.6216-19.0765 36.4686-24.7381 5.774-2.35791 11.803-4.21984 18.029-5.54693-7.22-1.5394-14.707-2.3567-22.386-2.3567-14.3046 0-27.945 2.812-40.4142 7.90363-13.8471 5.6616-26.2412 14.1477-36.4684 24.7381-18.563 19.2206-29.98632 45.3929-29.98632 74.2273 0 32.516 14.52342 61.638 37.43912 81.241 9.8701 8.448 21.306 15.131 33.8066 19.546 11.1415 3.939 23.1348 6.081 35.6232 6.081 7.675 0 15.161-.814 22.379-2.352-4.522-.965-8.941-2.212-13.231-3.729z" fill="#000" opacity=".25"/><path d="m110 220c-60.6541 0-110-49.346-110-110 0-60.6541 49.3459-110 110-110 60.654 0 110 49.3459 110 110 0 60.654-49.346 110-110 110zm0-213.73719c-57.2008 0-103.73719 46.53639-103.73719 103.73719 0 57.201 46.53639 103.737 103.73719 103.737 57.201 0 103.737-46.536 103.737-103.737 0-57.2008-46.536-103.73719-103.737-103.73719z" fill="#333"/><path d="m156.782 32.9436c-.568 0-1.142-.1547-1.659-.4778-3.697-2.316-7.589-4.3802-11.569-6.137-1.582-.6983-2.298-2.547-1.6-4.129s2.548-2.2985 4.129-1.6002c4.254 1.8776 8.414 4.084 12.364 6.5591 1.466.9181 1.91 2.8502.992 4.3163-.595.9482-1.614 1.4686-2.657 1.4686z" fill="#fff"/><path d="m171.247 181.838c-.836 0-1.67-.334-2.287-.992-1.181-1.264-1.115-3.245.147-4.426 18.397-17.212 28.949-41.485 28.949-66.595 0-25.2539-10.127-48.7601-28.516-66.1882-1.255-1.19-1.308-3.1715-.118-4.4272 1.189-1.2551 3.172-1.3083 4.426-.119 19.649 18.6224 30.471 43.7426 30.471 70.7334 0 26.837-11.275 52.777-30.933 71.168-.604.566-1.372.846-2.139.846z" fill="#fff"/><path d="m158.076 192.147c-1.025 0-2.03-.502-2.63-1.426-.941-1.451-.529-3.39.922-4.332 1.596-1.036 3.182-2.137 4.712-3.273 1.389-1.03 3.35-.74 4.381.649 1.031 1.388.74 3.35-.649 4.381-1.635 1.213-3.329 2.389-5.035 3.497-.526.341-1.117.504-1.701.504z" fill="#fff"/></g></svg>