<svg enable-background="new 0 0 511.999 511.999" viewBox="0 0 511.999 511.999" xmlns="http://www.w3.org/2000/svg"><path d="m281.218 356.39-23.483 70.45c-4.091 12.272 1.465 25.684 13.035 31.469l85.61 42.805c9.4 4.7 20.706 3.277 28.648-3.607l100.901-87.447c9.293-8.054 11.67-21.517 5.698-32.266l-61.457-110.624c-7.813-14.063-26.397-17.724-38.96-7.673l-95.956 76.765c-6.522 5.216-11.395 12.206-14.036 20.128z" fill="#c0a27a"/><path d="m446.65 444.103-91.465-40.017c-10.618-4.645-16.878-15.761-15.347-27.25l11.38-85.346-55.963 44.77c-6.521 5.217-11.395 12.207-14.036 20.13l-23.483 70.45c-4.091 12.272 1.465 25.684 13.035 31.469l85.609 42.805c9.4 4.7 20.706 3.277 28.648-3.607z" fill="#af8764"/><path d="m84.444 38.971-67.205 100.807c-5.631 8.446-5.83 19.396-.51 28.041l50.504 82.069c5.99 9.735 17.639 14.414 28.699 11.528l163.553-42.666c10.969-2.861 20.38-9.909 26.213-19.63l54.127-90.212c7.903-13.172 2.721-30.289-11.162-36.865l-126.12-59.739c-8.187-3.877-17.383-5.091-26.296-3.471l-63.507 11.545c-11.564 2.103-21.777 8.813-28.296 18.593z" fill="#c0a27a"/><path d="m178.275 346.896-27.907 104.651c-2.162 8.107-9.821 13.5-18.182 12.804l-71.211-5.934c-9.936-.827-17.125-9.849-15.715-19.719l13.163-92.144c.955-6.686 5.707-12.207 12.176-14.147l67.656-20.298c5.269-1.581 10.976-.565 15.377 2.735l18.298 13.723c5.655 4.243 8.166 11.496 6.345 18.329z" fill="#af8764"/><path d="m108.497 421.964c-9.817 1.739-19.074-5.145-20.235-15.048l-9.029-77.102-8.635 2.591c-6.469 1.941-11.22 7.462-12.176 14.148l-13.163 92.144c-1.41 9.87 5.779 18.892 15.715 19.72l71.211 5.934c8.361.698 16.021-4.696 18.183-12.804l10.356-38.836z" fill="#a07353"/><g fill="#af8764"><path d="m421.961 92.052-11.504 46.016c-2.196 8.785 2.741 17.779 11.332 20.643l25.543 8.514c6.767 2.256 14.226.134 18.792-5.346l28.952-34.742c4.172-5.006 5.182-11.93 2.616-17.92l-14.57-33.997c-3.927-9.165-14.76-13.132-23.678-8.673l-28.421 14.21c-4.525 2.261-7.835 6.388-9.062 11.295z"/><path d="m159.787 193.381c7.68-4.517 12.839-12.862 12.839-22.416 0-14.356-11.637-25.993-25.993-25.993-10.974 0-20.353 6.804-24.165 16.42l-4.051-3.472c-8.915-7.641-11.601-20.311-6.552-30.912l55.506-116.562-54.629 9.933c-11.564 2.102-21.777 8.813-28.296 18.592l-67.207 100.806c-5.631 8.446-5.83 19.396-.51 28.041l50.504 82.07c5.99 9.735 17.638 14.413 28.698 11.528l109.811-28.646z"/><circle cx="215.951" cy="127.638" r="17.329"/></g><circle cx="354.582" cy="422.229" fill="#c0a27a" r="17.329"/><circle cx="241.944" cy="300.927" fill="#af8764" r="17.329"/><circle cx="363.247" cy="196.954" fill="#af8764" r="17.329"/><path d="m89.261 270.402c2.886 0 5.815-.367 8.721-1.125l163.553-42.667c13.105-3.419 24.16-11.698 31.127-23.311l54.127-90.212c4.944-8.241 6.183-18.242 3.399-27.439s-9.363-16.832-18.048-20.945l-126.119-59.741c-9.78-4.632-20.578-6.059-31.227-4.122l-63.507 11.548c-13.655 2.482-25.903 10.529-33.602 22.078l-67.204 100.806c-7.366 11.049-7.629 25.496-.669 36.804l50.504 82.069c6.341 10.306 17.316 16.257 28.945 16.257zm-65.263-126.119 67.203-100.806c5.268-7.902 13.649-13.408 22.992-15.106l63.508-11.548c7.286-1.325 14.673-.35 21.365 2.82l126.12 59.741c4.616 2.187 7.973 6.084 9.454 10.971 1.481 4.888.848 9.993-1.781 14.373l-54.127 90.212c-4.768 7.945-12.332 13.61-21.298 15.95l-163.552 42.667c-7.655 1.998-15.584-1.188-19.73-7.926l-50.504-82.069c-3.646-5.923-3.508-13.491.35-19.279z"/><path d="m437.27 263.225c-4.888-8.798-13.355-14.959-23.229-16.904-9.875-1.946-20.045.545-27.906 6.833l-95.957 76.765c-7.761 6.209-13.524 14.475-16.667 23.903l-23.483 70.45c-5.334 16.002 2.021 33.759 17.108 41.302l85.609 42.805c4.862 2.431 10.089 3.621 15.279 3.621 8.029 0 15.969-2.847 22.322-8.354l100.901-87.447c12.127-10.511 15.273-28.321 7.479-42.35zm43.339 140.698-100.901 87.447c-5.479 4.749-13.211 5.722-19.695 2.48l-85.61-42.805c-7.903-3.951-11.756-13.252-8.961-21.635l23.483-70.45c2.15-6.452 6.094-12.106 11.404-16.355l95.956-76.765c4.117-3.292 9.443-4.6 14.618-3.578 5.173 1.018 9.608 4.246 12.168 8.854l61.457 110.625c4.08 7.346 2.433 16.675-3.919 22.182z"/><path d="m176.802 322.069-18.298-13.723c-6.436-4.827-14.877-6.329-22.584-4.016l-67.657 20.296c-9.466 2.841-16.485 10.996-17.882 20.78l-13.165 92.144c-.987 6.91.942 14.004 5.292 19.461 4.351 5.459 10.834 8.922 17.79 9.502l71.211 5.934c.718.06 1.43.09 2.138.09 11.439 0 21.574-7.669 24.568-18.895l27.907-104.651c2.692-10.091-.967-20.657-9.32-26.922zm-6.375 22.734-27.907 104.652c-1.15 4.311-5.217 7.175-9.66 6.802l-71.211-5.934c-2.553-.212-4.838-1.433-6.434-3.437s-2.277-4.503-1.914-7.04l13.163-92.144c.506-3.538 3.044-6.489 6.468-7.515l67.657-20.296c.862-.259 1.749-.384 2.633-.384 1.973 0 3.928.631 5.536 1.838l18.298 13.723c3.02 2.264 4.343 6.086 3.371 9.735z"/><path d="m419.22 166.416 25.542 8.514c2.682.894 5.42 1.327 8.124 1.327 7.396 0 14.53-3.243 19.477-9.179l28.951-34.742c6.159-7.391 7.631-17.476 3.842-26.32l-14.57-33.997c-2.75-6.415-8.085-11.472-14.64-13.873-6.554-2.401-13.893-1.987-20.136 1.134l-28.421 14.211c-6.654 3.327-11.505 9.374-13.31 16.591l-11.504 46.015c-3.203 12.822 4.108 26.139 16.645 30.319zm-.883-26.379 11.504-46.015c.653-2.61 2.408-4.798 4.814-6.001l28.421-14.21c1.303-.652 2.7-.979 4.107-.979 1.067 0 2.139.188 3.178.569 2.405.882 4.287 2.663 5.295 5.018l14.57 33.997c1.371 3.199.838 6.847-1.39 9.521l-28.951 34.742c-2.443 2.933-6.362 4.046-9.984 2.84l-25.543-8.514c-4.535-1.513-7.179-6.331-6.021-10.968z"/><path d="m337.792 196.958c0 14.034 11.418 25.452 25.452 25.452s25.452-11.418 25.452-25.452-11.418-25.452-25.452-25.452c-14.035 0-25.452 11.418-25.452 25.452zm25.451-9.206c5.076 0 9.206 4.13 9.206 9.206s-4.13 9.206-9.206 9.206-9.206-4.13-9.206-9.206 4.13-9.206 9.206-9.206z"/><path d="m267.393 300.931c0-14.034-11.418-25.452-25.452-25.452s-25.452 11.418-25.452 25.452 11.418 25.452 25.452 25.452 25.452-11.417 25.452-25.452zm-25.452 9.206c-5.076 0-9.206-4.13-9.206-9.206s4.13-9.206 9.206-9.206 9.206 4.13 9.206 9.206c0 5.077-4.13 9.206-9.206 9.206z"/><path d="m146.632 205.081c18.812 0 34.116-15.305 34.116-34.116s-15.305-34.116-34.116-34.116-34.116 15.305-34.116 34.116 15.304 34.116 34.116 34.116zm0-51.987c9.854 0 17.87 8.017 17.87 17.87s-8.017 17.87-17.87 17.87c-9.854 0-17.87-8.017-17.87-17.87s8.016-17.87 17.87-17.87z"/><path d="m215.948 153.094c14.034 0 25.452-11.418 25.452-25.452s-11.418-25.452-25.452-25.452-25.452 11.418-25.452 25.452 11.417 25.452 25.452 25.452zm0-34.658c5.076 0 9.206 4.13 9.206 9.206s-4.13 9.206-9.206 9.206-9.206-4.13-9.206-9.206 4.129-9.206 9.206-9.206z"/><path d="m354.579 396.782c-14.034 0-25.452 11.418-25.452 25.452s11.418 25.452 25.452 25.452 25.452-11.418 25.452-25.452c0-14.035-11.418-25.452-25.452-25.452zm0 34.658c-5.076 0-9.206-4.13-9.206-9.206s4.13-9.206 9.206-9.206 9.206 4.13 9.206 9.206-4.13 9.206-9.206 9.206z"/><path d="m133.635 101.107c6.868 0 12.455-5.587 12.455-12.455s-5.587-12.455-12.455-12.455-12.455 5.587-12.455 12.455 5.588 12.455 12.455 12.455z"/><path d="m384.905 336.131c-6.868 0-12.455 5.587-12.455 12.455s5.587 12.455 12.455 12.455 12.455-5.587 12.455-12.455-5.588-12.455-12.455-12.455z"/><path d="m436.891 370.789c-6.868 0-12.455 5.587-12.455 12.455s5.587 12.455 12.455 12.455 12.455-5.587 12.455-12.455-5.587-12.455-12.455-12.455z"/><path d="m98.978 396.782c-6.868 0-12.455 5.587-12.455 12.455s5.587 12.455 12.455 12.455 12.455-5.587 12.455-12.455-5.588-12.455-12.455-12.455z"/><path d="m120.595 362.124c-4.486 0-8.166 3.68-8.166 8.166s3.68 8.166 8.166 8.166 8.166-3.679 8.166-8.166c.001-4.487-3.68-8.166-8.166-8.166z"/><path d="m311.798 253.277c0 6.868 5.587 12.455 12.455 12.455s12.455-5.587 12.455-12.455-5.587-12.455-12.455-12.455c-6.867 0-12.455 5.587-12.455 12.455z"/><path d="m211.615 396.782c-6.868 0-12.455 5.587-12.455 12.455s5.587 12.455 12.455 12.455 12.455-5.587 12.455-12.455c.001-6.868-5.587-12.455-12.455-12.455z"/><path d="m384.905 57.785c6.868 0 12.455-5.587 12.455-12.455s-5.587-12.455-12.455-12.455-12.455 5.587-12.455 12.455 5.587 12.455 12.455 12.455z"/><path d="m42.16 300.975c0-4.486-3.68-8.166-8.166-8.166s-8.166 3.68-8.166 8.166 3.68 8.166 8.166 8.166 8.166-3.68 8.166-8.166z"/><path d="m459.051 240.237c0 4.486 3.68 8.166 8.166 8.166s8.166-3.68 8.166-8.166-3.68-8.166-8.166-8.166-8.166 3.68-8.166 8.166z"/></svg>