<svg viewBox="0 0 256 256" xmlns="http://www.w3.org/2000/svg"><path d="m101.64844 187.09863c-5.4541 16.36035-18.45117 28.3794-37.58692 34.75782a92.73569 92.73569 0 0 1 -26.57129 4.65332 8.00041 8.00041 0 0 1 -8-8 92.73335 92.73335 0 0 1 4.65332-26.57129c6.37891-19.13623 18.39747-32.1333 34.75782-37.58692a8.00027 8.00027 0 1 1 5.06054 15.1792c-19.6582 6.55224-25.74707 27.88965-27.62991 40.13824 12.24219-1.88282 33.584-7.9712 40.13672-27.62989a8.00035 8.00035 0 1 1 15.17969 5.05957zm99.89062-76.06933-8.9707 8.9707v61.25488a15.8955 15.8955 0 0 1 -4.68555 11.313l-32.34181 32.34228a16.00017 16.00017 0 0 1 -27.00391-8.17578l-7.90674-39.53516-41.82975-41.82959-39.535-7.90723a16.00008 16.00008 0 0 1 -8.17673-27.0024l32.34179-32.34232a15.90118 15.90118 0 0 1 11.31446-4.686h61.25421l8.9704-8.9707c28.58789-28.58643 57.92187-27.75733 69.209-26.07324a15.879 15.879 0 0 1 13.43357 13.43257c1.68458 11.28614 2.5147 40.6211-26.07324 69.20899zm-159.13574.74414 37.7121 7.542 39.884-39.88379h-45.2543zm51.65527 16.22656 33.94141 33.94141 62.22461-62.22559c7.80957-7.80957 25.54394-28.854 21.56348-55.5332-26.66016-3.95215-47.69532 13.7832-55.50391 21.59228zm82.50977 8.00049-39.884 39.88428 7.54217 37.71191 32.3418-32.3418z"/></svg>