<svg clip-rule="evenodd" fill-rule="evenodd" height="6.82666in" image-rendering="optimizeQuality" shape-rendering="geometricPrecision" text-rendering="geometricPrecision" viewBox="0 0 6.82666 6.82666" width="6.82666in" xmlns="http://www.w3.org/2000/svg"><path d="m0 0h.64v.106669h-.64z" fill="#01579b" transform="matrix(.750064 .750064 -.750064 .750064 3.72469 3.64468)"/><path d="m0 0h.64v.106669h-.64z" fill="#01579b" transform="matrix(.750064 .750064 -.750064 .750064 2.65327 2.57326)"/><path d="m0 0h2.30221v.889811h-2.30221z" fill="#0277bd" transform="matrix(.767069 .767069 -.661482 .661482 4.20738 3.61878)"/><g fill="#eee"><path d="m4.20844 3.61772.294295.294299.00105512.00105906-.00105512.00105906-.294295.294295-.00105906.00105906-.00105906-.00105906-.294295-.294295-.00105906-.00105906.00105906-.00105906.294295-.294299.00105906-.00106299zm.291118.295358-.292177-.292181-.292177.292181.292177.292177z" fill-rule="nonzero"/><path d="m4.79385 4.20738-.292181-.292177-.292177.292177.292177.292181zm-.291122-.295354.294299.294295.00105906.00105512-.00105906.00106299-.294299.294299-.00106299.00105906-.00105512-.00105906-.294295-.294299-.00105906-.00106299.00105906-.00105512.294295-.294295.00105512-.00105906z" fill-rule="nonzero"/><path d="m4.79703 4.20632.294295.294299.00105512.00105906-.00105512.00105906-.294295.294295-.00105906.00105512-.00105906-.00105512-.294299-.294295-.00106299-.00105906.00106299-.00105906.294299-.294299.00105906-.00106299zm.291118.295358-.292177-.292181-.292181.292181.292181.292177z" fill-rule="nonzero"/><path d="m5.38245 4.79597-.292181-.292177-.292177.292177.292177.292177zm-.291122-.295354.294299.294295.00105906.00105906-.00105906.00105906-.294299.294295-.00106299.00105512-.00105512-.00105512-.294295-.294295-.00105906-.00105906.00105906-.00105906.294295-.294295.00105512-.00105906z" fill-rule="nonzero"/><path d="m5.38563 4.79491.294295.294295.00105512.00105512-.00105512.00106299-.294295.294299-.00105906.00105906-.00105906-.00105906-.294299-.294299-.00106299-.00106299.00106299-.00105512.294299-.294295.00105906-.00105906zm.291118.295354-.292177-.292177-.292181.292177.292181.292181z" fill-rule="nonzero"/><path d="m5.97104 5.38457-.292181-.292181-.292177.292181.292177.292177zm-.291122-.295358.294299.294299.00105906.00105906-.00105906.00105906-.294299.294295-.00106299.00105512-.00105512-.00105512-.294295-.294295-.00105906-.00105906.00105906-.00105906.294295-.294299.00105512-.00106299z" fill-rule="nonzero"/><path d="m3.6209 4.20738.292181.292181.292177-.292181-.292177-.292177zm.291122.295358-.294299-.294299-.00106299-.00106299.00106299-.00105512.294299-.294295.00105906-.00105906.00105906.00105906.294295.294295.00105512.00105512-.00105512.00106299-.294295.294299-.00105906.00105906z" fill-rule="nonzero"/><path d="m4.20632 4.79703-.294295-.294295-.00105906-.00105906.00105906-.00105906.294295-.294299.00105906-.00106299.00105906.00106299.294295.294299.00105512.00105906-.00105512.00105906-.294295.294295-.00105906.00105906zm-.291118-.295354.292177.292177.292177-.292177-.292177-.292181z" fill-rule="nonzero"/><path d="m4.2095 4.79597.292177.292177.292181-.292177-.292181-.292177zm.291118.295354-.294295-.294295-.00105906-.00105906.00105906-.00105906.294295-.294295.00105512-.00105906.00106299.00105906.294299.294295.00105906.00105906-.00105906.00105906-.294299.294295-.00106299.00105512z" fill-rule="nonzero"/><path d="m4.79491 5.38563-.294299-.294299-.00106299-.00106299.00106299-.00105512.294299-.294295.00105906-.00105906.00105906.00105906.294295.294295.00105512.00105512-.00105512.00106299-.294295.294299-.00105906.00105906zm-.291122-.295358.292181.292181.292177-.292181-.292177-.292177z" fill-rule="nonzero"/><path d="m4.79809 5.38457.292177.292177.292181-.292177-.292181-.292181zm.291118.295354-.294295-.294295-.00105906-.00105906.00105906-.00105906.294295-.294299.00105512-.00106299.00106299.00106299.294299.294299.00105906.00105906-.00105906.00105906-.294299.294295-.00106299.00105512z" fill-rule="nonzero"/><path d="m5.38351 5.97422-.294299-.294299-.00106299-.00106299.00106299-.00105512.294299-.294295.00105906-.00105906.00105906.00105906.294295.294295.00105512.00105512-.00105512.00106299-.294295.294299-.00105906.00105906zm-.291122-.295358.292181.292181.292177-.292181-.292177-.292177z" fill-rule="nonzero"/></g><path d="m0 0h2.30221v.889811h-2.30221z" fill="#0277bd" transform="matrix(.767069 .767069 -.661482 .661482 1.44192 .85333)"/><path d="m1.44298.852272.294299.294295.00106299.00105906-.00106299.00105906-.294299.294299-.00105906.00106299-.00105906-.00106299-.294295-.294299-.00105512-.00105906.00105512-.00105906.294295-.294295.00105906-.00105512zm.291122.295354-.292181-.292177-.292177.292177.292177.292181z" fill="#eee" fill-rule="nonzero"/><path d="m2.0284 1.44193-.292177-.292181-.292181.292181.292181.292177zm-.291118-.295358.294295.294299.00105906.00106299-.00105906.00105512-.294295.294295-.00105512.00105906-.00106299-.00105906-.294299-.294295-.00105906-.00105512.00105906-.00106299.294299-.294299.00106299-.00105906z" fill="#eee" fill-rule="nonzero"/><path d="m2.03157 1.44087.294299.294295.00106299.00105906-.00106299.00105906-.294299.294295-.00105906.00105906-.00105906-.00105906-.294295-.294295-.00105906-.00105906.00105906-.00105906.294295-.294295.00105906-.00105512zm.291122.295354-.292181-.292177-.292177.292177.292177.292177z" fill="#eee" fill-rule="nonzero"/><path d="m2.61699 2.03052-.292177-.292177-.292181.292177.292181.292181zm-.291118-.295354.294295.294295.00105906.00105906-.00105906.00105906-.294295.294299-.00105512.00106299-.00106299-.00106299-.294299-.294299-.00105906-.00105906.00105906-.00105906.294299-.294295.00106299-.00105512z" fill="#eee" fill-rule="nonzero"/><path d="m2.62017 2.02946.294299.294299.00106299.00106299-.00106299.00105512-.294299.294295-.00105906.00105906-.00105906-.00105906-.294295-.294295-.00105512-.00105512.00105512-.00106299.294295-.294299.00105906-.00105906zm.291122.295358-.292181-.292181-.292177.292181.292177.292177z" fill="#eee" fill-rule="nonzero"/><path d="m3.20559 2.61911-.292177-.292177-.292181.292177.292181.292181zm-.291118-.295354.294295.294295.00105906.00105906-.00105906.00105906-.294295.294299-.00105512.00106299-.00106299-.00106299-.294299-.294299-.00105906-.00105906.00105906-.00105906.294299-.294295.00106299-.00105512z" fill="#eee" fill-rule="nonzero"/><path d="m.855449 1.44193.292177.292177.292177-.292177-.292177-.292181zm.291118.295354-.294295-.294295-.00105512-.00105512.00105512-.00106299.294295-.294299.00105906-.00105906.00105906.00105906.294295.294299.00105906.00106299-.00105906.00105512-.294295.294295-.00105906.00105906z" fill="#eee" fill-rule="nonzero"/><path d="m1.44086 2.03157-.294295-.294295-.00105906-.00105906.00105906-.00105906.294295-.294295.00105906-.00105512.00105906.00105512.294299.294295.00106299.00105906-.00106299.00105906-.294299.294295-.00105906.00105906zm-.291118-.295354.292177.292177.292181-.292177-.292181-.292177z" fill="#eee" fill-rule="nonzero"/><path d="m1.44404 2.03052.292181.292181.292177-.292181-.292177-.292177zm.291122.295358-.294299-.294299-.00105906-.00105906.00105906-.00105906.294299-.294295.00106299-.00105512.00105512.00105512.294295.294295.00105906.00105906-.00105906.00105906-.294295.294299-.00105512.00106299z" fill="#eee" fill-rule="nonzero"/><path d="m2.02946 2.62017-.294295-.294295-.00105512-.00105512.00105512-.00106299.294295-.294299.00105906-.00105906.00105906.00105906.294299.294299.00106299.00106299-.00106299.00105512-.294299.294295-.00105906.00105906zm-.291118-.295354.292177.292177.292181-.292177-.292181-.292181z" fill="#eee" fill-rule="nonzero"/><path d="m2.03263 2.61911.292181.292181.292177-.292181-.292177-.292177zm.291122.295358-.294299-.294299-.00105906-.00105906.00105906-.00105906.294299-.294295.00106299-.00105512.00105512.00105512.294295.294295.00105906.00105906-.00105906.00105906-.294295.294299-.00105512.00106299z" fill="#eee" fill-rule="nonzero"/><path d="m2.61805 3.20876-.294295-.294295-.00105512-.00105512.00105512-.00106299.294295-.294299.00105906-.00105906.00105906.00105906.294299.294299.00106299.00106299-.00106299.00105512-.294299.294295-.00105906.00105906zm-.291118-.295354.292177.292177.292181-.292177-.292181-.292181z" fill="#eee" fill-rule="nonzero"/><path d="m3.76802 2.45859.600055.600051c.0550079.0550079.0648425.135169.0218622.178154l-1.40661 1.40661c-.0429803.0429803-.123146.0331417-.17815-.0218622l-.600055-.600055c-.0550039-.0550079-.0648425-.135169-.0218622-.17815l1.40661-1.40661c.0429803-.0429803.123146-.0331417.17815.0218661z" fill="#616161"/><path d="m4.06805 2.75861.00259449.00259449.297433.297433c.0550079.0550079.0648425.135169.0218622.178154l-1.40661 1.40661c-.0429803.0429803-.123146.0331417-.17815-.0218622l-.299673-.299673-.00035433-.00035827 1.5629-1.5629z" fill="#616161"/><path d="m3.76802 2.45859.300028.300024-1.5629 1.5629-.300028-.300024c-.0550039-.0550079-.0648425-.135169-.0218622-.17815l1.40661-1.40661c.0429803-.0429803.123146-.0331417.17815.0218661z" fill="#757575"/><path d="m2.03162 4.85989-.38725.38726-.06501-.06501.38725-.38725z" fill="#283593" fill-rule="nonzero"/><path d="m1.67783 4.36629v.85664h-.09193v-.85664z" fill="#283593" fill-rule="nonzero"/><path d="m2.47789 5.16636.00001.09193h-.85664v-.09193z" fill="#283593" fill-rule="nonzero"/><path d="m1.29952 4.22019c.365957-.260795.87726-.227094 1.20557.10122.328319.328319.36202.839622.101224 1.20558l-1.3068-1.3068z" fill="#424242"/><path d="m2.5051 4.32141.00209449.00214173c.326343.328398.359358.838268.0991299 1.20344l-.652417-.652413-.00098425-.00098819.552177-.552177z" fill="#3b3b3b"/><path d="m1.29952 4.22018c.365957-.260795.87726-.227094 1.20558.101224l-.552177.552177-.653402-.653402z" fill="#424242"/><circle fill="#bf360c" r=".053335" transform="matrix(1.50002 1.50002 -1.50002 1.50002 1.63186 5.19464)"/><path d="m0 0h6.82666v6.82666h-6.82666z" fill="none"/></svg>