<svg viewBox="0 0 64 64" xmlns="http://www.w3.org/2000/svg" xmlns:xlink="http://www.w3.org/1999/xlink"><path d="m24.4 24.4c3.2-3.2 3.2-8.4 0-11.6l-11.6 11.6c3.2 3.2 8.4 3.2 11.6 0" fill="#d0d0d0"/><path d="m27 27c-4.3 4.3-4.3 4.3-6 2.6s-1.7-1.7 2.6-6 4.3-4.3 6-2.6 1.7 1.7-2.6 6" fill="#94989b"/><path d="m37.2 37.2c-4.3 4.3-4.3 4.3-6 2.6l-6.9-6.9c-1.7-1.7-1.7-1.7 2.6-6s4.3-4.3 6-2.6l6.9 6.9c1.7 1.7 1.7 1.7-2.6 6" fill="#7f8285"/><path d="m39.6 39.6c-3.2 3.2-3.2 3.2-4.5 1.9s-1.3-1.3 1.9-4.5 3.2-3.2 4.5-1.9c1.3 1.2 1.3 1.2-1.9 4.5" fill="#646669"/><path d="m22.2 15-7.1-1.3c0-.3-.1-.5-.3-.7-.4-.4-1.2-.4-1.6 0s-.4 1.2 0 1.6c.2.2.4.3.6.3l1.4 7.2.8-.8h-.2l-1.2-6.5c.1-.1.2-.1.3-.2s.1-.1.1-.2l6.5 1.2v.2z" fill="#94989b"/><path d="m25.756 37.336 1.485-1.484.919.92-1.485 1.484zm10.11-10.096 1.485-1.484.919.919-1.485 1.485z" fill="#3e4347"/><path id="a" d="m31.1 42.6c.2.2.2.5 0 .7l-18.6 18.6c-.2.2-.5.2-.7 0l-9.7-9.7c-.1-.2-.1-.5 0-.7l18.6-18.6c.2-.2.5-.2.7 0z" fill="#428bc1"/><use xlink:href="#a"/><path d="m61.9 11.9c.2.2.2.5 0 .7l-18.6 18.5c-.2.2-.5.2-.7 0l-9.7-9.7c-.2-.2-.2-.5 0-.7l18.6-18.6c.2-.1.5-.1.6 0z" fill="#428bc1"/><path d="m3.3 51.8.7.7h16.4l5.1-5.1h-17.8zm25.9-9.5h-16.4l-2.5 2.6h17.7l1.9-1.9zm4.9-21.3.7.7h16.4l5.1-5.1h-17.8zm25.9-9.5h-16.4l-2.5 2.6h17.7l1.9-1.9z" fill="#42ade2"/></svg>