<svg fill="none" height="220" viewBox="0 0 220 220" width="220" xmlns="http://www.w3.org/2000/svg" xmlns:xlink="http://www.w3.org/1999/xlink"><clipPath id="a"><path d="m0 0h220v220h-220z"/></clipPath><g clip-path="url(#a)"><path d="m177.841 52.5219c5.721 0 10.358-4.6374 10.358-10.358s-4.637-10.358-10.358-10.358c-5.72 0-10.358 4.6374-10.358 10.358s4.638 10.358 10.358 10.358z" fill="#61ccf2"/><path d="m170.517 34.8395c4.045-4.0444 10.604-4.0444 14.649 0 4.044 4.0445 4.044 10.6043 0 14.6488" fill="#fff"/><path d="m146.087 118.672-8.448 8.442-10.53 10.53-6.19 6.196-.544-.543-44.2094-44.215 6.1959-6.1906 10.5304-10.5305 8.4371-8.4422 44.215 44.2103z" fill="#f24125"/><path d="m162.697 71.5668c5.542 11.1421 4.108 24.8681-4.308 34.6652l-.58-.369-44.157-44.1516c9.734-8.437 23.391-9.9451 34.533-4.5296l14.422 14.4272z" fill="#f24125"/><path d="m217.363 189.537-27.831 27.826-14.665-14.664.375-.375 27.077-27.082.375-.375z" fill="#fcbc1d"/><path d="m202.694 174.867-.375.375-27.077 27.082-.375.375-15.044-15.044.375-.375 27.082-27.077.375-.375z" fill="#fcbc1d"/><path d="m187.655 159.828-.375.375-27.083 27.077-.374.375-15.039-15.039.375-.38 27.077-27.077.374-.375z" fill="#fcbc1d"/><path d="m172.61 144.784-.374.375-27.077 27.077-.375.38-14.669-14.67 8.647-8.653 10.531-10.531 8.648-8.648z" fill="#fcbc1d"/><path d="m81.2436 70.7126-10.5304 10.5304-8.6532 8.6479-14.6646-14.6645.3739-.3797 27.078-27.0775.3797-.3744 14.6645 14.6646z" fill="#fcbc1d"/><path d="m75.2269 47.3948-.3797.3744-27.078 27.0775-.3738.3797-15.0443-15.0442.3744-.3797 27.0775-27.0775.3797-.3744z" fill="#fcbc1d"/><path d="m60.1827 32.3506-.3797.3744-27.0775 27.0775-.3744.3797-15.0442-15.0443.3744-.3796 27.0775-27.0775.3797-.3744z" fill="#fcbc1d"/><path d="m45.1385 17.3064-.3797.3744-27.0775 27.0775-.3744.3796-14.66978-14.6698 27.83158-27.83153z" fill="#fcbc1d"/><g fill="#000" opacity=".25"><path d="m189.532 217.363-14.665-14.664.375-.375 27.077-27.082.375-.375z" opacity=".25"/><path d="m175.242 202.324-.375.375-15.044-15.044.375-.375 27.082-27.077.375-.375z" opacity=".25"/><path d="m160.197 187.28-.374.375-15.039-15.039.375-.38 27.077-27.077.374-.375z" opacity=".25"/><path d="m145.159 172.236-.375.38-14.669-14.67 8.647-8.653 10.531-10.531 8.648-8.648z" opacity=".25"/><path d="m62.06 89.8909-14.6646-14.6645.3739-.3797 27.078-27.0775.3797-.3744z" opacity=".25"/><path d="m47.7692 74.8467-.3738.3797-15.0443-15.0442.3744-.3797 27.0775-27.0775.3797-.3744z" opacity=".25"/><path d="m32.7255 59.8025-.3744.3797-15.0442-15.0442.3744-.3797 27.0775-27.0775.3797-.3744z" opacity=".25"/><path d="m17.6813 44.7583-.3744.3796-14.66978-14.6698 27.83158-27.83153z" opacity=".25"/></g><path d="m120.919 143.84-13.979 13.979-44.7588-44.753 13.9844-13.984 44.2094 44.215z" fill="#4a7984"/><path d="m157.809 105.863.58.369c-.522.612-1.076 1.208-1.656 1.788l-10.646 10.652-.543-.543-44.216-44.2104 10.652-10.6517c.543-.5431 1.102-1.0599 1.672-1.5555z" fill="#4a7984"/><path d="m199.171 20.8341c12.36 12.3549 12.36 32.3928 0 44.753-9.871 9.8713-24.641 11.8487-36.49 5.9481.005.0105.011.0211.016.0316l-.09.0422-14.422-14.4273c.095.0422.19.0897.285.1371-5.901-11.8434-3.928-26.6134 5.948-36.4847 12.355-12.36022 32.393-12.36022 44.753 0zm-14.005 28.6541c4.044-4.0444 4.044-10.6042 0-14.6487-4.045-4.0445-10.605-4.0445-14.649 0s-4.044 10.6043 0 14.6487c4.044 4.0445 10.604 4.0445 14.649 0z" fill="#4a7984"/><path d="m106.939 160.456c-.674 0-1.349-.257-1.864-.772l-44.7584-44.753c-.4946-.495-.7725-1.165-.7725-1.865 0-.699.2774-1.37.7725-1.864l49.7994-49.7996c.561-.5601 1.167-1.1253 1.805-1.6801 8.874-7.6908 20.901-10.213 31.928-7.0232-3.421-11.8377-.242-24.7874 8.706-33.7296 6.472-6.4754 15.081-10.04158 24.238-10.04158s17.767 3.56618 24.243 10.04218c6.476 6.4727 10.042 15.0811 10.042 24.2389 0 9.1573-3.566 17.7668-10.042 24.2427-6.587 6.5872-15.349 10.0474-24.238 10.0484-3.179 0-6.372-.4418-9.491-1.3425 3.177 10.9665.703 22.9212-6.918 31.7924-.548.643-1.153 1.296-1.79 1.934l-49.795 49.8c-.515.515-1.19.772-1.865.772zm-41.0292-47.39 41.0302 41.025 47.93-47.935c.54-.541 1.05-1.091 1.515-1.636 7.603-8.8524 9.153-21.3238 3.952-31.7794-.003-.0063-.006-.0121-.009-.0184l-.016-.0317c-.494-1.0151-.288-2.2326.514-3.0278s2.022-.9914 3.032-.4883c11.18 5.5679 24.621 3.3759 33.45-5.4524 5.481-5.4798 8.498-12.7652 8.498-20.514 0-7.7484-3.018-15.0327-8.498-20.5098-5.48-5.4804-12.765-8.4982-20.514-8.4982-7.748 0-15.032 3.0178-20.51 8.4976-8.831 8.8267-11.022 22.2668-5.453 33.4448.506 1.0151.306 2.24-.496 3.0415-.803.8021-2.028.9998-3.043.4926-.06-.0301-.119-.0607-.179-.0876-.027-.0116-.053-.0242-.079-.0369-10.456-5.0822-22.881-3.4528-31.654 4.151-.542.472-1.06.9539-1.534 1.428z" fill="#333"/><path d="m157.753 92.3972c-.151 0-.305-.0131-.459-.0406-1.435-.252-2.392-1.6193-2.141-3.0536.777-4.4136.139-8.8826-1.843-12.9276l-.416-.7736c-2.066-3.8441-5.225-6.9041-9.134-8.8478l-.165-.0785c-1.315-.6265-1.873-2.1995-1.247-3.514.626-1.3141 2.2-1.8731 3.514-1.2466l.206.0981c4.933 2.4514 8.885 6.2808 11.472 11.093l.481.8986c2.496 5.0669 3.301 10.6728 2.327 16.2117-.225 1.2803-1.339 2.1809-2.595 2.1809zm-29.945-26.9298c-1.147 0-2.203-.7546-2.534-1.9126-.4-1.4.41-2.8591 1.811-3.2598 2.361-.6744 4.803-1.0167 7.262-1.0167 1.456 0 2.636 1.1807 2.636 2.6366s-1.18 2.6366-2.636 2.6366c-1.968 0-3.923.2736-5.813.8136-.242.0691-.486.1023-.726.1023zm72.433-15.8626c-.138 0-.276-.0111-.416-.0332-1.438-.2278-2.419-1.5788-2.191-3.0168.173-1.0952.261-2.221.261-3.3458 0-5.6354-2.195-10.9328-6.181-14.9171-1.524-1.5234-3.248-2.7964-5.128-3.784-1.289-.6771-1.785-2.2712-1.108-3.5604.677-1.2893 2.273-1.785 3.56-1.1079 2.351 1.2349 4.505 2.8237 6.405 4.7231 4.981 4.98 7.725 11.6019 7.725 18.6458 0 1.4005-.11 2.8037-.327 4.171-.205 1.2988-1.326 2.2253-2.6 2.2253zm-20.301-27.2895c-.114 0-.23-.0074-.346-.0227-.922-.1212-1.863-.1824-2.801-.1824-1.457 0-2.637-1.1807-2.637-2.6366s1.18-2.6365 2.637-2.6365c1.166 0 2.34.0764 3.487.2272 1.444.1899 2.461 1.5145 2.271 2.9577-.175 1.3273-1.307 2.2933-2.611 2.2933z" fill="#fff"/><g fill="#333"><path d="m162.607 74.2456c-.675 0-1.35-.2573-1.864-.7725l-15.919-15.9243c-1.03-1.0298-1.03-2.6993 0-3.7286 1.029-1.0293 2.7-1.0293 3.728 0l15.92 15.9253c1.029 1.0299 1.029 2.6993-.001 3.7287-.514.5141-1.189.7714-1.864.7714z"/><path d="m120.375 145.934c-.674 0-1.35-.258-1.864-.773l-44.2101-44.215c-1.0293-1.0298-1.0293-2.6993.0006-3.7286 1.0298-1.0293 2.6988-1.0298 3.7286 0l44.2099 44.2156c1.029 1.029 1.029 2.698-.001 3.728-.514.515-1.189.773-1.864.773z"/><path d="m157.809 108.5c-.674 0-1.349-.258-1.864-.772l-44.215-44.2101c-1.03-1.0298-1.03-2.6993 0-3.7286 1.028-1.0293 2.699-1.0293 3.728 0l44.215 44.2097c1.03 1.03 1.03 2.699.001 3.729-.515.514-1.19.772-1.865.772z"/><path d="m145.544 120.765c-.674 0-1.349-.257-1.864-.772l-44.2157-44.2098c-1.0299-1.0293-1.0299-2.6988-.0005-3.7286 1.0302-1.0298 2.6992-1.0304 3.7282 0l44.216 44.2094c1.03 1.03 1.03 2.699.001 3.729-.516.515-1.191.772-1.865.772z"/><path d="m177.841 55.1526c-3.327 0-6.655-1.2666-9.188-3.8003-5.066-5.0664-5.066-13.311-.001-18.3779 5.067-5.0659 13.311-5.0669 18.378 0s5.067 13.311 0 18.3779c-2.533 2.5337-5.86 3.8003-9.189 3.8003zm.001-20.707c-1.978 0-3.955.7525-5.46 2.258-3.011 3.0104-3.011 7.9096 0 10.9201 3.012 3.0115 7.909 3.0104 10.92 0 3.011-3.0105 3.011-7.9097 0-10.9201-1.505-1.505-3.483-2.258-5.46-2.258z"/><path d="m81.5758 94.7422c-.6744 0-1.3499-.2573-1.864-.772l-10.9307-10.9301c-1.033-1.0261-1.0388-2.6956-.0127-3.7286 1.0267-1.0335 2.6957-1.0383 3.7287-.0132l.0743.0738 10.8684 10.869c1.0299 1.0298 1.0299 2.6993 0 3.7286-.5146.5152-1.1896.7725-1.864.7725z"/><path d="m92.1062 84.2118c-.6744 0-1.3499-.2573-1.8641-.772l-10.9396-10.9401c-1.0277-1.0315-1.0246-2.7009.0069-3.7287 1.0314-1.0277 2.7003-1.0251 3.7286.0064l.0738.0738 10.859 10.8595c1.0298 1.0298 1.0298 2.6993 0 3.7286-.5152.5152-1.1902.7725-1.8646.7725z"/><path d="m138.378 151.544c-.675 0-1.35-.257-1.864-.772l-10.63-10.625c-1.03-1.029-1.03-2.699-.001-3.729 1.03-1.03 2.699-1.03 3.729 0l10.63 10.625c1.029 1.029 1.03 2.699 0 3.729-.515.515-1.189.772-1.864.772z"/><path d="m148.908 141.014c-.674 0-1.349-.257-1.863-.772l-10.631-10.625c-1.03-1.029-1.03-2.699-.001-3.729 1.029-1.029 2.699-1.03 3.728-.001l10.631 10.626c1.03 1.029 1.03 2.699.001 3.728-.515.515-1.19.773-1.865.773z"/><path d="m62.0604 92.5275c-.6744 0-1.3499-.2573-1.864-.772l-59.42288-59.4228c-.495147-.4946-.77251292-1.1654-.77251292-1.8646s.27736592-1.3699.77251292-1.8646l27.83158-27.831515c1.0288-1.029313 2.6993-1.029313 3.7281 0l59.4228 59.422815c1.0293 1.0293 1.0298 2.6983.0005 3.7281l-19.1789 19.1842s0 0-.0005.0005l-8.6532 8.6479c-.5141.5147-1.1885.772-1.8635.772zm-55.69421-62.0594 55.69471 55.6947 24.1029-24.1029-55.6947-55.69471zm64.34791 50.7749h.0053z"/><path d="m189.532 220c-.674 0-1.349-.257-1.864-.772l-59.418-59.418c-1.029-1.029-1.03-2.698 0-3.728l27.827-27.832c1.028-1.029 2.699-1.029 3.728 0l44.753 44.753 14.669 14.67c.495.495.773 1.165.773 1.865 0 .699-.278 1.37-.773 1.864l-27.831 27.827c-.514.514-1.189.771-1.864.771zm-55.689-62.055 55.689 55.69 24.103-24.098-55.694-55.694z"/><path d="m17.6813 47.3948c-.6744 0-1.3499-.2573-1.864-.772-1.0299-1.0298-1.0299-2.6993 0-3.7286l27.0775-27.0775c1.0287-1.0293 2.6993-1.0293 3.7281 0 1.0298 1.0299 1.0298 2.6993 0 3.7287l-27.0775 27.0774c-.5142.5142-1.1891.772-1.8641.772z"/><path d="m32.7261 62.439c-.6744 0-1.3499-.2573-1.8641-.7719-1.0298-1.0299-1.0298-2.6994 0-3.7287l27.0775-27.0775c1.0288-1.0293 2.6993-1.0293 3.7281 0 1.0299 1.0299 1.0299 2.6994 0 3.7287l-27.0775 27.0775c-.5146.5146-1.1896.7719-1.864.7719z"/><path d="m47.7692 77.4833c-.6744 0-1.3499-.2574-1.864-.772-1.0299-1.0299-1.0299-2.6993 0-3.7286l27.078-27.0775c1.0288-1.0293 2.6993-1.0293 3.7281 0 1.0298 1.0298 1.0298 2.6993 0 3.7286l-27.078 27.0775c-.5142.5146-1.1891.772-1.8641.772z"/><path d="m145.159 174.873c-.675 0-1.35-.258-1.865-.772-1.029-1.03-1.029-2.7 0-3.729l27.078-27.077c1.029-1.03 2.699-1.03 3.728 0 1.03 1.029 1.03 2.699 0 3.728l-27.077 27.078c-.515.514-1.19.772-1.864.772z"/><path d="m160.198 189.917c-.674 0-1.35-.257-1.865-.773-1.029-1.029-1.029-2.699.001-3.728l27.082-27.078c1.03-1.029 2.699-1.03 3.729 0 1.029 1.03 1.029 2.7-.001 3.729l-27.082 27.077c-.515.516-1.19.773-1.864.773z"/><path d="m175.242 204.961c-.675 0-1.35-.257-1.864-.772-1.03-1.029-1.03-2.699-.001-3.729l27.078-27.082c1.03-1.03 2.699-1.031 3.729 0 1.03 1.029 1.03 2.698 0 3.728l-27.078 27.083c-.514.515-1.19.772-1.864.772z"/></g></g></svg>