<svg enable-background="new 0 0 512 512" viewBox="0 0 512 512" xmlns="http://www.w3.org/2000/svg"><path d="m123.647 349.424v16.34c0 14.979 14.706 27.234 32.681 27.234h199.344c17.974 0 32.681-12.255 32.681-27.234v-16.34z" fill="#48449e"/><path d="m350.882 193.282c-4.302-11.184-17.626-20.335-29.609-20.335h-130.546c-11.983 0-25.307 9.151-29.609 20.335l-24.859 64.635 119.741 21.787 119.742-21.787z" fill="#ffd83d"/><path d="m371.929 254.302h-239.483c-49.972 11.362-93.868 29.611-128.088 52.72l245.651 64.19 250.008-64.19c-34.22-23.109-78.116-41.358-128.088-52.72z" fill="#48449e"/><path d="m4.357 307.369c31.312 21.145 70.722 38.222 115.477 49.679h264.706c44.754-11.457 84.165-28.536 115.477-49.679z" fill="#495dd9"/><path d="m69.298 306.552c0 4.513 3.658 8.17 8.17 8.17h357.063c4.512 0 8.17-3.657 8.17-8.17s-3.658-8.17-8.17-8.17h-357.063c-4.512 0-8.17 3.658-8.17 8.17z"/><path d="m508.402 299.781c-34.287-23.153-77.985-41.388-126.581-52.9l-23.313-60.616c-5.515-14.339-21.87-25.573-37.234-25.573h-57.104v-37.605c0-4.512-3.658-8.17-8.17-8.17s-8.17 3.658-8.17 8.17v37.605h-57.103c-15.364 0-31.719 11.234-37.234 25.573l-23.313 60.615c-48.595 11.512-92.295 29.748-126.581 52.902-2.25 1.518-3.599 4.055-3.599 6.77s1.349 5.252 3.598 6.771c30.694 20.727 69.28 37.667 111.904 49.197.519 19.134 18.626 34.563 40.826 34.563h199.344c22.2 0 40.307-15.43 40.826-34.563 42.623-11.529 81.21-28.469 111.904-49.197 2.25-1.52 3.598-4.057 3.598-6.771s-1.349-5.252-3.598-6.771zm-339.659-107.651c3.094-8.043 13.366-15.097 21.983-15.097h130.547c8.617 0 18.89 7.056 21.983 15.097l20.589 53.532h-215.691zm218.576 155.932h-198.31c-4.512 0-8.17 3.657-8.17 8.17s3.658 8.17 8.17 8.17h190.908c-1.758 9.099-12.145 16.34-24.245 16.34h-199.344c-12.1 0-22.487-7.241-24.245-16.34h24.245c4.512 0 8.17-3.657 8.17-8.17s-3.658-8.17-8.17-8.17h-31.647c-38.047-9.83-72.802-24.08-101.386-41.51 31.722-19.356 70.797-34.662 113.885-44.549h237.64c43.089 9.886 82.163 25.194 113.885 44.549-28.584 17.428-63.339 31.678-101.386 41.51z"/></svg>