<svg enable-background="new 0 0 434 434" viewBox="0 0 434 434" xmlns="http://www.w3.org/2000/svg"><g fill="#fcbc1d"><path d="m325.919 335.015 11.75 32.01-241.57-.27 11.82-31.99z"/><path d="m86.749 301.195c4.69 0 8.5 3.8 8.5 8.5 0 4.69-3.81 8.5-8.5 8.5-4.7 0-8.5-3.81-8.5-8.5 0-4.7 3.8-8.5 8.5-8.5z"/><path d="m151.869 301.195c4.7 0 8.5 3.8 8.5 8.5 0 4.69-3.8 8.5-8.5 8.5-4.69 0-8.5-3.81-8.5-8.5 0-4.7 3.81-8.5 8.5-8.5z"/><path d="m216.999 301.195c4.69 0 8.5 3.8 8.5 8.5 0 4.69-3.81 8.5-8.5 8.5-4.7 0-8.5-3.81-8.5-8.5 0-4.7 3.8-8.5 8.5-8.5z"/><path d="m282.119 301.195c4.7 0 8.5 3.8 8.5 8.5 0 4.69-3.8 8.5-8.5 8.5-4.69 0-8.5-3.81-8.5-8.5 0-4.7 3.81-8.5 8.5-8.5z"/><path d="m347.249 301.195c4.69 0 8.5 3.8 8.5 8.5 0 4.69-3.81 8.5-8.5 8.5-4.7 0-8.5-3.81-8.5-8.5 0-4.7 3.8-8.5 8.5-8.5z"/><path d="m28.429 257.175 377.09.43 9.99.01c7.46.01 13.5 6.06 13.49 13.52-.01 7.44-6.05 13.48-13.5 13.48-.01 0-.01 0-.02 0l-9.93-.01-377.14-.43-9.93-.01c-7.45-.01-13.49-6.06-13.48-13.51s6.05-13.49 13.49-13.49h.02z"/></g><path d="m28.409 284.395-9.93-.01c-7.45-.01-13.49-6.06-13.48-13.51s6.05-13.49 13.49-13.49h.02l9.92.01 68.85.03c-7.01.47-12.56 6.31-12.57 13.45-.01 7.45 6.03 13.5 13.48 13.51l9.93.01" opacity=".25"/><path d="m28.409 284.175 377.14.43c-6.22 28.86-31.91 50.46-62.63 50.43l-17-.02-218-.25-17-.02c-17.68-.02-33.67-7.2-45.23-18.79-8.54-8.56-14.66-19.52-17.28-31.78zm327.34 25.52c0-4.7-3.81-8.5-8.5-8.5-4.7 0-8.5 3.8-8.5 8.5 0 4.69 3.8 8.5 8.5 8.5 4.69 0 8.5-3.81 8.5-8.5zm-65.13 0c0-4.7-3.8-8.5-8.5-8.5-4.69 0-8.5 3.8-8.5 8.5 0 4.69 3.81 8.5 8.5 8.5 4.7 0 8.5-3.81 8.5-8.5zm-65.12 0c0-4.7-3.81-8.5-8.5-8.5-4.7 0-8.5 3.8-8.5 8.5 0 4.69 3.8 8.5 8.5 8.5 4.69 0 8.5-3.81 8.5-8.5zm-65.13 0c0-4.7-3.8-8.5-8.5-8.5-4.69 0-8.5 3.8-8.5 8.5 0 4.69 3.81 8.5 8.5 8.5 4.7 0 8.5-3.81 8.5-8.5zm-65.12 0c0-4.7-3.81-8.5-8.5-8.5-4.7 0-8.5 3.8-8.5 8.5 0 4.69 3.8 8.5 8.5 8.5 4.69 0 8.5-3.81 8.5-8.5z" fill="#f73e3e"/><path d="m405.519 257.395v.21l-377.09-.43c6.27-28.76 31.88-50.28 62.52-50.28h252c17.68 0 33.68 7.16 45.26 18.74 8.55 8.55 14.68 19.5 17.31 31.76z" fill="#f73e3e"/><path d="m378.876 245.575c-1.422 0-2.832-.602-3.821-1.772-.76-.898-1.568-1.777-2.401-2.611-7.93-7.93-18.479-12.296-29.704-12.296-2.762 0-5-2.239-5-5s2.238-5 5-5c13.896 0 26.957 5.407 36.774 15.225 1.03 1.03 2.029 2.116 2.968 3.227 1.783 2.109 1.519 5.264-.591 7.046-.938.793-2.085 1.181-3.225 1.181z" fill="#fff"/><g opacity=".25"><path d="m96.119 366.755 11.82-31.99 42.38.05-11.8 31.94"/><path d="m150.339 334.765-17-.02c-17.68-.02-33.67-7.2-45.23-18.79-8.53-8.55-14.64-19.49-17.27-31.73l-42.41-.05c2.62 12.26 8.74 23.22 17.28 31.78 11.56 11.59 27.55 18.77 45.23 18.79l17 .02 42.38.05"/><path d="m28.449 257.175c6.27-28.76 31.88-50.28 62.52-50.28h42.4c-30.64 0-56.25 21.52-62.52 50.28"/></g><path d="m345.949 195.975v10.92h-3-252-3v-10.92c0-71.25 57.76-129 129-129s129 57.75 129 129z" fill="#61ccf2"/><path d="m242.449 69.495c-59.03 11.83-103.5 63.96-103.5 126.48v10.92h-51v-10.92c0-71.25 57.76-129 129-129 8.73 0 17.26.87 25.5 2.52z" opacity=".25"/><path d="m342.981 340.035c-.023 0-.043 0-.066 0l-17.001-.02c-2.762-.003-4.997-2.245-4.994-5.006.003-2.759 2.241-4.994 5-4.994h.006l17 .02h.057c27.621 0 51.873-19.541 57.68-46.483.581-2.7 3.235-4.417 5.941-3.834 2.699.582 4.416 3.242 3.834 5.941-6.793 31.516-35.158 54.376-67.457 54.376z" fill="#333"/><path d="m107.919 339.765c-.002 0-.004 0-.006 0l-17-.02c-18.437-.021-35.755-7.216-48.764-20.259-9.413-9.435-15.855-21.284-18.63-34.266-.577-2.7 1.144-5.357 3.845-5.935 2.697-.578 5.357 1.145 5.935 3.845 2.371 11.094 7.879 21.224 15.93 29.293 11.123 11.152 25.931 17.303 41.696 17.321l17 .02c2.761.003 4.998 2.245 4.994 5.006-.003 2.761-2.241 4.995-5 4.995z" fill="#333"/><path d="m405.514 262.396c-2.307 0-4.381-1.605-4.884-3.952-2.379-11.091-7.896-21.213-15.956-29.273-11.141-11.141-25.959-17.276-41.725-17.276-2.762 0-5-2.239-5-5s2.238-5 5-5c18.437 0 35.766 7.175 48.795 20.205 9.426 9.425 15.879 21.268 18.663 34.247.579 2.7-1.14 5.358-3.84 5.938-.353.075-.705.111-1.053.111z" fill="#333"/><path d="m28.382 262.397c-.456 0-.92-.063-1.38-.195-2.581-.74-4.104-3.378-3.486-5.964.014-.067.029-.133.044-.198 6.875-31.378 35.205-54.145 67.39-54.145 2.761 0 5 2.239 5 5s-2.239 5-5 5c-27.542 0-51.78 19.491-57.635 46.345-.006.03-.013.06-.021.089-.032.155-.068.303-.108.443-.629 2.196-2.63 3.625-4.804 3.625z" fill="#333"/><path d="m347.668 262.52c-.001 0-.001 0-.002 0l-38-.013c-2.761-.001-4.999-2.24-4.998-5.001s2.239-4.999 5-4.999h.002l38 .013c2.761.001 4.999 2.24 4.998 5.001-.001 2.762-2.239 4.999-5 4.999z" fill="#333"/><path d="m415.5 289.616-397.025-.45c-4.94-.006-9.582-1.936-13.071-5.433-3.491-3.498-5.41-8.145-5.404-13.083.014-10.192 8.309-18.484 18.49-18.484l270.466.307c2.762.003 4.997 2.244 4.994 5.006-.003 2.759-2.241 4.994-5 4.994-.002 0-.004 0-.006 0l-270.44-.307c-4.69 0-8.499 3.812-8.505 8.497-.003 2.266.878 4.399 2.482 6.006s3.736 2.494 6.005 2.497l396.998.45c4.696 0 8.51-3.807 8.516-8.486.003-2.272-.879-4.408-2.483-6.016s-3.74-2.495-6.014-2.498l-45.559-.051c-2.762-.003-4.997-2.244-4.994-5.006.003-2.759 2.241-4.994 5-4.994h.006l45.559.051c4.945.006 9.59 1.937 13.08 5.434 3.492 3.499 5.412 8.149 5.405 13.092-.014 10.186-8.313 18.474-18.5 18.474z" fill="#333"/><path d="m345.95 211.895h-258c-2.761 0-5-2.239-5-5v-10.92c0-73.888 60.112-134 134-134 19.958 0 39.164 4.284 57.083 12.733 2.497 1.178 3.567 4.157 2.39 6.655-1.178 2.498-4.157 3.566-6.655 2.39-16.574-7.815-34.344-11.778-52.817-11.778-68.374 0-124 55.626-124 124v5.92h248.001v-5.92c0-34.306-14.409-67.396-39.533-90.783-2.021-1.881-2.134-5.045-.253-7.066 1.883-2.021 5.045-2.135 7.067-.253 27.148 25.272 42.719 61.029 42.719 98.102v10.92c-.002 2.762-2.241 5-5.002 5z" fill="#333"/><path d="m328.949 196.434c-2.518 0-4.684-1.896-4.964-4.456l-.169-1.539c-.02-.185-.029-.369-.029-.55 0-2.518 1.896-4.684 4.456-4.964 2.742-.309 5.214 1.681 5.515 4.426l.168 1.539c.021.185.03.369.03.551 0 2.517-1.896 4.684-4.456 4.964-.186.02-.37.029-.551.029z" fill="#fff"/><path d="m337.669 372.025c-.002 0-.004 0-.006 0l-18.721-.021c-2.761-.003-4.997-2.244-4.994-5.005.003-2.76 2.241-4.995 5-4.995h.006l11.551.013-8.078-22.006-211.026-.242-8.126 21.993 194.68.203c2.762.003 4.998 2.244 4.995 5.005-.003 2.759-2.241 4.995-5 4.995-.002 0-.003 0-.005 0l-201.851-.21c-1.635-.001-3.165-.802-4.099-2.144s-1.153-3.056-.586-4.589l11.82-31.99c.726-1.965 2.601-3.247 4.696-3.267l218 .25c2.095.002 3.966 1.311 4.688 3.277l11.75 32.01c.563 1.535.341 3.248-.596 4.588-.934 1.338-2.465 2.135-4.098 2.135z" fill="#333"/><path d="m86.749 323.196c-7.444 0-13.5-6.056-13.5-13.5s6.056-13.5 13.5-13.5 13.5 6.056 13.5 13.5-6.056 13.5-13.5 13.5zm0-17c-1.93 0-3.5 1.57-3.5 3.5s1.57 3.5 3.5 3.5 3.5-1.57 3.5-3.5-1.57-3.5-3.5-3.5z" fill="#333"/><path d="m282.12 323.196c-7.444 0-13.5-6.056-13.5-13.5s6.056-13.5 13.5-13.5 13.5 6.056 13.5 13.5-6.056 13.5-13.5 13.5zm0-17c-1.93 0-3.5 1.57-3.5 3.5s1.57 3.5 3.5 3.5 3.5-1.57 3.5-3.5-1.571-3.5-3.5-3.5z" fill="#333"/><path d="m151.869 323.196c-7.444 0-13.5-6.056-13.5-13.5s6.056-13.5 13.5-13.5 13.5 6.056 13.5 13.5-6.056 13.5-13.5 13.5zm0-17c-1.93 0-3.5 1.57-3.5 3.5s1.57 3.5 3.5 3.5 3.5-1.57 3.5-3.5-1.57-3.5-3.5-3.5z" fill="#333"/><path d="m347.25 323.196c-7.444 0-13.5-6.056-13.5-13.5s6.056-13.5 13.5-13.5 13.5 6.056 13.5 13.5-6.056 13.5-13.5 13.5zm0-17c-1.93 0-3.5 1.57-3.5 3.5s1.57 3.5 3.5 3.5 3.5-1.57 3.5-3.5-1.571-3.5-3.5-3.5z" fill="#333"/><path d="m216.999 323.196c-7.444 0-13.5-6.056-13.5-13.5s6.056-13.5 13.5-13.5 13.5 6.056 13.5 13.5-6.056 13.5-13.5 13.5zm0-17c-1.93 0-3.5 1.57-3.5 3.5s1.57 3.5 3.5 3.5 3.5-1.57 3.5-3.5-1.57-3.5-3.5-3.5z" fill="#333"/><path d="m326.353 176.963c-2.298 0-4.366-1.593-4.879-3.93-8.1-36.934-35.508-67.149-71.528-78.854-2.627-.854-4.063-3.674-3.21-6.301.854-2.626 3.676-4.062 6.3-3.21 39.383 12.797 69.35 45.836 78.206 86.223.592 2.697-1.115 5.363-3.813 5.955-.361.079-.721.117-1.076.117z" fill="#fff"/><path d="m233.498 90.195c-.244 0-.492-.018-.741-.055-5.197-.773-10.516-1.165-15.807-1.165-2.761 0-5-2.239-5-5s2.239-5 5-5c5.783 0 11.595.428 17.278 1.273 2.731.406 4.616 2.95 4.21 5.681-.37 2.482-2.504 4.266-4.94 4.266z" fill="#fff"/></svg>